G04 EAGLE Gerber RS-274X export*
G75*
%MOMM*%
%FSLAX34Y34*%
%LPD*%
%INTop Copper*%
%IPPOS*%
%AMOC8*
5,1,8,0,0,1.08239X$1,22.5*%
G01*
G04 Define Apertures*
%ADD10R,1.500000X0.500000*%
%ADD11R,0.500000X1.500000*%
%ADD12R,1.031200X1.420200*%
%ADD13R,1.465300X1.164600*%
%ADD14R,1.164600X1.465300*%
%ADD15R,1.420200X1.031200*%
%ADD16R,1.900000X1.100000*%
%ADD17C,0.450000*%
%ADD18C,0.254000*%
%ADD19C,1.879600*%
%ADD20R,7.620000X1.270000*%
%ADD21C,1.950000*%
%ADD22C,2.250000*%
%ADD23R,1.100000X2.380000*%
%ADD24R,2.330000X2.380000*%
%ADD25R,3.370200X1.231200*%
%ADD26R,1.200000X0.460000*%
%ADD27R,1.200000X0.560000*%
%ADD28R,1.200000X0.660000*%
%ADD29C,1.800000*%
%ADD30R,2.032000X0.660400*%
%ADD31C,0.756400*%
%ADD32C,2.540000*%
%ADD33C,1.270000*%
%ADD34C,5.516000*%
%ADD35C,10.000000*%
%ADD36C,4.316000*%
G36*
X351730Y-91193D02*
X351236Y-91301D01*
X350739Y-91209D01*
X350318Y-90930D01*
X347082Y-87694D01*
X346811Y-87291D01*
X346710Y-86796D01*
X346710Y-78304D01*
X346803Y-77828D01*
X347082Y-77406D01*
X356806Y-67682D01*
X357209Y-67411D01*
X357704Y-67310D01*
X407978Y-67310D01*
X422910Y-52378D01*
X422910Y-36522D01*
X395278Y-8890D01*
X332304Y-8890D01*
X331828Y-8797D01*
X331406Y-8518D01*
X308982Y13906D01*
X308711Y14309D01*
X308610Y14804D01*
X308610Y103178D01*
X270818Y140970D01*
X182444Y140970D01*
X181968Y141063D01*
X181546Y141342D01*
X169282Y153606D01*
X169011Y154009D01*
X168910Y154504D01*
X168910Y192078D01*
X153978Y207010D01*
X145161Y207010D01*
X144703Y207095D01*
X144277Y207368D01*
X143992Y207785D01*
X143891Y208280D01*
X143891Y210820D01*
X143976Y211278D01*
X144249Y211704D01*
X144666Y211989D01*
X145161Y212090D01*
X179378Y212090D01*
X194310Y227022D01*
X194310Y244148D01*
X177685Y260773D01*
X177418Y261166D01*
X177313Y261661D01*
X177410Y262157D01*
X178308Y264325D01*
X178308Y269075D01*
X176491Y273462D01*
X173132Y276821D01*
X168625Y278688D01*
X168481Y278713D01*
X168049Y278975D01*
X167753Y279385D01*
X167640Y279878D01*
X167729Y280375D01*
X168005Y280799D01*
X168424Y281081D01*
X170592Y281979D01*
X173951Y285338D01*
X175768Y289725D01*
X175768Y294475D01*
X173951Y298862D01*
X170592Y302221D01*
X166205Y304038D01*
X161455Y304038D01*
X157068Y302221D01*
X153709Y298862D01*
X152303Y295468D01*
X152063Y295092D01*
X151653Y294796D01*
X151160Y294684D01*
X150663Y294773D01*
X150239Y295049D01*
X149957Y295468D01*
X148551Y298862D01*
X145192Y302221D01*
X140805Y304038D01*
X136055Y304038D01*
X131668Y302221D01*
X128309Y298862D01*
X126492Y294475D01*
X126492Y289725D01*
X128327Y285295D01*
X128524Y285012D01*
X128640Y284520D01*
X128556Y284022D01*
X128283Y283596D01*
X127866Y283311D01*
X127371Y283210D01*
X97960Y283210D01*
X97484Y283303D01*
X97062Y283582D01*
X97053Y283591D01*
X80747Y283591D01*
X79259Y282103D01*
X79259Y280975D01*
X79174Y280517D01*
X78901Y280091D01*
X78484Y279806D01*
X77989Y279705D01*
X59559Y279705D01*
X59120Y279783D01*
X58690Y280049D01*
X58398Y280461D01*
X58289Y280955D01*
X58382Y281452D01*
X58661Y281873D01*
X67310Y290522D01*
X67310Y311813D01*
X67395Y312271D01*
X67668Y312697D01*
X68085Y312982D01*
X68580Y313083D01*
X84579Y313083D01*
X86067Y314571D01*
X86067Y316366D01*
X86152Y316824D01*
X86424Y317250D01*
X86841Y317535D01*
X87337Y317636D01*
X94008Y317636D01*
X94466Y317551D01*
X94892Y317278D01*
X95177Y316861D01*
X95278Y316366D01*
X95278Y316242D01*
X96240Y313919D01*
X98019Y312140D01*
X100342Y311178D01*
X102858Y311178D01*
X105181Y312140D01*
X106960Y313919D01*
X107922Y316242D01*
X107922Y318758D01*
X106960Y321081D01*
X105181Y322860D01*
X102858Y323822D01*
X101192Y323822D01*
X100716Y323915D01*
X100294Y324194D01*
X99232Y325256D01*
X87337Y325256D01*
X86879Y325341D01*
X86453Y325614D01*
X86167Y326031D01*
X86067Y326526D01*
X86067Y328321D01*
X85086Y329302D01*
X84822Y329686D01*
X84714Y330180D01*
X84807Y330677D01*
X85086Y331098D01*
X86067Y332079D01*
X86067Y345829D01*
X84579Y347317D01*
X67310Y347317D01*
X66852Y347402D01*
X66426Y347675D01*
X66141Y348092D01*
X66040Y348587D01*
X66040Y388620D01*
X66125Y389078D01*
X66398Y389504D01*
X66815Y389789D01*
X67310Y389890D01*
X70739Y389890D01*
X71197Y389805D01*
X71623Y389532D01*
X71908Y389115D01*
X72009Y388620D01*
X72009Y385547D01*
X73497Y384059D01*
X85913Y384059D01*
X87401Y385547D01*
X87401Y401853D01*
X85913Y403341D01*
X73497Y403341D01*
X72009Y401853D01*
X72009Y398780D01*
X71924Y398322D01*
X71651Y397896D01*
X71234Y397611D01*
X70739Y397510D01*
X67310Y397510D01*
X66852Y397595D01*
X66426Y397868D01*
X66141Y398285D01*
X66040Y398780D01*
X66040Y419054D01*
X66010Y419466D01*
X65931Y419825D01*
X65895Y419920D01*
X65813Y420330D01*
X65898Y420828D01*
X66170Y421254D01*
X66587Y421539D01*
X67082Y421640D01*
X70739Y421640D01*
X71197Y421555D01*
X71623Y421282D01*
X71908Y420865D01*
X72009Y420370D01*
X72009Y410947D01*
X73497Y409459D01*
X85913Y409459D01*
X87401Y410947D01*
X87401Y427253D01*
X85913Y428741D01*
X75978Y428741D01*
X75502Y428834D01*
X75080Y429113D01*
X74933Y429260D01*
X57204Y429260D01*
X56728Y429353D01*
X56306Y429632D01*
X54646Y431292D01*
X32222Y431292D01*
X30734Y429804D01*
X30734Y422910D01*
X30649Y422452D01*
X30376Y422026D01*
X29959Y421741D01*
X29464Y421640D01*
X46Y421640D01*
X-366Y421610D01*
X-725Y421531D01*
X-1074Y421399D01*
X-1484Y421317D01*
X-1982Y421402D01*
X-2408Y421674D01*
X-2693Y422091D01*
X-2794Y422586D01*
X-2794Y449095D01*
X-2709Y449553D01*
X-2436Y449979D01*
X-2019Y450264D01*
X-1524Y450365D01*
X53831Y450365D01*
X59433Y452685D01*
X63285Y456537D01*
X63687Y456808D01*
X64183Y456909D01*
X68703Y456909D01*
X70191Y458397D01*
X70191Y472813D01*
X68703Y474301D01*
X64183Y474301D01*
X63706Y474394D01*
X63285Y474673D01*
X59433Y478525D01*
X53831Y480845D01*
X29210Y480845D01*
X28752Y480930D01*
X28326Y481203D01*
X28041Y481620D01*
X27940Y482115D01*
X27940Y605790D01*
X28025Y606248D01*
X28298Y606674D01*
X28715Y606959D01*
X29210Y607060D01*
X76154Y607060D01*
X76566Y607090D01*
X76925Y607169D01*
X77269Y607299D01*
X77590Y607478D01*
X77882Y607701D01*
X78138Y607964D01*
X78354Y608261D01*
X78525Y608586D01*
X78647Y608932D01*
X78719Y609300D01*
X78740Y609639D01*
X78740Y685754D01*
X78710Y686166D01*
X78631Y686525D01*
X78501Y686869D01*
X78322Y687190D01*
X78099Y687482D01*
X77836Y687738D01*
X77539Y687954D01*
X77214Y688125D01*
X76868Y688247D01*
X76500Y688319D01*
X76161Y688340D01*
X29210Y688340D01*
X28752Y688425D01*
X28326Y688698D01*
X28041Y689115D01*
X27940Y689610D01*
X27940Y777731D01*
X25620Y783333D01*
X15612Y793341D01*
X15341Y793743D01*
X15240Y794239D01*
X15240Y893595D01*
X15325Y894053D01*
X15598Y894479D01*
X16015Y894764D01*
X16510Y894865D01*
X41131Y894865D01*
X46733Y897185D01*
X50585Y901037D01*
X50987Y901308D01*
X51483Y901409D01*
X52373Y901409D01*
X52831Y901324D01*
X53257Y901051D01*
X53543Y900634D01*
X53643Y900139D01*
X53643Y877278D01*
X55131Y875790D01*
X62753Y875790D01*
X63211Y875705D01*
X63637Y875432D01*
X63923Y875016D01*
X64023Y874520D01*
X64023Y819588D01*
X84718Y798894D01*
X84989Y798491D01*
X85090Y797996D01*
X85090Y790410D01*
X85005Y789952D01*
X84732Y789526D01*
X84315Y789241D01*
X83820Y789140D01*
X82348Y789140D01*
X81878Y788670D01*
X81494Y788407D01*
X81000Y788298D01*
X80503Y788391D01*
X80082Y788670D01*
X79612Y789140D01*
X54208Y789140D01*
X52720Y787652D01*
X52720Y769834D01*
X52627Y769358D01*
X52348Y768936D01*
X46990Y763578D01*
X46990Y738161D01*
X46905Y737703D01*
X46632Y737277D01*
X46215Y736992D01*
X45720Y736891D01*
X32897Y736891D01*
X31409Y735403D01*
X31409Y720987D01*
X32897Y719499D01*
X68703Y719499D01*
X70191Y720987D01*
X70191Y735403D01*
X68703Y736891D01*
X55880Y736891D01*
X55422Y736976D01*
X54996Y737249D01*
X54711Y737666D01*
X54610Y738161D01*
X54610Y758990D01*
X54695Y759448D01*
X54968Y759874D01*
X55385Y760159D01*
X55880Y760260D01*
X79612Y760260D01*
X80082Y760730D01*
X80466Y760993D01*
X80960Y761102D01*
X81457Y761009D01*
X81878Y760730D01*
X82348Y760260D01*
X95452Y760260D01*
X96940Y761748D01*
X96940Y787652D01*
X95452Y789140D01*
X93980Y789140D01*
X93522Y789225D01*
X93096Y789498D01*
X92811Y789915D01*
X92710Y790410D01*
X92710Y801678D01*
X72015Y822373D01*
X71744Y822776D01*
X71643Y823271D01*
X71643Y874520D01*
X71729Y874978D01*
X72001Y875404D01*
X72418Y875690D01*
X72913Y875790D01*
X80535Y875790D01*
X82023Y877278D01*
X82023Y903182D01*
X80535Y904670D01*
X58761Y904670D01*
X58303Y904756D01*
X57877Y905028D01*
X57592Y905445D01*
X57491Y905940D01*
X57491Y917313D01*
X56003Y918801D01*
X51483Y918801D01*
X51006Y918894D01*
X50585Y919173D01*
X46733Y923025D01*
X41131Y925345D01*
X16510Y925345D01*
X16052Y925430D01*
X15626Y925703D01*
X15341Y926120D01*
X15240Y926615D01*
X15240Y1160295D01*
X15325Y1160753D01*
X15598Y1161179D01*
X16015Y1161464D01*
X16510Y1161565D01*
X41131Y1161565D01*
X46733Y1163885D01*
X50585Y1167737D01*
X50987Y1168008D01*
X51483Y1168109D01*
X56003Y1168109D01*
X57491Y1169597D01*
X57491Y1184013D01*
X56003Y1185501D01*
X51483Y1185501D01*
X51006Y1185594D01*
X50585Y1185873D01*
X46733Y1189725D01*
X41131Y1192045D01*
X16510Y1192045D01*
X16052Y1192130D01*
X15626Y1192403D01*
X15341Y1192820D01*
X15240Y1193315D01*
X15240Y1312695D01*
X15325Y1313153D01*
X15598Y1313579D01*
X16015Y1313864D01*
X16510Y1313965D01*
X41131Y1313965D01*
X46733Y1316285D01*
X50585Y1320137D01*
X50987Y1320408D01*
X51483Y1320509D01*
X56003Y1320509D01*
X57491Y1321997D01*
X57491Y1336413D01*
X56003Y1337901D01*
X51483Y1337901D01*
X51006Y1337994D01*
X50585Y1338273D01*
X46733Y1342125D01*
X41131Y1344445D01*
X22860Y1344445D01*
X22402Y1344530D01*
X21976Y1344803D01*
X21691Y1345220D01*
X21590Y1345715D01*
X21590Y1378629D01*
X21675Y1379087D01*
X21948Y1379513D01*
X22365Y1379798D01*
X22860Y1379899D01*
X56003Y1379899D01*
X57491Y1381387D01*
X57491Y1383515D01*
X57576Y1383973D01*
X57849Y1384399D01*
X58266Y1384684D01*
X58761Y1384785D01*
X69373Y1384785D01*
X71322Y1386734D01*
X71688Y1386989D01*
X72180Y1387105D01*
X72678Y1387020D01*
X73104Y1386748D01*
X73389Y1386331D01*
X73490Y1385836D01*
X73490Y1285710D01*
X73405Y1285252D01*
X73132Y1284826D01*
X72715Y1284541D01*
X72220Y1284440D01*
X70748Y1284440D01*
X70278Y1283970D01*
X69894Y1283707D01*
X69400Y1283598D01*
X68903Y1283691D01*
X68482Y1283970D01*
X68012Y1284440D01*
X42608Y1284440D01*
X41120Y1282952D01*
X41120Y1266234D01*
X41027Y1265758D01*
X40748Y1265336D01*
X34290Y1258878D01*
X34290Y1246161D01*
X34205Y1245703D01*
X33932Y1245277D01*
X33515Y1244992D01*
X33020Y1244891D01*
X20197Y1244891D01*
X18709Y1243403D01*
X18709Y1228987D01*
X20197Y1227499D01*
X56003Y1227499D01*
X57491Y1228987D01*
X57491Y1243403D01*
X56003Y1244891D01*
X43180Y1244891D01*
X42722Y1244976D01*
X42296Y1245249D01*
X42011Y1245666D01*
X41910Y1246161D01*
X41910Y1254290D01*
X41995Y1254748D01*
X42268Y1255174D01*
X42685Y1255459D01*
X43180Y1255560D01*
X68012Y1255560D01*
X68482Y1256030D01*
X68866Y1256293D01*
X69360Y1256402D01*
X69857Y1256309D01*
X70278Y1256030D01*
X70748Y1255560D01*
X83852Y1255560D01*
X85340Y1257048D01*
X85340Y1282952D01*
X83852Y1284440D01*
X82380Y1284440D01*
X81922Y1284525D01*
X81496Y1284798D01*
X81211Y1285215D01*
X81110Y1285710D01*
X81110Y1383296D01*
X81203Y1383772D01*
X81482Y1384194D01*
X102806Y1405518D01*
X103209Y1405789D01*
X103704Y1405890D01*
X145450Y1405890D01*
X145908Y1405805D01*
X146334Y1405532D01*
X146619Y1405115D01*
X146720Y1404620D01*
X146720Y1396448D01*
X148208Y1394960D01*
X173612Y1394960D01*
X175100Y1396448D01*
X175100Y1422352D01*
X173612Y1423840D01*
X148208Y1423840D01*
X146720Y1422352D01*
X146720Y1414780D01*
X146635Y1414322D01*
X146362Y1413896D01*
X145945Y1413611D01*
X145450Y1413510D01*
X101164Y1413510D01*
X100725Y1413588D01*
X100295Y1413854D01*
X100003Y1414266D01*
X99894Y1414760D01*
X99987Y1415257D01*
X100266Y1415678D01*
X122667Y1438079D01*
X122667Y1483380D01*
X122752Y1483837D01*
X123025Y1484263D01*
X123442Y1484549D01*
X123937Y1484650D01*
X131559Y1484650D01*
X132029Y1485120D01*
X132413Y1485383D01*
X132907Y1485491D01*
X133404Y1485399D01*
X133825Y1485120D01*
X134295Y1484650D01*
X147399Y1484650D01*
X148887Y1486138D01*
X148887Y1512042D01*
X147399Y1513530D01*
X145927Y1513530D01*
X145469Y1513615D01*
X145043Y1513887D01*
X144758Y1514304D01*
X144657Y1514800D01*
X144657Y1524431D01*
X98196Y1570892D01*
X97941Y1571258D01*
X97825Y1571750D01*
X97910Y1572248D01*
X98182Y1572674D01*
X98599Y1572959D01*
X99094Y1573060D01*
X105012Y1573060D01*
X106500Y1574548D01*
X106500Y1600452D01*
X105012Y1601940D01*
X79608Y1601940D01*
X78120Y1600452D01*
X78120Y1574548D01*
X79608Y1573060D01*
X87230Y1573060D01*
X87688Y1572975D01*
X88114Y1572702D01*
X88399Y1572285D01*
X88500Y1571790D01*
X88500Y1569812D01*
X136665Y1521647D01*
X136936Y1521244D01*
X137037Y1520749D01*
X137037Y1514800D01*
X136952Y1514342D01*
X136679Y1513916D01*
X136262Y1513630D01*
X135767Y1513530D01*
X134295Y1513530D01*
X133825Y1513060D01*
X133441Y1512796D01*
X132947Y1512688D01*
X132450Y1512781D01*
X132029Y1513060D01*
X131559Y1513530D01*
X106155Y1513530D01*
X104667Y1512042D01*
X104667Y1486138D01*
X106155Y1484650D01*
X113777Y1484650D01*
X114235Y1484564D01*
X114661Y1484292D01*
X114946Y1483875D01*
X115047Y1483380D01*
X115047Y1441761D01*
X114954Y1441285D01*
X114675Y1440863D01*
X66589Y1392777D01*
X66186Y1392506D01*
X65691Y1392405D01*
X58761Y1392405D01*
X58303Y1392490D01*
X57877Y1392763D01*
X57592Y1393180D01*
X57491Y1393675D01*
X57491Y1395803D01*
X56003Y1397291D01*
X22860Y1397291D01*
X22402Y1397376D01*
X21976Y1397649D01*
X21691Y1398066D01*
X21590Y1398561D01*
X21590Y1420839D01*
X21675Y1421297D01*
X21948Y1421723D01*
X22365Y1422008D01*
X22860Y1422109D01*
X56003Y1422109D01*
X57491Y1423597D01*
X57491Y1425725D01*
X57576Y1426183D01*
X57849Y1426609D01*
X58266Y1426894D01*
X58761Y1426995D01*
X60783Y1426995D01*
X80010Y1446222D01*
X80010Y1563678D01*
X67682Y1576006D01*
X67411Y1576409D01*
X67310Y1576904D01*
X67310Y1652578D01*
X58392Y1661496D01*
X58121Y1661899D01*
X58020Y1662394D01*
X58020Y1673390D01*
X58105Y1673848D01*
X58378Y1674274D01*
X58795Y1674559D01*
X59290Y1674660D01*
X66912Y1674660D01*
X67382Y1675130D01*
X67766Y1675393D01*
X68260Y1675502D01*
X68757Y1675409D01*
X69178Y1675130D01*
X69648Y1674660D01*
X82752Y1674660D01*
X84240Y1676148D01*
X84240Y1702052D01*
X82752Y1703540D01*
X81280Y1703540D01*
X80822Y1703625D01*
X80396Y1703898D01*
X80111Y1704315D01*
X80010Y1704810D01*
X80010Y1728778D01*
X51572Y1757216D01*
X51301Y1757619D01*
X51200Y1758114D01*
X51200Y1774990D01*
X51285Y1775448D01*
X51558Y1775874D01*
X51975Y1776159D01*
X52470Y1776260D01*
X60092Y1776260D01*
X61580Y1777748D01*
X61580Y1803652D01*
X60092Y1805140D01*
X34688Y1805140D01*
X33200Y1803652D01*
X33200Y1777748D01*
X34688Y1776260D01*
X42310Y1776260D01*
X42768Y1776175D01*
X43194Y1775902D01*
X43479Y1775485D01*
X43580Y1774990D01*
X43580Y1754432D01*
X72018Y1725994D01*
X72289Y1725591D01*
X72390Y1725096D01*
X72390Y1704810D01*
X72305Y1704352D01*
X72032Y1703926D01*
X71615Y1703641D01*
X71120Y1703540D01*
X69648Y1703540D01*
X69178Y1703070D01*
X68794Y1702807D01*
X68300Y1702698D01*
X67803Y1702791D01*
X67382Y1703070D01*
X66912Y1703540D01*
X41508Y1703540D01*
X40020Y1702052D01*
X40020Y1676148D01*
X41508Y1674660D01*
X49130Y1674660D01*
X49588Y1674575D01*
X50014Y1674302D01*
X50299Y1673885D01*
X50400Y1673390D01*
X50400Y1658712D01*
X59318Y1649794D01*
X59589Y1649391D01*
X59690Y1648896D01*
X59690Y1599870D01*
X59612Y1599431D01*
X59346Y1599001D01*
X58934Y1598709D01*
X58440Y1598600D01*
X57943Y1598693D01*
X57522Y1598972D01*
X56003Y1600491D01*
X43180Y1600491D01*
X42722Y1600576D01*
X42296Y1600849D01*
X42011Y1601266D01*
X41910Y1601761D01*
X41910Y1627178D01*
X772Y1668316D01*
X501Y1668719D01*
X400Y1669214D01*
X400Y1774990D01*
X485Y1775448D01*
X758Y1775874D01*
X1175Y1776159D01*
X1670Y1776260D01*
X9292Y1776260D01*
X10780Y1777748D01*
X10780Y1803652D01*
X9292Y1805140D01*
X-16112Y1805140D01*
X-16582Y1804670D01*
X-16966Y1804407D01*
X-17460Y1804298D01*
X-17957Y1804391D01*
X-18378Y1804670D01*
X-18848Y1805140D01*
X-20320Y1805140D01*
X-20778Y1805225D01*
X-21204Y1805498D01*
X-21489Y1805915D01*
X-21590Y1806410D01*
X-21590Y1839396D01*
X-21497Y1839872D01*
X-21218Y1840294D01*
X20613Y1882125D01*
X20613Y1893716D01*
X20699Y1894174D01*
X20971Y1894600D01*
X21388Y1894886D01*
X21883Y1894986D01*
X29505Y1894986D01*
X30993Y1896474D01*
X30993Y1922378D01*
X29505Y1923866D01*
X4101Y1923866D01*
X2613Y1922378D01*
X2613Y1896474D01*
X4101Y1894986D01*
X11723Y1894986D01*
X12181Y1894901D01*
X12607Y1894628D01*
X12893Y1894212D01*
X12993Y1893716D01*
X12993Y1885808D01*
X12901Y1885331D01*
X12621Y1884910D01*
X-29210Y1843078D01*
X-29210Y1806410D01*
X-29295Y1805952D01*
X-29568Y1805526D01*
X-29985Y1805241D01*
X-30480Y1805140D01*
X-31952Y1805140D01*
X-33440Y1803652D01*
X-33440Y1777748D01*
X-31952Y1776260D01*
X-18848Y1776260D01*
X-18378Y1776730D01*
X-17994Y1776993D01*
X-17500Y1777102D01*
X-17003Y1777009D01*
X-16582Y1776730D01*
X-16112Y1776260D01*
X-8490Y1776260D01*
X-8032Y1776175D01*
X-7606Y1775902D01*
X-7321Y1775485D01*
X-7220Y1774990D01*
X-7220Y1665532D01*
X33918Y1624394D01*
X34189Y1623991D01*
X34290Y1623496D01*
X34290Y1601761D01*
X34205Y1601303D01*
X33932Y1600877D01*
X33515Y1600592D01*
X33020Y1600491D01*
X20197Y1600491D01*
X18709Y1599003D01*
X18709Y1584587D01*
X20197Y1583099D01*
X56003Y1583099D01*
X57522Y1584618D01*
X57888Y1584873D01*
X58380Y1584989D01*
X58878Y1584904D01*
X59304Y1584632D01*
X59589Y1584215D01*
X59690Y1583720D01*
X59690Y1573222D01*
X72018Y1560894D01*
X72289Y1560491D01*
X72390Y1559996D01*
X72390Y1449904D01*
X72297Y1449428D01*
X72018Y1449006D01*
X59659Y1436647D01*
X59293Y1436392D01*
X58801Y1436276D01*
X58303Y1436361D01*
X57877Y1436633D01*
X57592Y1437050D01*
X57491Y1437545D01*
X57491Y1438013D01*
X56003Y1439501D01*
X22860Y1439501D01*
X22402Y1439586D01*
X21976Y1439859D01*
X21691Y1440276D01*
X21590Y1440771D01*
X21590Y1469390D01*
X21675Y1469848D01*
X21948Y1470274D01*
X22365Y1470559D01*
X22860Y1470660D01*
X63454Y1470660D01*
X63866Y1470690D01*
X64225Y1470769D01*
X64569Y1470899D01*
X64890Y1471078D01*
X65182Y1471301D01*
X65438Y1471564D01*
X65654Y1471861D01*
X65825Y1472186D01*
X65947Y1472532D01*
X66019Y1472900D01*
X66040Y1473239D01*
X66040Y1549354D01*
X66010Y1549766D01*
X65931Y1550125D01*
X65801Y1550469D01*
X65622Y1550790D01*
X65399Y1551082D01*
X65136Y1551338D01*
X64839Y1551554D01*
X64514Y1551725D01*
X64168Y1551847D01*
X63800Y1551919D01*
X63461Y1551940D01*
X-50754Y1551940D01*
X-51166Y1551910D01*
X-51525Y1551831D01*
X-51869Y1551701D01*
X-52190Y1551522D01*
X-52482Y1551299D01*
X-52738Y1551036D01*
X-52954Y1550739D01*
X-53125Y1550414D01*
X-53247Y1550068D01*
X-53319Y1549700D01*
X-53340Y1549361D01*
X-53340Y1473246D01*
X-53310Y1472834D01*
X-53231Y1472475D01*
X-53101Y1472131D01*
X-52922Y1471810D01*
X-52699Y1471519D01*
X-52436Y1471262D01*
X-52139Y1471046D01*
X-51814Y1470875D01*
X-51468Y1470753D01*
X-51100Y1470681D01*
X-50761Y1470660D01*
X-10160Y1470660D01*
X-9702Y1470575D01*
X-9276Y1470302D01*
X-8991Y1469885D01*
X-8890Y1469390D01*
X-8890Y1440771D01*
X-8975Y1440313D01*
X-9248Y1439887D01*
X-9665Y1439602D01*
X-10160Y1439501D01*
X-43303Y1439501D01*
X-44791Y1438013D01*
X-44791Y1435885D01*
X-44876Y1435427D01*
X-45149Y1435001D01*
X-45566Y1434716D01*
X-46061Y1434615D01*
X-94773Y1434615D01*
X-115506Y1413882D01*
X-115909Y1413611D01*
X-116404Y1413510D01*
X-127650Y1413510D01*
X-128108Y1413595D01*
X-128534Y1413868D01*
X-128819Y1414285D01*
X-128920Y1414780D01*
X-128920Y1422652D01*
X-130408Y1424140D01*
X-155812Y1424140D01*
X-156282Y1423670D01*
X-156666Y1423407D01*
X-157160Y1423298D01*
X-157657Y1423391D01*
X-158078Y1423670D01*
X-158548Y1424140D01*
X-160020Y1424140D01*
X-160478Y1424225D01*
X-160904Y1424498D01*
X-161189Y1424915D01*
X-161290Y1425410D01*
X-161290Y1432996D01*
X-161197Y1433472D01*
X-160918Y1433894D01*
X-138494Y1456318D01*
X-138091Y1456589D01*
X-137596Y1456690D01*
X-112722Y1456690D01*
X-101200Y1468212D01*
X-101200Y1482890D01*
X-101115Y1483348D01*
X-100842Y1483774D01*
X-100425Y1484059D01*
X-99930Y1484160D01*
X-92308Y1484160D01*
X-90820Y1485648D01*
X-90820Y1511552D01*
X-92308Y1513040D01*
X-117712Y1513040D01*
X-119200Y1511552D01*
X-119200Y1485648D01*
X-117712Y1484160D01*
X-110090Y1484160D01*
X-109632Y1484075D01*
X-109206Y1483802D01*
X-108921Y1483385D01*
X-108820Y1482890D01*
X-108820Y1471894D01*
X-108913Y1471418D01*
X-109192Y1470996D01*
X-115506Y1464682D01*
X-115909Y1464411D01*
X-116404Y1464310D01*
X-141278Y1464310D01*
X-168910Y1436678D01*
X-168910Y1425410D01*
X-168995Y1424952D01*
X-169268Y1424526D01*
X-169685Y1424241D01*
X-170180Y1424140D01*
X-171652Y1424140D01*
X-173140Y1422652D01*
X-173140Y1396748D01*
X-171652Y1395260D01*
X-158548Y1395260D01*
X-158078Y1395730D01*
X-157694Y1395993D01*
X-157200Y1396102D01*
X-156703Y1396009D01*
X-156282Y1395730D01*
X-155812Y1395260D01*
X-130408Y1395260D01*
X-128920Y1396748D01*
X-128920Y1404620D01*
X-128835Y1405078D01*
X-128562Y1405504D01*
X-128145Y1405789D01*
X-127650Y1405890D01*
X-112722Y1405890D01*
X-91989Y1426623D01*
X-91586Y1426894D01*
X-91091Y1426995D01*
X-46061Y1426995D01*
X-45603Y1426910D01*
X-45177Y1426637D01*
X-44892Y1426220D01*
X-44791Y1425725D01*
X-44791Y1423597D01*
X-43303Y1422109D01*
X-10160Y1422109D01*
X-9702Y1422024D01*
X-9276Y1421751D01*
X-8991Y1421334D01*
X-8890Y1420839D01*
X-8890Y1398561D01*
X-8975Y1398103D01*
X-9248Y1397677D01*
X-9665Y1397392D01*
X-10160Y1397291D01*
X-43303Y1397291D01*
X-44791Y1395803D01*
X-44791Y1393675D01*
X-44876Y1393217D01*
X-45149Y1392791D01*
X-45566Y1392506D01*
X-46061Y1392405D01*
X-60783Y1392405D01*
X-80010Y1373178D01*
X-80010Y1286657D01*
X-73105Y1279752D01*
X-72833Y1279350D01*
X-72733Y1278854D01*
X-72733Y1257626D01*
X-71245Y1256138D01*
X-45841Y1256138D01*
X-45371Y1256608D01*
X-44987Y1256872D01*
X-44493Y1256980D01*
X-43996Y1256887D01*
X-43575Y1256608D01*
X-43105Y1256138D01*
X-41633Y1256138D01*
X-41175Y1256053D01*
X-40749Y1255781D01*
X-40463Y1255364D01*
X-40363Y1254868D01*
X-40363Y1235551D01*
X-40456Y1235075D01*
X-40735Y1234653D01*
X-45320Y1230068D01*
X-45320Y1158710D01*
X-45405Y1158252D01*
X-45678Y1157826D01*
X-46095Y1157541D01*
X-46590Y1157440D01*
X-54212Y1157440D01*
X-55700Y1155952D01*
X-55700Y1130048D01*
X-54212Y1128560D01*
X-28808Y1128560D01*
X-27320Y1130048D01*
X-27320Y1155952D01*
X-28808Y1157440D01*
X-36430Y1157440D01*
X-36888Y1157525D01*
X-37314Y1157798D01*
X-37599Y1158215D01*
X-37700Y1158710D01*
X-37700Y1226386D01*
X-37607Y1226862D01*
X-37328Y1227284D01*
X-32743Y1231869D01*
X-32743Y1254868D01*
X-32658Y1255326D01*
X-32385Y1255752D01*
X-31968Y1256038D01*
X-31473Y1256138D01*
X-30001Y1256138D01*
X-28513Y1257626D01*
X-28513Y1283530D01*
X-30001Y1285018D01*
X-43105Y1285018D01*
X-43575Y1284549D01*
X-43959Y1284285D01*
X-44453Y1284177D01*
X-44950Y1284269D01*
X-45371Y1284549D01*
X-45841Y1285018D01*
X-67069Y1285018D01*
X-67545Y1285111D01*
X-67967Y1285390D01*
X-72018Y1289442D01*
X-72289Y1289844D01*
X-72390Y1290340D01*
X-72390Y1369496D01*
X-72297Y1369972D01*
X-72018Y1370394D01*
X-57999Y1384413D01*
X-57596Y1384684D01*
X-57101Y1384785D01*
X-46061Y1384785D01*
X-45603Y1384700D01*
X-45177Y1384427D01*
X-44892Y1384010D01*
X-44791Y1383515D01*
X-44791Y1381387D01*
X-43303Y1379899D01*
X-10160Y1379899D01*
X-9702Y1379814D01*
X-9276Y1379541D01*
X-8991Y1379124D01*
X-8890Y1378629D01*
X-8890Y1345715D01*
X-8975Y1345257D01*
X-9248Y1344831D01*
X-9665Y1344546D01*
X-10160Y1344445D01*
X-28431Y1344445D01*
X-34033Y1342125D01*
X-37885Y1338273D01*
X-38287Y1338002D01*
X-38783Y1337901D01*
X-43303Y1337901D01*
X-44791Y1336413D01*
X-44791Y1321997D01*
X-43303Y1320509D01*
X-38783Y1320509D01*
X-38306Y1320416D01*
X-37885Y1320137D01*
X-34033Y1316285D01*
X-28431Y1313965D01*
X-16510Y1313965D01*
X-16052Y1313880D01*
X-15626Y1313607D01*
X-15341Y1313190D01*
X-15240Y1312695D01*
X-15240Y784369D01*
X-12920Y778767D01*
X-2912Y768759D01*
X-2641Y768357D01*
X-2540Y767861D01*
X-2540Y689610D01*
X-2625Y689152D01*
X-2898Y688726D01*
X-3315Y688441D01*
X-3810Y688340D01*
X-50754Y688340D01*
X-51166Y688310D01*
X-51525Y688231D01*
X-51869Y688101D01*
X-52190Y687922D01*
X-52482Y687699D01*
X-52738Y687436D01*
X-52954Y687139D01*
X-53125Y686814D01*
X-53247Y686468D01*
X-53319Y686100D01*
X-53340Y685761D01*
X-53340Y609646D01*
X-53310Y609234D01*
X-53231Y608875D01*
X-53101Y608531D01*
X-52922Y608210D01*
X-52699Y607919D01*
X-52436Y607662D01*
X-52139Y607446D01*
X-51814Y607275D01*
X-51468Y607153D01*
X-51100Y607081D01*
X-50761Y607060D01*
X-3810Y607060D01*
X-3352Y606975D01*
X-2926Y606702D01*
X-2641Y606285D01*
X-2540Y605790D01*
X-2540Y482115D01*
X-2625Y481657D01*
X-2898Y481231D01*
X-3315Y480946D01*
X-3810Y480845D01*
X-28431Y480845D01*
X-34033Y478525D01*
X-37885Y474673D01*
X-38287Y474402D01*
X-38783Y474301D01*
X-43303Y474301D01*
X-44791Y472813D01*
X-44791Y458397D01*
X-43303Y456909D01*
X-38783Y456909D01*
X-38306Y456816D01*
X-37885Y456537D01*
X-34015Y452667D01*
X-33660Y452435D01*
X-33375Y452018D01*
X-33274Y451522D01*
X-33274Y384319D01*
X-30954Y378717D01*
X-26667Y374430D01*
X-21065Y372110D01*
X-15003Y372110D01*
X-9401Y374430D01*
X-5114Y378717D01*
X-4983Y379033D01*
X-4750Y379401D01*
X-4342Y379700D01*
X-3850Y379816D01*
X-3352Y379732D01*
X-2926Y379459D01*
X-2641Y379042D01*
X-2540Y378547D01*
X-2540Y351010D01*
X-2625Y350552D01*
X-2898Y350126D01*
X-3315Y349841D01*
X-3612Y349780D01*
X-5140Y348252D01*
X-5140Y335148D01*
X-3652Y333660D01*
X17529Y333660D01*
X17627Y333729D01*
X18118Y333849D01*
X18617Y333768D01*
X19045Y333500D01*
X19334Y333085D01*
X19438Y332590D01*
X19342Y332094D01*
X19078Y331458D01*
X19078Y328942D01*
X19342Y328306D01*
X19437Y327880D01*
X19360Y327381D01*
X19095Y326951D01*
X18682Y326658D01*
X18189Y326550D01*
X17692Y326643D01*
X17545Y326740D01*
X-3652Y326740D01*
X-5140Y325252D01*
X-5140Y323780D01*
X-5225Y323322D01*
X-5498Y322896D01*
X-5915Y322611D01*
X-6410Y322510D01*
X-14264Y322510D01*
X-14721Y322595D01*
X-15147Y322868D01*
X-15433Y323285D01*
X-15534Y323780D01*
X-15534Y328321D01*
X-16514Y329302D01*
X-16778Y329686D01*
X-16886Y330180D01*
X-16794Y330677D01*
X-16514Y331098D01*
X-15534Y332079D01*
X-15534Y345829D01*
X-17021Y347317D01*
X-33779Y347317D01*
X-34014Y347082D01*
X-34416Y346811D01*
X-34912Y346710D01*
X-45143Y346710D01*
X-45620Y346803D01*
X-46041Y347082D01*
X-47219Y348260D01*
X-49542Y349222D01*
X-52058Y349222D01*
X-54381Y348260D01*
X-56160Y346481D01*
X-57122Y344158D01*
X-57122Y341642D01*
X-56160Y339319D01*
X-54381Y337540D01*
X-52058Y336578D01*
X-49542Y336578D01*
X-47219Y337540D01*
X-46041Y338718D01*
X-45639Y338989D01*
X-45143Y339090D01*
X-36537Y339090D01*
X-36079Y339005D01*
X-35653Y338732D01*
X-35367Y338315D01*
X-35267Y337820D01*
X-35267Y332079D01*
X-34286Y331098D01*
X-34022Y330714D01*
X-33914Y330220D01*
X-34007Y329723D01*
X-34286Y329302D01*
X-35267Y328321D01*
X-35267Y314960D01*
X-35352Y314502D01*
X-35624Y314076D01*
X-36041Y313791D01*
X-36537Y313690D01*
X-59998Y313690D01*
X-77406Y296282D01*
X-77809Y296011D01*
X-78304Y295910D01*
X-83439Y295910D01*
X-83897Y295995D01*
X-84323Y296268D01*
X-84608Y296685D01*
X-84709Y297180D01*
X-84709Y300253D01*
X-86197Y301741D01*
X-98613Y301741D01*
X-100101Y300253D01*
X-100101Y283947D01*
X-98613Y282459D01*
X-86197Y282459D01*
X-84709Y283947D01*
X-84709Y287020D01*
X-84624Y287478D01*
X-84351Y287904D01*
X-83934Y288189D01*
X-83439Y288290D01*
X-75764Y288290D01*
X-75325Y288212D01*
X-74895Y287946D01*
X-74603Y287534D01*
X-74494Y287040D01*
X-74587Y286543D01*
X-74866Y286122D01*
X-84524Y276464D01*
X-84908Y276201D01*
X-85402Y276092D01*
X-85899Y276185D01*
X-86134Y276341D01*
X-98613Y276341D01*
X-100101Y274853D01*
X-100101Y258547D01*
X-98613Y257059D01*
X-86197Y257059D01*
X-84709Y258547D01*
X-84709Y264977D01*
X-84616Y265453D01*
X-84337Y265875D01*
X-49594Y300618D01*
X-49191Y300889D01*
X-48696Y300990D01*
X-14804Y300990D01*
X-14328Y300897D01*
X-13906Y300618D01*
X-7482Y294194D01*
X-7211Y293791D01*
X-7110Y293296D01*
X-7110Y282569D01*
X-7188Y282130D01*
X-7454Y281700D01*
X-7866Y281408D01*
X-8360Y281299D01*
X-8857Y281392D01*
X-9278Y281671D01*
X-13217Y285610D01*
X-13488Y286013D01*
X-13589Y286508D01*
X-13589Y296443D01*
X-15077Y297931D01*
X-27493Y297931D01*
X-28981Y296443D01*
X-28981Y280137D01*
X-27493Y278649D01*
X-17558Y278649D01*
X-17082Y278556D01*
X-16660Y278277D01*
X-15622Y277239D01*
X-15367Y276873D01*
X-15251Y276381D01*
X-15336Y275883D01*
X-15608Y275457D01*
X-16025Y275172D01*
X-16520Y275071D01*
X-27493Y275071D01*
X-28981Y273583D01*
X-28981Y257277D01*
X-27493Y255789D01*
X-24380Y255789D01*
X-23922Y255704D01*
X-23496Y255431D01*
X-23211Y255014D01*
X-23110Y254519D01*
X-23110Y247110D01*
X-23195Y246652D01*
X-23468Y246226D01*
X-23885Y245941D01*
X-24380Y245840D01*
X-30852Y245840D01*
X-32480Y244212D01*
X-32883Y243941D01*
X-33378Y243840D01*
X-50754Y243840D01*
X-51166Y243810D01*
X-51525Y243731D01*
X-51869Y243601D01*
X-52190Y243422D01*
X-52482Y243199D01*
X-52738Y242936D01*
X-52954Y242639D01*
X-53125Y242314D01*
X-53247Y241968D01*
X-53319Y241600D01*
X-53340Y241261D01*
X-53340Y240880D01*
X-53425Y240422D01*
X-53698Y239996D01*
X-54115Y239711D01*
X-54610Y239610D01*
X-57878Y239610D01*
X-64706Y232782D01*
X-65109Y232511D01*
X-65604Y232410D01*
X-83439Y232410D01*
X-83897Y232495D01*
X-84323Y232768D01*
X-84608Y233185D01*
X-84709Y233680D01*
X-84709Y236220D01*
X-84624Y236678D01*
X-84351Y237104D01*
X-83934Y237389D01*
X-83439Y237490D01*
X-81857Y237490D01*
X-81380Y237397D01*
X-80959Y237118D01*
X-79781Y235940D01*
X-77458Y234978D01*
X-74942Y234978D01*
X-72619Y235940D01*
X-70840Y237719D01*
X-69878Y240042D01*
X-69878Y241708D01*
X-69785Y242184D01*
X-69506Y242606D01*
X-50864Y261248D01*
X-50461Y261519D01*
X-49966Y261620D01*
X-48641Y261620D01*
X-48183Y261535D01*
X-47757Y261262D01*
X-47472Y260845D01*
X-47371Y260350D01*
X-47371Y257277D01*
X-45883Y255789D01*
X-33467Y255789D01*
X-31979Y257277D01*
X-31979Y273583D01*
X-33467Y275071D01*
X-43850Y275071D01*
X-44298Y275153D01*
X-44726Y275422D01*
X-45015Y275836D01*
X-45120Y276331D01*
X-45023Y276827D01*
X-44593Y277865D01*
X-44332Y278263D01*
X-43915Y278548D01*
X-43420Y278649D01*
X-33467Y278649D01*
X-31979Y280137D01*
X-31979Y296443D01*
X-33467Y297931D01*
X-45883Y297931D01*
X-47371Y296443D01*
X-47371Y288743D01*
X-47464Y288267D01*
X-47743Y287845D01*
X-49494Y286094D01*
X-49897Y285823D01*
X-50392Y285722D01*
X-52058Y285722D01*
X-54381Y284760D01*
X-56160Y282981D01*
X-57122Y280658D01*
X-57122Y278142D01*
X-56160Y275819D01*
X-54381Y274040D01*
X-52058Y273078D01*
X-49543Y273078D01*
X-49127Y273250D01*
X-48681Y273346D01*
X-48183Y273261D01*
X-47757Y272989D01*
X-47472Y272572D01*
X-47371Y272077D01*
X-47371Y270510D01*
X-47456Y270052D01*
X-47729Y269626D01*
X-48146Y269341D01*
X-48641Y269240D01*
X-53648Y269240D01*
X-74894Y247994D01*
X-75297Y247723D01*
X-75792Y247622D01*
X-77458Y247622D01*
X-79781Y246660D01*
X-80959Y245482D01*
X-81361Y245211D01*
X-81857Y245110D01*
X-83439Y245110D01*
X-83897Y245195D01*
X-84323Y245468D01*
X-84608Y245885D01*
X-84709Y246380D01*
X-84709Y249453D01*
X-86197Y250941D01*
X-98613Y250941D01*
X-100101Y249453D01*
X-100101Y233680D01*
X-100186Y233222D01*
X-100459Y232796D01*
X-100876Y232511D01*
X-101371Y232410D01*
X-101829Y232410D01*
X-102287Y232495D01*
X-102713Y232768D01*
X-102998Y233185D01*
X-103099Y233680D01*
X-103099Y249453D01*
X-104587Y250941D01*
X-105715Y250941D01*
X-106173Y251026D01*
X-106599Y251299D01*
X-106884Y251716D01*
X-106985Y252211D01*
X-106985Y255789D01*
X-106900Y256247D01*
X-106627Y256673D01*
X-106210Y256958D01*
X-105715Y257059D01*
X-104587Y257059D01*
X-103099Y258547D01*
X-103099Y274853D01*
X-104587Y276341D01*
X-117003Y276341D01*
X-118491Y274853D01*
X-118491Y271780D01*
X-118576Y271322D01*
X-118849Y270896D01*
X-119266Y270611D01*
X-119761Y270510D01*
X-128578Y270510D01*
X-156210Y242878D01*
X-156210Y234257D01*
X-156303Y233780D01*
X-156582Y233359D01*
X-157852Y232089D01*
X-158236Y231825D01*
X-158730Y231717D01*
X-159227Y231810D01*
X-159648Y232089D01*
X-160918Y233359D01*
X-161189Y233761D01*
X-161290Y234257D01*
X-161290Y251896D01*
X-161197Y252372D01*
X-160918Y252794D01*
X-125794Y287918D01*
X-125391Y288189D01*
X-124896Y288290D01*
X-119761Y288290D01*
X-119303Y288205D01*
X-118877Y287932D01*
X-118592Y287515D01*
X-118491Y287020D01*
X-118491Y283947D01*
X-117003Y282459D01*
X-104587Y282459D01*
X-103099Y283947D01*
X-103099Y300253D01*
X-104587Y301741D01*
X-105715Y301741D01*
X-106173Y301826D01*
X-106599Y302099D01*
X-106884Y302516D01*
X-106985Y303011D01*
X-106985Y306589D01*
X-106900Y307047D01*
X-106627Y307473D01*
X-106210Y307758D01*
X-105715Y307859D01*
X-104587Y307859D01*
X-103099Y309347D01*
X-103099Y325653D01*
X-104587Y327141D01*
X-117003Y327141D01*
X-118491Y325653D01*
X-118491Y309347D01*
X-117003Y307859D01*
X-115875Y307859D01*
X-115417Y307774D01*
X-114991Y307501D01*
X-114706Y307084D01*
X-114605Y306589D01*
X-114605Y303011D01*
X-114690Y302553D01*
X-114963Y302127D01*
X-115380Y301842D01*
X-115875Y301741D01*
X-117003Y301741D01*
X-118491Y300253D01*
X-118491Y297180D01*
X-118576Y296722D01*
X-118849Y296296D01*
X-119266Y296011D01*
X-119761Y295910D01*
X-128578Y295910D01*
X-168910Y255578D01*
X-168910Y234257D01*
X-169003Y233780D01*
X-169282Y233359D01*
X-170460Y232181D01*
X-171422Y229858D01*
X-171422Y227342D01*
X-170460Y225019D01*
X-168681Y223240D01*
X-166358Y222278D01*
X-163842Y222278D01*
X-161519Y223240D01*
X-159648Y225111D01*
X-159264Y225375D01*
X-158770Y225483D01*
X-158273Y225390D01*
X-157852Y225111D01*
X-155981Y223240D01*
X-153824Y222347D01*
X-153442Y222100D01*
X-153149Y221688D01*
X-153041Y221194D01*
X-153133Y220697D01*
X-153412Y220276D01*
X-153606Y220082D01*
X-154009Y219811D01*
X-154504Y219710D01*
X-378896Y219710D01*
X-379372Y219803D01*
X-379794Y220082D01*
X-442922Y283210D01*
X-464243Y283210D01*
X-464720Y283303D01*
X-465141Y283582D01*
X-466319Y284760D01*
X-468642Y285722D01*
X-471158Y285722D01*
X-473481Y284760D01*
X-474659Y283582D01*
X-475061Y283311D01*
X-475557Y283210D01*
X-489839Y283210D01*
X-490297Y283295D01*
X-490723Y283568D01*
X-491008Y283985D01*
X-491109Y284480D01*
X-491109Y287553D01*
X-492597Y289041D01*
X-493725Y289041D01*
X-494183Y289126D01*
X-494609Y289399D01*
X-494894Y289816D01*
X-494995Y290311D01*
X-494995Y293889D01*
X-494910Y294347D01*
X-494637Y294773D01*
X-494220Y295058D01*
X-493725Y295159D01*
X-492597Y295159D01*
X-491109Y296647D01*
X-491109Y312953D01*
X-492597Y314441D01*
X-505013Y314441D01*
X-506501Y312953D01*
X-506501Y296647D01*
X-505013Y295159D01*
X-503885Y295159D01*
X-503427Y295074D01*
X-503001Y294801D01*
X-502716Y294384D01*
X-502615Y293889D01*
X-502615Y290311D01*
X-502700Y289853D01*
X-502973Y289427D01*
X-503390Y289142D01*
X-503885Y289041D01*
X-505013Y289041D01*
X-506501Y287553D01*
X-506501Y271247D01*
X-505013Y269759D01*
X-492597Y269759D01*
X-491109Y271247D01*
X-491109Y274320D01*
X-491024Y274778D01*
X-490751Y275204D01*
X-490334Y275489D01*
X-489839Y275590D01*
X-475557Y275590D01*
X-475080Y275497D01*
X-474659Y275218D01*
X-473481Y274040D01*
X-471158Y273078D01*
X-468642Y273078D01*
X-466319Y274040D01*
X-465141Y275218D01*
X-464739Y275489D01*
X-464243Y275590D01*
X-446604Y275590D01*
X-446128Y275497D01*
X-445706Y275218D01*
X-382578Y212090D01*
X-150822Y212090D01*
X-138494Y224418D01*
X-138091Y224689D01*
X-137596Y224790D01*
X-119987Y224790D01*
X-119529Y224705D01*
X-119103Y224432D01*
X-118818Y224015D01*
X-118717Y223520D01*
X-118717Y220980D01*
X-118802Y220522D01*
X-119075Y220096D01*
X-119492Y219811D01*
X-119987Y219710D01*
X-121343Y219710D01*
X-121820Y219803D01*
X-122241Y220082D01*
X-123419Y221260D01*
X-125742Y222222D01*
X-128258Y222222D01*
X-130581Y221260D01*
X-132360Y219481D01*
X-133322Y217158D01*
X-133322Y214642D01*
X-132360Y212319D01*
X-130581Y210540D01*
X-128258Y209578D01*
X-125742Y209578D01*
X-123419Y210540D01*
X-122241Y211718D01*
X-121839Y211989D01*
X-121343Y212090D01*
X-119987Y212090D01*
X-119529Y212005D01*
X-119103Y211732D01*
X-118818Y211315D01*
X-118717Y210820D01*
X-118717Y207406D01*
X-118602Y206920D01*
X-118687Y206422D01*
X-118959Y205996D01*
X-119376Y205711D01*
X-119872Y205610D01*
X-295078Y205610D01*
X-359410Y141278D01*
X-359410Y1270D01*
X-359495Y812D01*
X-359768Y386D01*
X-360185Y101D01*
X-360680Y0D01*
X-387808Y0D01*
X-388266Y85D01*
X-388692Y358D01*
X-388977Y775D01*
X-389078Y1270D01*
X-389078Y2205D01*
X-389145Y2512D01*
X-389971Y4331D01*
X-389989Y4371D01*
X-390753Y6217D01*
X-390932Y6475D01*
X-392392Y7839D01*
X-392423Y7869D01*
X-393836Y9282D01*
X-394101Y9452D01*
X-395971Y10154D01*
X-396011Y10170D01*
X-397857Y10934D01*
X-398235Y11003D01*
X-475902Y40128D01*
X-475956Y40150D01*
X-545089Y69778D01*
X-545212Y69839D01*
X-549193Y72084D01*
X-549423Y72250D01*
X-549722Y72658D01*
X-549838Y73150D01*
X-549754Y73648D01*
X-549481Y74074D01*
X-549064Y74359D01*
X-548569Y74460D01*
X-529988Y74460D01*
X-528500Y75948D01*
X-528500Y101852D01*
X-529988Y103340D01*
X-537610Y103340D01*
X-538068Y103425D01*
X-538494Y103698D01*
X-538779Y104115D01*
X-538880Y104610D01*
X-538880Y112468D01*
X-569922Y143510D01*
X-645596Y143510D01*
X-646072Y143603D01*
X-646494Y143882D01*
X-663804Y161192D01*
X-664059Y161558D01*
X-664175Y162050D01*
X-664090Y162548D01*
X-663818Y162974D01*
X-663401Y163259D01*
X-662906Y163360D01*
X-638408Y163360D01*
X-636920Y164848D01*
X-636920Y190752D01*
X-638408Y192240D01*
X-646030Y192240D01*
X-646488Y192325D01*
X-646914Y192598D01*
X-647199Y193015D01*
X-647300Y193510D01*
X-647300Y341339D01*
X-647215Y341797D01*
X-646942Y342223D01*
X-646525Y342508D01*
X-646030Y342609D01*
X-632460Y342609D01*
X-632002Y342524D01*
X-631576Y342251D01*
X-631291Y341834D01*
X-631190Y341339D01*
X-631190Y333519D01*
X-630271Y331299D01*
X-630174Y330813D01*
X-630174Y270019D01*
X-627854Y264417D01*
X-623567Y260130D01*
X-617965Y257810D01*
X-611903Y257810D01*
X-606301Y260130D01*
X-602014Y264417D01*
X-601883Y264733D01*
X-601650Y265101D01*
X-601242Y265400D01*
X-600750Y265516D01*
X-600252Y265432D01*
X-599826Y265159D01*
X-599541Y264742D01*
X-599440Y264247D01*
X-599440Y241346D01*
X-599410Y240934D01*
X-599331Y240575D01*
X-599201Y240231D01*
X-599022Y239910D01*
X-598799Y239619D01*
X-598536Y239362D01*
X-598239Y239146D01*
X-597914Y238975D01*
X-597568Y238853D01*
X-597200Y238781D01*
X-596861Y238760D01*
X-533446Y238760D01*
X-533034Y238790D01*
X-532675Y238869D01*
X-532331Y238999D01*
X-532010Y239178D01*
X-531719Y239401D01*
X-531462Y239664D01*
X-531246Y239961D01*
X-531075Y240286D01*
X-530953Y240632D01*
X-530881Y241000D01*
X-530860Y241339D01*
X-530860Y274320D01*
X-530775Y274778D01*
X-530502Y275204D01*
X-530085Y275489D01*
X-529590Y275590D01*
X-526161Y275590D01*
X-525703Y275505D01*
X-525277Y275232D01*
X-524992Y274815D01*
X-524891Y274320D01*
X-524891Y271247D01*
X-523403Y269759D01*
X-510987Y269759D01*
X-509499Y271247D01*
X-509499Y287553D01*
X-510987Y289041D01*
X-523403Y289041D01*
X-524891Y287553D01*
X-524891Y284480D01*
X-524976Y284022D01*
X-525249Y283596D01*
X-525666Y283311D01*
X-526161Y283210D01*
X-529590Y283210D01*
X-530048Y283295D01*
X-530474Y283568D01*
X-530759Y283985D01*
X-530860Y284480D01*
X-530860Y304754D01*
X-530890Y305166D01*
X-530969Y305525D01*
X-531005Y305620D01*
X-531087Y306030D01*
X-531002Y306528D01*
X-530730Y306954D01*
X-530313Y307239D01*
X-529818Y307340D01*
X-526161Y307340D01*
X-525703Y307255D01*
X-525277Y306982D01*
X-524992Y306565D01*
X-524891Y306070D01*
X-524891Y296647D01*
X-523403Y295159D01*
X-510987Y295159D01*
X-509499Y296647D01*
X-509499Y312953D01*
X-510987Y314441D01*
X-520922Y314441D01*
X-521398Y314534D01*
X-521820Y314813D01*
X-521967Y314960D01*
X-539696Y314960D01*
X-540172Y315053D01*
X-540594Y315332D01*
X-542254Y316992D01*
X-564678Y316992D01*
X-566166Y315504D01*
X-566166Y308610D01*
X-566251Y308152D01*
X-566524Y307726D01*
X-566941Y307441D01*
X-567436Y307340D01*
X-596854Y307340D01*
X-597266Y307310D01*
X-597625Y307231D01*
X-597974Y307099D01*
X-598384Y307017D01*
X-598882Y307102D01*
X-599308Y307374D01*
X-599593Y307791D01*
X-599694Y308286D01*
X-599694Y338565D01*
X-600613Y340785D01*
X-600710Y341271D01*
X-600710Y341339D01*
X-600625Y341797D01*
X-600352Y342223D01*
X-599935Y342508D01*
X-599440Y342609D01*
X-566297Y342609D01*
X-564809Y344097D01*
X-564809Y358513D01*
X-566297Y360001D01*
X-567050Y360001D01*
X-567489Y360079D01*
X-567919Y360345D01*
X-568211Y360757D01*
X-568320Y361251D01*
X-568227Y361748D01*
X-567948Y362169D01*
X-522045Y408072D01*
X-521642Y408344D01*
X-521147Y408444D01*
X-500646Y408444D01*
X-500420Y408497D01*
X-499922Y408413D01*
X-499496Y408140D01*
X-499211Y407723D01*
X-499110Y407228D01*
X-499110Y392122D01*
X-458778Y351790D01*
X-367650Y351790D01*
X-367192Y351705D01*
X-366766Y351432D01*
X-366481Y351015D01*
X-366380Y350520D01*
X-366380Y342648D01*
X-364892Y341160D01*
X-339488Y341160D01*
X-338000Y342648D01*
X-338000Y368552D01*
X-339488Y370040D01*
X-364892Y370040D01*
X-366380Y368552D01*
X-366380Y360680D01*
X-366465Y360222D01*
X-366738Y359796D01*
X-367155Y359511D01*
X-367650Y359410D01*
X-455096Y359410D01*
X-455572Y359503D01*
X-455994Y359782D01*
X-491118Y394906D01*
X-491389Y395309D01*
X-491490Y395804D01*
X-491490Y407174D01*
X-491405Y407632D01*
X-491132Y408058D01*
X-490715Y408344D01*
X-490220Y408444D01*
X-485120Y408444D01*
X-483632Y409932D01*
X-483632Y435836D01*
X-485120Y437324D01*
X-498224Y437324D01*
X-498694Y436854D01*
X-499078Y436591D01*
X-499572Y436482D01*
X-500069Y436575D01*
X-500490Y436854D01*
X-500960Y437324D01*
X-526364Y437324D01*
X-527852Y435836D01*
X-527852Y413567D01*
X-527945Y413091D01*
X-528224Y412669D01*
X-580520Y360373D01*
X-580923Y360102D01*
X-581418Y360001D01*
X-599440Y360001D01*
X-599898Y360086D01*
X-600324Y360359D01*
X-600609Y360776D01*
X-600710Y361271D01*
X-600710Y389890D01*
X-600625Y390348D01*
X-600352Y390774D01*
X-599935Y391059D01*
X-599440Y391160D01*
X-558846Y391160D01*
X-558434Y391190D01*
X-558075Y391269D01*
X-557731Y391399D01*
X-557410Y391578D01*
X-557119Y391801D01*
X-556862Y392064D01*
X-556646Y392361D01*
X-556475Y392686D01*
X-556353Y393032D01*
X-556281Y393400D01*
X-556260Y393739D01*
X-556260Y469854D01*
X-556290Y470266D01*
X-556369Y470625D01*
X-556499Y470969D01*
X-556678Y471290D01*
X-556901Y471582D01*
X-557164Y471838D01*
X-557461Y472054D01*
X-557786Y472225D01*
X-558132Y472347D01*
X-558500Y472419D01*
X-558839Y472440D01*
X-662940Y472440D01*
X-663398Y472525D01*
X-663824Y472798D01*
X-664109Y473215D01*
X-664210Y473710D01*
X-664210Y502329D01*
X-664125Y502787D01*
X-663852Y503213D01*
X-663435Y503498D01*
X-662940Y503599D01*
X-629797Y503599D01*
X-628309Y505087D01*
X-628309Y507215D01*
X-628224Y507673D01*
X-627951Y508099D01*
X-627534Y508384D01*
X-627039Y508485D01*
X-616427Y508485D01*
X-597148Y527764D01*
X-596782Y528019D01*
X-596290Y528135D01*
X-595792Y528050D01*
X-595366Y527778D01*
X-595081Y527361D01*
X-594980Y526866D01*
X-594980Y520448D01*
X-593492Y518960D01*
X-568088Y518960D01*
X-567618Y519430D01*
X-567234Y519693D01*
X-566740Y519802D01*
X-566243Y519709D01*
X-565822Y519430D01*
X-565352Y518960D01*
X-552248Y518960D01*
X-550760Y520448D01*
X-550760Y546352D01*
X-552248Y547840D01*
X-553720Y547840D01*
X-554178Y547925D01*
X-554604Y548198D01*
X-554889Y548615D01*
X-554990Y549110D01*
X-554990Y560378D01*
X-592718Y598106D01*
X-592989Y598509D01*
X-593090Y599004D01*
X-593090Y644690D01*
X-593005Y645148D01*
X-592732Y645574D01*
X-592315Y645859D01*
X-591820Y645960D01*
X-580788Y645960D01*
X-579300Y647448D01*
X-579300Y673352D01*
X-580788Y674840D01*
X-606192Y674840D01*
X-607680Y673352D01*
X-607680Y647448D01*
X-606192Y645960D01*
X-601980Y645960D01*
X-601522Y645875D01*
X-601096Y645602D01*
X-600811Y645185D01*
X-600710Y644690D01*
X-600710Y595322D01*
X-562982Y557594D01*
X-562711Y557191D01*
X-562610Y556696D01*
X-562610Y549110D01*
X-562695Y548652D01*
X-562968Y548226D01*
X-563385Y547941D01*
X-563880Y547840D01*
X-565352Y547840D01*
X-565822Y547370D01*
X-566206Y547107D01*
X-566700Y546998D01*
X-567197Y547091D01*
X-567618Y547370D01*
X-568088Y547840D01*
X-593492Y547840D01*
X-594980Y546352D01*
X-594980Y538480D01*
X-595065Y538022D01*
X-595338Y537596D01*
X-595755Y537311D01*
X-596250Y537210D01*
X-598478Y537210D01*
X-619211Y516477D01*
X-619614Y516206D01*
X-620109Y516105D01*
X-627039Y516105D01*
X-627497Y516190D01*
X-627923Y516463D01*
X-628208Y516880D01*
X-628309Y517375D01*
X-628309Y519503D01*
X-629797Y520991D01*
X-662940Y520991D01*
X-663398Y521076D01*
X-663824Y521349D01*
X-664109Y521766D01*
X-664210Y522261D01*
X-664210Y537995D01*
X-664125Y538453D01*
X-663852Y538879D01*
X-663435Y539164D01*
X-662940Y539265D01*
X-644669Y539265D01*
X-639067Y541585D01*
X-635215Y545437D01*
X-634813Y545708D01*
X-634317Y545809D01*
X-629797Y545809D01*
X-628309Y547297D01*
X-628309Y561713D01*
X-629797Y563201D01*
X-634317Y563201D01*
X-634794Y563294D01*
X-635215Y563573D01*
X-639067Y567425D01*
X-644669Y569745D01*
X-662940Y569745D01*
X-663398Y569830D01*
X-663824Y570103D01*
X-664109Y570520D01*
X-664210Y571015D01*
X-664210Y603929D01*
X-664125Y604387D01*
X-663852Y604813D01*
X-663435Y605098D01*
X-662940Y605199D01*
X-629797Y605199D01*
X-628309Y606687D01*
X-628309Y621103D01*
X-629797Y622591D01*
X-642620Y622591D01*
X-643078Y622676D01*
X-643504Y622949D01*
X-643789Y623366D01*
X-643890Y623861D01*
X-643890Y670996D01*
X-643797Y671472D01*
X-643518Y671894D01*
X-593090Y722322D01*
X-593090Y746290D01*
X-593005Y746748D01*
X-592732Y747174D01*
X-592315Y747459D01*
X-591820Y747560D01*
X-580788Y747560D01*
X-580318Y748030D01*
X-579934Y748293D01*
X-579440Y748402D01*
X-578943Y748309D01*
X-578522Y748030D01*
X-578052Y747560D01*
X-564948Y747560D01*
X-563460Y749048D01*
X-563460Y774952D01*
X-564948Y776440D01*
X-569373Y776440D01*
X-569831Y776525D01*
X-570257Y776798D01*
X-570542Y777215D01*
X-570643Y777710D01*
X-570643Y859110D01*
X-570558Y859568D01*
X-570285Y859994D01*
X-569868Y860280D01*
X-569373Y860380D01*
X-561751Y860380D01*
X-560263Y861868D01*
X-560263Y887772D01*
X-561751Y889260D01*
X-587155Y889260D01*
X-588643Y887772D01*
X-588643Y861868D01*
X-587155Y860380D01*
X-579533Y860380D01*
X-579075Y860295D01*
X-578649Y860023D01*
X-578364Y859606D01*
X-578263Y859110D01*
X-578263Y776981D01*
X-578341Y776542D01*
X-578607Y776112D01*
X-579019Y775820D01*
X-579513Y775711D01*
X-580010Y775804D01*
X-580431Y776083D01*
X-580788Y776440D01*
X-606192Y776440D01*
X-607680Y774952D01*
X-607680Y749048D01*
X-606192Y747560D01*
X-601980Y747560D01*
X-601522Y747475D01*
X-601096Y747202D01*
X-600811Y746785D01*
X-600710Y746290D01*
X-600710Y726004D01*
X-600803Y725528D01*
X-601082Y725106D01*
X-651510Y674678D01*
X-651510Y623861D01*
X-651595Y623403D01*
X-651868Y622977D01*
X-652285Y622692D01*
X-652780Y622591D01*
X-662940Y622591D01*
X-663398Y622676D01*
X-663824Y622949D01*
X-664109Y623366D01*
X-664210Y623861D01*
X-664210Y723411D01*
X-664117Y723888D01*
X-663838Y724309D01*
X-603030Y785117D01*
X-600710Y790719D01*
X-600710Y925539D01*
X-600625Y925997D01*
X-600352Y926423D01*
X-599935Y926708D01*
X-599440Y926809D01*
X-566297Y926809D01*
X-564809Y928297D01*
X-564809Y942713D01*
X-566297Y944201D01*
X-567050Y944201D01*
X-567489Y944279D01*
X-567919Y944545D01*
X-568211Y944957D01*
X-568320Y945451D01*
X-568227Y945948D01*
X-567948Y946369D01*
X-529590Y984727D01*
X-529590Y1012990D01*
X-529505Y1013448D01*
X-529232Y1013874D01*
X-528815Y1014159D01*
X-528320Y1014260D01*
X-517288Y1014260D01*
X-516818Y1014730D01*
X-516434Y1014993D01*
X-515940Y1015102D01*
X-515443Y1015009D01*
X-515022Y1014730D01*
X-514552Y1014260D01*
X-501448Y1014260D01*
X-499960Y1015748D01*
X-499960Y1041652D01*
X-501448Y1043140D01*
X-502920Y1043140D01*
X-503378Y1043225D01*
X-503804Y1043498D01*
X-504089Y1043915D01*
X-504190Y1044410D01*
X-504190Y1068378D01*
X-525808Y1089996D01*
X-526079Y1090399D01*
X-526180Y1090894D01*
X-526180Y1101890D01*
X-526095Y1102348D01*
X-525822Y1102774D01*
X-525405Y1103059D01*
X-524910Y1103160D01*
X-517288Y1103160D01*
X-515800Y1104648D01*
X-515800Y1130552D01*
X-517288Y1132040D01*
X-542692Y1132040D01*
X-544180Y1130552D01*
X-544180Y1104648D01*
X-542692Y1103160D01*
X-535070Y1103160D01*
X-534612Y1103075D01*
X-534186Y1102802D01*
X-533901Y1102385D01*
X-533800Y1101890D01*
X-533800Y1087212D01*
X-512182Y1065594D01*
X-511911Y1065191D01*
X-511810Y1064696D01*
X-511810Y1044410D01*
X-511895Y1043952D01*
X-512168Y1043526D01*
X-512585Y1043241D01*
X-513080Y1043140D01*
X-514552Y1043140D01*
X-515022Y1042670D01*
X-515406Y1042407D01*
X-515900Y1042298D01*
X-516397Y1042391D01*
X-516818Y1042670D01*
X-517288Y1043140D01*
X-542692Y1043140D01*
X-544180Y1041652D01*
X-544180Y1015748D01*
X-542692Y1014260D01*
X-538480Y1014260D01*
X-538022Y1014175D01*
X-537596Y1013902D01*
X-537311Y1013485D01*
X-537210Y1012990D01*
X-537210Y988409D01*
X-537303Y987933D01*
X-537582Y987511D01*
X-580520Y944573D01*
X-580923Y944302D01*
X-581418Y944201D01*
X-599440Y944201D01*
X-599898Y944286D01*
X-600324Y944559D01*
X-600609Y944976D01*
X-600710Y945471D01*
X-600710Y974090D01*
X-600625Y974548D01*
X-600352Y974974D01*
X-599935Y975259D01*
X-599440Y975360D01*
X-558846Y975360D01*
X-558434Y975390D01*
X-558075Y975469D01*
X-557731Y975599D01*
X-557410Y975778D01*
X-557119Y976001D01*
X-556862Y976264D01*
X-556646Y976561D01*
X-556475Y976886D01*
X-556353Y977232D01*
X-556281Y977600D01*
X-556260Y977939D01*
X-556260Y1066754D01*
X-556290Y1067166D01*
X-556369Y1067525D01*
X-556499Y1067869D01*
X-556678Y1068190D01*
X-556901Y1068482D01*
X-557164Y1068738D01*
X-557461Y1068954D01*
X-557786Y1069125D01*
X-558132Y1069247D01*
X-558500Y1069319D01*
X-558839Y1069340D01*
X-599440Y1069340D01*
X-599898Y1069425D01*
X-600324Y1069698D01*
X-600609Y1070115D01*
X-600710Y1070610D01*
X-600710Y1099229D01*
X-600625Y1099687D01*
X-600352Y1100113D01*
X-599935Y1100398D01*
X-599440Y1100499D01*
X-566297Y1100499D01*
X-564809Y1101987D01*
X-564809Y1116403D01*
X-566297Y1117891D01*
X-579120Y1117891D01*
X-579578Y1117976D01*
X-580004Y1118249D01*
X-580289Y1118666D01*
X-580390Y1119161D01*
X-580390Y1128196D01*
X-580297Y1128672D01*
X-580018Y1129094D01*
X-551580Y1157532D01*
X-551580Y1178090D01*
X-551495Y1178548D01*
X-551222Y1178974D01*
X-550805Y1179259D01*
X-550310Y1179360D01*
X-542688Y1179360D01*
X-542218Y1179830D01*
X-541834Y1180093D01*
X-541340Y1180202D01*
X-540843Y1180109D01*
X-540422Y1179830D01*
X-539952Y1179360D01*
X-526848Y1179360D01*
X-525360Y1180848D01*
X-525360Y1206752D01*
X-526848Y1208240D01*
X-528320Y1208240D01*
X-528778Y1208325D01*
X-529204Y1208598D01*
X-529489Y1209015D01*
X-529590Y1209510D01*
X-529590Y1233478D01*
X-563685Y1267574D01*
X-563957Y1267976D01*
X-564057Y1268472D01*
X-564057Y1279728D01*
X-563972Y1280186D01*
X-563700Y1280612D01*
X-563283Y1280897D01*
X-562787Y1280998D01*
X-555165Y1280998D01*
X-553677Y1282486D01*
X-553677Y1308390D01*
X-555165Y1309878D01*
X-580569Y1309878D01*
X-582057Y1308390D01*
X-582057Y1282486D01*
X-580569Y1280998D01*
X-572947Y1280998D01*
X-572490Y1280913D01*
X-572064Y1280640D01*
X-571778Y1280223D01*
X-571677Y1279728D01*
X-571677Y1264789D01*
X-537582Y1230694D01*
X-537311Y1230291D01*
X-537210Y1229796D01*
X-537210Y1209510D01*
X-537295Y1209052D01*
X-537568Y1208626D01*
X-537985Y1208341D01*
X-538480Y1208240D01*
X-539952Y1208240D01*
X-540422Y1207770D01*
X-540806Y1207507D01*
X-541300Y1207398D01*
X-541797Y1207491D01*
X-542218Y1207770D01*
X-542688Y1208240D01*
X-568092Y1208240D01*
X-569580Y1206752D01*
X-569580Y1180848D01*
X-568092Y1179360D01*
X-560470Y1179360D01*
X-560012Y1179275D01*
X-559586Y1179002D01*
X-559301Y1178585D01*
X-559200Y1178090D01*
X-559200Y1161214D01*
X-559293Y1160738D01*
X-559572Y1160316D01*
X-588010Y1131878D01*
X-588010Y1119161D01*
X-588095Y1118703D01*
X-588368Y1118277D01*
X-588785Y1117992D01*
X-589280Y1117891D01*
X-599440Y1117891D01*
X-599898Y1117976D01*
X-600324Y1118249D01*
X-600609Y1118666D01*
X-600710Y1119161D01*
X-600710Y1129811D01*
X-600617Y1130288D01*
X-600338Y1130709D01*
X-583980Y1147067D01*
X-581660Y1152669D01*
X-581660Y1154139D01*
X-581575Y1154597D01*
X-581302Y1155023D01*
X-580885Y1155308D01*
X-580390Y1155409D01*
X-578997Y1155409D01*
X-577509Y1156897D01*
X-577509Y1171313D01*
X-578997Y1172801D01*
X-583517Y1172801D01*
X-583994Y1172894D01*
X-584415Y1173173D01*
X-588267Y1177025D01*
X-593869Y1179345D01*
X-599931Y1179345D01*
X-605533Y1177025D01*
X-609385Y1173173D01*
X-609787Y1172902D01*
X-610283Y1172801D01*
X-614803Y1172801D01*
X-616291Y1171313D01*
X-616291Y1158388D01*
X-616384Y1157911D01*
X-616663Y1157490D01*
X-628870Y1145283D01*
X-631190Y1139681D01*
X-631190Y1119161D01*
X-631275Y1118703D01*
X-631548Y1118277D01*
X-631965Y1117992D01*
X-632460Y1117891D01*
X-642620Y1117891D01*
X-643078Y1117976D01*
X-643504Y1118249D01*
X-643789Y1118666D01*
X-643890Y1119161D01*
X-643890Y1131878D01*
X-656218Y1144206D01*
X-656489Y1144609D01*
X-656590Y1145104D01*
X-656590Y1178090D01*
X-656505Y1178548D01*
X-656232Y1178974D01*
X-655815Y1179259D01*
X-655320Y1179360D01*
X-644288Y1179360D01*
X-643818Y1179830D01*
X-643434Y1180093D01*
X-642940Y1180202D01*
X-642443Y1180109D01*
X-642022Y1179830D01*
X-641552Y1179360D01*
X-628448Y1179360D01*
X-626960Y1180848D01*
X-626960Y1206752D01*
X-628448Y1208240D01*
X-629920Y1208240D01*
X-630378Y1208325D01*
X-630804Y1208598D01*
X-631089Y1209015D01*
X-631190Y1209510D01*
X-631190Y1267896D01*
X-631097Y1268372D01*
X-630818Y1268794D01*
X-621900Y1277712D01*
X-621900Y1279690D01*
X-621815Y1280148D01*
X-621542Y1280574D01*
X-621125Y1280859D01*
X-620630Y1280960D01*
X-613008Y1280960D01*
X-611520Y1282448D01*
X-611520Y1308352D01*
X-613008Y1309840D01*
X-638412Y1309840D01*
X-639900Y1308352D01*
X-639900Y1282448D01*
X-638412Y1280960D01*
X-632494Y1280960D01*
X-632055Y1280882D01*
X-631625Y1280616D01*
X-631333Y1280204D01*
X-631224Y1279710D01*
X-631317Y1279213D01*
X-631596Y1278792D01*
X-638810Y1271578D01*
X-638810Y1209510D01*
X-638895Y1209052D01*
X-639168Y1208626D01*
X-639585Y1208341D01*
X-640080Y1208240D01*
X-641552Y1208240D01*
X-642022Y1207770D01*
X-642406Y1207507D01*
X-642900Y1207398D01*
X-643397Y1207491D01*
X-643818Y1207770D01*
X-644288Y1208240D01*
X-669692Y1208240D01*
X-671180Y1206752D01*
X-671180Y1180848D01*
X-669692Y1179360D01*
X-665480Y1179360D01*
X-665022Y1179275D01*
X-664596Y1179002D01*
X-664311Y1178585D01*
X-664210Y1178090D01*
X-664210Y1141422D01*
X-651882Y1129094D01*
X-651611Y1128691D01*
X-651510Y1128196D01*
X-651510Y1119161D01*
X-651595Y1118703D01*
X-651868Y1118277D01*
X-652285Y1117992D01*
X-652780Y1117891D01*
X-665603Y1117891D01*
X-667091Y1116403D01*
X-667091Y1101987D01*
X-665603Y1100499D01*
X-632460Y1100499D01*
X-632002Y1100414D01*
X-631576Y1100141D01*
X-631291Y1099724D01*
X-631190Y1099229D01*
X-631190Y1070610D01*
X-631275Y1070152D01*
X-631548Y1069726D01*
X-631965Y1069441D01*
X-632460Y1069340D01*
X-673054Y1069340D01*
X-673466Y1069310D01*
X-673825Y1069231D01*
X-674169Y1069101D01*
X-674490Y1068922D01*
X-674782Y1068699D01*
X-675038Y1068436D01*
X-675254Y1068139D01*
X-675425Y1067814D01*
X-675547Y1067468D01*
X-675619Y1067100D01*
X-675640Y1066761D01*
X-675640Y977946D01*
X-675610Y977534D01*
X-675531Y977175D01*
X-675401Y976831D01*
X-675222Y976510D01*
X-674999Y976219D01*
X-674736Y975962D01*
X-674439Y975746D01*
X-674114Y975575D01*
X-673768Y975453D01*
X-673400Y975381D01*
X-673061Y975360D01*
X-632460Y975360D01*
X-632002Y975275D01*
X-631576Y975002D01*
X-631291Y974585D01*
X-631190Y974090D01*
X-631190Y945471D01*
X-631275Y945013D01*
X-631548Y944587D01*
X-631965Y944302D01*
X-632460Y944201D01*
X-650482Y944201D01*
X-650958Y944294D01*
X-651380Y944573D01*
X-681618Y974811D01*
X-681889Y975214D01*
X-681990Y975709D01*
X-681990Y1017578D01*
X-696922Y1032510D01*
X-711850Y1032510D01*
X-712308Y1032595D01*
X-712734Y1032868D01*
X-713019Y1033285D01*
X-713120Y1033780D01*
X-713120Y1041652D01*
X-714608Y1043140D01*
X-739106Y1043140D01*
X-739545Y1043218D01*
X-739975Y1043484D01*
X-740267Y1043896D01*
X-740376Y1044390D01*
X-740283Y1044887D01*
X-740004Y1045308D01*
X-685400Y1099912D01*
X-685400Y1101890D01*
X-685315Y1102348D01*
X-685042Y1102774D01*
X-684625Y1103059D01*
X-684130Y1103160D01*
X-676508Y1103160D01*
X-675020Y1104648D01*
X-675020Y1130552D01*
X-676508Y1132040D01*
X-701912Y1132040D01*
X-703400Y1130552D01*
X-703400Y1104648D01*
X-701912Y1103160D01*
X-695994Y1103160D01*
X-695555Y1103082D01*
X-695125Y1102816D01*
X-694833Y1102404D01*
X-694724Y1101910D01*
X-694817Y1101413D01*
X-695096Y1100992D01*
X-752576Y1043512D01*
X-752979Y1043241D01*
X-753474Y1043140D01*
X-755852Y1043140D01*
X-757340Y1041652D01*
X-757340Y1015748D01*
X-755852Y1014260D01*
X-742748Y1014260D01*
X-742278Y1014730D01*
X-741894Y1014993D01*
X-741400Y1015102D01*
X-740903Y1015009D01*
X-740482Y1014730D01*
X-740012Y1014260D01*
X-714608Y1014260D01*
X-713120Y1015748D01*
X-713120Y1023620D01*
X-713035Y1024078D01*
X-712762Y1024504D01*
X-712345Y1024789D01*
X-711850Y1024890D01*
X-700604Y1024890D01*
X-700128Y1024797D01*
X-699706Y1024518D01*
X-689982Y1014794D01*
X-689711Y1014391D01*
X-689610Y1013896D01*
X-689610Y972027D01*
X-663952Y946369D01*
X-663697Y946003D01*
X-663581Y945511D01*
X-663666Y945013D01*
X-663938Y944587D01*
X-664355Y944302D01*
X-664850Y944201D01*
X-665603Y944201D01*
X-667091Y942713D01*
X-667091Y928297D01*
X-665603Y926809D01*
X-632460Y926809D01*
X-632002Y926724D01*
X-631576Y926451D01*
X-631291Y926034D01*
X-631190Y925539D01*
X-631190Y800589D01*
X-631283Y800112D01*
X-631562Y799691D01*
X-692370Y738883D01*
X-694690Y733281D01*
X-694690Y623861D01*
X-694775Y623403D01*
X-695048Y622977D01*
X-695465Y622692D01*
X-695960Y622591D01*
X-696830Y622591D01*
X-697288Y622676D01*
X-697714Y622949D01*
X-697999Y623366D01*
X-698100Y623861D01*
X-698100Y746290D01*
X-698015Y746748D01*
X-697742Y747174D01*
X-697325Y747459D01*
X-696830Y747560D01*
X-689208Y747560D01*
X-687720Y749048D01*
X-687720Y774952D01*
X-689208Y776440D01*
X-714612Y776440D01*
X-715082Y775970D01*
X-715466Y775707D01*
X-715960Y775598D01*
X-716457Y775691D01*
X-716878Y775970D01*
X-717348Y776440D01*
X-718820Y776440D01*
X-719278Y776525D01*
X-719704Y776798D01*
X-719989Y777215D01*
X-720090Y777710D01*
X-720090Y785296D01*
X-719997Y785772D01*
X-719718Y786194D01*
X-672700Y833212D01*
X-672700Y860590D01*
X-672615Y861048D01*
X-672342Y861474D01*
X-671925Y861759D01*
X-671430Y861860D01*
X-663808Y861860D01*
X-662320Y863348D01*
X-662320Y889252D01*
X-663808Y890740D01*
X-689212Y890740D01*
X-690700Y889252D01*
X-690700Y863348D01*
X-689212Y861860D01*
X-681590Y861860D01*
X-681132Y861775D01*
X-680706Y861502D01*
X-680421Y861085D01*
X-680320Y860590D01*
X-680320Y836894D01*
X-680413Y836418D01*
X-680692Y835996D01*
X-727710Y788978D01*
X-727710Y777710D01*
X-727795Y777252D01*
X-728068Y776826D01*
X-728485Y776541D01*
X-728980Y776440D01*
X-730452Y776440D01*
X-731940Y774952D01*
X-731940Y749048D01*
X-730452Y747560D01*
X-717348Y747560D01*
X-716878Y748030D01*
X-716494Y748293D01*
X-716000Y748402D01*
X-715503Y748309D01*
X-715082Y748030D01*
X-714612Y747560D01*
X-706990Y747560D01*
X-706532Y747475D01*
X-706106Y747202D01*
X-705821Y746785D01*
X-705720Y746290D01*
X-705720Y720796D01*
X-705795Y720367D01*
X-706057Y719935D01*
X-706467Y719639D01*
X-706960Y719527D01*
X-707457Y719615D01*
X-707881Y719891D01*
X-708163Y720310D01*
X-709552Y723663D01*
X-716337Y730448D01*
X-725202Y734120D01*
X-734798Y734120D01*
X-743663Y730448D01*
X-750448Y723663D01*
X-754120Y714798D01*
X-754120Y705202D01*
X-750448Y696337D01*
X-743663Y689552D01*
X-734798Y685880D01*
X-725202Y685880D01*
X-716337Y689552D01*
X-709552Y696337D01*
X-708163Y699690D01*
X-707930Y700058D01*
X-707522Y700357D01*
X-707030Y700473D01*
X-706532Y700388D01*
X-706106Y700116D01*
X-705821Y699699D01*
X-705720Y699204D01*
X-705720Y625289D01*
X-705813Y624813D01*
X-706092Y624391D01*
X-707520Y622963D01*
X-707923Y622692D01*
X-708418Y622591D01*
X-729103Y622591D01*
X-730591Y621103D01*
X-730591Y606687D01*
X-729103Y605199D01*
X-695960Y605199D01*
X-695502Y605114D01*
X-695076Y604841D01*
X-694791Y604424D01*
X-694690Y603929D01*
X-694690Y571015D01*
X-694775Y570557D01*
X-695048Y570131D01*
X-695465Y569846D01*
X-695960Y569745D01*
X-714231Y569745D01*
X-719833Y567425D01*
X-723685Y563573D01*
X-724087Y563302D01*
X-724583Y563201D01*
X-729103Y563201D01*
X-730591Y561713D01*
X-730591Y547297D01*
X-729103Y545809D01*
X-724583Y545809D01*
X-724106Y545716D01*
X-723685Y545437D01*
X-719833Y541585D01*
X-714231Y539265D01*
X-695960Y539265D01*
X-695502Y539180D01*
X-695076Y538907D01*
X-694791Y538490D01*
X-694690Y537995D01*
X-694690Y522261D01*
X-694775Y521803D01*
X-695048Y521377D01*
X-695465Y521092D01*
X-695960Y520991D01*
X-729103Y520991D01*
X-730591Y519503D01*
X-730591Y517375D01*
X-730676Y516917D01*
X-730949Y516491D01*
X-731366Y516206D01*
X-731861Y516105D01*
X-764191Y516105D01*
X-764667Y516198D01*
X-765089Y516477D01*
X-765592Y516980D01*
X-765855Y517364D01*
X-765964Y517858D01*
X-765871Y518355D01*
X-765592Y518776D01*
X-763920Y520448D01*
X-763920Y546352D01*
X-765408Y547840D01*
X-789906Y547840D01*
X-790345Y547918D01*
X-790775Y548184D01*
X-791067Y548596D01*
X-791176Y549090D01*
X-791083Y549587D01*
X-790804Y550008D01*
X-748900Y591912D01*
X-748900Y644690D01*
X-748815Y645148D01*
X-748542Y645574D01*
X-748125Y645859D01*
X-747630Y645960D01*
X-740008Y645960D01*
X-738520Y647448D01*
X-738520Y673352D01*
X-740008Y674840D01*
X-765412Y674840D01*
X-766900Y673352D01*
X-766900Y647448D01*
X-765412Y645960D01*
X-757790Y645960D01*
X-757332Y645875D01*
X-756906Y645602D01*
X-756621Y645185D01*
X-756520Y644690D01*
X-756520Y595594D01*
X-756613Y595118D01*
X-756892Y594696D01*
X-803376Y548212D01*
X-803779Y547941D01*
X-804274Y547840D01*
X-806652Y547840D01*
X-808140Y546352D01*
X-808140Y520448D01*
X-806652Y518960D01*
X-793548Y518960D01*
X-793078Y519430D01*
X-792694Y519693D01*
X-792200Y519802D01*
X-791703Y519709D01*
X-791282Y519430D01*
X-790812Y518960D01*
X-778874Y518960D01*
X-778398Y518867D01*
X-777976Y518588D01*
X-767873Y508485D01*
X-731861Y508485D01*
X-731403Y508400D01*
X-730977Y508127D01*
X-730692Y507710D01*
X-730591Y507215D01*
X-730591Y505087D01*
X-729103Y503599D01*
X-695960Y503599D01*
X-695502Y503514D01*
X-695076Y503241D01*
X-694791Y502824D01*
X-694690Y502329D01*
X-694690Y473710D01*
X-694775Y473252D01*
X-695048Y472826D01*
X-695465Y472541D01*
X-695960Y472440D01*
X-736554Y472440D01*
X-736966Y472410D01*
X-737325Y472331D01*
X-737669Y472201D01*
X-737990Y472022D01*
X-738282Y471799D01*
X-738538Y471536D01*
X-738754Y471239D01*
X-738925Y470914D01*
X-739047Y470568D01*
X-739119Y470200D01*
X-739140Y469861D01*
X-739140Y393746D01*
X-739110Y393334D01*
X-739031Y392975D01*
X-738901Y392631D01*
X-738722Y392310D01*
X-738499Y392019D01*
X-738236Y391762D01*
X-737939Y391546D01*
X-737614Y391375D01*
X-737268Y391253D01*
X-736900Y391181D01*
X-736561Y391160D01*
X-632460Y391160D01*
X-632002Y391075D01*
X-631576Y390802D01*
X-631291Y390385D01*
X-631190Y389890D01*
X-631190Y361271D01*
X-631275Y360813D01*
X-631548Y360387D01*
X-631965Y360102D01*
X-632460Y360001D01*
X-665603Y360001D01*
X-667091Y358513D01*
X-667091Y344097D01*
X-665603Y342609D01*
X-656190Y342609D01*
X-655732Y342524D01*
X-655306Y342251D01*
X-655021Y341834D01*
X-654920Y341339D01*
X-654920Y193510D01*
X-655005Y193052D01*
X-655278Y192626D01*
X-655695Y192341D01*
X-656190Y192240D01*
X-663812Y192240D01*
X-664282Y191770D01*
X-664666Y191507D01*
X-665160Y191398D01*
X-665657Y191491D01*
X-666078Y191770D01*
X-666548Y192240D01*
X-679652Y192240D01*
X-681140Y190752D01*
X-681140Y169474D01*
X-681235Y168992D01*
X-681516Y168572D01*
X-681939Y168295D01*
X-682436Y168204D01*
X-682929Y168315D01*
X-683340Y168610D01*
X-714788Y202444D01*
X-714896Y202578D01*
X-756082Y261151D01*
X-756155Y261268D01*
X-764370Y276157D01*
X-764528Y276730D01*
X-764443Y277228D01*
X-764170Y277654D01*
X-763754Y277940D01*
X-763258Y278040D01*
X-754759Y278040D01*
X-754289Y278510D01*
X-753905Y278773D01*
X-753411Y278882D01*
X-752914Y278789D01*
X-752493Y278510D01*
X-752023Y278040D01*
X-726619Y278040D01*
X-725131Y279528D01*
X-725131Y305432D01*
X-726619Y306920D01*
X-734241Y306920D01*
X-734699Y307006D01*
X-735124Y307278D01*
X-735410Y307695D01*
X-735511Y308190D01*
X-735511Y312675D01*
X-735418Y313152D01*
X-735139Y313573D01*
X-707390Y341322D01*
X-707390Y341339D01*
X-707305Y341797D01*
X-707032Y342223D01*
X-706615Y342508D01*
X-706120Y342609D01*
X-693297Y342609D01*
X-691809Y344097D01*
X-691809Y358513D01*
X-693297Y360001D01*
X-729103Y360001D01*
X-730591Y358513D01*
X-730591Y344097D01*
X-729103Y342609D01*
X-719945Y342609D01*
X-719506Y342531D01*
X-719076Y342265D01*
X-718784Y341853D01*
X-718675Y341359D01*
X-718768Y340862D01*
X-719047Y340441D01*
X-743131Y316357D01*
X-743131Y308190D01*
X-743216Y307732D01*
X-743489Y307307D01*
X-743905Y307021D01*
X-744401Y306920D01*
X-752023Y306920D01*
X-752493Y306450D01*
X-752877Y306187D01*
X-753371Y306079D01*
X-753867Y306171D01*
X-754289Y306450D01*
X-754759Y306920D01*
X-756920Y306920D01*
X-757378Y307006D01*
X-757804Y307278D01*
X-758089Y307695D01*
X-758190Y308190D01*
X-758190Y319078D01*
X-770518Y331406D01*
X-770789Y331809D01*
X-770890Y332304D01*
X-770890Y390690D01*
X-770805Y391148D01*
X-770532Y391574D01*
X-770115Y391859D01*
X-769620Y391960D01*
X-765408Y391960D01*
X-763920Y393448D01*
X-763920Y419352D01*
X-765408Y420840D01*
X-790812Y420840D01*
X-792300Y419352D01*
X-792300Y393448D01*
X-790812Y391960D01*
X-779780Y391960D01*
X-779322Y391875D01*
X-778896Y391602D01*
X-778611Y391185D01*
X-778510Y390690D01*
X-778510Y328622D01*
X-766182Y316294D01*
X-765911Y315891D01*
X-765810Y315396D01*
X-765810Y308190D01*
X-765895Y307732D01*
X-766168Y307307D01*
X-766585Y307021D01*
X-767080Y306920D01*
X-767863Y306920D01*
X-769351Y305432D01*
X-769351Y290114D01*
X-769385Y289821D01*
X-769598Y289362D01*
X-769972Y289022D01*
X-770449Y288856D01*
X-770954Y288889D01*
X-771405Y289116D01*
X-771733Y289501D01*
X-780034Y304547D01*
X-780108Y304704D01*
X-795141Y343733D01*
X-795184Y343865D01*
X-808674Y394946D01*
X-808700Y395071D01*
X-815961Y440763D01*
X-815977Y440963D01*
X-815977Y532164D01*
X-815965Y532336D01*
X-808603Y586267D01*
X-808595Y586319D01*
X-801847Y624072D01*
X-801802Y624248D01*
X-789859Y660364D01*
X-789832Y660438D01*
X-775429Y696373D01*
X-775429Y696373D01*
X-756431Y743773D01*
X-756406Y743830D01*
X-725738Y810646D01*
X-725539Y810954D01*
X-725279Y811249D01*
X-724783Y812712D01*
X-724734Y812834D01*
X-724090Y814237D01*
X-724075Y814630D01*
X-724009Y814991D01*
X-715897Y838874D01*
X-715734Y839195D01*
X-715488Y839545D01*
X-715160Y841020D01*
X-715123Y841152D01*
X-714638Y842582D01*
X-714665Y843010D01*
X-714638Y843368D01*
X-706247Y881085D01*
X-706140Y881384D01*
X-705853Y881948D01*
X-705752Y883253D01*
X-705725Y883431D01*
X-705441Y884709D01*
X-705551Y885332D01*
X-705566Y885650D01*
X-702305Y927636D01*
X-702290Y927759D01*
X-702015Y929314D01*
X-702093Y929664D01*
X-702119Y930037D01*
X-702091Y930393D01*
X-702581Y931895D01*
X-702613Y932014D01*
X-709096Y961278D01*
X-709126Y961507D01*
X-709164Y962568D01*
X-709531Y963369D01*
X-709616Y963623D01*
X-709806Y964483D01*
X-710415Y965353D01*
X-710530Y965553D01*
X-721415Y989348D01*
X-721417Y989353D01*
X-722311Y991328D01*
X-723903Y992808D01*
X-723906Y992812D01*
X-734410Y1002659D01*
X-734664Y1002993D01*
X-734726Y1003109D01*
X-736112Y1004258D01*
X-736170Y1004309D01*
X-737484Y1005541D01*
X-737607Y1005588D01*
X-737970Y1005798D01*
X-738071Y1005882D01*
X-739791Y1006413D01*
X-739864Y1006439D01*
X-741550Y1007074D01*
X-741681Y1007070D01*
X-742097Y1007126D01*
X-752367Y1010298D01*
X-752479Y1010338D01*
X-753961Y1010952D01*
X-754294Y1010952D01*
X-754668Y1011008D01*
X-754986Y1011106D01*
X-756584Y1010957D01*
X-756702Y1010952D01*
X-772222Y1010952D01*
X-772651Y1011026D01*
X-772702Y1011044D01*
X-774576Y1010953D01*
X-774637Y1010952D01*
X-776513Y1010952D01*
X-776563Y1010931D01*
X-776988Y1010836D01*
X-777042Y1010833D01*
X-778738Y1010032D01*
X-778794Y1010007D01*
X-780528Y1009289D01*
X-780566Y1009251D01*
X-780922Y1009000D01*
X-813887Y993428D01*
X-814429Y993306D01*
X-816147Y993306D01*
X-816539Y993368D01*
X-816979Y993617D01*
X-817287Y994017D01*
X-817415Y994506D01*
X-817342Y995006D01*
X-817079Y995438D01*
X-793340Y1021115D01*
X-793015Y1021368D01*
X-792866Y1021449D01*
X-791758Y1022821D01*
X-791703Y1022886D01*
X-790506Y1024181D01*
X-790447Y1024340D01*
X-790244Y1024698D01*
X-759012Y1063384D01*
X-758760Y1063621D01*
X-758356Y1063909D01*
X-757589Y1065132D01*
X-757501Y1065255D01*
X-756594Y1066379D01*
X-756454Y1066855D01*
X-756312Y1067170D01*
X-731712Y1106427D01*
X-731465Y1106714D01*
X-731213Y1106932D01*
X-730492Y1108364D01*
X-730434Y1108467D01*
X-729582Y1109827D01*
X-729527Y1110155D01*
X-729409Y1110515D01*
X-692832Y1183131D01*
X-692652Y1183398D01*
X-692246Y1183860D01*
X-691819Y1185116D01*
X-691751Y1185278D01*
X-691154Y1186462D01*
X-691109Y1187076D01*
X-691045Y1187391D01*
X-673606Y1238653D01*
X-673413Y1239015D01*
X-673305Y1239156D01*
X-672854Y1240853D01*
X-672829Y1240936D01*
X-672263Y1242599D01*
X-672275Y1242776D01*
X-672235Y1243184D01*
X-659600Y1290744D01*
X-659491Y1291019D01*
X-659140Y1291672D01*
X-659019Y1292867D01*
X-658983Y1293066D01*
X-658675Y1294226D01*
X-658773Y1294962D01*
X-658778Y1295258D01*
X-655129Y1331397D01*
X-655061Y1331698D01*
X-654799Y1332131D01*
X-654389Y1332426D01*
X-653896Y1332539D01*
X-653398Y1332450D01*
X-652975Y1332174D01*
X-652692Y1331755D01*
X-650448Y1326337D01*
X-643663Y1319552D01*
X-634798Y1315880D01*
X-625202Y1315880D01*
X-616337Y1319552D01*
X-609552Y1326337D01*
X-606563Y1333553D01*
X-606330Y1333921D01*
X-605922Y1334220D01*
X-605430Y1334336D01*
X-604932Y1334251D01*
X-604506Y1333979D01*
X-604221Y1333562D01*
X-604120Y1333067D01*
X-604120Y1259132D01*
X-601082Y1256094D01*
X-600811Y1255691D01*
X-600710Y1255196D01*
X-600710Y1233461D01*
X-600795Y1233003D01*
X-601068Y1232577D01*
X-601485Y1232292D01*
X-601980Y1232191D01*
X-614803Y1232191D01*
X-616291Y1230703D01*
X-616291Y1216287D01*
X-614803Y1214799D01*
X-578997Y1214799D01*
X-577509Y1216287D01*
X-577509Y1230703D01*
X-578997Y1232191D01*
X-591820Y1232191D01*
X-592278Y1232276D01*
X-592704Y1232549D01*
X-592989Y1232966D01*
X-593090Y1233461D01*
X-593090Y1258878D01*
X-596128Y1261916D01*
X-596399Y1262319D01*
X-596500Y1262814D01*
X-596500Y1368590D01*
X-596415Y1369048D01*
X-596142Y1369474D01*
X-595725Y1369759D01*
X-595230Y1369860D01*
X-587608Y1369860D01*
X-586120Y1371348D01*
X-586120Y1397252D01*
X-587608Y1398740D01*
X-613012Y1398740D01*
X-613482Y1398270D01*
X-613866Y1398007D01*
X-614360Y1397898D01*
X-614857Y1397991D01*
X-615278Y1398270D01*
X-615748Y1398740D01*
X-617220Y1398740D01*
X-617678Y1398825D01*
X-618104Y1399098D01*
X-618389Y1399515D01*
X-618490Y1400010D01*
X-618490Y1419390D01*
X-618405Y1419848D01*
X-618132Y1420274D01*
X-617715Y1420559D01*
X-617220Y1420660D01*
X-613008Y1420660D01*
X-611520Y1422148D01*
X-611520Y1448052D01*
X-613008Y1449540D01*
X-638412Y1449540D01*
X-639900Y1448052D01*
X-639900Y1422148D01*
X-638412Y1420660D01*
X-627380Y1420660D01*
X-626922Y1420575D01*
X-626496Y1420302D01*
X-626211Y1419885D01*
X-626110Y1419390D01*
X-626110Y1400010D01*
X-626195Y1399552D01*
X-626468Y1399126D01*
X-626885Y1398841D01*
X-627380Y1398740D01*
X-628852Y1398740D01*
X-630340Y1397252D01*
X-630340Y1371348D01*
X-628852Y1369860D01*
X-615748Y1369860D01*
X-615278Y1370330D01*
X-614894Y1370593D01*
X-614400Y1370702D01*
X-613903Y1370609D01*
X-613482Y1370330D01*
X-613012Y1369860D01*
X-605390Y1369860D01*
X-604932Y1369775D01*
X-604506Y1369502D01*
X-604221Y1369085D01*
X-604120Y1368590D01*
X-604120Y1346933D01*
X-604195Y1346504D01*
X-604457Y1346072D01*
X-604867Y1345776D01*
X-605360Y1345664D01*
X-605857Y1345753D01*
X-606281Y1346028D01*
X-606563Y1346447D01*
X-609552Y1353663D01*
X-616337Y1360448D01*
X-625202Y1364120D01*
X-634798Y1364120D01*
X-643663Y1360448D01*
X-650448Y1353663D01*
X-651873Y1350223D01*
X-652106Y1349855D01*
X-652514Y1349556D01*
X-653005Y1349440D01*
X-653504Y1349525D01*
X-653930Y1349797D01*
X-654215Y1350214D01*
X-654316Y1350709D01*
X-654316Y1465659D01*
X-654258Y1466037D01*
X-654164Y1466340D01*
X-654311Y1467953D01*
X-654316Y1468068D01*
X-654316Y1469687D01*
X-654437Y1469980D01*
X-654529Y1470351D01*
X-656703Y1494259D01*
X-656690Y1494587D01*
X-656592Y1495166D01*
X-656894Y1496485D01*
X-656921Y1496654D01*
X-657043Y1498001D01*
X-657316Y1498522D01*
X-657430Y1498829D01*
X-664796Y1531025D01*
X-664823Y1531193D01*
X-666353Y1548024D01*
X-666299Y1548522D01*
X-666053Y1548964D01*
X-665655Y1549275D01*
X-665167Y1549406D01*
X-664666Y1549336D01*
X-664232Y1549077D01*
X-655884Y1541460D01*
X-655718Y1541276D01*
X-634029Y1511879D01*
X-633968Y1511788D01*
X-596905Y1451187D01*
X-596865Y1451117D01*
X-577462Y1414322D01*
X-577403Y1414195D01*
X-552205Y1350270D01*
X-552189Y1350225D01*
X-540429Y1316735D01*
X-540406Y1316661D01*
X-529634Y1278672D01*
X-529621Y1278622D01*
X-514194Y1214496D01*
X-514177Y1214412D01*
X-506611Y1170119D01*
X-506600Y1170044D01*
X-499002Y1101222D01*
X-498997Y1101165D01*
X-495658Y1049687D01*
X-495656Y1049605D01*
X-495656Y1025754D01*
X-495671Y1025554D01*
X-498676Y1006733D01*
X-498757Y1006448D01*
X-516602Y963200D01*
X-516816Y962852D01*
X-516938Y962712D01*
X-517491Y961054D01*
X-517521Y960971D01*
X-518188Y959355D01*
X-518188Y959170D01*
X-518253Y958766D01*
X-528500Y928026D01*
X-528684Y927672D01*
X-528822Y927485D01*
X-529235Y925834D01*
X-529262Y925739D01*
X-529800Y924125D01*
X-529784Y923893D01*
X-529818Y923495D01*
X-543627Y868164D01*
X-543777Y867806D01*
X-543929Y867559D01*
X-544188Y865933D01*
X-544210Y865826D01*
X-544609Y864229D01*
X-544566Y863942D01*
X-544568Y863555D01*
X-548240Y840558D01*
X-556257Y790345D01*
X-556384Y789959D01*
X-556476Y789783D01*
X-556626Y788054D01*
X-556637Y787964D01*
X-556911Y786250D01*
X-556865Y786057D01*
X-556835Y785652D01*
X-560556Y742819D01*
X-560648Y742442D01*
X-560760Y742173D01*
X-560760Y740529D01*
X-560764Y740419D01*
X-560907Y738781D01*
X-560819Y738502D01*
X-560760Y738120D01*
X-560760Y684034D01*
X-560819Y683651D01*
X-560906Y683374D01*
X-560764Y681734D01*
X-560760Y681625D01*
X-560760Y679979D01*
X-560649Y679711D01*
X-560557Y679334D01*
X-556844Y636437D01*
X-556880Y636010D01*
X-556901Y635930D01*
X-556644Y634100D01*
X-556636Y634033D01*
X-556477Y632191D01*
X-556439Y632118D01*
X-556308Y631709D01*
X-549582Y583781D01*
X-549574Y583497D01*
X-549642Y582703D01*
X-549295Y581610D01*
X-549248Y581403D01*
X-549089Y580267D01*
X-548684Y579581D01*
X-548568Y579321D01*
X-535895Y539400D01*
X-535839Y539113D01*
X-535780Y538351D01*
X-535246Y537301D01*
X-535168Y537110D01*
X-534812Y535987D01*
X-534319Y535402D01*
X-534158Y535159D01*
X-521695Y510630D01*
X-521587Y510331D01*
X-521449Y509711D01*
X-520698Y508642D01*
X-520606Y508487D01*
X-520014Y507323D01*
X-519531Y506910D01*
X-519318Y506675D01*
X-486794Y460342D01*
X-486671Y460123D01*
X-486285Y459244D01*
X-485575Y458564D01*
X-485415Y458377D01*
X-484850Y457572D01*
X-484039Y457057D01*
X-483842Y456902D01*
X-448196Y422727D01*
X-448073Y422591D01*
X-447281Y421574D01*
X-446713Y421252D01*
X-446461Y421064D01*
X-445990Y420613D01*
X-444789Y420144D01*
X-444623Y420065D01*
X-401914Y395823D01*
X-401783Y395738D01*
X-400640Y394888D01*
X-400140Y394763D01*
X-399822Y394635D01*
X-399374Y394381D01*
X-397960Y394205D01*
X-397807Y394177D01*
X-368188Y386738D01*
X-368011Y386679D01*
X-366831Y386191D01*
X-366166Y386191D01*
X-365857Y386152D01*
X-365212Y385990D01*
X-363949Y386177D01*
X-363763Y386191D01*
X-302484Y386191D01*
X-302316Y386180D01*
X-300965Y385999D01*
X-300406Y386148D01*
X-300080Y386191D01*
X-299502Y386191D01*
X-298243Y386712D01*
X-298083Y386766D01*
X-270422Y394126D01*
X-270206Y394163D01*
X-269094Y394261D01*
X-268360Y394642D01*
X-268101Y394743D01*
X-267301Y394956D01*
X-266415Y395634D01*
X-266230Y395751D01*
X-241712Y408511D01*
X-241487Y408601D01*
X-240524Y408888D01*
X-239795Y409479D01*
X-239581Y409619D01*
X-238748Y410053D01*
X-238103Y410822D01*
X-237930Y410992D01*
X-201189Y440796D01*
X-200963Y440942D01*
X-200183Y441338D01*
X-199488Y442149D01*
X-199323Y442309D01*
X-198494Y442982D01*
X-198077Y443751D01*
X-197925Y443973D01*
X-182561Y461896D01*
X-182363Y462082D01*
X-181677Y462601D01*
X-181130Y463535D01*
X-180998Y463719D01*
X-180294Y464541D01*
X-180026Y465359D01*
X-179915Y465607D01*
X-168468Y485129D01*
X-168188Y485457D01*
X-167269Y487171D01*
X-167245Y487214D01*
X-166261Y488892D01*
X-166128Y489302D01*
X-155740Y508692D01*
X-155550Y508958D01*
X-155147Y509391D01*
X-154675Y510655D01*
X-154605Y510811D01*
X-153968Y512000D01*
X-153909Y512589D01*
X-153835Y512907D01*
X-136435Y559559D01*
X-136231Y559917D01*
X-136124Y560048D01*
X-135620Y561738D01*
X-135593Y561819D01*
X-134976Y563471D01*
X-134983Y563641D01*
X-134930Y564049D01*
X-123749Y601532D01*
X-123593Y601867D01*
X-123385Y602183D01*
X-123092Y603715D01*
X-123061Y603839D01*
X-122616Y605333D01*
X-122654Y605710D01*
X-122638Y606079D01*
X-119065Y624715D01*
X-118744Y625344D01*
X-118332Y625637D01*
X-117838Y625745D01*
X-117341Y625653D01*
X-116920Y625374D01*
X-115259Y623713D01*
X-102155Y623713D01*
X-101685Y624183D01*
X-101301Y624446D01*
X-100808Y624555D01*
X-100311Y624462D01*
X-99889Y624183D01*
X-99419Y623713D01*
X-91797Y623713D01*
X-91340Y623628D01*
X-90914Y623355D01*
X-90628Y622938D01*
X-90527Y622443D01*
X-90527Y593139D01*
X-60783Y563395D01*
X-46061Y563395D01*
X-45603Y563310D01*
X-45177Y563037D01*
X-44892Y562620D01*
X-44791Y562125D01*
X-44791Y559997D01*
X-43303Y558509D01*
X-7497Y558509D01*
X-6009Y559997D01*
X-6009Y574413D01*
X-7497Y575901D01*
X-43303Y575901D01*
X-44791Y574413D01*
X-44791Y572285D01*
X-44876Y571827D01*
X-45149Y571401D01*
X-45566Y571116D01*
X-46061Y571015D01*
X-57101Y571015D01*
X-57577Y571108D01*
X-57999Y571387D01*
X-82535Y595924D01*
X-82807Y596326D01*
X-82907Y596822D01*
X-82907Y622443D01*
X-82822Y622901D01*
X-82550Y623326D01*
X-82133Y623612D01*
X-81637Y623713D01*
X-74015Y623713D01*
X-72527Y625201D01*
X-72527Y651105D01*
X-74015Y652593D01*
X-99419Y652593D01*
X-99889Y652123D01*
X-100273Y651860D01*
X-100767Y651751D01*
X-101264Y651844D01*
X-101685Y652123D01*
X-102155Y652593D01*
X-103627Y652593D01*
X-104085Y652678D01*
X-104511Y652951D01*
X-104797Y653368D01*
X-104897Y653863D01*
X-104897Y663888D01*
X-104804Y664365D01*
X-104525Y664787D01*
X-63100Y706212D01*
X-63100Y758819D01*
X-63015Y759277D01*
X-62742Y759702D01*
X-62325Y759988D01*
X-61830Y760089D01*
X-52571Y760089D01*
X-51083Y761577D01*
X-51083Y787481D01*
X-52571Y788969D01*
X-77975Y788969D01*
X-79463Y787481D01*
X-79463Y761577D01*
X-77975Y760089D01*
X-71990Y760089D01*
X-71532Y760003D01*
X-71106Y759731D01*
X-70821Y759314D01*
X-70720Y758819D01*
X-70720Y709894D01*
X-70813Y709418D01*
X-71092Y708996D01*
X-107529Y672559D01*
X-108121Y672225D01*
X-108626Y672203D01*
X-109100Y672380D01*
X-109466Y672728D01*
X-109669Y673191D01*
X-109674Y673697D01*
X-99636Y726052D01*
X-99502Y726425D01*
X-99383Y726641D01*
X-99197Y728320D01*
X-99182Y728419D01*
X-98864Y730077D01*
X-98914Y730319D01*
X-98933Y730715D01*
X-92757Y786624D01*
X-92735Y786692D01*
X-92492Y789023D01*
X-92491Y789030D01*
X-92233Y791366D01*
X-92239Y791437D01*
X-85115Y859556D01*
X-85115Y859556D01*
X-76695Y940065D01*
X-76574Y940489D01*
X-76564Y940509D01*
X-76448Y942412D01*
X-76444Y942467D01*
X-76245Y944364D01*
X-76252Y944386D01*
X-76302Y944824D01*
X-73007Y999106D01*
X-72963Y999278D01*
X-72861Y1001505D01*
X-72860Y1001524D01*
X-72725Y1003748D01*
X-72750Y1003923D01*
X-69388Y1077366D01*
X-69293Y1077794D01*
X-69279Y1077827D01*
X-69279Y1079721D01*
X-69278Y1079779D01*
X-69191Y1081671D01*
X-69204Y1081705D01*
X-69279Y1082137D01*
X-69279Y1192106D01*
X-69243Y1192405D01*
X-69075Y1193099D01*
X-69264Y1194313D01*
X-69279Y1194508D01*
X-69279Y1195737D01*
X-69552Y1196396D01*
X-69634Y1196687D01*
X-76364Y1239903D01*
X-76378Y1240143D01*
X-76343Y1241157D01*
X-76668Y1242027D01*
X-76733Y1242276D01*
X-76876Y1243195D01*
X-77404Y1244061D01*
X-77509Y1244277D01*
X-99459Y1302993D01*
X-99510Y1303170D01*
X-99781Y1304425D01*
X-100155Y1304966D01*
X-100300Y1305244D01*
X-100530Y1305859D01*
X-101406Y1306799D01*
X-101522Y1306943D01*
X-123909Y1339315D01*
X-124070Y1339637D01*
X-124204Y1340042D01*
X-125194Y1341186D01*
X-125278Y1341294D01*
X-126138Y1342538D01*
X-126496Y1342769D01*
X-126768Y1343006D01*
X-153801Y1374254D01*
X-153936Y1374442D01*
X-154471Y1375352D01*
X-155179Y1375888D01*
X-155373Y1376070D01*
X-155954Y1376741D01*
X-156897Y1377215D01*
X-157094Y1377337D01*
X-170247Y1387287D01*
X-170365Y1387388D01*
X-171388Y1388380D01*
X-171867Y1388570D01*
X-172165Y1388738D01*
X-172577Y1389049D01*
X-173955Y1389408D01*
X-174103Y1389456D01*
X-194364Y1397492D01*
X-194529Y1397571D01*
X-195651Y1398216D01*
X-196293Y1398299D01*
X-196598Y1398378D01*
X-197201Y1398616D01*
X-198494Y1398597D01*
X-198677Y1398607D01*
X-200138Y1398796D01*
X-200566Y1398932D01*
X-200958Y1399251D01*
X-201194Y1399698D01*
X-201237Y1400202D01*
X-201080Y1400682D01*
X-171569Y1452725D01*
X-171285Y1453068D01*
X-171283Y1453070D01*
X-170402Y1454782D01*
X-170377Y1454827D01*
X-169428Y1456502D01*
X-169427Y1456505D01*
X-169296Y1456930D01*
X-144091Y1505895D01*
X-143881Y1506190D01*
X-143595Y1506490D01*
X-143045Y1507912D01*
X-142990Y1508035D01*
X-142292Y1509390D01*
X-142258Y1509803D01*
X-142177Y1510156D01*
X-113278Y1584853D01*
X-113058Y1585213D01*
X-112422Y1587062D01*
X-112406Y1587107D01*
X-111700Y1588931D01*
X-111635Y1589348D01*
X-82206Y1674843D01*
X-70205Y1709707D01*
X-70018Y1710058D01*
X-69875Y1710249D01*
X-69449Y1711891D01*
X-69421Y1711986D01*
X-68869Y1713590D01*
X-68883Y1713828D01*
X-68845Y1714224D01*
X-59004Y1752223D01*
X-44901Y1806675D01*
X-32084Y1856162D01*
X-31906Y1856556D01*
X-31870Y1856609D01*
X-31494Y1858437D01*
X-31479Y1858499D01*
X-31011Y1860306D01*
X-31020Y1860369D01*
X-31006Y1860802D01*
X-16279Y1932282D01*
X-4769Y1988151D01*
X-4754Y1988213D01*
X4601Y2024333D01*
X4686Y2024566D01*
X5799Y2026875D01*
X6063Y2027240D01*
X6490Y2027510D01*
X6989Y2027593D01*
X7480Y2027475D01*
X7886Y2027174D01*
X8143Y2026739D01*
X21887Y1986993D01*
X21922Y1986872D01*
X34916Y1932271D01*
X50453Y1866984D01*
X50409Y1866251D01*
X50143Y1865821D01*
X49731Y1865528D01*
X49237Y1865420D01*
X48740Y1865513D01*
X48319Y1865792D01*
X43663Y1870448D01*
X34798Y1874120D01*
X25202Y1874120D01*
X16337Y1870448D01*
X9552Y1863663D01*
X5880Y1854798D01*
X5880Y1845202D01*
X9552Y1836337D01*
X16337Y1829552D01*
X25202Y1825880D01*
X34798Y1825880D01*
X43663Y1829552D01*
X50448Y1836337D01*
X53582Y1843903D01*
X53971Y1844416D01*
X54422Y1844643D01*
X54926Y1844676D01*
X55404Y1844509D01*
X55778Y1844170D01*
X55991Y1843711D01*
X69745Y1785914D01*
X93789Y1684880D01*
X93822Y1684525D01*
X93801Y1684079D01*
X94306Y1682674D01*
X94346Y1682539D01*
X94692Y1681087D01*
X94953Y1680725D01*
X95120Y1680410D01*
X119319Y1613076D01*
X139026Y1558242D01*
X139101Y1557826D01*
X139102Y1557710D01*
X139815Y1556040D01*
X139842Y1555970D01*
X140456Y1554262D01*
X140534Y1554176D01*
X140763Y1553820D01*
X176188Y1470836D01*
X176284Y1470461D01*
X176312Y1470174D01*
X177087Y1468719D01*
X177134Y1468621D01*
X177781Y1467105D01*
X177987Y1466904D01*
X178220Y1466593D01*
X210421Y1406147D01*
X210569Y1405482D01*
X210442Y1404993D01*
X210134Y1404592D01*
X204662Y1399833D01*
X204662Y1399832D01*
X157399Y1358725D01*
X157263Y1358621D01*
X156135Y1357880D01*
X155802Y1357391D01*
X155586Y1357147D01*
X155139Y1356759D01*
X154537Y1355551D01*
X154451Y1355403D01*
X121573Y1307031D01*
X121431Y1306857D01*
X120666Y1306074D01*
X120351Y1305286D01*
X120222Y1305044D01*
X119746Y1304343D01*
X119524Y1303270D01*
X119459Y1303056D01*
X100209Y1254930D01*
X100122Y1254755D01*
X99495Y1253695D01*
X99394Y1252991D01*
X99316Y1252699D01*
X99052Y1252039D01*
X99067Y1250808D01*
X99055Y1250613D01*
X89405Y1183066D01*
X89321Y1182760D01*
X89078Y1182172D01*
X89078Y1180867D01*
X89065Y1180687D01*
X88881Y1179394D01*
X89038Y1178778D01*
X89078Y1178463D01*
X89078Y1001976D01*
X89013Y1001575D01*
X88951Y1001389D01*
X89075Y999655D01*
X89078Y999565D01*
X89078Y997828D01*
X89153Y997646D01*
X89247Y997251D01*
X98960Y861256D01*
X98921Y860839D01*
X98887Y860710D01*
X99124Y858927D01*
X99132Y858849D01*
X99261Y857055D01*
X99320Y856936D01*
X99443Y856535D01*
X118907Y710556D01*
X118894Y710141D01*
X118864Y709988D01*
X119213Y708246D01*
X119226Y708165D01*
X119461Y706403D01*
X119539Y706268D01*
X119686Y705880D01*
X128907Y659775D01*
X128846Y659068D01*
X128574Y658642D01*
X128157Y658356D01*
X127661Y658256D01*
X105366Y658256D01*
X103879Y656768D01*
X103879Y630864D01*
X105366Y629376D01*
X112989Y629376D01*
X113446Y629290D01*
X113872Y629018D01*
X114158Y628601D01*
X114259Y628106D01*
X114259Y591553D01*
X145756Y560056D01*
X146027Y559654D01*
X146128Y559158D01*
X146128Y548225D01*
X146042Y547767D01*
X145770Y547341D01*
X145353Y547056D01*
X144858Y546955D01*
X143385Y546955D01*
X142916Y546485D01*
X142532Y546222D01*
X142038Y546113D01*
X141541Y546206D01*
X141120Y546485D01*
X140650Y546955D01*
X115245Y546955D01*
X113758Y545467D01*
X113758Y537595D01*
X113672Y537137D01*
X113400Y536711D01*
X112983Y536426D01*
X112488Y536325D01*
X79189Y536325D01*
X78713Y536418D01*
X78291Y536697D01*
X58647Y556341D01*
X58392Y556707D01*
X58276Y557199D01*
X58361Y557697D01*
X58633Y558123D01*
X59050Y558408D01*
X59545Y558509D01*
X68703Y558509D01*
X70191Y559997D01*
X70191Y574413D01*
X68703Y575901D01*
X32897Y575901D01*
X31409Y574413D01*
X31409Y559997D01*
X32897Y558509D01*
X45720Y558509D01*
X46178Y558424D01*
X46604Y558151D01*
X46889Y557734D01*
X46990Y557239D01*
X46990Y557222D01*
X68353Y535859D01*
X68608Y535493D01*
X68724Y535001D01*
X68639Y534503D01*
X68367Y534077D01*
X67950Y533792D01*
X67455Y533691D01*
X32897Y533691D01*
X31409Y532203D01*
X31409Y517787D01*
X32897Y516299D01*
X45720Y516299D01*
X46178Y516214D01*
X46604Y515941D01*
X46889Y515524D01*
X46990Y515029D01*
X46990Y506422D01*
X61922Y491490D01*
X150296Y491490D01*
X150772Y491397D01*
X151194Y491118D01*
X186318Y455994D01*
X186589Y455591D01*
X186690Y455096D01*
X186690Y435303D01*
X186605Y434845D01*
X186332Y434419D01*
X185915Y434133D01*
X185420Y434033D01*
X181858Y434033D01*
X180370Y432545D01*
X180370Y406641D01*
X181858Y405153D01*
X207262Y405153D01*
X207732Y405623D01*
X208116Y405886D01*
X208610Y405994D01*
X209107Y405902D01*
X209528Y405623D01*
X209998Y405153D01*
X223102Y405153D01*
X224590Y406641D01*
X224590Y414513D01*
X224676Y414971D01*
X224948Y415396D01*
X225365Y415682D01*
X225860Y415783D01*
X226003Y415783D01*
X226480Y415690D01*
X226901Y415411D01*
X277822Y364490D01*
X330850Y364490D01*
X331308Y364405D01*
X331734Y364132D01*
X332019Y363715D01*
X332120Y363220D01*
X332120Y355348D01*
X333608Y353860D01*
X359012Y353860D01*
X360500Y355348D01*
X360500Y381252D01*
X359012Y382740D01*
X333608Y382740D01*
X332120Y381252D01*
X332120Y373380D01*
X332035Y372922D01*
X331762Y372496D01*
X331345Y372211D01*
X330850Y372110D01*
X281504Y372110D01*
X281028Y372203D01*
X280606Y372482D01*
X229685Y423403D01*
X225860Y423403D01*
X225402Y423488D01*
X224977Y423761D01*
X224691Y424177D01*
X224590Y424673D01*
X224590Y428045D01*
X224792Y428732D01*
X225145Y429094D01*
X225611Y429290D01*
X226116Y429289D01*
X226581Y429091D01*
X261653Y404907D01*
X261738Y404843D01*
X263022Y403788D01*
X263285Y403708D01*
X263637Y403539D01*
X263863Y403383D01*
X265487Y403035D01*
X265590Y403009D01*
X315719Y387788D01*
X315875Y387730D01*
X317123Y387163D01*
X317693Y387144D01*
X318020Y387090D01*
X318566Y386924D01*
X319929Y387058D01*
X320096Y387064D01*
X377819Y385131D01*
X378032Y385106D01*
X379145Y384877D01*
X379937Y385029D01*
X380219Y385051D01*
X381026Y385024D01*
X382089Y385423D01*
X382297Y385482D01*
X400753Y389023D01*
X401027Y389045D01*
X401870Y389022D01*
X402897Y389415D01*
X403112Y389476D01*
X404192Y389683D01*
X404896Y390147D01*
X405141Y390272D01*
X439229Y403301D01*
X439286Y403321D01*
X441071Y403907D01*
X441110Y403940D01*
X441484Y404163D01*
X441532Y404181D01*
X442897Y405473D01*
X442942Y405514D01*
X461185Y421181D01*
X461185Y421181D01*
X495845Y450947D01*
X495937Y451019D01*
X497250Y451951D01*
X497424Y452228D01*
X497672Y452516D01*
X497920Y452729D01*
X498647Y454165D01*
X498705Y454267D01*
X515147Y480451D01*
X534458Y511205D01*
X534647Y511439D01*
X535163Y511943D01*
X535644Y513065D01*
X535736Y513240D01*
X536385Y514274D01*
X536506Y514985D01*
X536590Y515273D01*
X551625Y550352D01*
X551831Y550682D01*
X552017Y550897D01*
X552535Y552465D01*
X552574Y552566D01*
X553225Y554085D01*
X553228Y554369D01*
X553292Y554752D01*
X569054Y602391D01*
X569159Y602624D01*
X569625Y603436D01*
X569755Y604435D01*
X569809Y604671D01*
X570125Y605627D01*
X570056Y606561D01*
X570063Y606817D01*
X573975Y636992D01*
X574061Y637315D01*
X574273Y637828D01*
X574273Y639213D01*
X574284Y639376D01*
X574462Y640751D01*
X574317Y641286D01*
X574273Y641618D01*
X574273Y785105D01*
X574323Y785459D01*
X574446Y785883D01*
X574281Y787371D01*
X574273Y787511D01*
X574273Y789008D01*
X574104Y789416D01*
X574015Y789762D01*
X570116Y824861D01*
X570126Y825211D01*
X570204Y825678D01*
X569875Y827107D01*
X569850Y827252D01*
X569689Y828709D01*
X569460Y829123D01*
X569335Y829451D01*
X560640Y867199D01*
X560640Y867199D01*
X550519Y911141D01*
X550487Y911470D01*
X550507Y912043D01*
X550027Y913324D01*
X549979Y913484D01*
X549672Y914817D01*
X549339Y915284D01*
X549184Y915576D01*
X532285Y960711D01*
X518261Y998169D01*
X518212Y998329D01*
X512967Y1021101D01*
X512935Y1021386D01*
X512935Y1059678D01*
X512944Y1059830D01*
X524041Y1152121D01*
X530554Y1206288D01*
X536509Y1255812D01*
X536566Y1256064D01*
X554814Y1310432D01*
X554814Y1310432D01*
X580113Y1385807D01*
X580173Y1385953D01*
X612726Y1453711D01*
X612809Y1453858D01*
X637804Y1491984D01*
X662721Y1529989D01*
X662849Y1530153D01*
X681230Y1550103D01*
X681641Y1550400D01*
X682473Y1550776D01*
X682902Y1550885D01*
X683403Y1550821D01*
X683840Y1550567D01*
X684143Y1550162D01*
X684264Y1549671D01*
X684185Y1549172D01*
X675654Y1526427D01*
X675568Y1526244D01*
X674974Y1525202D01*
X674881Y1524465D01*
X674810Y1524178D01*
X674549Y1523482D01*
X674590Y1522283D01*
X674581Y1522081D01*
X668654Y1475066D01*
X668585Y1474786D01*
X668320Y1474356D01*
X667907Y1474063D01*
X667414Y1473955D01*
X666917Y1474047D01*
X666496Y1474327D01*
X665882Y1474940D01*
X640478Y1474940D01*
X638990Y1473452D01*
X638990Y1447548D01*
X639627Y1446911D01*
X639890Y1446527D01*
X639999Y1446033D01*
X639906Y1445536D01*
X639627Y1445115D01*
X605790Y1411278D01*
X605790Y1387310D01*
X605705Y1386852D01*
X605432Y1386426D01*
X605015Y1386141D01*
X604520Y1386040D01*
X603048Y1386040D01*
X601560Y1384552D01*
X601560Y1358648D01*
X603048Y1357160D01*
X612106Y1357160D01*
X612545Y1357082D01*
X612975Y1356816D01*
X613267Y1356404D01*
X613376Y1355910D01*
X613283Y1355413D01*
X613004Y1354992D01*
X605790Y1347778D01*
X605790Y1233461D01*
X605705Y1233003D01*
X605432Y1232577D01*
X605015Y1232292D01*
X604520Y1232191D01*
X591697Y1232191D01*
X590209Y1230703D01*
X590209Y1216287D01*
X591697Y1214799D01*
X627503Y1214799D01*
X628991Y1216287D01*
X628991Y1230703D01*
X627503Y1232191D01*
X614680Y1232191D01*
X614222Y1232276D01*
X613796Y1232549D01*
X613511Y1232966D01*
X613410Y1233461D01*
X613410Y1324781D01*
X613485Y1325210D01*
X613747Y1325642D01*
X614157Y1325938D01*
X614650Y1326050D01*
X615147Y1325962D01*
X615571Y1325686D01*
X615853Y1325267D01*
X619552Y1316337D01*
X626337Y1309552D01*
X635202Y1305880D01*
X644798Y1305880D01*
X653663Y1309552D01*
X660448Y1316337D01*
X664120Y1325202D01*
X664120Y1334798D01*
X660448Y1343663D01*
X653663Y1350448D01*
X644798Y1354120D01*
X635202Y1354120D01*
X626337Y1350448D01*
X619552Y1343663D01*
X615853Y1334733D01*
X615620Y1334365D01*
X615212Y1334066D01*
X614720Y1333950D01*
X614222Y1334035D01*
X613796Y1334307D01*
X613511Y1334724D01*
X613410Y1335219D01*
X613410Y1344096D01*
X613503Y1344572D01*
X613782Y1344994D01*
X625576Y1356788D01*
X625979Y1357059D01*
X626474Y1357160D01*
X644292Y1357160D01*
X645780Y1358648D01*
X645780Y1384552D01*
X644292Y1386040D01*
X618888Y1386040D01*
X618418Y1385570D01*
X618034Y1385307D01*
X617540Y1385198D01*
X617043Y1385291D01*
X616622Y1385570D01*
X616152Y1386040D01*
X614680Y1386040D01*
X614222Y1386125D01*
X613796Y1386398D01*
X613511Y1386815D01*
X613410Y1387310D01*
X613410Y1407596D01*
X613503Y1408072D01*
X613782Y1408494D01*
X650976Y1445688D01*
X651379Y1445959D01*
X651874Y1446060D01*
X665571Y1446060D01*
X666029Y1445975D01*
X666454Y1445702D01*
X666740Y1445285D01*
X666841Y1444790D01*
X666841Y1349198D01*
X666820Y1348967D01*
X666628Y1347929D01*
X666813Y1347061D01*
X666841Y1346796D01*
X666841Y1345909D01*
X667245Y1344933D01*
X667314Y1344712D01*
X675362Y1306959D01*
X679864Y1285845D01*
X679806Y1285123D01*
X679534Y1284697D01*
X679117Y1284411D01*
X678622Y1284311D01*
X656381Y1284311D01*
X654893Y1282823D01*
X654893Y1256918D01*
X656381Y1255431D01*
X664003Y1255431D01*
X664460Y1255345D01*
X664886Y1255073D01*
X665172Y1254656D01*
X665273Y1254161D01*
X665273Y1234339D01*
X694318Y1205294D01*
X694589Y1204891D01*
X694690Y1204396D01*
X694690Y1184110D01*
X694605Y1183652D01*
X694332Y1183226D01*
X693915Y1182941D01*
X693420Y1182840D01*
X691948Y1182840D01*
X691478Y1182370D01*
X691094Y1182107D01*
X690600Y1181998D01*
X690103Y1182091D01*
X689682Y1182370D01*
X689212Y1182840D01*
X663808Y1182840D01*
X662320Y1181352D01*
X662320Y1155448D01*
X663808Y1153960D01*
X671430Y1153960D01*
X671888Y1153875D01*
X672314Y1153602D01*
X672599Y1153185D01*
X672700Y1152690D01*
X672700Y1150712D01*
X707018Y1116394D01*
X707289Y1115991D01*
X707390Y1115496D01*
X707390Y1068904D01*
X707297Y1068428D01*
X707018Y1068006D01*
X694659Y1055647D01*
X694293Y1055392D01*
X693801Y1055276D01*
X693303Y1055361D01*
X692877Y1055633D01*
X692592Y1056050D01*
X692491Y1056545D01*
X692491Y1057013D01*
X691003Y1058501D01*
X657860Y1058501D01*
X657402Y1058586D01*
X656976Y1058859D01*
X656691Y1059276D01*
X656590Y1059771D01*
X656590Y1092685D01*
X656675Y1093143D01*
X656948Y1093569D01*
X657365Y1093854D01*
X657860Y1093955D01*
X676131Y1093955D01*
X681733Y1096275D01*
X685585Y1100127D01*
X685987Y1100398D01*
X686483Y1100499D01*
X691003Y1100499D01*
X692491Y1101987D01*
X692491Y1116403D01*
X691003Y1117891D01*
X686483Y1117891D01*
X686006Y1117984D01*
X685585Y1118263D01*
X681733Y1122115D01*
X676131Y1124435D01*
X626110Y1124435D01*
X625652Y1124520D01*
X625226Y1124793D01*
X624941Y1125210D01*
X624840Y1125705D01*
X624840Y1154139D01*
X624925Y1154597D01*
X625198Y1155023D01*
X625615Y1155308D01*
X626110Y1155409D01*
X627503Y1155409D01*
X628991Y1156897D01*
X628991Y1171313D01*
X627503Y1172801D01*
X622983Y1172801D01*
X622506Y1172894D01*
X622085Y1173173D01*
X618233Y1177025D01*
X612631Y1179345D01*
X606569Y1179345D01*
X600967Y1177025D01*
X597115Y1173173D01*
X596713Y1172902D01*
X596217Y1172801D01*
X591697Y1172801D01*
X590209Y1171313D01*
X590209Y1156897D01*
X591697Y1155409D01*
X593090Y1155409D01*
X593548Y1155324D01*
X593974Y1155051D01*
X594259Y1154634D01*
X594360Y1154139D01*
X594360Y1119161D01*
X594275Y1118703D01*
X594002Y1118277D01*
X593585Y1117992D01*
X593090Y1117891D01*
X591697Y1117891D01*
X590209Y1116403D01*
X590209Y1101987D01*
X591697Y1100499D01*
X596217Y1100499D01*
X596694Y1100406D01*
X597115Y1100127D01*
X600967Y1096275D01*
X606569Y1093955D01*
X624840Y1093955D01*
X625298Y1093870D01*
X625724Y1093597D01*
X626009Y1093180D01*
X626110Y1092685D01*
X626110Y1059771D01*
X626025Y1059313D01*
X625752Y1058887D01*
X625335Y1058602D01*
X624840Y1058501D01*
X614680Y1058501D01*
X614222Y1058586D01*
X613796Y1058859D01*
X613511Y1059276D01*
X613410Y1059771D01*
X613410Y1068378D01*
X572272Y1109516D01*
X572001Y1109919D01*
X571900Y1110414D01*
X571900Y1152690D01*
X571985Y1153148D01*
X572258Y1153574D01*
X572675Y1153859D01*
X573170Y1153960D01*
X580792Y1153960D01*
X582280Y1155448D01*
X582280Y1181352D01*
X580792Y1182840D01*
X555388Y1182840D01*
X554918Y1182370D01*
X554534Y1182107D01*
X554040Y1181998D01*
X553543Y1182091D01*
X553122Y1182370D01*
X552652Y1182840D01*
X551180Y1182840D01*
X550722Y1182925D01*
X550296Y1183198D01*
X550011Y1183615D01*
X549910Y1184110D01*
X549910Y1204396D01*
X550003Y1204872D01*
X550282Y1205294D01*
X576068Y1231080D01*
X576068Y1252891D01*
X576154Y1253349D01*
X576426Y1253775D01*
X576843Y1254060D01*
X577338Y1254161D01*
X584960Y1254161D01*
X586448Y1255649D01*
X586448Y1281553D01*
X584960Y1283041D01*
X559556Y1283041D01*
X558068Y1281553D01*
X558068Y1255649D01*
X559556Y1254161D01*
X567178Y1254161D01*
X567636Y1254076D01*
X568062Y1253803D01*
X568348Y1253386D01*
X568448Y1252891D01*
X568448Y1234762D01*
X568355Y1234286D01*
X568076Y1233864D01*
X542290Y1208078D01*
X542290Y1184110D01*
X542205Y1183652D01*
X541932Y1183226D01*
X541515Y1182941D01*
X541020Y1182840D01*
X539548Y1182840D01*
X538060Y1181352D01*
X538060Y1155448D01*
X539548Y1153960D01*
X552652Y1153960D01*
X553122Y1154430D01*
X553506Y1154693D01*
X554000Y1154802D01*
X554497Y1154709D01*
X554918Y1154430D01*
X555388Y1153960D01*
X563010Y1153960D01*
X563468Y1153875D01*
X563894Y1153602D01*
X564179Y1153185D01*
X564280Y1152690D01*
X564280Y1106732D01*
X605418Y1065594D01*
X605689Y1065191D01*
X605790Y1064696D01*
X605790Y1059771D01*
X605705Y1059313D01*
X605432Y1058887D01*
X605015Y1058602D01*
X604520Y1058501D01*
X591697Y1058501D01*
X590209Y1057013D01*
X590209Y1042597D01*
X591697Y1041109D01*
X624840Y1041109D01*
X625298Y1041024D01*
X625724Y1040751D01*
X626009Y1040334D01*
X626110Y1039839D01*
X626110Y792044D01*
X626032Y791605D01*
X625766Y791175D01*
X625354Y790883D01*
X624860Y790774D01*
X624363Y790867D01*
X623942Y791146D01*
X599699Y815389D01*
X599427Y815792D01*
X599327Y816287D01*
X599327Y886457D01*
X599412Y886915D01*
X599685Y887340D01*
X600101Y887626D01*
X600597Y887727D01*
X608219Y887727D01*
X609707Y889215D01*
X609707Y915119D01*
X608219Y916607D01*
X582815Y916607D01*
X582345Y916137D01*
X581961Y915874D01*
X581467Y915765D01*
X580970Y915858D01*
X580549Y916137D01*
X580079Y916607D01*
X578607Y916607D01*
X578149Y916692D01*
X577723Y916965D01*
X577437Y917382D01*
X577337Y917877D01*
X577337Y1012141D01*
X569952Y1019526D01*
X569681Y1019929D01*
X569580Y1020424D01*
X569580Y1041652D01*
X568092Y1043140D01*
X542688Y1043140D01*
X541200Y1041652D01*
X541200Y1015748D01*
X542688Y1014260D01*
X563916Y1014260D01*
X564392Y1014167D01*
X564814Y1013888D01*
X569345Y1009357D01*
X569616Y1008954D01*
X569717Y1008459D01*
X569717Y917877D01*
X569631Y917419D01*
X569359Y916993D01*
X568942Y916707D01*
X568447Y916607D01*
X566975Y916607D01*
X565487Y915119D01*
X565487Y889215D01*
X566975Y887727D01*
X580079Y887727D01*
X580549Y888197D01*
X580933Y888460D01*
X581427Y888569D01*
X581923Y888476D01*
X582345Y888197D01*
X582815Y887727D01*
X590437Y887727D01*
X590895Y887642D01*
X591320Y887369D01*
X591606Y886952D01*
X591707Y886457D01*
X591707Y812605D01*
X618118Y786194D01*
X618389Y785791D01*
X618490Y785296D01*
X618490Y779972D01*
X618412Y779533D01*
X618146Y779103D01*
X617734Y778811D01*
X617240Y778702D01*
X616743Y778795D01*
X616322Y779074D01*
X614956Y780440D01*
X589552Y780440D01*
X588064Y778952D01*
X588064Y753048D01*
X589552Y751560D01*
X597174Y751560D01*
X597632Y751475D01*
X598058Y751202D01*
X598343Y750785D01*
X598444Y750290D01*
X598444Y731358D01*
X598351Y730882D01*
X598072Y730460D01*
X593090Y725478D01*
X593090Y663410D01*
X593005Y662952D01*
X592732Y662526D01*
X592315Y662241D01*
X591820Y662140D01*
X590348Y662140D01*
X588860Y660652D01*
X588860Y634748D01*
X590348Y633260D01*
X603452Y633260D01*
X603622Y633430D01*
X603988Y633685D01*
X604480Y633801D01*
X604978Y633716D01*
X605404Y633444D01*
X605689Y633027D01*
X605790Y632532D01*
X605790Y544522D01*
X637717Y512595D01*
X639739Y512595D01*
X640197Y512510D01*
X640623Y512237D01*
X640908Y511820D01*
X641009Y511325D01*
X641009Y509197D01*
X642497Y507709D01*
X675640Y507709D01*
X676098Y507624D01*
X676524Y507351D01*
X676809Y506934D01*
X676910Y506439D01*
X676910Y484161D01*
X676825Y483703D01*
X676552Y483277D01*
X676135Y482992D01*
X675640Y482891D01*
X642497Y482891D01*
X641009Y481403D01*
X641009Y479275D01*
X640924Y478817D01*
X640651Y478391D01*
X640234Y478106D01*
X639739Y478005D01*
X607409Y478005D01*
X606933Y478098D01*
X606511Y478377D01*
X595180Y489708D01*
X594909Y490111D01*
X594808Y490606D01*
X594808Y504111D01*
X593320Y505599D01*
X567916Y505599D01*
X567446Y505129D01*
X567062Y504866D01*
X566568Y504758D01*
X566071Y504850D01*
X565650Y505129D01*
X565180Y505599D01*
X552076Y505599D01*
X550588Y504111D01*
X550588Y478207D01*
X552076Y476719D01*
X552324Y476719D01*
X552763Y476641D01*
X553193Y476375D01*
X553486Y475963D01*
X553594Y475470D01*
X553501Y474973D01*
X553222Y474551D01*
X531136Y452465D01*
X530734Y452194D01*
X530238Y452093D01*
X509010Y452093D01*
X507523Y450605D01*
X507523Y424701D01*
X509010Y423213D01*
X534415Y423213D01*
X535903Y424701D01*
X535903Y445929D01*
X535995Y446406D01*
X536275Y446827D01*
X562438Y472991D01*
X562438Y475449D01*
X562523Y475907D01*
X562796Y476333D01*
X563213Y476619D01*
X563708Y476719D01*
X565180Y476719D01*
X565650Y477189D01*
X566034Y477452D01*
X566528Y477561D01*
X567025Y477468D01*
X567446Y477189D01*
X567916Y476719D01*
X593320Y476719D01*
X594458Y477858D01*
X594842Y478121D01*
X595336Y478229D01*
X595833Y478137D01*
X596254Y477858D01*
X603727Y470385D01*
X639739Y470385D01*
X640197Y470300D01*
X640623Y470027D01*
X640908Y469610D01*
X641009Y469115D01*
X641009Y466987D01*
X642497Y465499D01*
X675640Y465499D01*
X676098Y465414D01*
X676524Y465141D01*
X676809Y464724D01*
X676910Y464229D01*
X676910Y431315D01*
X676825Y430857D01*
X676552Y430431D01*
X676135Y430146D01*
X675640Y430045D01*
X657369Y430045D01*
X651767Y427725D01*
X647915Y423873D01*
X647513Y423602D01*
X647017Y423501D01*
X642497Y423501D01*
X641009Y422013D01*
X641009Y407597D01*
X642497Y406109D01*
X643890Y406109D01*
X644348Y406024D01*
X644774Y405751D01*
X645059Y405334D01*
X645160Y404839D01*
X645160Y401805D01*
X645075Y401347D01*
X644802Y400921D01*
X644385Y400636D01*
X643890Y400535D01*
X546348Y400535D01*
X540746Y398215D01*
X525814Y383283D01*
X525330Y382115D01*
X525063Y381711D01*
X524645Y381428D01*
X524149Y381331D01*
X523654Y381435D01*
X523239Y381723D01*
X523065Y381999D01*
X523045Y381988D01*
X522822Y382390D01*
X522599Y382682D01*
X522336Y382938D01*
X522039Y383154D01*
X521714Y383325D01*
X521368Y383447D01*
X521000Y383519D01*
X520661Y383540D01*
X457246Y383540D01*
X456834Y383510D01*
X456475Y383431D01*
X456131Y383301D01*
X455810Y383122D01*
X455519Y382899D01*
X455262Y382636D01*
X455046Y382339D01*
X454875Y382014D01*
X454753Y381668D01*
X454681Y381300D01*
X454660Y380961D01*
X454660Y341630D01*
X454575Y341172D01*
X454302Y340746D01*
X453885Y340461D01*
X453390Y340360D01*
X445767Y340360D01*
X445620Y340213D01*
X445217Y339942D01*
X444722Y339841D01*
X434787Y339841D01*
X433299Y338353D01*
X433299Y322047D01*
X434787Y320559D01*
X447203Y320559D01*
X448691Y322047D01*
X448691Y331470D01*
X448776Y331928D01*
X449049Y332354D01*
X449466Y332639D01*
X449961Y332740D01*
X453390Y332740D01*
X453848Y332655D01*
X454274Y332382D01*
X454559Y331965D01*
X454660Y331470D01*
X454660Y309880D01*
X454575Y309422D01*
X454302Y308996D01*
X453885Y308711D01*
X453390Y308610D01*
X449961Y308610D01*
X449503Y308695D01*
X449077Y308968D01*
X448792Y309385D01*
X448691Y309880D01*
X448691Y312953D01*
X447203Y314441D01*
X434787Y314441D01*
X433299Y312953D01*
X433299Y296647D01*
X434787Y295159D01*
X447203Y295159D01*
X448691Y296647D01*
X448691Y299720D01*
X448776Y300178D01*
X449049Y300604D01*
X449466Y300889D01*
X449961Y300990D01*
X453390Y300990D01*
X453848Y300905D01*
X454274Y300632D01*
X454559Y300215D01*
X454660Y299720D01*
X454660Y292146D01*
X454690Y291734D01*
X454769Y291375D01*
X454899Y291031D01*
X455078Y290710D01*
X455301Y290419D01*
X455564Y290162D01*
X455861Y289946D01*
X456186Y289775D01*
X456532Y289653D01*
X456900Y289581D01*
X457239Y289560D01*
X520654Y289560D01*
X521066Y289590D01*
X521425Y289669D01*
X521769Y289799D01*
X522090Y289978D01*
X522382Y290201D01*
X522638Y290464D01*
X522854Y290761D01*
X523025Y291086D01*
X523147Y291432D01*
X523219Y291800D01*
X523240Y292139D01*
X523240Y327747D01*
X523315Y328176D01*
X523577Y328609D01*
X523987Y328904D01*
X524480Y329017D01*
X524977Y328928D01*
X525401Y328652D01*
X525683Y328233D01*
X525814Y327917D01*
X530101Y323630D01*
X535703Y321310D01*
X541765Y321310D01*
X547367Y323630D01*
X551654Y327917D01*
X553974Y333519D01*
X553974Y367811D01*
X554067Y368288D01*
X554346Y368709D01*
X555120Y369483D01*
X555522Y369754D01*
X556018Y369855D01*
X598831Y369855D01*
X599081Y369958D01*
X599567Y370055D01*
X663431Y370055D01*
X669033Y372375D01*
X672885Y376227D01*
X673287Y376498D01*
X673783Y376599D01*
X678303Y376599D01*
X679791Y378087D01*
X679791Y392503D01*
X678303Y393991D01*
X676910Y393991D01*
X676452Y394076D01*
X676026Y394349D01*
X675741Y394766D01*
X675640Y395261D01*
X675640Y398295D01*
X675725Y398753D01*
X675998Y399179D01*
X676415Y399464D01*
X676910Y399565D01*
X726931Y399565D01*
X732533Y401885D01*
X736385Y405737D01*
X736787Y406008D01*
X737283Y406109D01*
X741803Y406109D01*
X743291Y407597D01*
X743291Y422013D01*
X741803Y423501D01*
X737283Y423501D01*
X736806Y423594D01*
X736385Y423873D01*
X732533Y427725D01*
X726931Y430045D01*
X708660Y430045D01*
X708202Y430130D01*
X707776Y430403D01*
X707491Y430820D01*
X707390Y431315D01*
X707390Y464229D01*
X707475Y464687D01*
X707748Y465113D01*
X708165Y465398D01*
X708660Y465499D01*
X741803Y465499D01*
X743291Y466987D01*
X743291Y469115D01*
X743376Y469573D01*
X743649Y469999D01*
X744066Y470284D01*
X744561Y470385D01*
X783808Y470385D01*
X784266Y470300D01*
X784692Y470027D01*
X784977Y469610D01*
X785078Y469115D01*
X785078Y460210D01*
X784993Y459752D01*
X784720Y459326D01*
X784303Y459041D01*
X783808Y458940D01*
X776186Y458940D01*
X774698Y457452D01*
X774698Y431548D01*
X776186Y430060D01*
X801590Y430060D01*
X802060Y430530D01*
X802444Y430793D01*
X802938Y430902D01*
X803435Y430809D01*
X803856Y430530D01*
X804326Y430060D01*
X817430Y430060D01*
X818918Y431548D01*
X818918Y457452D01*
X817430Y458940D01*
X815958Y458940D01*
X815500Y459025D01*
X815074Y459298D01*
X814789Y459715D01*
X814688Y460210D01*
X814688Y535149D01*
X814773Y535607D01*
X815046Y536032D01*
X815463Y536318D01*
X815826Y536392D01*
X817341Y537907D01*
X817341Y563811D01*
X815853Y565299D01*
X790449Y565299D01*
X788961Y563811D01*
X788961Y537907D01*
X790449Y536419D01*
X805798Y536419D01*
X806256Y536333D01*
X806682Y536061D01*
X806967Y535644D01*
X807068Y535149D01*
X807068Y460210D01*
X806983Y459752D01*
X806710Y459326D01*
X806293Y459041D01*
X805798Y458940D01*
X804326Y458940D01*
X803856Y458470D01*
X803472Y458207D01*
X802978Y458098D01*
X802481Y458191D01*
X802060Y458470D01*
X801590Y458940D01*
X793968Y458940D01*
X793510Y459025D01*
X793084Y459298D01*
X792799Y459715D01*
X792698Y460210D01*
X792698Y475773D01*
X790466Y478005D01*
X744561Y478005D01*
X744103Y478090D01*
X743677Y478363D01*
X743392Y478780D01*
X743291Y479275D01*
X743291Y481403D01*
X741803Y482891D01*
X708660Y482891D01*
X708202Y482976D01*
X707776Y483249D01*
X707491Y483666D01*
X707390Y484161D01*
X707390Y506439D01*
X707475Y506897D01*
X707748Y507323D01*
X708165Y507608D01*
X708660Y507709D01*
X741803Y507709D01*
X743291Y509197D01*
X743291Y515620D01*
X743376Y516078D01*
X743649Y516504D01*
X744066Y516789D01*
X744561Y516890D01*
X750878Y516890D01*
X769220Y535232D01*
X769220Y631990D01*
X769305Y632448D01*
X769578Y632874D01*
X769995Y633159D01*
X770490Y633260D01*
X778112Y633260D01*
X778582Y633730D01*
X778966Y633993D01*
X779460Y634102D01*
X779957Y634009D01*
X780378Y633730D01*
X780848Y633260D01*
X793952Y633260D01*
X795440Y634748D01*
X795440Y660652D01*
X793952Y662140D01*
X792480Y662140D01*
X792022Y662225D01*
X791596Y662498D01*
X791311Y662915D01*
X791210Y663410D01*
X791210Y687378D01*
X731752Y746836D01*
X731480Y747239D01*
X731380Y747734D01*
X731380Y754128D01*
X731465Y754586D01*
X731738Y755012D01*
X732154Y755298D01*
X732650Y755398D01*
X740272Y755398D01*
X741760Y756886D01*
X741760Y782790D01*
X740272Y784278D01*
X714868Y784278D01*
X713380Y782790D01*
X713380Y756886D01*
X714868Y755398D01*
X722490Y755398D01*
X722948Y755313D01*
X723373Y755040D01*
X723659Y754623D01*
X723760Y754128D01*
X723760Y744052D01*
X783218Y684594D01*
X783489Y684191D01*
X783590Y683696D01*
X783590Y663410D01*
X783505Y662952D01*
X783232Y662526D01*
X782815Y662241D01*
X782320Y662140D01*
X780848Y662140D01*
X780378Y661670D01*
X779994Y661407D01*
X779500Y661298D01*
X779003Y661391D01*
X778582Y661670D01*
X778112Y662140D01*
X752708Y662140D01*
X751220Y660652D01*
X751220Y634748D01*
X752708Y633260D01*
X760330Y633260D01*
X760788Y633175D01*
X761214Y632902D01*
X761499Y632485D01*
X761600Y631990D01*
X761600Y538914D01*
X761507Y538438D01*
X761228Y538016D01*
X748094Y524882D01*
X747691Y524611D01*
X747196Y524510D01*
X742920Y524510D01*
X742444Y524603D01*
X742022Y524882D01*
X741803Y525101D01*
X708660Y525101D01*
X708202Y525186D01*
X707776Y525459D01*
X707491Y525876D01*
X707390Y526371D01*
X707390Y554990D01*
X707475Y555448D01*
X707748Y555874D01*
X708165Y556159D01*
X708660Y556260D01*
X749254Y556260D01*
X749666Y556290D01*
X750025Y556369D01*
X750369Y556499D01*
X750690Y556678D01*
X750982Y556901D01*
X751238Y557164D01*
X751454Y557461D01*
X751625Y557786D01*
X751747Y558132D01*
X751819Y558500D01*
X751840Y558839D01*
X751840Y622254D01*
X751810Y622666D01*
X751731Y623025D01*
X751601Y623369D01*
X751422Y623690D01*
X751199Y623982D01*
X750936Y624238D01*
X750639Y624454D01*
X750314Y624625D01*
X749968Y624747D01*
X749600Y624819D01*
X749261Y624840D01*
X744190Y624840D01*
X743714Y624933D01*
X743292Y625212D01*
X741803Y626701D01*
X708660Y626701D01*
X708202Y626786D01*
X707776Y627059D01*
X707491Y627476D01*
X707390Y627971D01*
X707390Y667429D01*
X707475Y667887D01*
X707748Y668313D01*
X708165Y668598D01*
X708660Y668699D01*
X741803Y668699D01*
X743291Y670187D01*
X743291Y684603D01*
X741803Y686091D01*
X728980Y686091D01*
X728522Y686176D01*
X728096Y686449D01*
X727811Y686866D01*
X727710Y687361D01*
X727710Y712778D01*
X689982Y750506D01*
X689711Y750909D01*
X689610Y751404D01*
X689610Y887790D01*
X689695Y888248D01*
X689968Y888674D01*
X690385Y888959D01*
X690880Y889060D01*
X703130Y889060D01*
X704618Y890548D01*
X704618Y916452D01*
X703130Y917940D01*
X677725Y917940D01*
X677256Y917470D01*
X676871Y917207D01*
X676378Y917098D01*
X675881Y917191D01*
X675459Y917470D01*
X674990Y917940D01*
X673518Y917940D01*
X673060Y918025D01*
X672634Y918298D01*
X672348Y918715D01*
X672248Y919210D01*
X672248Y945733D01*
X672340Y946210D01*
X672619Y946631D01*
X741621Y1015633D01*
X742024Y1015905D01*
X742519Y1016005D01*
X763278Y1016005D01*
X764766Y1017493D01*
X764766Y1043397D01*
X763278Y1044885D01*
X737874Y1044885D01*
X736386Y1043397D01*
X736386Y1021700D01*
X736293Y1021223D01*
X736014Y1020802D01*
X664628Y949416D01*
X664628Y919210D01*
X664542Y918752D01*
X664270Y918326D01*
X663853Y918041D01*
X663358Y917940D01*
X661885Y917940D01*
X660398Y916452D01*
X660398Y890548D01*
X661885Y889060D01*
X674990Y889060D01*
X675459Y889530D01*
X675844Y889793D01*
X676337Y889902D01*
X676834Y889809D01*
X677256Y889530D01*
X677725Y889060D01*
X680720Y889060D01*
X681178Y888975D01*
X681604Y888702D01*
X681889Y888285D01*
X681990Y887790D01*
X681990Y752329D01*
X681912Y751890D01*
X681646Y751460D01*
X681234Y751167D01*
X680740Y751059D01*
X680243Y751152D01*
X679822Y751431D01*
X656962Y774291D01*
X656691Y774693D01*
X656590Y775189D01*
X656590Y1039839D01*
X656675Y1040297D01*
X656948Y1040723D01*
X657365Y1041008D01*
X657860Y1041109D01*
X691003Y1041109D01*
X692491Y1042597D01*
X692491Y1044725D01*
X692576Y1045183D01*
X692849Y1045609D01*
X693266Y1045894D01*
X693761Y1045995D01*
X695783Y1045995D01*
X715010Y1065222D01*
X715010Y1119178D01*
X682396Y1151792D01*
X682141Y1152158D01*
X682025Y1152650D01*
X682110Y1153148D01*
X682382Y1153574D01*
X682799Y1153859D01*
X683294Y1153960D01*
X689212Y1153960D01*
X689682Y1154430D01*
X690066Y1154693D01*
X690560Y1154802D01*
X691057Y1154709D01*
X691478Y1154430D01*
X691948Y1153960D01*
X705052Y1153960D01*
X706540Y1155448D01*
X706540Y1181352D01*
X705052Y1182840D01*
X703580Y1182840D01*
X703122Y1182925D01*
X702696Y1183198D01*
X702411Y1183615D01*
X702310Y1184110D01*
X702310Y1196936D01*
X702426Y1197465D01*
X702724Y1197874D01*
X703158Y1198133D01*
X703658Y1198203D01*
X704147Y1198072D01*
X704545Y1197761D01*
X704791Y1197319D01*
X707959Y1187327D01*
X708014Y1187059D01*
X708092Y1186209D01*
X708599Y1185245D01*
X708686Y1185038D01*
X709015Y1183999D01*
X709565Y1183346D01*
X709717Y1183119D01*
X741463Y1122769D01*
X741463Y1122769D01*
X753091Y1100664D01*
X753193Y1100401D01*
X753403Y1099618D01*
X754093Y1098720D01*
X754209Y1098538D01*
X754736Y1097535D01*
X755359Y1097017D01*
X755555Y1096814D01*
X781350Y1063191D01*
X781549Y1062815D01*
X781581Y1062717D01*
X782774Y1061332D01*
X782819Y1061276D01*
X783932Y1059825D01*
X784022Y1059774D01*
X784349Y1059503D01*
X810715Y1028883D01*
X840447Y994356D01*
X840658Y994013D01*
X840741Y993813D01*
X841956Y992598D01*
X842020Y992529D01*
X843141Y991227D01*
X843334Y991130D01*
X843660Y990894D01*
X851464Y983090D01*
X851719Y982724D01*
X851835Y982232D01*
X851751Y981734D01*
X851478Y981308D01*
X851061Y981023D01*
X850566Y980922D01*
X834565Y980922D01*
X834170Y980985D01*
X833731Y981234D01*
X817564Y995313D01*
X817537Y995347D01*
X815737Y996905D01*
X815733Y996908D01*
X814099Y998331D01*
X812038Y999014D01*
X812034Y999016D01*
X809780Y999772D01*
X809737Y999777D01*
X793857Y1005044D01*
X793771Y1005076D01*
X792173Y1005738D01*
X791969Y1005738D01*
X791569Y1005803D01*
X791376Y1005867D01*
X789650Y1005742D01*
X789558Y1005738D01*
X755418Y1005738D01*
X755212Y1005755D01*
X754048Y1005946D01*
X753305Y1005772D01*
X753015Y1005738D01*
X752253Y1005738D01*
X751163Y1005287D01*
X750966Y1005224D01*
X749817Y1004954D01*
X749198Y1004509D01*
X748943Y1004367D01*
X748238Y1004075D01*
X747404Y1003241D01*
X747247Y1003108D01*
X731680Y991925D01*
X731509Y991822D01*
X730429Y991279D01*
X729949Y990724D01*
X729729Y990524D01*
X729133Y990095D01*
X728496Y989068D01*
X728378Y988907D01*
X727587Y987993D01*
X727356Y987296D01*
X727230Y987026D01*
X726843Y986403D01*
X726648Y985210D01*
X726600Y985016D01*
X716266Y953857D01*
X716234Y953771D01*
X715572Y952173D01*
X715572Y951969D01*
X715507Y951569D01*
X715443Y951376D01*
X715568Y949650D01*
X715572Y949558D01*
X715572Y896810D01*
X715560Y896641D01*
X715379Y895298D01*
X715529Y894731D01*
X715572Y894406D01*
X715572Y893820D01*
X716090Y892568D01*
X716145Y892407D01*
X728089Y847289D01*
X728130Y846902D01*
X728116Y846619D01*
X728674Y845063D01*
X728706Y844960D01*
X729129Y843362D01*
X729301Y843137D01*
X729486Y842795D01*
X749153Y787893D01*
X749224Y787555D01*
X749260Y787059D01*
X749904Y785769D01*
X749964Y785629D01*
X750450Y784271D01*
X750785Y783903D01*
X750980Y783618D01*
X809671Y666236D01*
X809762Y665993D01*
X824143Y611674D01*
X824183Y611435D01*
X829075Y539671D01*
X829078Y539585D01*
X829078Y421009D01*
X829061Y420800D01*
X825282Y398127D01*
X824962Y397474D01*
X824552Y397179D01*
X824060Y397066D01*
X823562Y397155D01*
X823138Y397431D01*
X822856Y397850D01*
X820448Y403663D01*
X813663Y410448D01*
X804798Y414120D01*
X795202Y414120D01*
X786337Y410448D01*
X779552Y403663D01*
X775880Y394798D01*
X775880Y385202D01*
X779552Y376337D01*
X786337Y369552D01*
X795202Y365880D01*
X804798Y365880D01*
X813663Y369552D01*
X819088Y374978D01*
X819651Y375304D01*
X820155Y375338D01*
X820633Y375173D01*
X821008Y374834D01*
X821221Y374376D01*
X821239Y373871D01*
X819468Y363244D01*
X819383Y362953D01*
X797877Y312774D01*
X797650Y312420D01*
X797242Y312121D01*
X796750Y312005D01*
X796252Y312089D01*
X795826Y312362D01*
X795541Y312779D01*
X795440Y313274D01*
X795440Y330452D01*
X793952Y331940D01*
X780848Y331940D01*
X780378Y331470D01*
X779994Y331207D01*
X779500Y331098D01*
X779003Y331191D01*
X778582Y331470D01*
X778112Y331940D01*
X752708Y331940D01*
X751220Y330452D01*
X751220Y322580D01*
X751135Y322122D01*
X750862Y321696D01*
X750445Y321411D01*
X749950Y321310D01*
X726004Y321310D01*
X725528Y321403D01*
X725106Y321682D01*
X717073Y329715D01*
X681061Y329715D01*
X680603Y329800D01*
X680177Y330073D01*
X679892Y330490D01*
X679791Y330985D01*
X679791Y333113D01*
X678303Y334601D01*
X642497Y334601D01*
X641009Y333113D01*
X641009Y318697D01*
X642497Y317209D01*
X678303Y317209D01*
X679791Y318697D01*
X679791Y320825D01*
X679876Y321283D01*
X680149Y321709D01*
X680566Y321994D01*
X681061Y322095D01*
X713391Y322095D01*
X713867Y322002D01*
X714289Y321723D01*
X722322Y313690D01*
X749950Y313690D01*
X750408Y313605D01*
X750834Y313332D01*
X751119Y312915D01*
X751220Y312420D01*
X751220Y304548D01*
X752708Y303060D01*
X778112Y303060D01*
X778582Y303530D01*
X778966Y303793D01*
X779460Y303902D01*
X779957Y303809D01*
X780378Y303530D01*
X780848Y303060D01*
X782320Y303060D01*
X782778Y302975D01*
X783204Y302702D01*
X783489Y302285D01*
X783590Y301790D01*
X783590Y294204D01*
X783497Y293728D01*
X783218Y293306D01*
X720090Y230178D01*
X720090Y223012D01*
X720005Y222554D01*
X719732Y222129D01*
X719315Y221843D01*
X718820Y221742D01*
X702555Y221742D01*
X701067Y220254D01*
X701067Y194350D01*
X702555Y192862D01*
X722317Y192862D01*
X722608Y192828D01*
X723067Y192617D01*
X723407Y192243D01*
X723575Y191767D01*
X723543Y191262D01*
X723317Y190810D01*
X710535Y174458D01*
X710327Y174249D01*
X651283Y127014D01*
X651283Y127014D01*
X604186Y89336D01*
X603960Y89191D01*
X525363Y49893D01*
X525311Y49868D01*
X507386Y41902D01*
X506911Y41793D01*
X506413Y41878D01*
X505987Y42150D01*
X505701Y42567D01*
X505600Y43062D01*
X505600Y64831D01*
X504113Y66319D01*
X496490Y66319D01*
X496033Y66404D01*
X495607Y66677D01*
X495321Y67094D01*
X495220Y67589D01*
X495220Y70206D01*
X495313Y70683D01*
X495592Y71104D01*
X509206Y84718D01*
X509609Y84989D01*
X510104Y85090D01*
X585778Y85090D01*
X599276Y98588D01*
X599276Y113082D01*
X599362Y113540D01*
X599634Y113966D01*
X600051Y114251D01*
X600546Y114352D01*
X602018Y114352D01*
X602488Y114822D01*
X602872Y115085D01*
X603366Y115194D01*
X603863Y115101D01*
X604284Y114822D01*
X604754Y114352D01*
X630158Y114352D01*
X631646Y115840D01*
X631646Y141744D01*
X630158Y143232D01*
X627380Y143232D01*
X626922Y143317D01*
X626496Y143590D01*
X626211Y144007D01*
X626110Y144502D01*
X626110Y192078D01*
X599982Y218206D01*
X599711Y218609D01*
X599610Y219104D01*
X599610Y315739D01*
X599695Y316197D01*
X599968Y316623D01*
X600385Y316908D01*
X600880Y317009D01*
X613703Y317009D01*
X615191Y318497D01*
X615191Y332913D01*
X613703Y334401D01*
X577897Y334401D01*
X576409Y332913D01*
X576409Y318497D01*
X577897Y317009D01*
X590720Y317009D01*
X591178Y316924D01*
X591604Y316651D01*
X591889Y316234D01*
X591990Y315739D01*
X591990Y215422D01*
X618118Y189294D01*
X618389Y188891D01*
X618490Y188396D01*
X618490Y144502D01*
X618405Y144044D01*
X618132Y143618D01*
X617715Y143333D01*
X617220Y143232D01*
X604754Y143232D01*
X604284Y142762D01*
X603900Y142499D01*
X603407Y142390D01*
X602910Y142483D01*
X602488Y142762D01*
X602018Y143232D01*
X588914Y143232D01*
X587426Y141744D01*
X587426Y115840D01*
X588914Y114352D01*
X590386Y114352D01*
X590844Y114267D01*
X591270Y113994D01*
X591556Y113577D01*
X591656Y113082D01*
X591656Y102271D01*
X591563Y101794D01*
X591284Y101373D01*
X582994Y93082D01*
X582591Y92811D01*
X582096Y92710D01*
X506422Y92710D01*
X487600Y73889D01*
X487600Y67589D01*
X487515Y67131D01*
X487243Y66705D01*
X486826Y66420D01*
X486330Y66319D01*
X478708Y66319D01*
X477220Y64831D01*
X477220Y38927D01*
X478708Y37439D01*
X491361Y37439D01*
X491760Y37375D01*
X492198Y37124D01*
X492504Y36722D01*
X492629Y36232D01*
X492553Y35732D01*
X492289Y35302D01*
X491877Y35008D01*
X433579Y9098D01*
X430586Y5948D01*
X429026Y1893D01*
X429137Y-2451D01*
X429731Y-3786D01*
X429840Y-4302D01*
X429840Y-75754D01*
X429762Y-76193D01*
X429496Y-76623D01*
X429084Y-76915D01*
X428590Y-77024D01*
X428093Y-76931D01*
X427672Y-76652D01*
X425037Y-74017D01*
X420796Y-72260D01*
X398205Y-72260D01*
X393963Y-74017D01*
X391398Y-76582D01*
X391014Y-76845D01*
X390520Y-76954D01*
X390023Y-76861D01*
X389602Y-76582D01*
X387037Y-74017D01*
X382796Y-72260D01*
X360205Y-72260D01*
X355963Y-74017D01*
X352717Y-77263D01*
X350960Y-81505D01*
X350960Y-86096D01*
X352389Y-89546D01*
X352484Y-89971D01*
X352408Y-90470D01*
X352142Y-90900D01*
X351730Y-91193D01*
G37*
%LPC*%
G36*
X-95452Y1573060D02*
X-82348Y1573060D01*
X-81878Y1573530D01*
X-81494Y1573793D01*
X-81000Y1573902D01*
X-80503Y1573809D01*
X-80082Y1573530D01*
X-79612Y1573060D01*
X-54208Y1573060D01*
X-52720Y1574548D01*
X-52720Y1586715D01*
X-52635Y1587173D01*
X-52362Y1587599D01*
X-51945Y1587884D01*
X-51450Y1587985D01*
X-46061Y1587985D01*
X-45603Y1587900D01*
X-45177Y1587627D01*
X-44892Y1587210D01*
X-44791Y1586715D01*
X-44791Y1584587D01*
X-43303Y1583099D01*
X-7497Y1583099D01*
X-6009Y1584587D01*
X-6009Y1599003D01*
X-7497Y1600491D01*
X-43303Y1600491D01*
X-44791Y1599003D01*
X-44791Y1596875D01*
X-44876Y1596417D01*
X-45149Y1595991D01*
X-45566Y1595706D01*
X-46061Y1595605D01*
X-51450Y1595605D01*
X-51908Y1595690D01*
X-52334Y1595963D01*
X-52619Y1596380D01*
X-52720Y1596875D01*
X-52720Y1600452D01*
X-54208Y1601940D01*
X-79612Y1601940D01*
X-80082Y1601470D01*
X-80466Y1601207D01*
X-80960Y1601098D01*
X-81457Y1601191D01*
X-81878Y1601470D01*
X-82348Y1601940D01*
X-83820Y1601940D01*
X-84278Y1602025D01*
X-84704Y1602298D01*
X-84989Y1602715D01*
X-85090Y1603210D01*
X-85090Y1610796D01*
X-84997Y1611272D01*
X-84718Y1611694D01*
X-37700Y1658712D01*
X-37700Y1673390D01*
X-37615Y1673848D01*
X-37342Y1674274D01*
X-36925Y1674559D01*
X-36430Y1674660D01*
X-28808Y1674660D01*
X-27320Y1676148D01*
X-27320Y1702052D01*
X-28808Y1703540D01*
X-54212Y1703540D01*
X-55700Y1702052D01*
X-55700Y1676148D01*
X-54212Y1674660D01*
X-46590Y1674660D01*
X-46132Y1674575D01*
X-45706Y1674302D01*
X-45421Y1673885D01*
X-45320Y1673390D01*
X-45320Y1662394D01*
X-45413Y1661918D01*
X-45692Y1661496D01*
X-92710Y1614478D01*
X-92710Y1603210D01*
X-92795Y1602752D01*
X-93068Y1602326D01*
X-93485Y1602041D01*
X-93980Y1601940D01*
X-95452Y1601940D01*
X-96940Y1600452D01*
X-96940Y1574548D01*
X-95452Y1573060D01*
G37*
G36*
X105202Y1348580D02*
X114798Y1348580D01*
X123663Y1352252D01*
X130448Y1359037D01*
X134120Y1367902D01*
X134120Y1377498D01*
X130448Y1386363D01*
X123663Y1393148D01*
X114798Y1396820D01*
X105202Y1396820D01*
X96337Y1393148D01*
X89552Y1386363D01*
X85880Y1377498D01*
X85880Y1367902D01*
X89552Y1359037D01*
X96337Y1352252D01*
X105202Y1348580D01*
G37*
G36*
X20197Y960799D02*
X56003Y960799D01*
X57491Y962287D01*
X57491Y976703D01*
X56003Y978191D01*
X43180Y978191D01*
X42722Y978276D01*
X42296Y978549D01*
X42011Y978966D01*
X41910Y979461D01*
X41910Y987590D01*
X41995Y988048D01*
X42268Y988474D01*
X42685Y988759D01*
X43180Y988860D01*
X61296Y988860D01*
X61765Y989330D01*
X62150Y989593D01*
X62643Y989702D01*
X63140Y989609D01*
X63561Y989330D01*
X64031Y988860D01*
X77136Y988860D01*
X78623Y990348D01*
X78623Y1016252D01*
X77136Y1017740D01*
X75663Y1017740D01*
X75206Y1017825D01*
X74780Y1018098D01*
X74494Y1018515D01*
X74393Y1019010D01*
X74393Y1023195D01*
X53754Y1043834D01*
X53483Y1044237D01*
X53382Y1044732D01*
X53382Y1126490D01*
X53467Y1126948D01*
X53740Y1127374D01*
X54157Y1127659D01*
X54652Y1127760D01*
X62274Y1127760D01*
X63762Y1129248D01*
X63762Y1155152D01*
X62274Y1156640D01*
X36870Y1156640D01*
X35382Y1155152D01*
X35382Y1129248D01*
X36870Y1127760D01*
X44492Y1127760D01*
X44950Y1127675D01*
X45376Y1127402D01*
X45661Y1126985D01*
X45762Y1126490D01*
X45762Y1041050D01*
X66401Y1020410D01*
X66673Y1020008D01*
X66773Y1019512D01*
X66773Y1019010D01*
X66688Y1018552D01*
X66416Y1018126D01*
X65999Y1017841D01*
X65503Y1017740D01*
X64031Y1017740D01*
X63561Y1017270D01*
X63177Y1017007D01*
X62684Y1016898D01*
X62187Y1016991D01*
X61765Y1017270D01*
X61296Y1017740D01*
X35891Y1017740D01*
X34403Y1016252D01*
X34403Y1005518D01*
X34311Y1005041D01*
X34290Y1005010D01*
X34290Y979461D01*
X34205Y979003D01*
X33932Y978577D01*
X33515Y978292D01*
X33020Y978191D01*
X20197Y978191D01*
X18709Y976703D01*
X18709Y962287D01*
X20197Y960799D01*
G37*
G36*
X-43303Y719499D02*
X-7497Y719499D01*
X-6009Y720987D01*
X-6009Y735403D01*
X-7497Y736891D01*
X-20320Y736891D01*
X-20778Y736976D01*
X-21204Y737249D01*
X-21489Y737666D01*
X-21590Y738161D01*
X-21590Y801678D01*
X-36654Y816742D01*
X-36926Y817145D01*
X-37026Y817640D01*
X-37026Y871041D01*
X-36941Y871499D01*
X-36668Y871925D01*
X-36252Y872210D01*
X-35756Y872311D01*
X-28134Y872311D01*
X-26646Y873799D01*
X-26646Y899703D01*
X-28134Y901191D01*
X-53538Y901191D01*
X-54008Y900721D01*
X-54392Y900458D01*
X-54886Y900349D01*
X-55383Y900442D01*
X-55804Y900721D01*
X-56274Y901191D01*
X-57746Y901191D01*
X-58204Y901276D01*
X-58630Y901549D01*
X-58916Y901966D01*
X-59016Y902461D01*
X-59016Y925670D01*
X-58923Y926146D01*
X-58644Y926568D01*
X-37700Y947512D01*
X-37700Y987590D01*
X-37615Y988048D01*
X-37342Y988474D01*
X-36925Y988759D01*
X-36430Y988860D01*
X-28808Y988860D01*
X-27320Y990348D01*
X-27320Y1016252D01*
X-28808Y1017740D01*
X-54212Y1017740D01*
X-55700Y1016252D01*
X-55700Y990348D01*
X-54212Y988860D01*
X-46590Y988860D01*
X-46132Y988775D01*
X-45706Y988502D01*
X-45421Y988085D01*
X-45320Y987590D01*
X-45320Y951194D01*
X-45413Y950718D01*
X-45692Y950296D01*
X-66636Y929352D01*
X-66636Y902461D01*
X-66722Y902003D01*
X-66994Y901577D01*
X-67411Y901292D01*
X-67906Y901191D01*
X-69378Y901191D01*
X-70866Y899703D01*
X-70866Y873799D01*
X-69378Y872311D01*
X-56274Y872311D01*
X-55804Y872781D01*
X-55420Y873044D01*
X-54926Y873153D01*
X-54430Y873060D01*
X-54008Y872781D01*
X-53538Y872311D01*
X-45916Y872311D01*
X-45458Y872226D01*
X-45033Y871953D01*
X-44747Y871536D01*
X-44646Y871041D01*
X-44646Y813958D01*
X-29582Y798894D01*
X-29311Y798491D01*
X-29210Y797996D01*
X-29210Y738161D01*
X-29295Y737703D01*
X-29568Y737277D01*
X-29985Y736992D01*
X-30480Y736891D01*
X-43303Y736891D01*
X-44791Y735403D01*
X-44791Y720987D01*
X-43303Y719499D01*
G37*
G36*
X-190887Y403532D02*
X-165483Y403532D01*
X-163995Y405020D01*
X-163995Y414020D01*
X-163909Y414478D01*
X-163637Y414904D01*
X-163220Y415189D01*
X-162725Y415290D01*
X-150822Y415290D01*
X-123190Y442922D01*
X-123190Y517690D01*
X-123105Y518148D01*
X-122832Y518574D01*
X-122415Y518859D01*
X-121920Y518960D01*
X-120448Y518960D01*
X-119978Y519430D01*
X-119594Y519693D01*
X-119100Y519802D01*
X-118603Y519709D01*
X-118182Y519430D01*
X-117712Y518960D01*
X-92308Y518960D01*
X-90820Y520448D01*
X-90820Y528320D01*
X-90735Y528778D01*
X-90462Y529204D01*
X-90045Y529489D01*
X-89550Y529590D01*
X-78304Y529590D01*
X-77828Y529497D01*
X-77406Y529218D01*
X-65078Y516890D01*
X-44420Y516890D01*
X-43944Y516797D01*
X-43522Y516518D01*
X-43303Y516299D01*
X-7497Y516299D01*
X-6009Y517787D01*
X-6009Y532203D01*
X-7497Y533691D01*
X-43303Y533691D01*
X-44791Y532203D01*
X-44791Y525780D01*
X-44876Y525322D01*
X-45149Y524896D01*
X-45566Y524611D01*
X-46061Y524510D01*
X-61396Y524510D01*
X-61872Y524603D01*
X-62294Y524882D01*
X-74622Y537210D01*
X-89550Y537210D01*
X-90008Y537295D01*
X-90434Y537568D01*
X-90719Y537985D01*
X-90820Y538480D01*
X-90820Y546352D01*
X-92308Y547840D01*
X-117712Y547840D01*
X-118182Y547370D01*
X-118566Y547107D01*
X-119060Y546998D01*
X-119557Y547091D01*
X-119978Y547370D01*
X-120448Y547840D01*
X-133552Y547840D01*
X-135040Y546352D01*
X-135040Y520448D01*
X-133552Y518960D01*
X-132080Y518960D01*
X-131622Y518875D01*
X-131196Y518602D01*
X-130911Y518185D01*
X-130810Y517690D01*
X-130810Y446604D01*
X-130903Y446128D01*
X-131182Y445706D01*
X-153606Y423282D01*
X-154009Y423011D01*
X-154504Y422910D01*
X-162725Y422910D01*
X-163182Y422995D01*
X-163608Y423268D01*
X-163894Y423685D01*
X-163995Y424180D01*
X-163995Y430924D01*
X-165483Y432412D01*
X-190887Y432412D01*
X-192375Y430924D01*
X-192375Y405020D01*
X-190887Y403532D01*
G37*
G36*
X-784798Y445880D02*
X-775202Y445880D01*
X-766337Y449552D01*
X-759552Y456337D01*
X-755880Y465202D01*
X-755880Y474798D01*
X-759552Y483663D01*
X-766337Y490448D01*
X-775202Y494120D01*
X-784798Y494120D01*
X-793663Y490448D01*
X-800448Y483663D01*
X-804120Y474798D01*
X-804120Y465202D01*
X-800448Y456337D01*
X-793663Y449552D01*
X-784798Y445880D01*
G37*
G36*
X-94798Y395880D02*
X-85202Y395880D01*
X-76337Y399552D01*
X-69552Y406337D01*
X-65880Y415202D01*
X-65880Y424798D01*
X-69552Y433663D01*
X-76337Y440448D01*
X-85202Y444120D01*
X-94798Y444120D01*
X-103663Y440448D01*
X-110448Y433663D01*
X-114120Y424798D01*
X-114120Y415202D01*
X-110448Y406337D01*
X-103663Y399552D01*
X-94798Y395880D01*
G37*
G36*
X74942Y285778D02*
X77458Y285778D01*
X79781Y286740D01*
X80959Y287918D01*
X81361Y288189D01*
X81857Y288290D01*
X103178Y288290D01*
X118110Y303222D01*
X118110Y344478D01*
X108294Y354294D01*
X108023Y354697D01*
X107922Y355192D01*
X107922Y356858D01*
X106960Y359181D01*
X105782Y360359D01*
X105511Y360761D01*
X105410Y361257D01*
X105410Y384640D01*
X105503Y385116D01*
X105782Y385538D01*
X105791Y385547D01*
X105791Y401853D01*
X104303Y403341D01*
X103175Y403341D01*
X102717Y403426D01*
X102291Y403699D01*
X102006Y404116D01*
X101905Y404611D01*
X101905Y408189D01*
X101990Y408647D01*
X102263Y409073D01*
X102680Y409358D01*
X103175Y409459D01*
X104303Y409459D01*
X105791Y410947D01*
X105791Y427253D01*
X104303Y428741D01*
X91887Y428741D01*
X90399Y427253D01*
X90399Y410947D01*
X91887Y409459D01*
X93015Y409459D01*
X93473Y409374D01*
X93899Y409101D01*
X94184Y408684D01*
X94285Y408189D01*
X94285Y404611D01*
X94200Y404153D01*
X93927Y403727D01*
X93510Y403442D01*
X93015Y403341D01*
X91887Y403341D01*
X90399Y401853D01*
X90399Y385547D01*
X91887Y384059D01*
X96520Y384059D01*
X96978Y383974D01*
X97404Y383701D01*
X97689Y383284D01*
X97790Y382789D01*
X97790Y361257D01*
X97697Y360780D01*
X97418Y360359D01*
X96240Y359181D01*
X95278Y356858D01*
X95278Y354342D01*
X96240Y352019D01*
X98019Y350240D01*
X100342Y349278D01*
X102008Y349278D01*
X102484Y349185D01*
X102906Y348906D01*
X110118Y341694D01*
X110389Y341291D01*
X110490Y340796D01*
X110490Y306904D01*
X110397Y306428D01*
X110118Y306006D01*
X100394Y296282D01*
X99991Y296011D01*
X99496Y295910D01*
X81857Y295910D01*
X81380Y296003D01*
X80959Y296282D01*
X79781Y297460D01*
X77458Y298422D01*
X74942Y298422D01*
X72619Y297460D01*
X70840Y295681D01*
X69878Y293358D01*
X69878Y290842D01*
X70840Y288519D01*
X72619Y286740D01*
X74942Y285778D01*
G37*
G36*
X189242Y146078D02*
X191758Y146078D01*
X194081Y147040D01*
X195259Y148218D01*
X195661Y148489D01*
X196157Y148590D01*
X395278Y148590D01*
X426415Y179727D01*
X426415Y293889D01*
X426500Y294347D01*
X426773Y294773D01*
X427190Y295058D01*
X427685Y295159D01*
X428813Y295159D01*
X430301Y296647D01*
X430301Y312953D01*
X428813Y314441D01*
X427685Y314441D01*
X427227Y314526D01*
X426801Y314799D01*
X426516Y315216D01*
X426415Y315711D01*
X426415Y319289D01*
X426500Y319747D01*
X426773Y320173D01*
X427190Y320458D01*
X427685Y320559D01*
X428813Y320559D01*
X430301Y322047D01*
X430301Y338353D01*
X428813Y339841D01*
X416397Y339841D01*
X414909Y338353D01*
X414909Y335280D01*
X414824Y334822D01*
X414551Y334396D01*
X414134Y334111D01*
X413639Y334010D01*
X413584Y334010D01*
X413108Y334103D01*
X412686Y334382D01*
X410582Y336486D01*
X410311Y336889D01*
X410210Y337384D01*
X410210Y349943D01*
X410303Y350420D01*
X410582Y350841D01*
X411760Y352019D01*
X412722Y354342D01*
X412722Y356858D01*
X411760Y359181D01*
X409981Y360960D01*
X407658Y361922D01*
X405142Y361922D01*
X402819Y360960D01*
X401040Y359181D01*
X400078Y356858D01*
X400078Y354342D01*
X401040Y352019D01*
X402218Y350841D01*
X402489Y350439D01*
X402590Y349943D01*
X402590Y333702D01*
X409902Y326390D01*
X413639Y326390D01*
X414097Y326305D01*
X414523Y326032D01*
X414808Y325615D01*
X414909Y325120D01*
X414909Y322047D01*
X416397Y320559D01*
X417525Y320559D01*
X417983Y320474D01*
X418409Y320201D01*
X418694Y319784D01*
X418795Y319289D01*
X418795Y315711D01*
X418710Y315253D01*
X418437Y314827D01*
X418020Y314542D01*
X417525Y314441D01*
X416397Y314441D01*
X414909Y312953D01*
X414909Y296647D01*
X416397Y295159D01*
X417525Y295159D01*
X417983Y295074D01*
X418409Y294801D01*
X418694Y294384D01*
X418795Y293889D01*
X418795Y183409D01*
X418702Y182933D01*
X418423Y182511D01*
X392494Y156582D01*
X392091Y156311D01*
X391596Y156210D01*
X196157Y156210D01*
X195680Y156303D01*
X195259Y156582D01*
X194081Y157760D01*
X191758Y158722D01*
X189242Y158722D01*
X186919Y157760D01*
X185140Y155981D01*
X184178Y153658D01*
X184178Y151142D01*
X185140Y148819D01*
X186919Y147040D01*
X189242Y146078D01*
G37*
G36*
X-98613Y307859D02*
X-86197Y307859D01*
X-84709Y309347D01*
X-84709Y312420D01*
X-84624Y312878D01*
X-84351Y313304D01*
X-83934Y313589D01*
X-83439Y313690D01*
X-81857Y313690D01*
X-81380Y313597D01*
X-80959Y313318D01*
X-79781Y312140D01*
X-77458Y311178D01*
X-74942Y311178D01*
X-72619Y312140D01*
X-70840Y313919D01*
X-69878Y316242D01*
X-69878Y318758D01*
X-70840Y321081D01*
X-72619Y322860D01*
X-74942Y323822D01*
X-77458Y323822D01*
X-79781Y322860D01*
X-80959Y321682D01*
X-81361Y321411D01*
X-81857Y321310D01*
X-83439Y321310D01*
X-83897Y321395D01*
X-84323Y321668D01*
X-84608Y322085D01*
X-84709Y322580D01*
X-84709Y325653D01*
X-86197Y327141D01*
X-98613Y327141D01*
X-100101Y325653D01*
X-100101Y309347D01*
X-98613Y307859D01*
G37*
G36*
X485202Y205880D02*
X494798Y205880D01*
X503663Y209552D01*
X510448Y216337D01*
X514120Y225202D01*
X514120Y234798D01*
X510448Y243663D01*
X503663Y250448D01*
X494798Y254120D01*
X485202Y254120D01*
X476337Y250448D01*
X469552Y243663D01*
X465880Y234798D01*
X465880Y225202D01*
X469552Y216337D01*
X476337Y209552D01*
X485202Y205880D01*
G37*
G36*
X-454798Y205880D02*
X-445202Y205880D01*
X-436337Y209552D01*
X-429552Y216337D01*
X-425880Y225202D01*
X-425880Y234798D01*
X-429552Y243663D01*
X-436337Y250448D01*
X-445202Y254120D01*
X-454798Y254120D01*
X-463663Y250448D01*
X-470448Y243663D01*
X-474120Y234798D01*
X-474120Y225202D01*
X-470448Y216337D01*
X-463663Y209552D01*
X-454798Y205880D01*
G37*
%LPD*%
G36*
X698675Y1212862D02*
X698181Y1212753D01*
X697684Y1212846D01*
X697263Y1213125D01*
X673265Y1237124D01*
X672993Y1237526D01*
X672893Y1238022D01*
X672893Y1254161D01*
X672978Y1254618D01*
X673250Y1255044D01*
X673667Y1255330D01*
X674163Y1255431D01*
X681785Y1255431D01*
X683273Y1256918D01*
X683273Y1256965D01*
X683281Y1257002D01*
X683273Y1257042D01*
X683273Y1257809D01*
X683445Y1258448D01*
X683782Y1258826D01*
X684238Y1259042D01*
X684743Y1259063D01*
X685217Y1258886D01*
X685583Y1258537D01*
X685785Y1258074D01*
X685832Y1257854D01*
X685855Y1257480D01*
X685824Y1257125D01*
X686302Y1255618D01*
X686334Y1255499D01*
X686663Y1253953D01*
X686866Y1253659D01*
X687030Y1253323D01*
X699372Y1214407D01*
X699429Y1214084D01*
X699353Y1213584D01*
X699087Y1213154D01*
X698675Y1212862D01*
G37*
G36*
X640253Y521984D02*
X639759Y521875D01*
X639262Y521968D01*
X638841Y522247D01*
X613782Y547306D01*
X613511Y547709D01*
X613410Y548204D01*
X613410Y631990D01*
X613495Y632448D01*
X613768Y632874D01*
X614185Y633159D01*
X614680Y633260D01*
X631592Y633260D01*
X633080Y634748D01*
X633080Y660652D01*
X631592Y662140D01*
X606188Y662140D01*
X605718Y661670D01*
X605334Y661407D01*
X604840Y661298D01*
X604343Y661391D01*
X603922Y661670D01*
X603452Y662140D01*
X601980Y662140D01*
X601522Y662225D01*
X601096Y662498D01*
X600811Y662915D01*
X600710Y663410D01*
X600710Y721796D01*
X600803Y722272D01*
X601082Y722694D01*
X606064Y727676D01*
X606064Y750290D01*
X606149Y750748D01*
X606422Y751174D01*
X606839Y751459D01*
X607334Y751560D01*
X614956Y751560D01*
X616444Y753048D01*
X616444Y759402D01*
X616522Y759841D01*
X616788Y760271D01*
X617200Y760563D01*
X617694Y760672D01*
X618191Y760579D01*
X618612Y760300D01*
X656218Y722694D01*
X656489Y722291D01*
X656590Y721796D01*
X656590Y687361D01*
X656505Y686903D01*
X656232Y686477D01*
X655815Y686192D01*
X655320Y686091D01*
X642497Y686091D01*
X641009Y684603D01*
X641009Y670187D01*
X642497Y668699D01*
X675640Y668699D01*
X676098Y668614D01*
X676524Y668341D01*
X676809Y667924D01*
X676910Y667429D01*
X676910Y627971D01*
X676825Y627513D01*
X676552Y627087D01*
X676135Y626802D01*
X675640Y626701D01*
X642497Y626701D01*
X641008Y625212D01*
X640605Y624941D01*
X640110Y624840D01*
X635046Y624840D01*
X634634Y624810D01*
X634275Y624731D01*
X633931Y624601D01*
X633610Y624422D01*
X633319Y624199D01*
X633062Y623936D01*
X632846Y623639D01*
X632675Y623314D01*
X632553Y622968D01*
X632481Y622600D01*
X632460Y622261D01*
X632460Y558846D01*
X632490Y558434D01*
X632569Y558075D01*
X632699Y557731D01*
X632878Y557410D01*
X633101Y557119D01*
X633364Y556862D01*
X633661Y556646D01*
X633986Y556475D01*
X634332Y556353D01*
X634700Y556281D01*
X635039Y556260D01*
X675640Y556260D01*
X676098Y556175D01*
X676524Y555902D01*
X676809Y555485D01*
X676910Y554990D01*
X676910Y526371D01*
X676825Y525913D01*
X676552Y525487D01*
X676135Y525202D01*
X675640Y525101D01*
X642497Y525101D01*
X641009Y523613D01*
X641009Y523145D01*
X640931Y522706D01*
X640665Y522276D01*
X640253Y521984D01*
G37*
G36*
X150993Y566744D02*
X150500Y566635D01*
X150003Y566728D01*
X149581Y567007D01*
X122251Y594338D01*
X121979Y594740D01*
X121879Y595236D01*
X121879Y628106D01*
X121964Y628564D01*
X122236Y628989D01*
X122653Y629275D01*
X123149Y629376D01*
X130771Y629376D01*
X132606Y631211D01*
X133215Y631550D01*
X133721Y631564D01*
X134192Y631381D01*
X134554Y631028D01*
X134749Y630562D01*
X138947Y609573D01*
X138967Y609213D01*
X138930Y608790D01*
X139385Y607345D01*
X139419Y607213D01*
X139716Y605728D01*
X139952Y605375D01*
X140108Y605050D01*
X151691Y568287D01*
X151748Y567966D01*
X151671Y567466D01*
X151406Y567036D01*
X150993Y566744D01*
G37*
G36*
X209144Y433300D02*
X208651Y433191D01*
X208154Y433284D01*
X207732Y433563D01*
X207262Y434033D01*
X195580Y434033D01*
X195122Y434118D01*
X194696Y434391D01*
X194411Y434807D01*
X194310Y435303D01*
X194310Y458778D01*
X153978Y499110D01*
X65604Y499110D01*
X65128Y499203D01*
X64706Y499482D01*
X54982Y509206D01*
X54711Y509609D01*
X54610Y510104D01*
X54610Y515029D01*
X54695Y515487D01*
X54968Y515913D01*
X55385Y516198D01*
X55880Y516299D01*
X68703Y516299D01*
X70191Y517787D01*
X70191Y530955D01*
X70269Y531394D01*
X70535Y531824D01*
X70947Y532116D01*
X71441Y532225D01*
X71938Y532132D01*
X72359Y531853D01*
X75507Y528705D01*
X112488Y528705D01*
X112945Y528620D01*
X113371Y528347D01*
X113657Y527930D01*
X113758Y527435D01*
X113758Y519563D01*
X115245Y518075D01*
X140650Y518075D01*
X141120Y518545D01*
X141504Y518808D01*
X141997Y518917D01*
X142494Y518824D01*
X142916Y518545D01*
X143385Y518075D01*
X156490Y518075D01*
X157978Y519563D01*
X157978Y542759D01*
X158074Y543245D01*
X158357Y543664D01*
X158780Y543940D01*
X159278Y544028D01*
X159771Y543916D01*
X160181Y543620D01*
X160443Y543188D01*
X171061Y513644D01*
X171130Y513337D01*
X171193Y512689D01*
X171799Y511550D01*
X171873Y511382D01*
X172310Y510168D01*
X172748Y509686D01*
X172929Y509429D01*
X193730Y470383D01*
X193838Y470107D01*
X194025Y469390D01*
X194751Y468433D01*
X194860Y468263D01*
X195425Y467202D01*
X195997Y466731D01*
X196202Y466518D01*
X219275Y436070D01*
X219415Y435835D01*
X219532Y435343D01*
X219447Y434845D01*
X219175Y434419D01*
X218758Y434133D01*
X218262Y434033D01*
X209998Y434033D01*
X209528Y433563D01*
X209144Y433300D01*
G37*
G36*
X429065Y-488977D02*
X428570Y-489078D01*
X-252730Y-489078D01*
X-253188Y-488993D01*
X-253614Y-488720D01*
X-253899Y-488303D01*
X-254000Y-487808D01*
X-254000Y-483360D01*
X-253915Y-482902D01*
X-253642Y-482476D01*
X-253225Y-482191D01*
X-252730Y-482090D01*
X-251257Y-482090D01*
X-246189Y-479991D01*
X-242309Y-476111D01*
X-240210Y-471043D01*
X-240210Y-465557D01*
X-242309Y-460489D01*
X-246189Y-456609D01*
X-251257Y-454510D01*
X-252730Y-454510D01*
X-253188Y-454425D01*
X-253614Y-454152D01*
X-253899Y-453735D01*
X-254000Y-453240D01*
X-254000Y-304900D01*
X-254015Y-304808D01*
X-254080Y-304800D01*
X-278130Y-304800D01*
X-278588Y-304715D01*
X-279014Y-304442D01*
X-279299Y-304025D01*
X-279400Y-303530D01*
X-279400Y-217170D01*
X-279315Y-216712D01*
X-279042Y-216286D01*
X-278625Y-216001D01*
X-278130Y-215900D01*
X-254100Y-215900D01*
X-254008Y-215885D01*
X-254000Y-215820D01*
X-254000Y-100D01*
X-254015Y-8D01*
X-254080Y0D01*
X-288290Y0D01*
X-288748Y85D01*
X-289174Y358D01*
X-289459Y775D01*
X-289560Y1270D01*
X-289560Y82061D01*
X-289467Y82538D01*
X-289188Y82959D01*
X-248059Y124088D01*
X-247657Y124359D01*
X-247161Y124460D01*
X-111269Y124460D01*
X-105667Y126780D01*
X-101380Y131067D01*
X-99060Y136669D01*
X-99060Y142731D01*
X-101380Y148333D01*
X-105667Y152620D01*
X-111269Y154940D01*
X-257031Y154940D01*
X-262633Y152620D01*
X-317720Y97533D01*
X-320040Y91931D01*
X-320040Y1270D01*
X-320125Y812D01*
X-320398Y386D01*
X-320815Y101D01*
X-321310Y0D01*
X-325120Y0D01*
X-325578Y85D01*
X-326004Y358D01*
X-326289Y775D01*
X-326390Y1270D01*
X-326390Y99496D01*
X-326297Y99972D01*
X-326018Y100394D01*
X-268794Y157618D01*
X-268391Y157889D01*
X-267896Y157990D01*
X-66364Y157990D01*
X-65925Y157912D01*
X-65495Y157646D01*
X-65203Y157234D01*
X-65094Y156740D01*
X-65187Y156243D01*
X-65466Y155822D01*
X-102806Y118482D01*
X-103209Y118211D01*
X-103704Y118110D01*
X-166678Y118110D01*
X-194310Y90478D01*
X-194310Y49222D01*
X-80382Y-64706D01*
X-80111Y-65109D01*
X-80010Y-65604D01*
X-80010Y-289996D01*
X-80103Y-290472D01*
X-80382Y-290894D01*
X-138394Y-348906D01*
X-138797Y-349177D01*
X-139292Y-349278D01*
X-140958Y-349278D01*
X-143281Y-350240D01*
X-145060Y-352019D01*
X-146022Y-354342D01*
X-146022Y-356858D01*
X-145060Y-359181D01*
X-143189Y-361052D01*
X-142925Y-361436D01*
X-142817Y-361930D01*
X-142910Y-362427D01*
X-143189Y-362848D01*
X-145060Y-364719D01*
X-146022Y-367042D01*
X-146022Y-369558D01*
X-145060Y-371881D01*
X-143281Y-373660D01*
X-140958Y-374622D01*
X-138442Y-374622D01*
X-136119Y-373660D01*
X-134340Y-371881D01*
X-133378Y-369558D01*
X-133378Y-367892D01*
X-133285Y-367416D01*
X-133006Y-366994D01*
X-59690Y-293678D01*
X-59690Y-61922D01*
X-173618Y52006D01*
X-173889Y52409D01*
X-173990Y52904D01*
X-173990Y86796D01*
X-173897Y87272D01*
X-173618Y87694D01*
X-163894Y97418D01*
X-163491Y97689D01*
X-162996Y97790D01*
X-100022Y97790D01*
X-57508Y140304D01*
X-57142Y140559D01*
X-56650Y140675D01*
X-56152Y140590D01*
X-55726Y140318D01*
X-55441Y139901D01*
X-55340Y139406D01*
X-55340Y134248D01*
X-53712Y132620D01*
X-53441Y132217D01*
X-53340Y131722D01*
X-53340Y114346D01*
X-53310Y113934D01*
X-53231Y113575D01*
X-53101Y113231D01*
X-52922Y112910D01*
X-52699Y112619D01*
X-52436Y112362D01*
X-52139Y112146D01*
X-51814Y111975D01*
X-51468Y111853D01*
X-51100Y111781D01*
X-50761Y111760D01*
X-50380Y111760D01*
X-49922Y111675D01*
X-49496Y111402D01*
X-49211Y110985D01*
X-49110Y110490D01*
X-49110Y107222D01*
X-42282Y100394D01*
X-42011Y99991D01*
X-41910Y99496D01*
X-41910Y94361D01*
X-41995Y93903D01*
X-42268Y93477D01*
X-42685Y93192D01*
X-43180Y93091D01*
X-46253Y93091D01*
X-47741Y91603D01*
X-47741Y79187D01*
X-46253Y77699D01*
X-29947Y77699D01*
X-28459Y79187D01*
X-28459Y91603D01*
X-29947Y93091D01*
X-33020Y93091D01*
X-33478Y93176D01*
X-33904Y93449D01*
X-34189Y93866D01*
X-34290Y94361D01*
X-34290Y103178D01*
X-40704Y109592D01*
X-40959Y109958D01*
X-41075Y110450D01*
X-40990Y110948D01*
X-40718Y111374D01*
X-40301Y111659D01*
X-39806Y111760D01*
X-33378Y111760D01*
X-32902Y111667D01*
X-32480Y111388D01*
X-31482Y110390D01*
X-31211Y109987D01*
X-31110Y109492D01*
X-31110Y97976D01*
X-22938Y89804D01*
X-22667Y89402D01*
X-22567Y88906D01*
X-22567Y78079D01*
X-21586Y77098D01*
X-21322Y76714D01*
X-21214Y76220D01*
X-21307Y75723D01*
X-21586Y75302D01*
X-22567Y74321D01*
X-22567Y72085D01*
X-22652Y71627D01*
X-22924Y71201D01*
X-23341Y70916D01*
X-23837Y70815D01*
X-27189Y70815D01*
X-27647Y70900D01*
X-28073Y71173D01*
X-28358Y71590D01*
X-28459Y72085D01*
X-28459Y73213D01*
X-29947Y74701D01*
X-46253Y74701D01*
X-47741Y73213D01*
X-47741Y68580D01*
X-47826Y68122D01*
X-48099Y67696D01*
X-48516Y67411D01*
X-49011Y67310D01*
X-57843Y67310D01*
X-58320Y67403D01*
X-58741Y67682D01*
X-59919Y68860D01*
X-62242Y69822D01*
X-64758Y69822D01*
X-67081Y68860D01*
X-68860Y67081D01*
X-69822Y64758D01*
X-69822Y62242D01*
X-68860Y59919D01*
X-67081Y58140D01*
X-64758Y57178D01*
X-62242Y57178D01*
X-59919Y58140D01*
X-58741Y59318D01*
X-58339Y59589D01*
X-57843Y59690D01*
X-47160Y59690D01*
X-46684Y59597D01*
X-46262Y59318D01*
X-46253Y59309D01*
X-29947Y59309D01*
X-28459Y60797D01*
X-28459Y61925D01*
X-28374Y62383D01*
X-28101Y62809D01*
X-27684Y63094D01*
X-27189Y63195D01*
X-23837Y63195D01*
X-23379Y63110D01*
X-22953Y62837D01*
X-22667Y62420D01*
X-22567Y61925D01*
X-22567Y60571D01*
X-21079Y59083D01*
X-4321Y59083D01*
X-2834Y60571D01*
X-2834Y74321D01*
X-3814Y75302D01*
X-4078Y75686D01*
X-4186Y76180D01*
X-4094Y76677D01*
X-3814Y77098D01*
X-2834Y78079D01*
X-2834Y91829D01*
X-4321Y93317D01*
X-9792Y93317D01*
X-10221Y93392D01*
X-10654Y93654D01*
X-10949Y94064D01*
X-11062Y94557D01*
X-10973Y95054D01*
X-10697Y95478D01*
X-10278Y95760D01*
X-9119Y96240D01*
X-7340Y98019D01*
X-6378Y100342D01*
X-6378Y102858D01*
X-7340Y105181D01*
X-9119Y106960D01*
X-9981Y107317D01*
X-10349Y107550D01*
X-10648Y107958D01*
X-10764Y108450D01*
X-10680Y108948D01*
X-10407Y109374D01*
X-9990Y109659D01*
X-9495Y109760D01*
X31620Y109760D01*
X32078Y109675D01*
X32504Y109402D01*
X32789Y108985D01*
X32890Y108490D01*
X32890Y94587D01*
X32805Y94129D01*
X32532Y93703D01*
X32115Y93418D01*
X31620Y93317D01*
X29721Y93317D01*
X28234Y91829D01*
X28234Y78079D01*
X29214Y77098D01*
X29478Y76714D01*
X29586Y76220D01*
X29494Y75723D01*
X29214Y75302D01*
X28234Y74321D01*
X28234Y60571D01*
X29721Y59083D01*
X46479Y59083D01*
X47967Y60571D01*
X47967Y62366D01*
X48052Y62824D01*
X48324Y63250D01*
X48741Y63535D01*
X49237Y63636D01*
X56324Y63636D01*
X67310Y74622D01*
X67310Y83243D01*
X67403Y83720D01*
X67682Y84141D01*
X68860Y85319D01*
X69822Y87642D01*
X69822Y90158D01*
X68860Y92481D01*
X67081Y94260D01*
X64758Y95222D01*
X63092Y95222D01*
X62616Y95315D01*
X62194Y95594D01*
X50196Y107592D01*
X49941Y107958D01*
X49825Y108450D01*
X49910Y108948D01*
X50182Y109374D01*
X50599Y109659D01*
X51094Y109760D01*
X56252Y109760D01*
X57880Y111388D01*
X58283Y111659D01*
X58778Y111760D01*
X65642Y111760D01*
X66118Y111667D01*
X66540Y111388D01*
X109264Y68663D01*
X112532Y67310D01*
X237092Y67310D01*
X237568Y67217D01*
X237990Y66938D01*
X257438Y47490D01*
X257709Y47087D01*
X257810Y46592D01*
X257810Y-77968D01*
X259163Y-81236D01*
X295538Y-117610D01*
X295809Y-118013D01*
X295910Y-118508D01*
X295910Y-122356D01*
X295832Y-122795D01*
X295566Y-123225D01*
X295154Y-123517D01*
X294660Y-123626D01*
X294163Y-123533D01*
X293742Y-123254D01*
X245482Y-74994D01*
X245211Y-74591D01*
X245110Y-74096D01*
X245110Y39678D01*
X230178Y54610D01*
X-124896Y54610D01*
X-125372Y54703D01*
X-125794Y54982D01*
X-145706Y74894D01*
X-145977Y75297D01*
X-146078Y75792D01*
X-146078Y77458D01*
X-147040Y79781D01*
X-148819Y81560D01*
X-151142Y82522D01*
X-153658Y82522D01*
X-155981Y81560D01*
X-157852Y79689D01*
X-158236Y79425D01*
X-158730Y79317D01*
X-159227Y79410D01*
X-159648Y79689D01*
X-161519Y81560D01*
X-163842Y82522D01*
X-166358Y82522D01*
X-168681Y81560D01*
X-170460Y79781D01*
X-171422Y77458D01*
X-171422Y74942D01*
X-170460Y72619D01*
X-168681Y70840D01*
X-166358Y69878D01*
X-164692Y69878D01*
X-164216Y69785D01*
X-163794Y69506D01*
X-128578Y34290D01*
X201096Y34290D01*
X201572Y34197D01*
X201994Y33918D01*
X224418Y11494D01*
X224689Y11091D01*
X224790Y10596D01*
X224790Y-77778D01*
X275218Y-128206D01*
X275489Y-128609D01*
X275590Y-129104D01*
X275590Y-331778D01*
X285406Y-341594D01*
X285677Y-341997D01*
X285778Y-342492D01*
X285778Y-344158D01*
X286740Y-346481D01*
X288519Y-348260D01*
X290842Y-349222D01*
X293358Y-349222D01*
X295681Y-348260D01*
X295736Y-348205D01*
X296120Y-347941D01*
X296614Y-347833D01*
X297111Y-347925D01*
X297532Y-348205D01*
X320084Y-370757D01*
X323352Y-372110D01*
X335215Y-372110D01*
X335673Y-372195D01*
X336099Y-372468D01*
X336385Y-372885D01*
X336485Y-373380D01*
X336485Y-407206D01*
X338032Y-410941D01*
X340890Y-413799D01*
X344624Y-415345D01*
X355594Y-415345D01*
X356052Y-415431D01*
X356478Y-415703D01*
X356763Y-416120D01*
X356864Y-416615D01*
X356864Y-417426D01*
X358411Y-421160D01*
X361269Y-424019D01*
X365003Y-425565D01*
X394448Y-425565D01*
X398183Y-424019D01*
X401041Y-421160D01*
X402590Y-417420D01*
X402590Y-416615D01*
X402675Y-416158D01*
X402948Y-415732D01*
X403365Y-415446D01*
X403860Y-415345D01*
X420370Y-415345D01*
X420828Y-415431D01*
X421254Y-415703D01*
X421539Y-416120D01*
X421640Y-416615D01*
X421640Y-446559D01*
X423187Y-450293D01*
X426045Y-453151D01*
X429056Y-454398D01*
X429454Y-454659D01*
X429739Y-455076D01*
X429840Y-455572D01*
X429840Y-487808D01*
X429755Y-488266D01*
X429482Y-488692D01*
X429065Y-488977D01*
G37*
%LPC*%
G36*
X53083Y-152540D02*
X66917Y-152540D01*
X80280Y-148960D01*
X92260Y-142043D01*
X102043Y-132260D01*
X108960Y-120280D01*
X112540Y-106917D01*
X112540Y-93083D01*
X108960Y-79720D01*
X102043Y-67740D01*
X92260Y-57958D01*
X80280Y-51041D01*
X66917Y-47460D01*
X53083Y-47460D01*
X39720Y-51041D01*
X27740Y-57958D01*
X17958Y-67740D01*
X11041Y-79720D01*
X7460Y-93083D01*
X7460Y-106917D01*
X11041Y-120280D01*
X17958Y-132260D01*
X27740Y-142043D01*
X39720Y-148960D01*
X53083Y-152540D01*
G37*
G36*
X-3965Y-210120D02*
X3965Y-210120D01*
X11626Y-208067D01*
X18494Y-204102D01*
X24102Y-198494D01*
X28067Y-191626D01*
X30120Y-183965D01*
X30120Y-176035D01*
X28067Y-168374D01*
X24102Y-161506D01*
X18494Y-155898D01*
X11626Y-151933D01*
X3965Y-149880D01*
X-3965Y-149880D01*
X-11626Y-151933D01*
X-18494Y-155898D01*
X-24102Y-161506D01*
X-28067Y-168374D01*
X-30120Y-176035D01*
X-30120Y-183965D01*
X-28067Y-191626D01*
X-24102Y-198494D01*
X-18494Y-204102D01*
X-11626Y-208067D01*
X-3965Y-210120D01*
G37*
G36*
X-155143Y-278890D02*
X-149657Y-278890D01*
X-144589Y-276791D01*
X-140709Y-272911D01*
X-138610Y-267843D01*
X-138610Y-262357D01*
X-140709Y-257289D01*
X-144589Y-253409D01*
X-149657Y-251310D01*
X-155143Y-251310D01*
X-160211Y-253409D01*
X-164091Y-257289D01*
X-166190Y-262357D01*
X-166190Y-267843D01*
X-164091Y-272911D01*
X-160211Y-276791D01*
X-155143Y-278890D01*
G37*
G36*
X-231343Y-278890D02*
X-225857Y-278890D01*
X-220789Y-276791D01*
X-216909Y-272911D01*
X-214810Y-267843D01*
X-214810Y-262357D01*
X-216909Y-257289D01*
X-220789Y-253409D01*
X-225857Y-251310D01*
X-231343Y-251310D01*
X-236411Y-253409D01*
X-240291Y-257289D01*
X-242390Y-262357D01*
X-242390Y-267843D01*
X-240291Y-272911D01*
X-236411Y-276791D01*
X-231343Y-278890D01*
G37*
G36*
X53083Y-422540D02*
X66917Y-422540D01*
X80280Y-418960D01*
X92260Y-412043D01*
X102043Y-402260D01*
X108960Y-390280D01*
X112540Y-376917D01*
X112540Y-363083D01*
X108960Y-349720D01*
X102043Y-337740D01*
X92260Y-327958D01*
X80280Y-321041D01*
X66917Y-317460D01*
X53083Y-317460D01*
X39720Y-321041D01*
X27740Y-327958D01*
X17958Y-337740D01*
X11041Y-349720D01*
X7460Y-363083D01*
X7460Y-376917D01*
X11041Y-390280D01*
X17958Y-402260D01*
X27740Y-412043D01*
X39720Y-418960D01*
X53083Y-422540D01*
G37*
G36*
X-3965Y-480120D02*
X3965Y-480120D01*
X11626Y-478067D01*
X18494Y-474102D01*
X24102Y-468494D01*
X28067Y-461626D01*
X30120Y-453965D01*
X30120Y-446035D01*
X28067Y-438374D01*
X24102Y-431506D01*
X18494Y-425898D01*
X11626Y-421933D01*
X3965Y-419880D01*
X-3965Y-419880D01*
X-11626Y-421933D01*
X-18494Y-425898D01*
X-24102Y-431506D01*
X-28067Y-438374D01*
X-30120Y-446035D01*
X-30120Y-453965D01*
X-28067Y-461626D01*
X-24102Y-468494D01*
X-18494Y-474102D01*
X-11626Y-478067D01*
X-3965Y-480120D01*
G37*
G36*
X-155143Y-482090D02*
X-149657Y-482090D01*
X-144589Y-479991D01*
X-140709Y-476111D01*
X-138610Y-471043D01*
X-138610Y-465557D01*
X-140709Y-460489D01*
X-144589Y-456609D01*
X-149657Y-454510D01*
X-155143Y-454510D01*
X-160211Y-456609D01*
X-164091Y-460489D01*
X-166190Y-465557D01*
X-166190Y-471043D01*
X-164091Y-476111D01*
X-160211Y-479991D01*
X-155143Y-482090D01*
G37*
G36*
X-192945Y-482190D02*
X-188055Y-482190D01*
X-183538Y-480319D01*
X-180081Y-476862D01*
X-178210Y-472345D01*
X-178210Y-467455D01*
X-180081Y-462938D01*
X-183538Y-459481D01*
X-188055Y-457610D01*
X-192945Y-457610D01*
X-197462Y-459481D01*
X-200919Y-462938D01*
X-202790Y-467455D01*
X-202790Y-472345D01*
X-200919Y-476862D01*
X-197462Y-480319D01*
X-192945Y-482190D01*
G37*
%LPD*%
G36*
X-257315Y-488977D02*
X-257810Y-489078D01*
X-387808Y-489078D01*
X-388266Y-488993D01*
X-388692Y-488720D01*
X-388977Y-488303D01*
X-389078Y-487808D01*
X-389078Y-13970D01*
X-388993Y-13512D01*
X-388720Y-13086D01*
X-388303Y-12801D01*
X-387808Y-12700D01*
X-360680Y-12700D01*
X-360222Y-12785D01*
X-359796Y-13058D01*
X-359511Y-13475D01*
X-359410Y-13970D01*
X-359410Y-74096D01*
X-359503Y-74572D01*
X-359782Y-74994D01*
X-362104Y-77315D01*
X-362497Y-77583D01*
X-362992Y-77687D01*
X-363488Y-77591D01*
X-365855Y-76610D01*
X-370745Y-76610D01*
X-375262Y-78481D01*
X-378719Y-81938D01*
X-380590Y-86455D01*
X-380590Y-91345D01*
X-378719Y-95862D01*
X-375262Y-99319D01*
X-372588Y-100427D01*
X-372212Y-100667D01*
X-371916Y-101077D01*
X-371804Y-101570D01*
X-371893Y-102067D01*
X-372168Y-102491D01*
X-372588Y-102773D01*
X-375262Y-103881D01*
X-378719Y-107338D01*
X-380590Y-111855D01*
X-380590Y-116745D01*
X-378719Y-121262D01*
X-375262Y-124719D01*
X-370745Y-126590D01*
X-365855Y-126590D01*
X-361338Y-124719D01*
X-357881Y-121262D01*
X-356773Y-118588D01*
X-356540Y-118219D01*
X-356132Y-117920D01*
X-355640Y-117804D01*
X-355142Y-117889D01*
X-354716Y-118161D01*
X-354431Y-118578D01*
X-354330Y-119074D01*
X-354330Y-170616D01*
X-354423Y-171092D01*
X-354702Y-171514D01*
X-362104Y-178915D01*
X-362497Y-179183D01*
X-362992Y-179287D01*
X-363488Y-179191D01*
X-365855Y-178210D01*
X-370745Y-178210D01*
X-375262Y-180081D01*
X-378719Y-183538D01*
X-380590Y-188055D01*
X-380590Y-192945D01*
X-378719Y-197462D01*
X-375262Y-200919D01*
X-372588Y-202027D01*
X-372212Y-202267D01*
X-371916Y-202677D01*
X-371804Y-203170D01*
X-371893Y-203667D01*
X-372168Y-204091D01*
X-372588Y-204373D01*
X-375262Y-205481D01*
X-378719Y-208938D01*
X-380590Y-213455D01*
X-380590Y-218345D01*
X-378719Y-222862D01*
X-375262Y-226319D01*
X-370745Y-228190D01*
X-365855Y-228190D01*
X-361338Y-226319D01*
X-357881Y-222862D01*
X-356010Y-218345D01*
X-356010Y-213455D01*
X-357881Y-208938D01*
X-361338Y-205481D01*
X-364013Y-204373D01*
X-364388Y-204133D01*
X-364684Y-203723D01*
X-364796Y-203230D01*
X-364707Y-202733D01*
X-364432Y-202309D01*
X-364013Y-202027D01*
X-361338Y-200919D01*
X-357881Y-197462D01*
X-356010Y-192945D01*
X-356010Y-188055D01*
X-356991Y-185688D01*
X-357087Y-185222D01*
X-356995Y-184725D01*
X-356715Y-184304D01*
X-351418Y-179006D01*
X-351052Y-178751D01*
X-350560Y-178635D01*
X-350062Y-178720D01*
X-349636Y-178992D01*
X-349351Y-179409D01*
X-349250Y-179904D01*
X-349250Y-267136D01*
X-349343Y-267612D01*
X-349622Y-268034D01*
X-362104Y-280515D01*
X-362497Y-280783D01*
X-362992Y-280887D01*
X-363488Y-280791D01*
X-365855Y-279810D01*
X-370745Y-279810D01*
X-375262Y-281681D01*
X-378719Y-285138D01*
X-380590Y-289655D01*
X-380590Y-294545D01*
X-378719Y-299062D01*
X-375262Y-302519D01*
X-372588Y-303627D01*
X-372212Y-303867D01*
X-371916Y-304277D01*
X-371804Y-304770D01*
X-371893Y-305267D01*
X-372168Y-305691D01*
X-372588Y-305973D01*
X-375262Y-307081D01*
X-378719Y-310538D01*
X-380590Y-315055D01*
X-380590Y-319945D01*
X-378719Y-324462D01*
X-375262Y-327919D01*
X-370745Y-329790D01*
X-365855Y-329790D01*
X-361338Y-327919D01*
X-357881Y-324462D01*
X-356010Y-319945D01*
X-356010Y-315055D01*
X-357881Y-310538D01*
X-361338Y-307081D01*
X-364013Y-305973D01*
X-364388Y-305733D01*
X-364684Y-305323D01*
X-364796Y-304830D01*
X-364707Y-304333D01*
X-364432Y-303909D01*
X-364013Y-303627D01*
X-361338Y-302519D01*
X-357881Y-299062D01*
X-356010Y-294545D01*
X-356010Y-289655D01*
X-356991Y-287288D01*
X-357087Y-286822D01*
X-356995Y-286325D01*
X-356715Y-285904D01*
X-343798Y-272986D01*
X-343414Y-272723D01*
X-342920Y-272614D01*
X-342423Y-272707D01*
X-342002Y-272986D01*
X-329085Y-285904D01*
X-328817Y-286297D01*
X-328713Y-286792D01*
X-328809Y-287288D01*
X-329790Y-289655D01*
X-329790Y-294545D01*
X-327919Y-299062D01*
X-324462Y-302519D01*
X-321788Y-303627D01*
X-321412Y-303867D01*
X-321116Y-304277D01*
X-321004Y-304770D01*
X-321093Y-305267D01*
X-321368Y-305691D01*
X-321788Y-305973D01*
X-324462Y-307081D01*
X-327919Y-310538D01*
X-329790Y-315055D01*
X-329790Y-319945D01*
X-327919Y-324462D01*
X-324462Y-327919D01*
X-319945Y-329790D01*
X-315055Y-329790D01*
X-310538Y-327919D01*
X-307081Y-324462D01*
X-305210Y-319945D01*
X-305210Y-315055D01*
X-307081Y-310538D01*
X-310538Y-307081D01*
X-313213Y-305973D01*
X-313588Y-305733D01*
X-313884Y-305323D01*
X-313996Y-304830D01*
X-313907Y-304333D01*
X-313632Y-303909D01*
X-313213Y-303627D01*
X-310538Y-302519D01*
X-307081Y-299062D01*
X-305210Y-294545D01*
X-305210Y-289655D01*
X-307081Y-285138D01*
X-310538Y-281681D01*
X-315055Y-279810D01*
X-319945Y-279810D01*
X-322312Y-280791D01*
X-322778Y-280887D01*
X-323275Y-280795D01*
X-323696Y-280515D01*
X-336178Y-268034D01*
X-336449Y-267631D01*
X-336550Y-267136D01*
X-336550Y-179904D01*
X-336472Y-179465D01*
X-336206Y-179035D01*
X-335794Y-178743D01*
X-335300Y-178634D01*
X-334803Y-178727D01*
X-334382Y-179006D01*
X-329085Y-184304D01*
X-328817Y-184697D01*
X-328713Y-185192D01*
X-328809Y-185688D01*
X-329790Y-188055D01*
X-329790Y-192945D01*
X-327919Y-197462D01*
X-324462Y-200919D01*
X-321788Y-202027D01*
X-321412Y-202267D01*
X-321116Y-202677D01*
X-321004Y-203170D01*
X-321093Y-203667D01*
X-321368Y-204091D01*
X-321788Y-204373D01*
X-324462Y-205481D01*
X-327919Y-208938D01*
X-329790Y-213455D01*
X-329790Y-218345D01*
X-327919Y-222862D01*
X-324462Y-226319D01*
X-319945Y-228190D01*
X-315055Y-228190D01*
X-310538Y-226319D01*
X-307081Y-222862D01*
X-305210Y-218345D01*
X-305210Y-213455D01*
X-307081Y-208938D01*
X-310538Y-205481D01*
X-313213Y-204373D01*
X-313588Y-204133D01*
X-313884Y-203723D01*
X-313996Y-203230D01*
X-313907Y-202733D01*
X-313632Y-202309D01*
X-313213Y-202027D01*
X-310538Y-200919D01*
X-307081Y-197462D01*
X-305210Y-192945D01*
X-305210Y-188055D01*
X-307081Y-183538D01*
X-310538Y-180081D01*
X-315055Y-178210D01*
X-319945Y-178210D01*
X-322312Y-179191D01*
X-322778Y-179287D01*
X-323275Y-179195D01*
X-323696Y-178915D01*
X-331098Y-171514D01*
X-331369Y-171111D01*
X-331470Y-170616D01*
X-331470Y-119074D01*
X-331395Y-118644D01*
X-331133Y-118212D01*
X-330723Y-117916D01*
X-330230Y-117804D01*
X-329733Y-117893D01*
X-329309Y-118168D01*
X-329027Y-118588D01*
X-327919Y-121262D01*
X-324462Y-124719D01*
X-319945Y-126590D01*
X-315055Y-126590D01*
X-310538Y-124719D01*
X-307081Y-121262D01*
X-305210Y-116745D01*
X-305210Y-111855D01*
X-307081Y-107338D01*
X-310538Y-103881D01*
X-313213Y-102773D01*
X-313588Y-102533D01*
X-313884Y-102123D01*
X-313996Y-101630D01*
X-313907Y-101133D01*
X-313632Y-100709D01*
X-313213Y-100427D01*
X-310538Y-99319D01*
X-307081Y-95862D01*
X-305210Y-91345D01*
X-305210Y-86455D01*
X-307081Y-81938D01*
X-310538Y-78481D01*
X-315055Y-76610D01*
X-319945Y-76610D01*
X-322312Y-77591D01*
X-322778Y-77687D01*
X-323275Y-77595D01*
X-323696Y-77315D01*
X-326018Y-74994D01*
X-326289Y-74591D01*
X-326390Y-74096D01*
X-326390Y-13970D01*
X-326305Y-13512D01*
X-326032Y-13086D01*
X-325615Y-12801D01*
X-325120Y-12700D01*
X-257810Y-12700D01*
X-257352Y-12785D01*
X-256926Y-13058D01*
X-256641Y-13475D01*
X-256540Y-13970D01*
X-256540Y-212090D01*
X-256625Y-212548D01*
X-256898Y-212974D01*
X-257315Y-213259D01*
X-257810Y-213360D01*
X-279354Y-213360D01*
X-279766Y-213390D01*
X-280125Y-213469D01*
X-280469Y-213599D01*
X-280790Y-213778D01*
X-281082Y-214001D01*
X-281338Y-214264D01*
X-281554Y-214561D01*
X-281725Y-214886D01*
X-281847Y-215232D01*
X-281919Y-215600D01*
X-281940Y-215939D01*
X-281940Y-250377D01*
X-282029Y-250845D01*
X-282305Y-251268D01*
X-282724Y-251551D01*
X-287211Y-253409D01*
X-291091Y-257289D01*
X-293190Y-262357D01*
X-293190Y-267843D01*
X-291091Y-272911D01*
X-287211Y-276791D01*
X-282724Y-278649D01*
X-282326Y-278910D01*
X-282041Y-279327D01*
X-281940Y-279823D01*
X-281940Y-304754D01*
X-281910Y-305166D01*
X-281831Y-305525D01*
X-281701Y-305869D01*
X-281522Y-306190D01*
X-281299Y-306482D01*
X-281036Y-306738D01*
X-280739Y-306954D01*
X-280414Y-307125D01*
X-280068Y-307247D01*
X-279700Y-307319D01*
X-279361Y-307340D01*
X-257810Y-307340D01*
X-257352Y-307425D01*
X-256926Y-307698D01*
X-256641Y-308115D01*
X-256540Y-308610D01*
X-256540Y-453577D01*
X-256629Y-454045D01*
X-256905Y-454468D01*
X-257324Y-454751D01*
X-261811Y-456609D01*
X-265691Y-460489D01*
X-267790Y-465557D01*
X-267790Y-471043D01*
X-265691Y-476111D01*
X-261811Y-479991D01*
X-257324Y-481849D01*
X-256926Y-482110D01*
X-256641Y-482527D01*
X-256540Y-483023D01*
X-256540Y-487808D01*
X-256625Y-488266D01*
X-256898Y-488692D01*
X-257315Y-488977D01*
G37*
%LPC*%
G36*
X-370745Y-431390D02*
X-365855Y-431390D01*
X-361338Y-429519D01*
X-357881Y-426062D01*
X-356010Y-421545D01*
X-356010Y-416655D01*
X-357881Y-412138D01*
X-361338Y-408681D01*
X-364013Y-407573D01*
X-364388Y-407333D01*
X-364684Y-406923D01*
X-364796Y-406430D01*
X-364707Y-405933D01*
X-364432Y-405509D01*
X-364013Y-405227D01*
X-361338Y-404119D01*
X-357881Y-400662D01*
X-356010Y-396145D01*
X-356010Y-391255D01*
X-356991Y-388888D01*
X-357087Y-388422D01*
X-356995Y-387925D01*
X-356715Y-387504D01*
X-354394Y-385182D01*
X-353991Y-384911D01*
X-353496Y-384810D01*
X-329021Y-384810D01*
X-328573Y-384892D01*
X-328145Y-385161D01*
X-327856Y-385575D01*
X-327751Y-386070D01*
X-327848Y-386566D01*
X-329790Y-391255D01*
X-329790Y-396145D01*
X-327919Y-400662D01*
X-324462Y-404119D01*
X-321788Y-405227D01*
X-321412Y-405467D01*
X-321116Y-405877D01*
X-321004Y-406370D01*
X-321093Y-406867D01*
X-321368Y-407291D01*
X-321788Y-407573D01*
X-324462Y-408681D01*
X-327919Y-412138D01*
X-329790Y-416655D01*
X-329790Y-421545D01*
X-327919Y-426062D01*
X-324462Y-429519D01*
X-319945Y-431390D01*
X-315055Y-431390D01*
X-310538Y-429519D01*
X-307081Y-426062D01*
X-305210Y-421545D01*
X-305210Y-416655D01*
X-307081Y-412138D01*
X-310538Y-408681D01*
X-313213Y-407573D01*
X-313588Y-407333D01*
X-313884Y-406923D01*
X-313996Y-406430D01*
X-313907Y-405933D01*
X-313632Y-405509D01*
X-313213Y-405227D01*
X-310538Y-404119D01*
X-307081Y-400662D01*
X-305210Y-396145D01*
X-305210Y-391255D01*
X-307152Y-386566D01*
X-307248Y-386120D01*
X-307164Y-385622D01*
X-306891Y-385196D01*
X-306474Y-384911D01*
X-305979Y-384810D01*
X-297757Y-384810D01*
X-297280Y-384903D01*
X-296859Y-385182D01*
X-295681Y-386360D01*
X-293358Y-387322D01*
X-290842Y-387322D01*
X-288519Y-386360D01*
X-286740Y-384581D01*
X-285778Y-382258D01*
X-285778Y-379742D01*
X-286740Y-377419D01*
X-288519Y-375640D01*
X-290842Y-374678D01*
X-293358Y-374678D01*
X-295681Y-375640D01*
X-296859Y-376818D01*
X-297261Y-377089D01*
X-297757Y-377190D01*
X-357178Y-377190D01*
X-362104Y-382115D01*
X-362497Y-382383D01*
X-362992Y-382487D01*
X-363488Y-382391D01*
X-365855Y-381410D01*
X-370745Y-381410D01*
X-375262Y-383281D01*
X-378719Y-386738D01*
X-380590Y-391255D01*
X-380590Y-396145D01*
X-378719Y-400662D01*
X-375262Y-404119D01*
X-372588Y-405227D01*
X-372212Y-405467D01*
X-371916Y-405877D01*
X-371804Y-406370D01*
X-371893Y-406867D01*
X-372168Y-407291D01*
X-372588Y-407573D01*
X-375262Y-408681D01*
X-378719Y-412138D01*
X-380590Y-416655D01*
X-380590Y-421545D01*
X-378719Y-426062D01*
X-375262Y-429519D01*
X-370745Y-431390D01*
G37*
%LPD*%
G36*
X-25115Y114401D02*
X-25610Y114300D01*
X-40220Y114300D01*
X-40678Y114385D01*
X-41104Y114658D01*
X-41389Y115075D01*
X-41490Y115570D01*
X-41490Y131490D01*
X-41405Y131948D01*
X-41132Y132374D01*
X-40715Y132659D01*
X-40220Y132760D01*
X-36748Y132760D01*
X-35260Y134248D01*
X-35260Y205352D01*
X-36748Y206840D01*
X-49530Y206840D01*
X-49988Y206925D01*
X-50414Y207198D01*
X-50699Y207615D01*
X-50800Y208110D01*
X-50800Y211490D01*
X-50715Y211948D01*
X-50442Y212374D01*
X-50025Y212659D01*
X-49530Y212760D01*
X-36748Y212760D01*
X-35890Y213618D01*
X-35487Y213889D01*
X-34992Y213990D01*
X-32300Y213990D01*
X-31833Y213901D01*
X-31409Y213625D01*
X-31127Y213206D01*
X-30760Y212319D01*
X-28981Y210540D01*
X-26658Y209578D01*
X-24142Y209578D01*
X-21819Y210540D01*
X-20040Y212319D01*
X-19078Y214642D01*
X-19078Y217158D01*
X-20040Y219481D01*
X-21819Y221260D01*
X-24142Y222222D01*
X-26658Y222222D01*
X-27902Y221707D01*
X-28388Y221610D01*
X-34992Y221610D01*
X-35468Y221703D01*
X-35890Y221982D01*
X-36748Y222840D01*
X-49530Y222840D01*
X-49988Y222925D01*
X-50414Y223198D01*
X-50699Y223615D01*
X-50800Y224110D01*
X-50800Y230720D01*
X-50715Y231178D01*
X-50442Y231604D01*
X-50025Y231889D01*
X-49530Y231990D01*
X-33610Y231990D01*
X-33152Y231905D01*
X-32726Y231632D01*
X-32441Y231215D01*
X-32340Y230720D01*
X-32340Y227248D01*
X-30852Y225760D01*
X23620Y225760D01*
X24078Y225675D01*
X24504Y225402D01*
X24789Y224985D01*
X24890Y224490D01*
X24890Y223380D01*
X24801Y222913D01*
X24525Y222489D01*
X24106Y222207D01*
X21819Y221260D01*
X20040Y219481D01*
X19078Y217158D01*
X19078Y214642D01*
X20040Y212319D01*
X21819Y210540D01*
X24142Y209578D01*
X26658Y209578D01*
X28981Y210540D01*
X30760Y212319D01*
X31722Y214642D01*
X31722Y216308D01*
X31815Y216784D01*
X32094Y217206D01*
X32510Y217622D01*
X32510Y225492D01*
X32603Y225968D01*
X32882Y226390D01*
X33740Y227248D01*
X33740Y240030D01*
X33825Y240488D01*
X34098Y240914D01*
X34515Y241199D01*
X35010Y241300D01*
X38390Y241300D01*
X38848Y241215D01*
X39274Y240942D01*
X39559Y240525D01*
X39660Y240030D01*
X39660Y227248D01*
X41148Y225760D01*
X56252Y225760D01*
X57740Y227248D01*
X57740Y240030D01*
X57825Y240488D01*
X58098Y240914D01*
X58515Y241199D01*
X59010Y241300D01*
X74930Y241300D01*
X75388Y241215D01*
X75814Y240942D01*
X76099Y240525D01*
X76200Y240030D01*
X76200Y224110D01*
X76115Y223652D01*
X75842Y223226D01*
X75425Y222941D01*
X74930Y222840D01*
X62148Y222840D01*
X60660Y221352D01*
X60660Y150248D01*
X62148Y148760D01*
X74930Y148760D01*
X75388Y148675D01*
X75814Y148402D01*
X76099Y147985D01*
X76200Y147490D01*
X76200Y144110D01*
X76115Y143652D01*
X75842Y143226D01*
X75425Y142941D01*
X74930Y142840D01*
X62148Y142840D01*
X60660Y141352D01*
X60660Y134248D01*
X62148Y132760D01*
X74930Y132760D01*
X75388Y132675D01*
X75814Y132402D01*
X76099Y131985D01*
X76200Y131490D01*
X76200Y115570D01*
X76115Y115112D01*
X75842Y114686D01*
X75425Y114401D01*
X74930Y114300D01*
X51010Y114300D01*
X50552Y114385D01*
X50126Y114658D01*
X49841Y115075D01*
X49740Y115570D01*
X49740Y128352D01*
X48252Y129840D01*
X-22852Y129840D01*
X-24340Y128352D01*
X-24340Y115570D01*
X-24425Y115112D01*
X-24698Y114686D01*
X-25115Y114401D01*
G37*
G36*
X-559265Y393760D02*
X-559562Y393700D01*
X-735838Y393700D01*
X-736113Y393751D01*
X-736368Y393915D01*
X-736540Y394165D01*
X-736600Y394462D01*
X-736600Y469138D01*
X-736549Y469413D01*
X-736385Y469668D01*
X-736135Y469840D01*
X-735838Y469900D01*
X-559562Y469900D01*
X-559287Y469849D01*
X-559032Y469685D01*
X-558860Y469435D01*
X-558800Y469138D01*
X-558800Y394462D01*
X-558851Y394187D01*
X-559015Y393932D01*
X-559265Y393760D01*
G37*
G36*
X-559265Y977960D02*
X-559562Y977900D01*
X-672338Y977900D01*
X-672613Y977951D01*
X-672868Y978115D01*
X-673040Y978365D01*
X-673100Y978662D01*
X-673100Y1066038D01*
X-673049Y1066313D01*
X-672885Y1066568D01*
X-672635Y1066740D01*
X-672338Y1066800D01*
X-559562Y1066800D01*
X-559287Y1066749D01*
X-559032Y1066585D01*
X-558860Y1066335D01*
X-558800Y1066038D01*
X-558800Y978662D01*
X-558851Y978387D01*
X-559015Y978132D01*
X-559265Y977960D01*
G37*
G36*
X75735Y609660D02*
X75438Y609600D01*
X-50038Y609600D01*
X-50313Y609651D01*
X-50568Y609815D01*
X-50740Y610065D01*
X-50800Y610362D01*
X-50800Y685038D01*
X-50749Y685313D01*
X-50585Y685568D01*
X-50335Y685740D01*
X-50038Y685800D01*
X75438Y685800D01*
X75713Y685749D01*
X75968Y685585D01*
X76140Y685335D01*
X76200Y685038D01*
X76200Y610362D01*
X76149Y610087D01*
X75985Y609832D01*
X75735Y609660D01*
G37*
G36*
X63035Y1473260D02*
X62738Y1473200D01*
X-50038Y1473200D01*
X-50313Y1473251D01*
X-50568Y1473415D01*
X-50740Y1473665D01*
X-50800Y1473962D01*
X-50800Y1548638D01*
X-50749Y1548913D01*
X-50585Y1549168D01*
X-50335Y1549340D01*
X-50038Y1549400D01*
X62738Y1549400D01*
X63013Y1549349D01*
X63268Y1549185D01*
X63440Y1548935D01*
X63500Y1548638D01*
X63500Y1473962D01*
X63449Y1473687D01*
X63285Y1473432D01*
X63035Y1473260D01*
G37*
G36*
X748835Y558860D02*
X748538Y558800D01*
X635762Y558800D01*
X635487Y558851D01*
X635232Y559015D01*
X635060Y559265D01*
X635000Y559562D01*
X635000Y621538D01*
X635051Y621813D01*
X635215Y622068D01*
X635465Y622240D01*
X635762Y622300D01*
X748538Y622300D01*
X748813Y622249D01*
X749068Y622085D01*
X749240Y621835D01*
X749300Y621538D01*
X749300Y559562D01*
X749249Y559287D01*
X749085Y559032D01*
X748835Y558860D01*
G37*
G36*
X520235Y292160D02*
X519938Y292100D01*
X457962Y292100D01*
X457687Y292151D01*
X457432Y292315D01*
X457260Y292565D01*
X457200Y292862D01*
X457200Y331978D01*
X457251Y332253D01*
X457415Y332508D01*
X457665Y332680D01*
X457962Y332740D01*
X463804Y332740D01*
X464079Y332689D01*
X464334Y332525D01*
X464506Y332275D01*
X464511Y332251D01*
X466054Y330708D01*
X488478Y330708D01*
X489966Y332196D01*
X489966Y340904D01*
X488478Y342392D01*
X466054Y342392D01*
X464516Y340854D01*
X464515Y340847D01*
X464351Y340592D01*
X464101Y340420D01*
X463804Y340360D01*
X457962Y340360D01*
X457687Y340411D01*
X457432Y340575D01*
X457260Y340825D01*
X457200Y341122D01*
X457200Y380238D01*
X457251Y380513D01*
X457415Y380768D01*
X457665Y380940D01*
X457962Y381000D01*
X519938Y381000D01*
X520213Y380949D01*
X520468Y380785D01*
X520640Y380535D01*
X520700Y380238D01*
X520700Y292862D01*
X520649Y292587D01*
X520485Y292332D01*
X520235Y292160D01*
G37*
G36*
X31395Y342960D02*
X31098Y342900D01*
X19702Y342900D01*
X19427Y342951D01*
X19172Y343115D01*
X19000Y343365D01*
X18940Y343662D01*
X18940Y348252D01*
X17452Y349740D01*
X762Y349740D01*
X487Y349791D01*
X232Y349955D01*
X60Y350205D01*
X0Y350502D01*
X0Y418338D01*
X51Y418613D01*
X215Y418868D01*
X465Y419040D01*
X762Y419100D01*
X62738Y419100D01*
X63013Y419049D01*
X63268Y418885D01*
X63440Y418635D01*
X63500Y418338D01*
X63500Y346272D01*
X63449Y345997D01*
X63285Y345742D01*
X63035Y345570D01*
X62738Y345510D01*
X56702Y345510D01*
X56427Y345561D01*
X56172Y345725D01*
X56000Y345975D01*
X55940Y346272D01*
X55940Y348252D01*
X54452Y349740D01*
X33348Y349740D01*
X31860Y348252D01*
X31860Y343662D01*
X31809Y343387D01*
X31645Y343132D01*
X31395Y342960D01*
G37*
G36*
X-537273Y241803D02*
X-539750Y241300D01*
X-590550Y241300D01*
X-592839Y241727D01*
X-594968Y243089D01*
X-596397Y245173D01*
X-596900Y247650D01*
X-596900Y298450D01*
X-596473Y300739D01*
X-595111Y302868D01*
X-593027Y304297D01*
X-590550Y304800D01*
X-539750Y304800D01*
X-537461Y304373D01*
X-535332Y303011D01*
X-533903Y300927D01*
X-533400Y298450D01*
X-533400Y247650D01*
X-533827Y245361D01*
X-535189Y243232D01*
X-537273Y241803D01*
G37*
D10*
X70700Y137800D03*
X70700Y145800D03*
X70700Y153800D03*
X70700Y161800D03*
X70700Y169800D03*
X70700Y177800D03*
X70700Y185800D03*
X70700Y193800D03*
X70700Y201800D03*
X70700Y209800D03*
X70700Y217800D03*
D11*
X52700Y235800D03*
X44700Y235800D03*
X36700Y235800D03*
X28700Y235800D03*
X20700Y235800D03*
X12700Y235800D03*
X4700Y235800D03*
X-3300Y235800D03*
X-11300Y235800D03*
X-19300Y235800D03*
X-27300Y235800D03*
D10*
X-45300Y217800D03*
X-45300Y209800D03*
X-45300Y201800D03*
X-45300Y193800D03*
X-45300Y185800D03*
X-45300Y177800D03*
X-45300Y169800D03*
X-45300Y161800D03*
X-45300Y153800D03*
X-45300Y145800D03*
X-45300Y137800D03*
D11*
X-27300Y119800D03*
X-19300Y119800D03*
X-11300Y119800D03*
X-3300Y119800D03*
X4700Y119800D03*
X12700Y119800D03*
X20700Y119800D03*
X28700Y119800D03*
X36700Y119800D03*
X44700Y119800D03*
X52700Y119800D03*
D12*
X136195Y152400D03*
X117805Y152400D03*
X136195Y127000D03*
X117805Y127000D03*
D13*
X38100Y84954D03*
X38100Y67446D03*
X-12700Y67446D03*
X-12700Y84954D03*
D14*
X118246Y101600D03*
X135754Y101600D03*
X-110354Y215900D03*
X-92846Y215900D03*
D15*
X88900Y257505D03*
X88900Y275895D03*
D16*
X6900Y318700D03*
X43900Y341700D03*
X6900Y341700D03*
X43900Y318700D03*
D12*
X34595Y266700D03*
X16205Y266700D03*
D13*
X-25400Y338954D03*
X-25400Y321446D03*
X76200Y321446D03*
X76200Y338954D03*
D15*
X-38100Y85395D03*
X-38100Y67005D03*
D17*
X13400Y284825D02*
X13400Y299375D01*
D18*
X13400Y302260D02*
X13400Y292100D01*
X13400Y281940D01*
D17*
X25400Y284825D02*
X25400Y299375D01*
D18*
X25400Y302260D02*
X25400Y292100D01*
X25400Y281940D01*
D17*
X37400Y284825D02*
X37400Y299375D01*
D18*
X37400Y302260D02*
X37400Y292100D01*
X37400Y281940D01*
X13400Y292100D02*
X13400Y302260D01*
X13400Y292100D02*
X13400Y281940D01*
X37400Y292100D02*
X37400Y302260D01*
X37400Y292100D02*
X37400Y281940D01*
X25400Y292100D02*
X25400Y302260D01*
X25400Y292100D02*
X25400Y281940D01*
D19*
X163830Y241300D03*
X138430Y241300D03*
X166370Y266700D03*
X140970Y266700D03*
X163830Y292100D03*
X138430Y292100D03*
D20*
X379730Y-363220D03*
X379730Y-322580D03*
D12*
X-92405Y266700D03*
X-110795Y266700D03*
X-92405Y292100D03*
X-110795Y292100D03*
X-110795Y317500D03*
X-92405Y317500D03*
X-110795Y241300D03*
X-92405Y241300D03*
D14*
X118246Y177800D03*
X135754Y177800D03*
D21*
X-368300Y-165100D03*
X-368300Y-190500D03*
X-368300Y-215900D03*
X-368300Y-368300D03*
X-368300Y-393700D03*
X-368300Y-419100D03*
X-317500Y-165100D03*
X-317500Y-190500D03*
X-317500Y-215900D03*
X-368300Y-266700D03*
X-368300Y-292100D03*
X-368300Y-317500D03*
X-215900Y-469900D03*
X-190500Y-469900D03*
D22*
X-279400Y-265100D03*
X-228600Y-265100D03*
X-152400Y-265100D03*
X-152400Y-468300D03*
X-254000Y-468300D03*
X-355600Y-468300D03*
D21*
X-317500Y-266700D03*
X-317500Y-292100D03*
X-317500Y-317500D03*
X-368300Y-63500D03*
X-368300Y-88900D03*
X-368300Y-114300D03*
X-317500Y-63500D03*
X-317500Y-88900D03*
X-317500Y-114300D03*
X-317500Y-368300D03*
X-317500Y-393700D03*
X-317500Y-419100D03*
D23*
X-647700Y1435100D03*
D24*
X-625710Y1435100D03*
D25*
X-596900Y1223495D03*
X-596900Y1164105D03*
D23*
X-622300Y1384300D03*
D24*
X-600310Y1384300D03*
D23*
X-545877Y1295438D03*
D24*
X-567867Y1295438D03*
D25*
X-584200Y1109195D03*
X-584200Y1049805D03*
D23*
X-533400Y1193800D03*
D24*
X-555390Y1193800D03*
D23*
X-571500Y660400D03*
D24*
X-593490Y660400D03*
D25*
X-647700Y512295D03*
X-647700Y452905D03*
D23*
X-558800Y533400D03*
D24*
X-580790Y533400D03*
D23*
X-552463Y874820D03*
D24*
X-574453Y874820D03*
D25*
X-647700Y613895D03*
X-647700Y554505D03*
D23*
X-571500Y762000D03*
D24*
X-593490Y762000D03*
D23*
X-508000Y1117600D03*
D24*
X-529990Y1117600D03*
D25*
X-584200Y935505D03*
X-584200Y994895D03*
D23*
X-508000Y1028700D03*
D24*
X-529990Y1028700D03*
D23*
X-647700Y1295400D03*
D24*
X-625710Y1295400D03*
D25*
X-647700Y1109195D03*
X-647700Y1049805D03*
D23*
X-635000Y1193800D03*
D24*
X-656990Y1193800D03*
D23*
X-711200Y1117600D03*
D24*
X-689210Y1117600D03*
D25*
X-647700Y935505D03*
X-647700Y994895D03*
D23*
X-749300Y1028700D03*
D24*
X-727310Y1028700D03*
D23*
X-698500Y876300D03*
D24*
X-676510Y876300D03*
D25*
X-711200Y613895D03*
X-711200Y554505D03*
D23*
X-723900Y762000D03*
D24*
X-701910Y762000D03*
D23*
X-774700Y660400D03*
D24*
X-752710Y660400D03*
D25*
X-711200Y512295D03*
X-711200Y452905D03*
D23*
X-800100Y533400D03*
D24*
X-778110Y533400D03*
D23*
X-800100Y406400D03*
D24*
X-778110Y406400D03*
D25*
X-711200Y351305D03*
X-711200Y410695D03*
D23*
X-761311Y292480D03*
D24*
X-739321Y292480D03*
D23*
X-200175Y417972D03*
D24*
X-178185Y417972D03*
D25*
X-25400Y524995D03*
X-25400Y465605D03*
D23*
X-127000Y533400D03*
D24*
X-105010Y533400D03*
D23*
X-330200Y355600D03*
D24*
X-352190Y355600D03*
D25*
X-584200Y351305D03*
X-584200Y410695D03*
D23*
X-491672Y422884D03*
D24*
X-513662Y422884D03*
D23*
X-87263Y774529D03*
D24*
X-65273Y774529D03*
D25*
X-25400Y567205D03*
X-25400Y626595D03*
D23*
X-108707Y638153D03*
D24*
X-86717Y638153D03*
D23*
X-63500Y1003300D03*
D24*
X-41510Y1003300D03*
D25*
X-25400Y728195D03*
X-25400Y668805D03*
D23*
X-62826Y886751D03*
D24*
X-40836Y886751D03*
D23*
X-63500Y1143000D03*
D24*
X-41510Y1143000D03*
D25*
X-25400Y1388595D03*
X-25400Y1329205D03*
D23*
X-36553Y1270578D03*
D24*
X-58543Y1270578D03*
D23*
X-63500Y1689100D03*
D24*
X-41510Y1689100D03*
D25*
X-25400Y1591795D03*
X-25400Y1532405D03*
D23*
X-88900Y1587500D03*
D24*
X-66910Y1587500D03*
D23*
X-127000Y1498600D03*
D24*
X-105010Y1498600D03*
D25*
X-25400Y1430805D03*
X-25400Y1490195D03*
D23*
X-165100Y1409700D03*
D24*
X-143110Y1409700D03*
D23*
X-5187Y1909426D03*
D24*
X16803Y1909426D03*
D25*
X38100Y1591795D03*
X38100Y1532405D03*
D23*
X-25400Y1790700D03*
D24*
X-3410Y1790700D03*
D23*
X25400Y1790700D03*
D24*
X47390Y1790700D03*
D25*
X38100Y1430805D03*
X38100Y1490195D03*
D23*
X76200Y1689100D03*
D24*
X54210Y1689100D03*
D23*
X114300Y1587500D03*
D24*
X92310Y1587500D03*
D25*
X38100Y1388595D03*
X38100Y1329205D03*
D23*
X140847Y1499090D03*
D24*
X118857Y1499090D03*
D26*
X368300Y-130750D03*
X368300Y-123250D03*
X368300Y-138250D03*
X368300Y-115750D03*
D27*
X368300Y-146250D03*
X368300Y-107750D03*
D28*
X368300Y-155750D03*
X368300Y-98250D03*
D29*
X362500Y-170200D02*
X380500Y-170200D01*
X380500Y-83800D02*
X362500Y-83800D01*
X400500Y-170200D02*
X418500Y-170200D01*
X418500Y-83800D02*
X400500Y-83800D01*
D12*
X390195Y-50800D03*
X371805Y-50800D03*
X402895Y-215900D03*
X384505Y-215900D03*
X136195Y203200D03*
X117805Y203200D03*
D30*
X43434Y387350D03*
X-18034Y387350D03*
X43434Y400050D03*
X43434Y412750D03*
X-18034Y400050D03*
X-18034Y412750D03*
X43434Y425450D03*
X-18034Y425450D03*
D12*
X98095Y419100D03*
X79705Y419100D03*
D23*
X182900Y1409400D03*
D24*
X160910Y1409400D03*
D25*
X38100Y1236195D03*
X38100Y1176805D03*
D23*
X77300Y1270000D03*
D24*
X55310Y1270000D03*
D23*
X71562Y1142200D03*
D24*
X49572Y1142200D03*
D25*
X38100Y969495D03*
X38100Y910105D03*
D23*
X70583Y1003300D03*
D24*
X48593Y1003300D03*
D23*
X89823Y890230D03*
D24*
X67833Y890230D03*
D25*
X50800Y728195D03*
X50800Y668805D03*
D23*
X88900Y774700D03*
D24*
X66910Y774700D03*
D23*
X96079Y643816D03*
D24*
X118069Y643816D03*
D25*
X50800Y567205D03*
X50800Y626595D03*
D23*
X149938Y532515D03*
D24*
X127948Y532515D03*
D23*
X368300Y368300D03*
D24*
X346310Y368300D03*
D25*
X50800Y524995D03*
X50800Y465605D03*
D23*
X216550Y419593D03*
D24*
X194560Y419593D03*
D23*
X499723Y437653D03*
D24*
X521713Y437653D03*
D25*
X660400Y474195D03*
X660400Y414805D03*
D23*
X558628Y491159D03*
D24*
X580618Y491159D03*
D23*
X580264Y766000D03*
D24*
X602254Y766000D03*
D25*
X660400Y516405D03*
X660400Y575795D03*
D23*
X596900Y647700D03*
D24*
X618890Y647700D03*
D23*
X533400Y1028700D03*
D24*
X555390Y1028700D03*
D25*
X660400Y677395D03*
X660400Y618005D03*
D23*
X573527Y902167D03*
D24*
X595517Y902167D03*
D23*
X550268Y1268601D03*
D24*
X572258Y1268601D03*
D25*
X609600Y1049805D03*
X609600Y1109195D03*
D23*
X546100Y1168400D03*
D24*
X568090Y1168400D03*
D23*
X631190Y1460500D03*
D24*
X653180Y1460500D03*
D25*
X609600Y1223495D03*
X609600Y1164105D03*
D23*
X609600Y1371600D03*
D24*
X631590Y1371600D03*
D23*
X647093Y1269871D03*
D24*
X669083Y1269871D03*
D25*
X673100Y1049805D03*
X673100Y1109195D03*
D23*
X698500Y1168400D03*
D24*
X676510Y1168400D03*
D23*
X772566Y1030445D03*
D24*
X750576Y1030445D03*
D25*
X723900Y677395D03*
X723900Y618005D03*
D23*
X668438Y903500D03*
D24*
X690428Y903500D03*
D23*
X705580Y769838D03*
D24*
X727570Y769838D03*
D25*
X723900Y516405D03*
X723900Y575795D03*
D23*
X787400Y647700D03*
D24*
X765410Y647700D03*
D23*
X781161Y550859D03*
D24*
X803151Y550859D03*
D25*
X723900Y474195D03*
X723900Y414805D03*
D23*
X810878Y444500D03*
D24*
X788888Y444500D03*
D23*
X693267Y207302D03*
D24*
X715257Y207302D03*
D25*
X660400Y325905D03*
X660400Y385295D03*
D23*
X787400Y317500D03*
D24*
X765410Y317500D03*
D23*
X469420Y51879D03*
D24*
X491410Y51879D03*
D25*
X595800Y325705D03*
X595800Y385095D03*
D23*
X595466Y128792D03*
D24*
X617456Y128792D03*
D30*
X477266Y374650D03*
X538734Y374650D03*
X477266Y361950D03*
X477266Y349250D03*
X538734Y361950D03*
X538734Y349250D03*
X477266Y336550D03*
X538734Y336550D03*
D12*
X422605Y330200D03*
X440995Y330200D03*
D30*
X-553466Y273050D03*
X-614934Y273050D03*
X-553466Y285750D03*
X-553466Y298450D03*
X-614934Y285750D03*
X-614934Y298450D03*
X-553466Y311150D03*
X-614934Y311150D03*
D12*
X-498805Y304800D03*
X-517195Y304800D03*
D23*
X-520700Y88900D03*
D24*
X-542690Y88900D03*
D25*
X-647700Y351305D03*
X-647700Y410695D03*
D23*
X-673100Y177800D03*
D24*
X-651110Y177800D03*
D12*
X-517195Y279400D03*
X-498805Y279400D03*
X-21285Y288290D03*
X-39675Y288290D03*
X-21285Y265430D03*
X-39675Y265430D03*
X79705Y393700D03*
X98095Y393700D03*
X440995Y304800D03*
X422605Y304800D03*
D18*
X92200Y161800D02*
X70700Y161800D01*
X92200Y161800D02*
X101600Y152400D01*
X117805Y152400D01*
X87500Y153800D02*
X70700Y153800D01*
X87500Y153800D02*
X114300Y127000D01*
X117805Y127000D01*
X43434Y400050D02*
X43434Y412750D01*
X43434Y400050D02*
X43434Y393700D01*
X43434Y387350D01*
X19050Y387350D01*
X12700Y393700D01*
X-29346Y342900D02*
X-25400Y338954D01*
X-29346Y342900D02*
X-50800Y342900D01*
D31*
X-50800Y342900D03*
D18*
X76200Y321446D02*
X97654Y321446D01*
X101600Y317500D01*
D31*
X101600Y317500D03*
D18*
X477266Y361950D02*
X477266Y374650D01*
X165100Y101600D02*
X135754Y101600D01*
D31*
X165100Y101600D03*
D18*
X402895Y-176805D02*
X402895Y-215900D01*
X402895Y-176805D02*
X409500Y-170200D01*
D31*
X355600Y-25400D03*
D18*
X152400Y177800D02*
X135754Y177800D01*
D31*
X152400Y177800D03*
D18*
X96900Y169800D02*
X70700Y169800D01*
X96900Y169800D02*
X101600Y165100D01*
D31*
X101600Y165100D03*
D18*
X44700Y119800D02*
X44700Y107700D01*
X63500Y88900D01*
D31*
X63500Y88900D03*
D18*
X-13141Y67005D02*
X-38100Y67005D01*
X-13141Y67005D02*
X-12700Y67446D01*
X-38100Y67005D02*
X-41605Y63500D01*
X-63500Y63500D01*
D31*
X-63500Y63500D03*
D18*
X38100Y67446D02*
X54746Y67446D01*
X63500Y76200D01*
X63500Y88900D01*
X-19300Y108200D02*
X-19300Y119800D01*
X-19300Y108200D02*
X-12700Y101600D01*
D31*
X-12700Y101600D03*
D18*
X25400Y292100D02*
X25400Y330200D01*
D31*
X25400Y330200D03*
D18*
X-27300Y217800D02*
X-45300Y217800D01*
X-27300Y217800D02*
X-25400Y215900D01*
D31*
X-25400Y215900D03*
D18*
X28700Y219200D02*
X28700Y235800D01*
X28700Y219200D02*
X25400Y215900D01*
D31*
X25400Y215900D03*
D18*
X-110354Y215900D02*
X-127000Y215900D01*
D31*
X-127000Y215900D03*
D18*
X368300Y-155750D02*
X371500Y-158950D01*
X371500Y-170200D01*
X368300Y-98250D02*
X368300Y-87000D01*
X371500Y-83800D01*
D31*
X508000Y304800D03*
X38100Y355600D03*
D18*
X355600Y-25400D02*
X381000Y-25400D01*
X393700Y-38100D01*
X393700Y-47295D01*
X390195Y-50800D01*
X-39675Y288290D02*
X-41910Y288290D01*
X-50800Y279400D01*
D31*
X-50800Y279400D03*
D18*
X43434Y393700D02*
X79705Y393700D01*
X477266Y361950D02*
X477266Y349250D01*
X477266Y374650D01*
X477266Y361950D02*
X483616Y355600D01*
X508000Y355600D01*
X469900Y304800D02*
X440995Y304800D01*
D31*
X469900Y304800D03*
X495300Y304800D03*
X482600Y304800D03*
X-584200Y292100D03*
X-584200Y266700D03*
X-546100Y254000D03*
X-584200Y254000D03*
X-584200Y279400D03*
X-571500Y254000D03*
X-558800Y254000D03*
D18*
X-547116Y279400D02*
X-517195Y279400D01*
X-547116Y279400D02*
X-553466Y285750D01*
D31*
X25400Y355600D03*
X12700Y355600D03*
X50800Y355600D03*
D18*
X-27300Y119800D02*
X-27300Y99554D01*
X-12700Y84954D01*
X-45300Y209800D02*
X-70100Y209800D01*
X-76200Y215900D01*
D31*
X12700Y177800D03*
D32*
X-254000Y139700D02*
X-304800Y88900D01*
X-304800Y-25400D01*
D31*
X-114300Y139700D03*
D32*
X-254000Y139700D01*
D33*
X325120Y-363220D02*
X379730Y-363220D01*
X325120Y-363220D02*
X304800Y-342900D01*
X304800Y-114300D01*
X266700Y-76200D01*
X266700Y50800D01*
X241300Y76200D01*
X114300Y76200D01*
X101600Y88900D01*
X63500Y127000D01*
X105546Y88900D02*
X118246Y101600D01*
X105546Y88900D02*
X101600Y88900D01*
D18*
X88900Y254000D02*
X88900Y257505D01*
X88900Y254000D02*
X63500Y228600D01*
D31*
X50800Y203200D03*
X100330Y203200D03*
D18*
X117805Y203200D01*
X-76200Y241300D02*
X-92405Y241300D01*
D31*
X-76200Y241300D03*
X-76200Y215900D03*
D18*
X-92846Y215900D01*
X-92405Y317500D02*
X-76200Y317500D01*
D31*
X-76200Y317500D03*
D18*
X-52070Y265430D02*
X-39675Y265430D01*
X-52070Y265430D02*
X-76200Y241300D01*
X36700Y86354D02*
X38100Y84954D01*
X36700Y86354D02*
X36700Y119800D01*
X70700Y177800D02*
X118246Y177800D01*
X12700Y235800D02*
X12700Y269505D01*
X13050Y291750D02*
X13400Y292100D01*
X6900Y318700D02*
X-22654Y318700D01*
X-25400Y321446D01*
X13400Y304800D02*
X13400Y292100D01*
X13050Y269855D02*
X16205Y266700D01*
X13050Y269855D02*
X13050Y291750D01*
X13050Y269855D02*
X12700Y269505D01*
X13400Y312200D02*
X6900Y318700D01*
X13400Y312200D02*
X13400Y304800D01*
X43900Y341700D02*
X63500Y341700D01*
X73454Y341700D01*
X76200Y338954D01*
X20700Y249300D02*
X20700Y235800D01*
X20700Y249300D02*
X34595Y263195D01*
X34595Y266700D01*
X37400Y269505D01*
X63500Y292100D02*
X63500Y341700D01*
X37400Y292100D02*
X37400Y269505D01*
X40905Y269505D02*
X63500Y292100D01*
X40905Y269505D02*
X37400Y269505D01*
X-45300Y137800D02*
X-45300Y108800D01*
X-38100Y101600D01*
X-38100Y85395D01*
X151130Y279400D02*
X163830Y292100D01*
X151130Y279400D02*
X92405Y279400D01*
X88900Y275895D01*
X44700Y260600D02*
X44700Y235800D01*
X44700Y260600D02*
X59995Y275895D01*
X88900Y275895D01*
X76200Y209800D02*
X70700Y209800D01*
X139700Y266700D02*
X140970Y266700D01*
X82800Y209800D02*
X76200Y209800D01*
X82800Y209800D02*
X93980Y220980D01*
X173990Y220980D01*
X185420Y232410D01*
X185420Y240030D01*
X171450Y254000D01*
X152400Y254000D01*
X139700Y266700D01*
X-3300Y295400D02*
X-3300Y235800D01*
X-3300Y295400D02*
X-12700Y304800D01*
X-50800Y304800D01*
X-88900Y266700D01*
X-92405Y266700D01*
X4700Y296290D02*
X4700Y235800D01*
X4700Y296290D02*
X-8890Y309880D01*
X-58420Y309880D01*
X-76200Y292100D01*
X-92405Y292100D01*
X-110795Y266700D02*
X-110795Y241300D01*
X-110795Y266700D02*
X-127000Y266700D01*
X-152400Y241300D01*
X-152400Y228600D01*
D31*
X-152400Y228600D03*
X-152400Y76200D03*
X292100Y-330200D03*
X317500Y-330200D03*
D18*
X325120Y-322580D01*
X379730Y-322580D01*
X292100Y-330200D02*
X292100Y-127000D01*
X241300Y-76200D01*
X241300Y38100D01*
X228600Y50800D01*
X-127000Y50800D01*
X-152400Y76200D01*
X-110795Y292100D02*
X-110795Y317500D01*
X-110795Y292100D02*
X-127000Y292100D01*
X-165100Y254000D01*
X-165100Y228600D01*
D31*
X-165100Y228600D03*
X-165100Y76200D03*
X292100Y-342900D03*
D18*
X-127000Y38100D02*
X-165100Y76200D01*
X-127000Y38100D02*
X203200Y38100D01*
X228600Y12700D01*
X228600Y-76200D01*
X279400Y-127000D01*
X279400Y-330200D01*
X292100Y-342900D01*
X87500Y201800D02*
X70700Y201800D01*
X87500Y201800D02*
X101600Y215900D01*
X177800Y215900D01*
X190500Y228600D01*
X190500Y242570D01*
X166370Y266700D01*
X346650Y-130750D02*
X368300Y-130750D01*
X346650Y-130750D02*
X279400Y-63500D01*
X279400Y88900D01*
X157480Y152400D02*
X136195Y152400D01*
X157480Y152400D02*
X177800Y132080D01*
X236220Y132080D01*
X279400Y88900D01*
X351850Y-123250D02*
X368300Y-123250D01*
X351850Y-123250D02*
X292100Y-63500D01*
X292100Y88900D01*
D31*
X292100Y88900D03*
X266700Y88900D03*
D18*
X228600Y127000D01*
X136195Y127000D01*
X361750Y-107750D02*
X368300Y-107750D01*
X361750Y-107750D02*
X342900Y-88900D01*
X96900Y185800D02*
X70700Y185800D01*
X96900Y185800D02*
X101600Y190500D01*
X136195Y194005D02*
X136195Y203200D01*
X342900Y-76200D02*
X342900Y-88900D01*
X342900Y-76200D02*
X355600Y-63500D01*
X304800Y12700D02*
X304800Y101600D01*
X368300Y-146250D02*
X387150Y-146250D01*
X393700Y-139700D01*
X393700Y-114300D01*
X387150Y-107750D02*
X368300Y-107750D01*
X387150Y-107750D02*
X393700Y-114300D01*
X406400Y-63500D02*
X355600Y-63500D01*
X406400Y-63500D02*
X419100Y-50800D01*
X419100Y-38100D01*
X393700Y-12700D01*
X330200Y-12700D01*
X304800Y12700D01*
X132690Y190500D02*
X101600Y190500D01*
X132690Y190500D02*
X136195Y194005D01*
X136195Y203200D02*
X152400Y203200D01*
X165100Y190500D01*
X165100Y152400D01*
X180340Y137160D01*
X269240Y137160D01*
X304800Y101600D01*
X-350520Y-172720D02*
X-368300Y-190500D01*
X-350520Y-172720D02*
X-350520Y132080D01*
X-288800Y193800D01*
X-45300Y193800D01*
X-45300Y153800D02*
X-62100Y153800D01*
X-76200Y-292100D02*
X-139700Y-355600D01*
D31*
X-139700Y-355600D03*
X-292100Y-381000D03*
D18*
X-355600Y-381000D01*
X-368300Y-393700D01*
X-101600Y114300D02*
X-62100Y153800D01*
X-101600Y114300D02*
X-165100Y114300D01*
X-190500Y88900D01*
X-190500Y50800D01*
X-76200Y-63500D01*
X-76200Y-292100D01*
X-317500Y-190500D02*
X-335280Y-172720D01*
X-335280Y109220D01*
X-274700Y169800D01*
X-45300Y169800D01*
X-345440Y-269240D02*
X-368300Y-292100D01*
X-345440Y-269240D02*
X-345440Y124460D01*
X-284100Y185800D01*
X-45300Y185800D01*
D31*
X-215900Y114300D03*
X-215900Y88900D03*
X-215900Y63500D03*
X-215900Y38100D03*
X-241300Y38100D03*
X-241300Y63500D03*
X-241300Y88900D03*
X-266700Y88900D03*
X-266700Y63500D03*
X-266700Y38100D03*
X-368300Y38100D03*
X-393700Y38100D03*
X-419100Y38100D03*
X-419100Y63500D03*
X-393700Y63500D03*
X-368300Y63500D03*
X-368300Y88900D03*
X-393700Y88900D03*
X-419100Y88900D03*
X-368300Y114300D03*
X-393700Y114300D03*
X-419100Y114300D03*
X-444500Y114300D03*
X-444500Y88900D03*
X-444500Y63500D03*
X-444500Y38100D03*
X-368300Y139700D03*
X-393700Y139700D03*
X-419100Y139700D03*
X-444500Y139700D03*
X406400Y127000D03*
X406400Y101600D03*
X381000Y127000D03*
X355600Y127000D03*
X330200Y127000D03*
X330200Y101600D03*
X355600Y101600D03*
X381000Y101600D03*
X381000Y76200D03*
X355600Y76200D03*
X330200Y76200D03*
X330200Y50800D03*
X355600Y50800D03*
X330200Y25400D03*
X139700Y-38100D03*
X139700Y-12700D03*
X139700Y12700D03*
X165100Y12700D03*
X165100Y-12700D03*
X165100Y-38100D03*
X190500Y-38100D03*
X190500Y-12700D03*
X190500Y12700D03*
X215900Y-12700D03*
X215900Y-38100D03*
X-520700Y482600D03*
X-571500Y622300D03*
X-571500Y723900D03*
X-558800Y838200D03*
X-546100Y927100D03*
X-546100Y1079500D03*
X-520700Y1168400D03*
X-533400Y1257300D03*
X-571500Y1346200D03*
X-596900Y1422400D03*
X-647700Y1384300D03*
X-685800Y1155700D03*
X-774700Y1028700D03*
X-685800Y927100D03*
X-685800Y800100D03*
X-723900Y660400D03*
X-787400Y622300D03*
X-749300Y393700D03*
X-419100Y381000D03*
X-177800Y381000D03*
X-152400Y482600D03*
X-101600Y584200D03*
X-88900Y723900D03*
X-76200Y838200D03*
X-63500Y965200D03*
X-50800Y1092200D03*
X-101600Y1333500D03*
X-139700Y1384300D03*
X-101600Y1549400D03*
X-76200Y1663700D03*
X-38100Y1752600D03*
X12700Y1955800D03*
X63500Y1765300D03*
X88900Y1638300D03*
X152400Y1460500D03*
X101600Y1295400D03*
X38100Y1308100D03*
X76200Y1206500D03*
X76200Y1092200D03*
X76200Y965200D03*
X88900Y825500D03*
X101600Y723900D03*
X127000Y596900D03*
X165100Y495300D03*
X152400Y457200D03*
X292100Y381000D03*
X444500Y393700D03*
X584200Y444500D03*
X571500Y558800D03*
X622300Y711200D03*
X571500Y863600D03*
X533400Y990600D03*
X533400Y1117600D03*
X546100Y1244600D03*
X571500Y1206500D03*
X584200Y1333500D03*
X609600Y1422400D03*
X660400Y1511300D03*
X660400Y1397000D03*
X685800Y1244600D03*
X647700Y1206500D03*
X723900Y1130300D03*
X762000Y1066800D03*
X812800Y1016000D03*
X685800Y1016000D03*
X711200Y863600D03*
X762000Y736600D03*
X800100Y609600D03*
X774700Y495300D03*
X723900Y381000D03*
X685800Y177800D03*
D18*
X-317500Y-292100D02*
X-340360Y-269240D01*
X-340360Y116840D01*
X-279400Y177800D01*
X-45300Y177800D01*
X-355600Y-76200D02*
X-368300Y-88900D01*
X-355600Y-76200D02*
X-355600Y139700D01*
X-293500Y201800D01*
X-45300Y201800D01*
X-330200Y-76200D02*
X-317500Y-88900D01*
X-330200Y-76200D02*
X-330200Y101600D01*
X-270000Y161800D01*
X-45300Y161800D01*
X-45300Y145800D02*
X-57400Y145800D01*
X-63500Y-292100D02*
X-139700Y-368300D01*
D31*
X-139700Y-368300D03*
D18*
X-63500Y-292100D02*
X-63500Y-63500D01*
X-177800Y50800D01*
X-177800Y88900D01*
X-165100Y101600D01*
X-101600Y101600D01*
X-57400Y145800D01*
X-622300Y1431690D02*
X-625710Y1435100D01*
X-622300Y1431690D02*
X-622300Y1384300D01*
X-533400Y1231900D02*
X-533400Y1193800D01*
X-533400Y1231900D02*
X-567867Y1266367D01*
X-567867Y1295438D01*
X-558800Y558800D02*
X-558800Y533400D01*
X-558800Y558800D02*
X-596900Y596900D01*
X-596900Y660400D01*
X-593490Y660400D01*
X-571500Y762000D02*
X-574453Y764953D01*
X-574453Y874820D01*
X-508000Y1028700D02*
X-508000Y1066800D01*
X-529990Y1088790D01*
X-529990Y1117600D01*
X-635000Y1193800D02*
X-635000Y1270000D01*
X-625710Y1279290D01*
X-625710Y1295400D01*
X-749300Y1041400D02*
X-749300Y1028700D01*
X-749300Y1041400D02*
X-689210Y1101490D01*
X-689210Y1117600D01*
X-723900Y787400D02*
X-723900Y762000D01*
X-723900Y787400D02*
X-676510Y834790D01*
X-676510Y876300D01*
X-800100Y546100D02*
X-800100Y533400D01*
X-800100Y546100D02*
X-752710Y593490D01*
X-752710Y660400D01*
X-778110Y406400D02*
X-774700Y402990D01*
X-774700Y330200D01*
X-762000Y317500D01*
X-762000Y293169D01*
X-761311Y292480D01*
X-457200Y355600D02*
X-352190Y355600D01*
X-457200Y355600D02*
X-495300Y393700D01*
X-495300Y419256D01*
X-491672Y422884D01*
X-108707Y665993D02*
X-66910Y707790D01*
X-108707Y665993D02*
X-108707Y638153D01*
X-66910Y707790D02*
X-66910Y772892D01*
X-65273Y774529D01*
X-41510Y965200D02*
X-41510Y1003300D01*
X-41510Y965200D02*
X-41510Y961790D01*
X-62826Y927774D02*
X-62826Y886751D01*
X-62826Y927774D02*
X-41510Y949090D01*
X-41510Y961790D01*
X-41510Y1143000D02*
X-41510Y1228490D01*
X-36553Y1233447D02*
X-36553Y1270578D01*
X-36553Y1233447D02*
X-41510Y1228490D01*
X-88900Y1587500D02*
X-88900Y1612900D01*
X-41510Y1660290D01*
X-41510Y1689100D01*
X-105010Y1498600D02*
X-105010Y1469790D01*
X-165100Y1435100D02*
X-165100Y1409700D01*
X-114300Y1460500D02*
X-105010Y1469790D01*
X-114300Y1460500D02*
X-139700Y1460500D01*
X-165100Y1435100D01*
X-25400Y1790700D02*
X-25400Y1841500D01*
X16803Y1883703D01*
X16803Y1909426D01*
X76200Y1727200D02*
X76200Y1689100D01*
X76200Y1727200D02*
X47390Y1756010D01*
X47390Y1790700D01*
X140847Y1522853D02*
X140847Y1499090D01*
X140847Y1522853D02*
X92310Y1571390D01*
X92310Y1587500D01*
X-21105Y1485900D02*
X-25400Y1490195D01*
X-25400Y465605D02*
X-12700Y465605D01*
D32*
X0Y1329205D02*
X38100Y1329205D01*
X6350Y1335555D02*
X0Y1329205D01*
X6350Y1335555D02*
X6350Y1490980D01*
X13970Y1498600D01*
X38100Y1498600D01*
X38100Y1490195D01*
X-18034Y400050D02*
X-18034Y387350D01*
X-18034Y400050D02*
X-18034Y412750D01*
X-18034Y425450D01*
X-18034Y460271D01*
X-12700Y465605D01*
X-25400Y465605D02*
X12700Y465605D01*
X50800Y465605D01*
X12700Y465605D02*
X12700Y622300D01*
X21105Y668805D02*
X50800Y668805D01*
X21105Y668805D02*
X12700Y660400D01*
X0Y1329205D02*
X-25400Y1329205D01*
X0Y1329205D02*
X0Y1181100D01*
X0Y901700D01*
X0Y787400D01*
X12700Y774700D01*
X12700Y660400D01*
X8405Y910105D02*
X38100Y910105D01*
X8405Y910105D02*
X0Y901700D01*
X4295Y1176805D02*
X38100Y1176805D01*
X4295Y1176805D02*
X0Y1181100D01*
D18*
X330200Y-88900D02*
X357050Y-115750D01*
X368300Y-115750D01*
X371805Y-50800D02*
X342900Y-50800D01*
X330200Y-63500D01*
X330200Y-88900D01*
X344350Y-138250D02*
X368300Y-138250D01*
X344350Y-138250D02*
X330200Y-152400D01*
X330200Y-190500D01*
X355600Y-215900D01*
X384505Y-215900D01*
X73355Y425450D02*
X43434Y425450D01*
X73355Y425450D02*
X79705Y419100D01*
X77300Y1270000D02*
X77300Y1385400D01*
X101600Y1409700D01*
X160610Y1409700D01*
X160910Y1409400D01*
X70583Y1021617D02*
X70583Y1003300D01*
X70583Y1021617D02*
X49572Y1042628D01*
X49572Y1142200D01*
X88900Y800100D02*
X88900Y774700D01*
X88900Y800100D02*
X67833Y821167D01*
X67833Y890230D01*
X118069Y643816D02*
X118069Y593131D01*
X149938Y561262D01*
X149938Y532515D01*
X279400Y368300D02*
X346310Y368300D01*
X279400Y368300D02*
X228107Y419593D01*
X216550Y419593D01*
X596900Y647700D02*
X596900Y723900D01*
X602254Y729254D01*
X602254Y766000D01*
X573527Y1010563D02*
X555390Y1028700D01*
X573527Y1010563D02*
X573527Y902167D01*
X546100Y1168400D02*
X546100Y1206500D01*
X572258Y1232658D01*
X572258Y1268601D01*
X653180Y1453280D02*
X653180Y1460500D01*
X653180Y1453280D02*
X609600Y1409700D01*
X609600Y1371600D01*
X669083Y1269871D02*
X669083Y1235917D01*
X698500Y1206500D01*
X698500Y1168400D01*
X750576Y1030445D02*
X750576Y1029976D01*
X668438Y947838D01*
X668438Y903500D01*
X727570Y769838D02*
X727570Y745630D01*
X787400Y685800D01*
X787400Y647700D01*
X803151Y550859D02*
X810878Y543132D01*
X810878Y444500D01*
X787400Y317500D02*
X787400Y292524D01*
X786835Y291535D01*
X723900Y228600D01*
X723900Y215945D02*
X715257Y207302D01*
X723900Y215945D02*
X723900Y228600D01*
X595466Y128792D02*
X595466Y101600D01*
X595466Y100166D01*
X584200Y88900D01*
X508000Y88900D01*
X491410Y72310D01*
X491410Y51879D01*
X538734Y361950D02*
X538734Y368300D01*
X660400Y618005D02*
X664695Y622300D01*
X723900Y622300D02*
X723900Y575795D01*
X660400Y596900D02*
X660400Y618005D01*
X660400Y596900D02*
X660400Y575795D01*
X721753Y620153D02*
X723900Y618005D01*
D32*
X609600Y1109195D02*
X609600Y1164105D01*
X609600Y1109195D02*
X635000Y1109195D01*
X673100Y1109195D01*
X641350Y1102845D02*
X635000Y1109195D01*
X641350Y1102845D02*
X641350Y768350D01*
X692150Y717550D01*
X692150Y603250D01*
X685800Y596900D01*
X660400Y596900D01*
X685800Y414805D02*
X723900Y414805D01*
X685800Y414805D02*
X660400Y414805D01*
X685800Y414805D02*
X692150Y421155D01*
X692150Y603250D01*
X660400Y414805D02*
X660400Y385295D01*
X549379Y385295D01*
D18*
X545592Y381508D01*
D32*
X549179Y385095D02*
X595800Y385095D01*
X549179Y385095D02*
X545592Y381508D01*
X538734Y374650D01*
X538734Y368300D01*
X538734Y361950D02*
X538734Y349250D01*
X538734Y336550D01*
D18*
X477266Y336550D02*
X447345Y336550D01*
X440995Y330200D01*
X-600310Y1260710D02*
X-600310Y1384300D01*
X-600310Y1260710D02*
X-596900Y1257300D01*
X-596900Y1223495D01*
X-584200Y1130300D02*
X-584200Y1109195D01*
X-584200Y1130300D02*
X-555390Y1159110D01*
X-555390Y1193800D01*
X-618005Y512295D02*
X-647700Y512295D01*
X-618005Y512295D02*
X-596900Y533400D01*
X-580790Y533400D01*
X-596900Y758590D02*
X-593490Y762000D01*
X-596900Y758590D02*
X-596900Y723900D01*
X-647700Y673100D01*
X-647700Y613895D01*
X-584200Y935505D02*
X-533400Y986305D01*
X-533400Y1028700D01*
X-529990Y1028700D01*
X-647700Y1109195D02*
X-647700Y1130300D01*
X-660400Y1143000D01*
X-660400Y1190390D01*
X-656990Y1193800D01*
X-685800Y973605D02*
X-647700Y935505D01*
X-685800Y973605D02*
X-685800Y1016000D01*
X-698500Y1028700D01*
X-727310Y1028700D01*
X-701910Y762000D02*
X-701910Y623185D01*
X-711200Y613895D01*
X-711200Y512295D02*
X-766295Y512295D01*
X-778110Y524110D01*
X-778110Y533400D01*
X-739321Y314779D02*
X-739321Y292480D01*
X-711200Y342900D02*
X-711200Y351305D01*
X-711200Y342900D02*
X-739321Y314779D01*
X-59205Y567205D02*
X-25400Y567205D01*
X-59205Y567205D02*
X-86717Y594717D01*
X-86717Y638153D01*
X-40836Y815536D02*
X-40836Y886751D01*
X-40836Y815536D02*
X-25400Y800100D01*
X-25400Y728195D01*
X-25400Y1388595D02*
X-59205Y1388595D01*
X-76200Y1371600D01*
X-76200Y1288236D01*
X-58543Y1270578D01*
X-66910Y1587500D02*
X-62615Y1591795D01*
X-25400Y1591795D01*
X-93195Y1430805D02*
X-114300Y1409700D01*
X-143110Y1409700D01*
X-93195Y1430805D02*
X-25400Y1430805D01*
X-3410Y1667110D02*
X-3410Y1790700D01*
X-3410Y1667110D02*
X38100Y1625600D01*
X38100Y1591795D01*
X38100Y1430805D02*
X59205Y1430805D01*
X76200Y1447800D01*
X76200Y1562100D01*
X63500Y1574800D01*
X63500Y1651000D01*
X54210Y1660290D01*
X54210Y1689100D01*
X67795Y1388595D02*
X38100Y1388595D01*
X67795Y1388595D02*
X118857Y1439657D01*
X118857Y1499090D01*
X-513662Y421843D02*
X-584200Y351305D01*
X-513662Y421843D02*
X-513662Y422884D01*
X-646500Y993695D02*
X-647700Y994895D01*
X-643500Y999095D01*
D32*
X-614934Y285750D02*
X-614934Y273050D01*
X-614934Y285750D02*
X-614934Y298450D01*
X-614934Y311150D01*
X-614934Y335534D01*
X-615950Y336550D01*
X-615950Y411480D01*
X-617220Y412750D01*
X-647700Y554505D02*
X-686285Y554505D01*
X-711200Y554505D01*
X-596900Y1155700D02*
X-596900Y1164105D01*
X-596900Y1155700D02*
X-615950Y1136650D01*
X-615950Y1038860D01*
X-619760Y1035050D01*
X-615950Y1018055D02*
X-647700Y1049805D01*
X-615950Y1018055D02*
X-615950Y793750D01*
X-679450Y730250D01*
X-679450Y561340D01*
X-686285Y554505D01*
X-679450Y442445D02*
X-647700Y410695D01*
X-679450Y442445D02*
X-679450Y561340D01*
D18*
X-553466Y311150D02*
X-523545Y311150D01*
X-517195Y304800D01*
X-673100Y177800D02*
X-673100Y165100D01*
X-647700Y139700D01*
X-571500Y139700D01*
X-542690Y110890D01*
X-542690Y88900D01*
X-651110Y177800D02*
X-651110Y352190D01*
X-647700Y355600D01*
X-647700Y351305D01*
X50800Y1270000D02*
X55310Y1270000D01*
X50800Y1270000D02*
X38100Y1257300D01*
X38100Y1236195D01*
X38100Y1003300D02*
X48593Y1003300D01*
X38100Y1003300D02*
X38100Y969495D01*
X63500Y774700D02*
X66910Y774700D01*
X63500Y774700D02*
X50800Y762000D01*
X50800Y728195D01*
X77085Y532515D02*
X127948Y532515D01*
X77085Y532515D02*
X50800Y558800D01*
X50800Y567205D01*
X190500Y423653D02*
X194560Y419593D01*
X190500Y423653D02*
X190500Y457200D01*
X152400Y495300D01*
X63500Y495300D01*
X50800Y508000D01*
X50800Y524995D01*
X-177056Y419100D02*
X-178185Y417972D01*
X-177056Y419100D02*
X-152400Y419100D01*
X-127000Y444500D01*
X-127000Y533400D01*
X-105010Y533400D02*
X-76200Y533400D01*
X-63500Y520700D01*
X-29695Y520700D01*
X-25400Y524995D01*
X521713Y437653D02*
X558628Y474569D01*
X558628Y491159D01*
X605305Y474195D02*
X660400Y474195D01*
X605305Y474195D02*
X588341Y491159D01*
X580618Y491159D01*
X609600Y638410D02*
X618890Y647700D01*
X609600Y638410D02*
X609600Y546100D01*
X639295Y516405D01*
X660400Y516405D01*
X595517Y814183D02*
X595517Y902167D01*
X595517Y814183D02*
X622300Y787400D01*
X622300Y762000D01*
X660400Y723900D01*
X660400Y677395D01*
X568090Y1108310D02*
X568090Y1168400D01*
X568090Y1108310D02*
X609600Y1066800D01*
X609600Y1049805D01*
X609600Y1223495D02*
X609600Y1346200D01*
X622300Y1358900D01*
X622300Y1371600D01*
X631590Y1371600D01*
X676510Y1168400D02*
X676510Y1152290D01*
X711200Y1117600D01*
X711200Y1066800D01*
X694205Y1049805D01*
X673100Y1049805D01*
X723900Y711200D02*
X723900Y677395D01*
X685800Y901700D02*
X687600Y903500D01*
X690428Y903500D01*
X685800Y749300D02*
X723900Y711200D01*
X685800Y749300D02*
X685800Y901700D01*
X765410Y647700D02*
X765410Y536810D01*
X749300Y520700D01*
X711200Y520700D01*
X715495Y516405D01*
X723900Y516405D01*
X723900Y474195D02*
X788888Y474195D01*
X788888Y444500D01*
X715495Y325905D02*
X660400Y325905D01*
X715495Y325905D02*
X723900Y317500D01*
X765410Y317500D01*
X595800Y325705D02*
X595800Y217000D01*
X622300Y190500D01*
X622300Y133636D01*
X617456Y128792D01*
X91440Y226060D02*
X85090Y219710D01*
X91440Y226060D02*
X148590Y226060D01*
X163830Y241300D01*
X85090Y219710D02*
X83180Y217800D01*
X70700Y217800D01*
D34*
X0Y-180000D03*
X0Y-450000D03*
D35*
X60000Y-370000D03*
X60000Y-100000D03*
D36*
X-630000Y1340000D03*
X30000Y1850000D03*
X640000Y1330000D03*
X800000Y390000D03*
X490000Y230000D03*
X-450000Y230000D03*
X-730000Y710000D03*
X-780000Y470000D03*
X110000Y1372700D03*
X-90000Y420000D03*
D18*
X-11300Y278305D02*
X-11300Y235800D01*
X-11300Y278305D02*
X-21285Y288290D01*
X-19300Y263445D02*
X-19300Y235800D01*
X-19300Y263445D02*
X-21285Y265430D01*
X-56300Y235800D02*
X-63500Y228600D01*
X-139700Y228600D01*
X-495300Y304800D02*
X-498805Y304800D01*
X-498805Y301295D02*
X-498805Y279400D01*
X-498805Y301295D02*
X-495300Y304800D01*
X-56300Y235800D02*
X-27300Y235800D01*
X-139700Y228600D02*
X-152400Y215900D01*
X-381000Y215900D01*
D31*
X-469900Y279400D03*
D18*
X-444500Y279400D02*
X-381000Y215900D01*
X-444500Y279400D02*
X-469900Y279400D01*
X-498805Y279400D01*
X70700Y137800D02*
X78100Y137800D01*
X101600Y114300D01*
X190500Y114300D01*
D31*
X190500Y114300D03*
X190500Y152400D03*
D18*
X393700Y152400D01*
X422605Y181305D01*
X422605Y304800D01*
X422605Y330200D01*
D31*
X406400Y355600D03*
D18*
X411480Y330200D02*
X422605Y330200D01*
X411480Y330200D02*
X406400Y335280D01*
X406400Y355600D01*
X52700Y255900D02*
X52700Y235800D01*
X52700Y255900D02*
X63500Y266700D01*
D31*
X63500Y266700D03*
X76200Y292100D03*
D18*
X101600Y292100D01*
X114300Y304800D01*
X114300Y342900D01*
X98095Y393700D02*
X98095Y419100D01*
D31*
X101600Y355600D03*
D18*
X114300Y342900D01*
X101600Y355600D02*
X101600Y393700D01*
X98095Y393700D01*
M02*
