G04 EAGLE Gerber RS-274X export*
G75*
%MOMM*%
%FSLAX34Y34*%
%LPD*%
%INBottom Copper*%
%IPPOS*%
%AMOC8*
5,1,8,0,0,1.08239X$1,22.5*%
G01*
G04 Define Apertures*
%ADD10C,1.879600*%
%ADD11R,7.620000X1.270000*%
%ADD12C,1.950000*%
%ADD13C,2.250000*%
%ADD14C,1.800000*%
%ADD15R,1.100000X2.380000*%
%ADD16R,2.330000X2.380000*%
%ADD17R,3.370200X1.231200*%
%ADD18R,2.032000X0.660400*%
%ADD19R,1.031200X1.420200*%
%ADD20C,0.756400*%
%ADD21C,0.254000*%
%ADD22C,2.540000*%
%ADD23C,5.516000*%
%ADD24C,10.000000*%
%ADD25C,4.316000*%
G36*
X-513407Y368360D02*
X-513704Y368300D01*
X-599948Y368300D01*
X-600223Y368351D01*
X-600478Y368515D01*
X-600650Y368765D01*
X-600710Y369062D01*
X-600710Y394693D01*
X-600659Y394968D01*
X-600495Y395223D01*
X-600245Y395395D01*
X-599948Y395455D01*
X-581169Y395455D01*
X-575567Y397775D01*
X-571567Y401776D01*
X-571325Y401939D01*
X-571028Y401999D01*
X-566297Y401999D01*
X-564809Y403487D01*
X-564809Y417903D01*
X-566297Y419391D01*
X-571028Y419391D01*
X-571314Y419447D01*
X-571567Y419614D01*
X-575567Y423615D01*
X-581169Y425935D01*
X-663448Y425935D01*
X-663723Y425986D01*
X-663978Y426150D01*
X-664150Y426400D01*
X-664210Y426697D01*
X-664210Y443447D01*
X-664159Y443722D01*
X-663995Y443977D01*
X-663745Y444149D01*
X-663448Y444209D01*
X-629797Y444209D01*
X-628309Y445697D01*
X-628309Y448333D01*
X-628258Y448608D01*
X-628094Y448863D01*
X-627844Y449035D01*
X-627547Y449095D01*
X-599617Y449095D01*
X-576980Y471732D01*
X-576980Y518198D01*
X-576929Y518473D01*
X-576765Y518728D01*
X-576515Y518900D01*
X-576218Y518960D01*
X-568088Y518960D01*
X-567259Y519789D01*
X-567028Y519947D01*
X-566732Y520012D01*
X-566434Y519957D01*
X-566181Y519789D01*
X-565352Y518960D01*
X-552248Y518960D01*
X-550760Y520448D01*
X-550760Y546352D01*
X-552248Y547840D01*
X-554228Y547840D01*
X-554503Y547891D01*
X-554758Y548055D01*
X-554930Y548305D01*
X-554990Y548602D01*
X-554990Y585778D01*
X-592867Y623655D01*
X-593030Y623897D01*
X-593090Y624194D01*
X-593090Y645198D01*
X-593039Y645473D01*
X-592875Y645728D01*
X-592625Y645900D01*
X-592328Y645960D01*
X-580788Y645960D01*
X-579300Y647448D01*
X-579300Y673352D01*
X-580788Y674840D01*
X-606192Y674840D01*
X-607680Y673352D01*
X-607680Y647448D01*
X-606192Y645960D01*
X-601472Y645960D01*
X-601197Y645909D01*
X-600942Y645745D01*
X-600770Y645495D01*
X-600710Y645198D01*
X-600710Y620722D01*
X-562833Y582845D01*
X-562670Y582603D01*
X-562610Y582306D01*
X-562610Y548602D01*
X-562661Y548327D01*
X-562825Y548072D01*
X-563075Y547900D01*
X-563372Y547840D01*
X-565352Y547840D01*
X-566181Y547011D01*
X-566412Y546853D01*
X-566708Y546788D01*
X-567006Y546843D01*
X-567259Y547011D01*
X-568088Y547840D01*
X-593492Y547840D01*
X-594980Y546352D01*
X-594980Y520448D01*
X-593492Y518960D01*
X-585362Y518960D01*
X-585087Y518909D01*
X-584832Y518745D01*
X-584660Y518495D01*
X-584600Y518198D01*
X-584600Y475204D01*
X-584656Y474918D01*
X-584823Y474665D01*
X-602550Y456938D01*
X-602792Y456775D01*
X-603089Y456715D01*
X-627547Y456715D01*
X-627822Y456766D01*
X-628077Y456930D01*
X-628249Y457180D01*
X-628309Y457477D01*
X-628309Y460113D01*
X-629797Y461601D01*
X-663448Y461601D01*
X-663723Y461652D01*
X-663978Y461816D01*
X-664150Y462066D01*
X-664210Y462363D01*
X-664210Y491998D01*
X-664159Y492273D01*
X-663995Y492528D01*
X-663745Y492700D01*
X-663448Y492760D01*
X-635030Y492760D01*
X-634607Y492793D01*
X-634223Y492884D01*
X-633857Y493034D01*
X-633520Y493239D01*
X-633218Y493493D01*
X-632959Y493791D01*
X-632750Y494126D01*
X-632595Y494489D01*
X-632499Y494869D01*
X-632460Y495332D01*
X-632460Y502837D01*
X-632409Y503112D01*
X-632245Y503367D01*
X-631995Y503539D01*
X-631698Y503599D01*
X-629797Y503599D01*
X-628309Y505087D01*
X-628309Y519503D01*
X-629797Y520991D01*
X-631698Y520991D01*
X-631973Y521042D01*
X-632228Y521206D01*
X-632400Y521456D01*
X-632460Y521753D01*
X-632460Y545047D01*
X-632409Y545322D01*
X-632245Y545577D01*
X-631995Y545749D01*
X-631698Y545809D01*
X-629797Y545809D01*
X-628309Y547297D01*
X-628309Y561713D01*
X-629797Y563201D01*
X-631698Y563201D01*
X-631973Y563252D01*
X-632228Y563416D01*
X-632400Y563666D01*
X-632460Y563963D01*
X-632460Y571470D01*
X-632493Y571894D01*
X-632584Y572277D01*
X-632734Y572643D01*
X-632939Y572980D01*
X-633193Y573282D01*
X-633491Y573541D01*
X-633826Y573750D01*
X-634189Y573905D01*
X-634569Y574001D01*
X-635032Y574040D01*
X-663448Y574040D01*
X-663723Y574091D01*
X-663978Y574255D01*
X-664150Y574505D01*
X-664210Y574802D01*
X-664210Y604437D01*
X-664159Y604712D01*
X-663995Y604967D01*
X-663745Y605139D01*
X-663448Y605199D01*
X-629797Y605199D01*
X-628309Y606687D01*
X-628309Y621103D01*
X-629797Y622591D01*
X-643128Y622591D01*
X-643403Y622642D01*
X-643658Y622806D01*
X-643830Y623056D01*
X-643890Y623353D01*
X-643890Y658506D01*
X-643834Y658792D01*
X-643667Y659045D01*
X-589680Y713032D01*
X-589680Y746798D01*
X-589629Y747073D01*
X-589465Y747328D01*
X-589215Y747500D01*
X-588918Y747560D01*
X-580788Y747560D01*
X-579959Y748389D01*
X-579728Y748547D01*
X-579432Y748612D01*
X-579134Y748557D01*
X-578881Y748389D01*
X-578052Y747560D01*
X-564948Y747560D01*
X-563460Y749048D01*
X-563460Y774952D01*
X-564948Y776440D01*
X-566928Y776440D01*
X-567203Y776491D01*
X-567458Y776655D01*
X-567630Y776905D01*
X-567690Y777202D01*
X-567690Y814378D01*
X-580167Y826855D01*
X-580330Y827097D01*
X-580390Y827394D01*
X-580390Y861098D01*
X-580339Y861373D01*
X-580175Y861628D01*
X-579925Y861800D01*
X-579628Y861860D01*
X-568088Y861860D01*
X-566600Y863348D01*
X-566600Y889252D01*
X-568088Y890740D01*
X-593492Y890740D01*
X-594980Y889252D01*
X-594980Y863348D01*
X-593492Y861860D01*
X-588772Y861860D01*
X-588497Y861809D01*
X-588242Y861645D01*
X-588070Y861395D01*
X-588010Y861098D01*
X-588010Y823922D01*
X-575533Y811445D01*
X-575370Y811203D01*
X-575310Y810906D01*
X-575310Y777202D01*
X-575361Y776927D01*
X-575525Y776672D01*
X-575775Y776500D01*
X-576072Y776440D01*
X-578052Y776440D01*
X-578881Y775611D01*
X-579112Y775453D01*
X-579408Y775388D01*
X-579706Y775443D01*
X-579959Y775611D01*
X-580788Y776440D01*
X-606192Y776440D01*
X-607680Y774952D01*
X-607680Y749048D01*
X-606192Y747560D01*
X-598062Y747560D01*
X-597787Y747509D01*
X-597532Y747345D01*
X-597360Y747095D01*
X-597300Y746798D01*
X-597300Y716504D01*
X-597356Y716218D01*
X-597523Y715965D01*
X-651510Y661978D01*
X-651510Y623353D01*
X-651561Y623078D01*
X-651725Y622823D01*
X-651975Y622651D01*
X-652272Y622591D01*
X-663448Y622591D01*
X-663723Y622642D01*
X-663978Y622806D01*
X-664150Y623056D01*
X-664210Y623353D01*
X-664210Y660122D01*
X-664154Y660408D01*
X-663987Y660661D01*
X-647480Y677167D01*
X-645160Y682769D01*
X-645160Y768072D01*
X-645104Y768358D01*
X-644937Y768611D01*
X-603030Y810517D01*
X-600710Y816119D01*
X-600710Y926047D01*
X-600659Y926322D01*
X-600495Y926577D01*
X-600245Y926749D01*
X-599948Y926809D01*
X-566297Y926809D01*
X-564809Y928297D01*
X-564809Y930933D01*
X-564758Y931208D01*
X-564594Y931463D01*
X-564344Y931635D01*
X-564047Y931695D01*
X-561517Y931695D01*
X-526180Y967032D01*
X-526180Y1013498D01*
X-526129Y1013773D01*
X-525965Y1014028D01*
X-525715Y1014200D01*
X-525418Y1014260D01*
X-517288Y1014260D01*
X-516459Y1015089D01*
X-516228Y1015247D01*
X-515932Y1015312D01*
X-515634Y1015257D01*
X-515381Y1015089D01*
X-514552Y1014260D01*
X-501448Y1014260D01*
X-499960Y1015748D01*
X-499960Y1041652D01*
X-501448Y1043140D01*
X-503428Y1043140D01*
X-503703Y1043191D01*
X-503958Y1043355D01*
X-504130Y1043605D01*
X-504190Y1043902D01*
X-504190Y1068378D01*
X-525957Y1090145D01*
X-526120Y1090387D01*
X-526180Y1090684D01*
X-526180Y1102398D01*
X-526129Y1102673D01*
X-525965Y1102928D01*
X-525715Y1103100D01*
X-525418Y1103160D01*
X-517288Y1103160D01*
X-515800Y1104648D01*
X-515800Y1130552D01*
X-517288Y1132040D01*
X-542692Y1132040D01*
X-544180Y1130552D01*
X-544180Y1104648D01*
X-542692Y1103160D01*
X-534562Y1103160D01*
X-534287Y1103109D01*
X-534032Y1102945D01*
X-533860Y1102695D01*
X-533800Y1102398D01*
X-533800Y1087212D01*
X-512033Y1065445D01*
X-511870Y1065203D01*
X-511810Y1064906D01*
X-511810Y1043902D01*
X-511861Y1043627D01*
X-512025Y1043372D01*
X-512275Y1043200D01*
X-512572Y1043140D01*
X-514552Y1043140D01*
X-515381Y1042311D01*
X-515612Y1042153D01*
X-515908Y1042088D01*
X-516206Y1042143D01*
X-516459Y1042311D01*
X-517288Y1043140D01*
X-542692Y1043140D01*
X-544180Y1041652D01*
X-544180Y1015748D01*
X-542692Y1014260D01*
X-534562Y1014260D01*
X-534287Y1014209D01*
X-534032Y1014045D01*
X-533860Y1013795D01*
X-533800Y1013498D01*
X-533800Y970504D01*
X-533856Y970218D01*
X-534023Y969965D01*
X-563508Y940480D01*
X-563728Y940327D01*
X-564023Y940257D01*
X-564322Y940308D01*
X-564577Y940471D01*
X-564749Y940722D01*
X-564809Y941019D01*
X-564809Y942713D01*
X-566297Y944201D01*
X-599948Y944201D01*
X-600223Y944252D01*
X-600478Y944416D01*
X-600650Y944666D01*
X-600710Y944963D01*
X-600710Y974598D01*
X-600659Y974873D01*
X-600495Y975128D01*
X-600245Y975300D01*
X-599948Y975360D01*
X-571530Y975360D01*
X-571107Y975393D01*
X-570723Y975484D01*
X-570357Y975634D01*
X-570020Y975839D01*
X-569718Y976093D01*
X-569459Y976391D01*
X-569250Y976726D01*
X-569095Y977089D01*
X-568999Y977469D01*
X-568960Y977932D01*
X-568960Y985437D01*
X-568909Y985712D01*
X-568745Y985967D01*
X-568495Y986139D01*
X-568198Y986199D01*
X-566297Y986199D01*
X-564809Y987687D01*
X-564809Y1002103D01*
X-566297Y1003591D01*
X-568198Y1003591D01*
X-568473Y1003642D01*
X-568728Y1003806D01*
X-568900Y1004056D01*
X-568960Y1004353D01*
X-568960Y1040347D01*
X-568909Y1040622D01*
X-568745Y1040877D01*
X-568495Y1041049D01*
X-568198Y1041109D01*
X-566297Y1041109D01*
X-564809Y1042597D01*
X-564809Y1057013D01*
X-566297Y1058501D01*
X-568198Y1058501D01*
X-568473Y1058552D01*
X-568728Y1058716D01*
X-568900Y1058966D01*
X-568960Y1059263D01*
X-568960Y1066770D01*
X-568993Y1067194D01*
X-569084Y1067577D01*
X-569234Y1067943D01*
X-569439Y1068280D01*
X-569693Y1068582D01*
X-569991Y1068841D01*
X-570326Y1069050D01*
X-570689Y1069205D01*
X-571069Y1069301D01*
X-571532Y1069340D01*
X-599948Y1069340D01*
X-600223Y1069391D01*
X-600478Y1069555D01*
X-600650Y1069805D01*
X-600710Y1070102D01*
X-600710Y1099737D01*
X-600659Y1100012D01*
X-600495Y1100267D01*
X-600245Y1100439D01*
X-599948Y1100499D01*
X-566297Y1100499D01*
X-564809Y1101987D01*
X-564809Y1116403D01*
X-566297Y1117891D01*
X-576681Y1117891D01*
X-576945Y1117938D01*
X-577203Y1118097D01*
X-577378Y1118345D01*
X-577443Y1118641D01*
X-577388Y1118939D01*
X-577220Y1119192D01*
X-551580Y1144832D01*
X-551580Y1178598D01*
X-551529Y1178873D01*
X-551365Y1179128D01*
X-551115Y1179300D01*
X-550818Y1179360D01*
X-542688Y1179360D01*
X-541859Y1180189D01*
X-541628Y1180347D01*
X-541332Y1180412D01*
X-541034Y1180357D01*
X-540781Y1180189D01*
X-539952Y1179360D01*
X-526848Y1179360D01*
X-525360Y1180848D01*
X-525360Y1206752D01*
X-526848Y1208240D01*
X-528828Y1208240D01*
X-529103Y1208291D01*
X-529358Y1208455D01*
X-529530Y1208705D01*
X-529590Y1209002D01*
X-529590Y1220778D01*
X-564057Y1255245D01*
X-564220Y1255487D01*
X-564280Y1255784D01*
X-564280Y1280198D01*
X-564229Y1280473D01*
X-564065Y1280728D01*
X-563815Y1280900D01*
X-563518Y1280960D01*
X-555388Y1280960D01*
X-553900Y1282448D01*
X-553900Y1308352D01*
X-555388Y1309840D01*
X-580792Y1309840D01*
X-582280Y1308352D01*
X-582280Y1282448D01*
X-580792Y1280960D01*
X-572662Y1280960D01*
X-572387Y1280909D01*
X-572132Y1280745D01*
X-571960Y1280495D01*
X-571900Y1280198D01*
X-571900Y1252312D01*
X-537433Y1217845D01*
X-537270Y1217603D01*
X-537210Y1217306D01*
X-537210Y1209002D01*
X-537261Y1208727D01*
X-537425Y1208472D01*
X-537675Y1208300D01*
X-537972Y1208240D01*
X-539952Y1208240D01*
X-540781Y1207411D01*
X-541012Y1207253D01*
X-541308Y1207188D01*
X-541606Y1207243D01*
X-541859Y1207411D01*
X-542688Y1208240D01*
X-568092Y1208240D01*
X-569580Y1206752D01*
X-569580Y1180848D01*
X-568092Y1179360D01*
X-559962Y1179360D01*
X-559687Y1179309D01*
X-559432Y1179145D01*
X-559260Y1178895D01*
X-559200Y1178598D01*
X-559200Y1148304D01*
X-559256Y1148018D01*
X-559423Y1147765D01*
X-588010Y1119178D01*
X-588010Y1118653D01*
X-588061Y1118378D01*
X-588225Y1118123D01*
X-588475Y1117951D01*
X-588772Y1117891D01*
X-598617Y1117891D01*
X-598880Y1117938D01*
X-599138Y1118097D01*
X-599314Y1118345D01*
X-599379Y1118641D01*
X-599323Y1118939D01*
X-599156Y1119192D01*
X-583980Y1134367D01*
X-581660Y1139969D01*
X-581660Y1154647D01*
X-581609Y1154922D01*
X-581445Y1155177D01*
X-581195Y1155349D01*
X-580898Y1155409D01*
X-578997Y1155409D01*
X-577509Y1156897D01*
X-577509Y1171313D01*
X-578997Y1172801D01*
X-583728Y1172801D01*
X-584014Y1172857D01*
X-584267Y1173024D01*
X-588267Y1177025D01*
X-593869Y1179345D01*
X-599931Y1179345D01*
X-605533Y1177025D01*
X-609533Y1173024D01*
X-609775Y1172861D01*
X-610072Y1172801D01*
X-614803Y1172801D01*
X-616291Y1171313D01*
X-616291Y1156897D01*
X-614803Y1155409D01*
X-612902Y1155409D01*
X-612627Y1155358D01*
X-612372Y1155194D01*
X-612200Y1154944D01*
X-612140Y1154647D01*
X-612140Y1149628D01*
X-612196Y1149342D01*
X-612363Y1149089D01*
X-628870Y1132583D01*
X-631190Y1126981D01*
X-631190Y1118653D01*
X-631241Y1118378D01*
X-631405Y1118123D01*
X-631655Y1117951D01*
X-631952Y1117891D01*
X-633838Y1117891D01*
X-634113Y1117942D01*
X-634368Y1118106D01*
X-634540Y1118356D01*
X-634600Y1118653D01*
X-634600Y1178598D01*
X-634549Y1178873D01*
X-634385Y1179128D01*
X-634135Y1179300D01*
X-633838Y1179360D01*
X-625708Y1179360D01*
X-624220Y1180848D01*
X-624220Y1206752D01*
X-625708Y1208240D01*
X-651112Y1208240D01*
X-651941Y1207411D01*
X-652172Y1207253D01*
X-652468Y1207188D01*
X-652766Y1207243D01*
X-653019Y1207411D01*
X-653848Y1208240D01*
X-655828Y1208240D01*
X-656103Y1208291D01*
X-656358Y1208455D01*
X-656530Y1208705D01*
X-656590Y1209002D01*
X-656590Y1230006D01*
X-656534Y1230292D01*
X-656367Y1230545D01*
X-640480Y1246432D01*
X-640480Y1280198D01*
X-640429Y1280473D01*
X-640265Y1280728D01*
X-640015Y1280900D01*
X-639718Y1280960D01*
X-631588Y1280960D01*
X-630100Y1282448D01*
X-630100Y1308352D01*
X-631588Y1309840D01*
X-656463Y1309840D01*
X-656807Y1309922D01*
X-657045Y1310111D01*
X-657191Y1310377D01*
X-657221Y1310679D01*
X-654926Y1333404D01*
X-654885Y1333585D01*
X-654728Y1333844D01*
X-654482Y1334022D01*
X-654186Y1334089D01*
X-653888Y1334036D01*
X-653634Y1333871D01*
X-653464Y1333619D01*
X-650448Y1326337D01*
X-643663Y1319552D01*
X-634798Y1315880D01*
X-625202Y1315880D01*
X-616337Y1319552D01*
X-609552Y1326337D01*
X-605880Y1335202D01*
X-605880Y1344798D01*
X-609552Y1353663D01*
X-616337Y1360448D01*
X-625202Y1364120D01*
X-634798Y1364120D01*
X-643663Y1360448D01*
X-650448Y1353663D01*
X-652850Y1347864D01*
X-652990Y1347643D01*
X-653235Y1347464D01*
X-653530Y1347394D01*
X-653829Y1347445D01*
X-654084Y1347608D01*
X-654256Y1347858D01*
X-654316Y1348156D01*
X-654316Y1465736D01*
X-654281Y1465963D01*
X-654164Y1466340D01*
X-654313Y1467976D01*
X-654316Y1468045D01*
X-654316Y1469687D01*
X-654467Y1470051D01*
X-654522Y1470274D01*
X-656709Y1494325D01*
X-656701Y1494522D01*
X-656592Y1495166D01*
X-656901Y1496519D01*
X-656917Y1496619D01*
X-657043Y1498001D01*
X-657347Y1498580D01*
X-657415Y1498764D01*
X-664803Y1531058D01*
X-664819Y1531159D01*
X-666471Y1549327D01*
X-666439Y1549626D01*
X-666292Y1549891D01*
X-666053Y1550078D01*
X-665760Y1550156D01*
X-665459Y1550115D01*
X-665199Y1549959D01*
X-655847Y1541427D01*
X-655747Y1541316D01*
X-634016Y1511861D01*
X-633979Y1511807D01*
X-596897Y1451173D01*
X-596873Y1451131D01*
X-577449Y1414297D01*
X-577414Y1414221D01*
X-552202Y1350262D01*
X-552192Y1350235D01*
X-540424Y1316720D01*
X-540410Y1316675D01*
X-529632Y1278662D01*
X-529624Y1278633D01*
X-514190Y1214479D01*
X-514180Y1214429D01*
X-506608Y1170104D01*
X-506602Y1170059D01*
X-499001Y1101211D01*
X-498998Y1101176D01*
X-495657Y1049671D01*
X-495656Y1049621D01*
X-495656Y1025714D01*
X-495665Y1025594D01*
X-498686Y1006674D01*
X-498734Y1006503D01*
X-516633Y963124D01*
X-516762Y962915D01*
X-516938Y962712D01*
X-517496Y961037D01*
X-517515Y960987D01*
X-518188Y959355D01*
X-518188Y959087D01*
X-518227Y958845D01*
X-528525Y927949D01*
X-528636Y927737D01*
X-528823Y927485D01*
X-529239Y925815D01*
X-529256Y925758D01*
X-529800Y924125D01*
X-529778Y923812D01*
X-529799Y923573D01*
X-543646Y868087D01*
X-543736Y867873D01*
X-543929Y867559D01*
X-544192Y865912D01*
X-544205Y865848D01*
X-544609Y864229D01*
X-544555Y863865D01*
X-544556Y863632D01*
X-547642Y844303D01*
X-556270Y790263D01*
X-556346Y790032D01*
X-556476Y789783D01*
X-556628Y788036D01*
X-556634Y787982D01*
X-556911Y786250D01*
X-556846Y785977D01*
X-556828Y785734D01*
X-560563Y742741D01*
X-560618Y742515D01*
X-560760Y742173D01*
X-560760Y740507D01*
X-560762Y740441D01*
X-560907Y738781D01*
X-560795Y738428D01*
X-560760Y738198D01*
X-560760Y683955D01*
X-560795Y683726D01*
X-560906Y683374D01*
X-560762Y681712D01*
X-560760Y681647D01*
X-560760Y679979D01*
X-560619Y679638D01*
X-560563Y679413D01*
X-556837Y636351D01*
X-556858Y636094D01*
X-556901Y635930D01*
X-556642Y634086D01*
X-556637Y634046D01*
X-556477Y632191D01*
X-556399Y632040D01*
X-556321Y631795D01*
X-549574Y583725D01*
X-549569Y583554D01*
X-549642Y582703D01*
X-549282Y581569D01*
X-549254Y581445D01*
X-549089Y580267D01*
X-548655Y579531D01*
X-548586Y579375D01*
X-535877Y539344D01*
X-535844Y539172D01*
X-535780Y538351D01*
X-535228Y537264D01*
X-535181Y537149D01*
X-534812Y535987D01*
X-534281Y535357D01*
X-534185Y535212D01*
X-521665Y510573D01*
X-521601Y510394D01*
X-521449Y509711D01*
X-520678Y508612D01*
X-520622Y508520D01*
X-520014Y507323D01*
X-519483Y506868D01*
X-519354Y506727D01*
X-486765Y460301D01*
X-486691Y460169D01*
X-486285Y459244D01*
X-485539Y458529D01*
X-485443Y458417D01*
X-484850Y457572D01*
X-483997Y457030D01*
X-483878Y456937D01*
X-448170Y422702D01*
X-448096Y422620D01*
X-447281Y421574D01*
X-446658Y421221D01*
X-446507Y421108D01*
X-445990Y420613D01*
X-444755Y420131D01*
X-444655Y420084D01*
X-401887Y395807D01*
X-401809Y395756D01*
X-400640Y394888D01*
X-400073Y394746D01*
X-399882Y394670D01*
X-399374Y394381D01*
X-397929Y394202D01*
X-397838Y394184D01*
X-368152Y386729D01*
X-368046Y386694D01*
X-366831Y386191D01*
X-366104Y386191D01*
X-365918Y386168D01*
X-365212Y385990D01*
X-363912Y386183D01*
X-363801Y386191D01*
X-302450Y386191D01*
X-302349Y386184D01*
X-300965Y385999D01*
X-300342Y386165D01*
X-300146Y386191D01*
X-299501Y386191D01*
X-298211Y386725D01*
X-298116Y386757D01*
X-270379Y394137D01*
X-270250Y394160D01*
X-269094Y394261D01*
X-268311Y394668D01*
X-268155Y394729D01*
X-267301Y394956D01*
X-266380Y395660D01*
X-266269Y395731D01*
X-241668Y408533D01*
X-241534Y408588D01*
X-240524Y408888D01*
X-239755Y409511D01*
X-239627Y409596D01*
X-238748Y410053D01*
X-238071Y410860D01*
X-237968Y410961D01*
X-201147Y440830D01*
X-201011Y440918D01*
X-200183Y441338D01*
X-199458Y442184D01*
X-199359Y442280D01*
X-198494Y442982D01*
X-198051Y443799D01*
X-197960Y443932D01*
X-182526Y461937D01*
X-182407Y462049D01*
X-181677Y462601D01*
X-181107Y463574D01*
X-181028Y463685D01*
X-180294Y464541D01*
X-180009Y465411D01*
X-179942Y465560D01*
X-168422Y485208D01*
X-168247Y485412D01*
X-168184Y485463D01*
X-167264Y487180D01*
X-167250Y487206D01*
X-166265Y488885D01*
X-166254Y488966D01*
X-166171Y489222D01*
X-155709Y508750D01*
X-155595Y508909D01*
X-155147Y509391D01*
X-154663Y510687D01*
X-154621Y510781D01*
X-153968Y512000D01*
X-153903Y512655D01*
X-153858Y512846D01*
X-136406Y559637D01*
X-136284Y559852D01*
X-136124Y560048D01*
X-135615Y561754D01*
X-135599Y561803D01*
X-134976Y563471D01*
X-134985Y563724D01*
X-134954Y563969D01*
X-123728Y601604D01*
X-123634Y601805D01*
X-123385Y602183D01*
X-123087Y603740D01*
X-123069Y603815D01*
X-122616Y605333D01*
X-122662Y605784D01*
X-122652Y606006D01*
X-112432Y659310D01*
X-99621Y726131D01*
X-99540Y726355D01*
X-99383Y726641D01*
X-99195Y728339D01*
X-99186Y728399D01*
X-98864Y730077D01*
X-98930Y730398D01*
X-98941Y730635D01*
X-92746Y786723D01*
X-92725Y786788D01*
X-92491Y789028D01*
X-92491Y789033D01*
X-92243Y791270D01*
X-92250Y791338D01*
X-85240Y858360D01*
X-76686Y940154D01*
X-76613Y940408D01*
X-76564Y940509D01*
X-76448Y942423D01*
X-76445Y942456D01*
X-76245Y944364D01*
X-76277Y944471D01*
X-76307Y944734D01*
X-73001Y999203D01*
X-72959Y999368D01*
X-72861Y1001509D01*
X-72860Y1001520D01*
X-72731Y1003658D01*
X-72755Y1003826D01*
X-69384Y1077455D01*
X-69327Y1077712D01*
X-69279Y1077827D01*
X-69279Y1079733D01*
X-69278Y1079767D01*
X-69191Y1081671D01*
X-69234Y1081788D01*
X-69279Y1082048D01*
X-69279Y1192166D01*
X-69258Y1192346D01*
X-69075Y1193098D01*
X-69270Y1194352D01*
X-69279Y1194469D01*
X-69279Y1195737D01*
X-69576Y1196452D01*
X-69624Y1196627D01*
X-76371Y1239951D01*
X-76380Y1240095D01*
X-76343Y1241157D01*
X-76686Y1242076D01*
X-76726Y1242225D01*
X-76877Y1243194D01*
X-77429Y1244102D01*
X-77492Y1244231D01*
X-99471Y1303027D01*
X-99503Y1303134D01*
X-99781Y1304425D01*
X-100191Y1305018D01*
X-100278Y1305185D01*
X-100530Y1305859D01*
X-101431Y1306826D01*
X-101501Y1306912D01*
X-123950Y1339375D01*
X-124047Y1339568D01*
X-124204Y1340042D01*
X-125212Y1341207D01*
X-125262Y1341272D01*
X-126138Y1342538D01*
X-126557Y1342809D01*
X-126720Y1342951D01*
X-153832Y1374289D01*
X-153913Y1374402D01*
X-154471Y1375352D01*
X-155221Y1375920D01*
X-155338Y1376029D01*
X-155954Y1376741D01*
X-156939Y1377235D01*
X-157057Y1377309D01*
X-170272Y1387306D01*
X-170343Y1387366D01*
X-171388Y1388380D01*
X-171931Y1388595D01*
X-172110Y1388696D01*
X-172577Y1389049D01*
X-173985Y1389416D01*
X-174074Y1389445D01*
X-194399Y1397505D01*
X-194497Y1397553D01*
X-195651Y1398216D01*
X-196356Y1398307D01*
X-196539Y1398354D01*
X-197201Y1398616D01*
X-198531Y1398596D01*
X-198640Y1398602D01*
X-200888Y1398893D01*
X-201144Y1398974D01*
X-201379Y1399166D01*
X-201521Y1399434D01*
X-201547Y1399736D01*
X-201453Y1400025D01*
X-199388Y1403666D01*
X-199388Y1403666D01*
X-171525Y1452804D01*
X-171354Y1453009D01*
X-171283Y1453070D01*
X-170398Y1454791D01*
X-170383Y1454818D01*
X-169428Y1456502D01*
X-169416Y1456595D01*
X-169337Y1456850D01*
X-144058Y1505960D01*
X-143932Y1506137D01*
X-143595Y1506490D01*
X-143035Y1507937D01*
X-143002Y1508011D01*
X-142292Y1509390D01*
X-142252Y1509876D01*
X-142203Y1510088D01*
X-113245Y1584938D01*
X-113105Y1585168D01*
X-113054Y1585225D01*
X-112419Y1587071D01*
X-112409Y1587098D01*
X-111704Y1588919D01*
X-111706Y1588995D01*
X-111665Y1589261D01*
X-82446Y1674146D01*
X-70179Y1709783D01*
X-70067Y1709994D01*
X-69875Y1710249D01*
X-69444Y1711910D01*
X-69427Y1711967D01*
X-68869Y1713590D01*
X-68888Y1713908D01*
X-68865Y1714146D01*
X-58978Y1752320D01*
X-58978Y1752320D01*
X-44876Y1806773D01*
X-44876Y1806773D01*
X-32062Y1856247D01*
X-31955Y1856483D01*
X-31870Y1856609D01*
X-31491Y1858449D01*
X-31482Y1858487D01*
X-31011Y1860306D01*
X-31032Y1860456D01*
X-31024Y1860716D01*
X-16259Y1932381D01*
X-4766Y1988163D01*
X-4757Y1988200D01*
X4613Y2024381D01*
X4665Y2024521D01*
X6268Y2027849D01*
X6567Y2028174D01*
X6854Y2028273D01*
X7156Y2028253D01*
X7427Y2028116D01*
X7582Y2027994D01*
X7830Y2027645D01*
X21895Y1986969D01*
X21916Y1986897D01*
X34892Y1932370D01*
X49962Y1869047D01*
X50868Y1865238D01*
X50842Y1864799D01*
X50682Y1864540D01*
X50435Y1864365D01*
X50139Y1864300D01*
X49841Y1864356D01*
X49588Y1864523D01*
X43663Y1870448D01*
X34798Y1874120D01*
X25202Y1874120D01*
X16337Y1870448D01*
X9552Y1863663D01*
X5880Y1854798D01*
X5880Y1845202D01*
X9552Y1836337D01*
X16337Y1829552D01*
X25202Y1825880D01*
X34798Y1825880D01*
X43663Y1829552D01*
X50448Y1836337D01*
X54178Y1845342D01*
X54187Y1845339D01*
X54215Y1845448D01*
X54411Y1845679D01*
X54682Y1845815D01*
X54985Y1845835D01*
X55271Y1845735D01*
X55496Y1845531D01*
X55623Y1845256D01*
X69913Y1785210D01*
X93806Y1684810D01*
X93826Y1684597D01*
X93801Y1684079D01*
X94316Y1682648D01*
X94340Y1682566D01*
X94692Y1681087D01*
X94996Y1680667D01*
X95095Y1680478D01*
X120508Y1609769D01*
X120508Y1609769D01*
X139055Y1558161D01*
X139100Y1557911D01*
X139102Y1557710D01*
X139821Y1556026D01*
X139837Y1555985D01*
X140456Y1554262D01*
X140592Y1554112D01*
X140729Y1553899D01*
X176219Y1470764D01*
X176277Y1470539D01*
X176312Y1470174D01*
X177097Y1468700D01*
X177126Y1468641D01*
X177781Y1467105D01*
X178043Y1466849D01*
X178183Y1466663D01*
X210611Y1405790D01*
X210700Y1405391D01*
X210624Y1405098D01*
X210439Y1404857D01*
X201079Y1396716D01*
X157373Y1358702D01*
X157292Y1358640D01*
X156135Y1357880D01*
X155765Y1357337D01*
X155635Y1357190D01*
X155139Y1356759D01*
X154522Y1355520D01*
X154470Y1355431D01*
X121547Y1306993D01*
X121462Y1306889D01*
X120666Y1306073D01*
X120331Y1305235D01*
X120253Y1305090D01*
X119746Y1304343D01*
X119514Y1303226D01*
X119476Y1303098D01*
X100194Y1254894D01*
X100142Y1254789D01*
X99495Y1253695D01*
X99386Y1252931D01*
X99339Y1252756D01*
X99052Y1252039D01*
X99068Y1250769D01*
X99060Y1250652D01*
X89396Y1183003D01*
X89346Y1182819D01*
X89078Y1182173D01*
X89078Y1180830D01*
X89070Y1180723D01*
X88881Y1179394D01*
X89054Y1178716D01*
X89078Y1178527D01*
X89078Y1001894D01*
X89039Y1001653D01*
X88951Y1001389D01*
X89076Y999637D01*
X89078Y999583D01*
X89078Y997828D01*
X89185Y997570D01*
X89241Y997333D01*
X98967Y861171D01*
X98943Y860921D01*
X98887Y860710D01*
X99127Y858911D01*
X99131Y858865D01*
X99261Y857055D01*
X99358Y856860D01*
X99432Y856619D01*
X118918Y710472D01*
X118911Y710224D01*
X118864Y709988D01*
X119216Y708229D01*
X119224Y708181D01*
X119461Y706403D01*
X119581Y706196D01*
X119669Y705963D01*
X138961Y609501D01*
X138973Y609285D01*
X138930Y608790D01*
X139393Y607319D01*
X139414Y607240D01*
X139716Y605728D01*
X139993Y605315D01*
X140086Y605120D01*
X152903Y564438D01*
X152938Y564172D01*
X152933Y564083D01*
X153589Y562257D01*
X153599Y562229D01*
X154182Y560379D01*
X154239Y560310D01*
X154373Y560078D01*
X171082Y513584D01*
X171123Y513400D01*
X171193Y512689D01*
X171816Y511518D01*
X171861Y511417D01*
X172310Y510168D01*
X172791Y509639D01*
X172899Y509485D01*
X193758Y470330D01*
X193823Y470165D01*
X194026Y469390D01*
X194776Y468400D01*
X194841Y468298D01*
X195425Y467202D01*
X196043Y466694D01*
X196166Y466565D01*
X220265Y434762D01*
X220350Y434621D01*
X220420Y434326D01*
X220369Y434027D01*
X220205Y433772D01*
X219955Y433600D01*
X219658Y433540D01*
X209348Y433540D01*
X208519Y432711D01*
X208288Y432553D01*
X207992Y432488D01*
X207694Y432543D01*
X207441Y432711D01*
X206612Y433540D01*
X181208Y433540D01*
X179720Y432052D01*
X179720Y423672D01*
X179669Y423397D01*
X179505Y423142D01*
X179255Y422970D01*
X178958Y422910D01*
X128894Y422910D01*
X128608Y422966D01*
X128355Y423133D01*
X92933Y458555D01*
X92770Y458797D01*
X92710Y459094D01*
X92710Y509578D01*
X73483Y528805D01*
X70953Y528805D01*
X70678Y528856D01*
X70423Y529020D01*
X70251Y529270D01*
X70191Y529567D01*
X70191Y532203D01*
X68703Y533691D01*
X32897Y533691D01*
X31409Y532203D01*
X31409Y517787D01*
X32897Y516299D01*
X68703Y516299D01*
X70191Y517787D01*
X70191Y519481D01*
X70238Y519745D01*
X70397Y520003D01*
X70645Y520178D01*
X70941Y520243D01*
X71239Y520188D01*
X71492Y520020D01*
X84867Y506645D01*
X85030Y506403D01*
X85090Y506106D01*
X85090Y455622D01*
X125422Y415290D01*
X178958Y415290D01*
X179233Y415239D01*
X179488Y415075D01*
X179660Y414825D01*
X179720Y414528D01*
X179720Y406148D01*
X181208Y404660D01*
X206612Y404660D01*
X207441Y405489D01*
X207672Y405647D01*
X207968Y405712D01*
X208266Y405657D01*
X208519Y405489D01*
X209348Y404660D01*
X211328Y404660D01*
X211603Y404609D01*
X211858Y404445D01*
X212030Y404195D01*
X212090Y403898D01*
X212090Y392122D01*
X234611Y369601D01*
X234764Y369381D01*
X234834Y369086D01*
X234783Y368787D01*
X234620Y368532D01*
X234369Y368360D01*
X234072Y368300D01*
X106172Y368300D01*
X105897Y368351D01*
X105642Y368515D01*
X105470Y368765D01*
X105410Y369062D01*
X105410Y372150D01*
X105466Y372436D01*
X105633Y372689D01*
X105791Y372847D01*
X105791Y389153D01*
X104303Y390641D01*
X91887Y390641D01*
X90399Y389153D01*
X90399Y372847D01*
X91887Y371359D01*
X97028Y371359D01*
X97303Y371308D01*
X97558Y371144D01*
X97730Y370894D01*
X97790Y370597D01*
X97790Y369062D01*
X97739Y368787D01*
X97575Y368532D01*
X97325Y368360D01*
X97028Y368300D01*
X66802Y368300D01*
X66527Y368351D01*
X66272Y368515D01*
X66100Y368765D01*
X66040Y369062D01*
X66040Y382778D01*
X66091Y383053D01*
X66255Y383308D01*
X66505Y383480D01*
X66802Y383540D01*
X71247Y383540D01*
X71522Y383489D01*
X71777Y383325D01*
X71949Y383075D01*
X72009Y382778D01*
X72009Y372847D01*
X73497Y371359D01*
X85913Y371359D01*
X87401Y372847D01*
X87401Y389153D01*
X85913Y390641D01*
X75768Y390641D01*
X75482Y390697D01*
X75229Y390864D01*
X74933Y391160D01*
X66802Y391160D01*
X66527Y391211D01*
X66272Y391375D01*
X66100Y391625D01*
X66040Y391922D01*
X66040Y431770D01*
X66007Y432194D01*
X65916Y432577D01*
X65766Y432943D01*
X65561Y433280D01*
X65307Y433582D01*
X65009Y433841D01*
X64674Y434050D01*
X64311Y434205D01*
X63931Y434301D01*
X63468Y434340D01*
X30Y434340D01*
X-394Y434307D01*
X-777Y434216D01*
X-1143Y434066D01*
X-1480Y433861D01*
X-1541Y433810D01*
X-1713Y433701D01*
X-2008Y433631D01*
X-2307Y433682D01*
X-2562Y433845D01*
X-2734Y434096D01*
X-2794Y434393D01*
X-2794Y449603D01*
X-2743Y449878D01*
X-2579Y450133D01*
X-2329Y450305D01*
X-2032Y450365D01*
X53831Y450365D01*
X59433Y452685D01*
X63433Y456686D01*
X63675Y456849D01*
X63972Y456909D01*
X68703Y456909D01*
X70191Y458397D01*
X70191Y472813D01*
X68703Y474301D01*
X63972Y474301D01*
X63686Y474357D01*
X63433Y474524D01*
X59433Y478525D01*
X53831Y480845D01*
X28702Y480845D01*
X28427Y480896D01*
X28172Y481060D01*
X28000Y481310D01*
X27940Y481607D01*
X27940Y551203D01*
X27991Y551478D01*
X28155Y551733D01*
X28405Y551905D01*
X28702Y551965D01*
X53831Y551965D01*
X59433Y554285D01*
X63433Y558286D01*
X63675Y558449D01*
X63972Y558509D01*
X68703Y558509D01*
X70191Y559997D01*
X70191Y574413D01*
X68703Y575901D01*
X63972Y575901D01*
X63686Y575957D01*
X63433Y576124D01*
X59433Y580125D01*
X53831Y582445D01*
X28702Y582445D01*
X28427Y582496D01*
X28172Y582660D01*
X28000Y582910D01*
X27940Y583207D01*
X27940Y652803D01*
X27991Y653078D01*
X28155Y653333D01*
X28405Y653505D01*
X28702Y653565D01*
X53831Y653565D01*
X59433Y655885D01*
X63433Y659886D01*
X63675Y660049D01*
X63972Y660109D01*
X68703Y660109D01*
X70191Y661597D01*
X70191Y676013D01*
X68703Y677501D01*
X63972Y677501D01*
X63686Y677557D01*
X63433Y677724D01*
X59433Y681725D01*
X53831Y684045D01*
X28702Y684045D01*
X28427Y684096D01*
X28172Y684260D01*
X28000Y684510D01*
X27940Y684807D01*
X27940Y866631D01*
X25620Y872233D01*
X15463Y882389D01*
X15300Y882631D01*
X15240Y882928D01*
X15240Y906803D01*
X15291Y907078D01*
X15455Y907333D01*
X15705Y907505D01*
X16002Y907565D01*
X41131Y907565D01*
X46733Y909885D01*
X50733Y913886D01*
X50975Y914049D01*
X51272Y914109D01*
X56003Y914109D01*
X57491Y915597D01*
X57491Y930013D01*
X56003Y931501D01*
X51272Y931501D01*
X50986Y931557D01*
X50733Y931724D01*
X46733Y935725D01*
X41131Y938045D01*
X16002Y938045D01*
X15727Y938096D01*
X15472Y938260D01*
X15300Y938510D01*
X15240Y938807D01*
X15240Y1160803D01*
X15291Y1161078D01*
X15455Y1161333D01*
X15705Y1161505D01*
X16002Y1161565D01*
X41131Y1161565D01*
X46733Y1163885D01*
X50733Y1167886D01*
X50975Y1168049D01*
X51272Y1168109D01*
X56003Y1168109D01*
X57491Y1169597D01*
X57491Y1184013D01*
X56003Y1185501D01*
X51272Y1185501D01*
X50986Y1185557D01*
X50733Y1185724D01*
X46733Y1189725D01*
X41131Y1192045D01*
X16002Y1192045D01*
X15727Y1192096D01*
X15472Y1192260D01*
X15300Y1192510D01*
X15240Y1192807D01*
X15240Y1284962D01*
X15296Y1285248D01*
X15463Y1285501D01*
X19270Y1289307D01*
X21590Y1294909D01*
X21590Y1319747D01*
X21641Y1320022D01*
X21805Y1320277D01*
X22055Y1320449D01*
X22352Y1320509D01*
X56003Y1320509D01*
X57491Y1321997D01*
X57491Y1324633D01*
X57542Y1324908D01*
X57706Y1325163D01*
X57956Y1325335D01*
X58253Y1325395D01*
X60783Y1325395D01*
X80010Y1344622D01*
X80010Y1407806D01*
X80066Y1408092D01*
X80233Y1408345D01*
X121520Y1449632D01*
X121520Y1483398D01*
X121571Y1483673D01*
X121735Y1483928D01*
X121985Y1484100D01*
X122282Y1484160D01*
X130412Y1484160D01*
X131241Y1484989D01*
X131472Y1485147D01*
X131768Y1485212D01*
X132066Y1485157D01*
X132319Y1484989D01*
X133148Y1484160D01*
X146252Y1484160D01*
X147740Y1485648D01*
X147740Y1511552D01*
X146252Y1513040D01*
X143664Y1513040D01*
X143378Y1513096D01*
X143125Y1513263D01*
X96343Y1560045D01*
X96180Y1560287D01*
X96120Y1560584D01*
X96120Y1572298D01*
X96171Y1572573D01*
X96335Y1572828D01*
X96585Y1573000D01*
X96882Y1573060D01*
X105012Y1573060D01*
X106500Y1574548D01*
X106500Y1600452D01*
X105012Y1601940D01*
X79608Y1601940D01*
X78120Y1600452D01*
X78120Y1574548D01*
X79608Y1573060D01*
X87738Y1573060D01*
X88013Y1573009D01*
X88268Y1572845D01*
X88440Y1572595D01*
X88500Y1572298D01*
X88500Y1557112D01*
X132321Y1513291D01*
X132479Y1513060D01*
X132544Y1512764D01*
X132489Y1512466D01*
X132321Y1512213D01*
X132319Y1512211D01*
X132088Y1512053D01*
X131792Y1511988D01*
X131494Y1512043D01*
X131241Y1512211D01*
X130412Y1513040D01*
X105008Y1513040D01*
X103520Y1511552D01*
X103520Y1485648D01*
X105008Y1484160D01*
X113138Y1484160D01*
X113413Y1484109D01*
X113668Y1483945D01*
X113840Y1483695D01*
X113900Y1483398D01*
X113900Y1453104D01*
X113844Y1452818D01*
X113677Y1452565D01*
X72390Y1411278D01*
X72390Y1348094D01*
X72334Y1347808D01*
X72167Y1347555D01*
X58792Y1334180D01*
X58572Y1334027D01*
X58277Y1333957D01*
X57978Y1334008D01*
X57723Y1334171D01*
X57551Y1334422D01*
X57491Y1334719D01*
X57491Y1336413D01*
X56003Y1337901D01*
X22352Y1337901D01*
X22077Y1337952D01*
X21822Y1338116D01*
X21650Y1338366D01*
X21590Y1338663D01*
X21590Y1368298D01*
X21641Y1368573D01*
X21805Y1368828D01*
X22055Y1369000D01*
X22352Y1369060D01*
X50770Y1369060D01*
X51194Y1369093D01*
X51577Y1369184D01*
X51943Y1369334D01*
X52280Y1369539D01*
X52582Y1369793D01*
X52841Y1370091D01*
X53050Y1370426D01*
X53205Y1370789D01*
X53301Y1371169D01*
X53340Y1371632D01*
X53340Y1379137D01*
X53391Y1379412D01*
X53555Y1379667D01*
X53805Y1379839D01*
X54102Y1379899D01*
X56003Y1379899D01*
X57491Y1381387D01*
X57491Y1395803D01*
X56003Y1397291D01*
X54102Y1397291D01*
X53827Y1397342D01*
X53572Y1397506D01*
X53400Y1397756D01*
X53340Y1398053D01*
X53340Y1421347D01*
X53391Y1421622D01*
X53555Y1421877D01*
X53805Y1422049D01*
X54102Y1422109D01*
X56003Y1422109D01*
X57491Y1423597D01*
X57491Y1438013D01*
X56003Y1439501D01*
X54102Y1439501D01*
X53827Y1439552D01*
X53572Y1439716D01*
X53400Y1439966D01*
X53340Y1440263D01*
X53340Y1447770D01*
X53307Y1448194D01*
X53216Y1448577D01*
X53066Y1448943D01*
X52861Y1449280D01*
X52607Y1449582D01*
X52309Y1449841D01*
X51974Y1450050D01*
X51611Y1450205D01*
X51231Y1450301D01*
X50768Y1450340D01*
X22352Y1450340D01*
X22077Y1450391D01*
X21822Y1450555D01*
X21650Y1450805D01*
X21590Y1451102D01*
X21590Y1480737D01*
X21641Y1481012D01*
X21805Y1481267D01*
X22055Y1481439D01*
X22352Y1481499D01*
X56003Y1481499D01*
X57491Y1482987D01*
X57491Y1486887D01*
X57547Y1487173D01*
X57714Y1487426D01*
X67310Y1497022D01*
X67310Y1673898D01*
X67361Y1674173D01*
X67525Y1674428D01*
X67775Y1674600D01*
X68072Y1674660D01*
X72792Y1674660D01*
X74280Y1676148D01*
X74280Y1702052D01*
X72792Y1703540D01*
X47388Y1703540D01*
X46559Y1702711D01*
X46328Y1702553D01*
X46032Y1702488D01*
X45734Y1702543D01*
X45481Y1702711D01*
X44652Y1703540D01*
X42672Y1703540D01*
X42397Y1703591D01*
X42142Y1703755D01*
X41970Y1704005D01*
X41910Y1704302D01*
X41910Y1741478D01*
X32843Y1750545D01*
X32680Y1750787D01*
X32620Y1751084D01*
X32620Y1775498D01*
X32671Y1775773D01*
X32835Y1776028D01*
X33085Y1776200D01*
X33382Y1776260D01*
X41512Y1776260D01*
X43000Y1777748D01*
X43000Y1803652D01*
X41512Y1805140D01*
X16108Y1805140D01*
X14620Y1803652D01*
X14620Y1777748D01*
X16108Y1776260D01*
X24238Y1776260D01*
X24513Y1776209D01*
X24768Y1776045D01*
X24940Y1775795D01*
X25000Y1775498D01*
X25000Y1747612D01*
X34067Y1738545D01*
X34230Y1738303D01*
X34290Y1738006D01*
X34290Y1704302D01*
X34239Y1704027D01*
X34075Y1703772D01*
X33825Y1703600D01*
X33528Y1703540D01*
X31548Y1703540D01*
X30060Y1702052D01*
X30060Y1676148D01*
X31548Y1674660D01*
X44652Y1674660D01*
X45481Y1675489D01*
X45712Y1675647D01*
X46008Y1675712D01*
X46306Y1675657D01*
X46559Y1675489D01*
X47388Y1674660D01*
X58928Y1674660D01*
X59203Y1674609D01*
X59458Y1674445D01*
X59630Y1674195D01*
X59690Y1673898D01*
X59690Y1500494D01*
X59634Y1500208D01*
X59467Y1499955D01*
X57742Y1498230D01*
X57511Y1498072D01*
X57215Y1498007D01*
X56917Y1498062D01*
X56664Y1498230D01*
X56003Y1498891D01*
X22352Y1498891D01*
X22077Y1498942D01*
X21822Y1499106D01*
X21650Y1499356D01*
X21590Y1499653D01*
X21590Y1516403D01*
X21641Y1516678D01*
X21805Y1516933D01*
X22055Y1517105D01*
X22352Y1517165D01*
X41131Y1517165D01*
X46733Y1519485D01*
X50733Y1523486D01*
X50975Y1523649D01*
X51272Y1523709D01*
X56003Y1523709D01*
X57491Y1525197D01*
X57491Y1539613D01*
X56003Y1541101D01*
X51272Y1541101D01*
X50986Y1541157D01*
X50733Y1541324D01*
X46733Y1545325D01*
X41131Y1547645D01*
X-28431Y1547645D01*
X-34033Y1545325D01*
X-38033Y1541324D01*
X-38275Y1541161D01*
X-38572Y1541101D01*
X-43303Y1541101D01*
X-44791Y1539613D01*
X-44791Y1525197D01*
X-43303Y1523709D01*
X-38572Y1523709D01*
X-38286Y1523653D01*
X-38033Y1523486D01*
X-34033Y1519485D01*
X-28431Y1517165D01*
X-9652Y1517165D01*
X-9377Y1517114D01*
X-9122Y1516950D01*
X-8950Y1516700D01*
X-8890Y1516403D01*
X-8890Y1499653D01*
X-8941Y1499378D01*
X-9105Y1499123D01*
X-9355Y1498951D01*
X-9652Y1498891D01*
X-43303Y1498891D01*
X-44791Y1497403D01*
X-44791Y1494767D01*
X-44842Y1494492D01*
X-45006Y1494237D01*
X-45256Y1494065D01*
X-45553Y1494005D01*
X-65901Y1494005D01*
X-66187Y1494061D01*
X-66440Y1494228D01*
X-74622Y1502410D01*
X-90058Y1502410D01*
X-90333Y1502461D01*
X-90588Y1502625D01*
X-90760Y1502875D01*
X-90820Y1503172D01*
X-90820Y1511552D01*
X-92308Y1513040D01*
X-117712Y1513040D01*
X-118541Y1512211D01*
X-118772Y1512053D01*
X-119068Y1511988D01*
X-119366Y1512043D01*
X-119619Y1512211D01*
X-120448Y1513040D01*
X-133552Y1513040D01*
X-135040Y1511552D01*
X-135040Y1485648D01*
X-133552Y1484160D01*
X-131572Y1484160D01*
X-131297Y1484109D01*
X-131042Y1483945D01*
X-130870Y1483695D01*
X-130810Y1483398D01*
X-130810Y1475094D01*
X-130866Y1474808D01*
X-131033Y1474555D01*
X-159620Y1445968D01*
X-159620Y1424902D01*
X-159671Y1424627D01*
X-159835Y1424372D01*
X-160085Y1424200D01*
X-160382Y1424140D01*
X-168512Y1424140D01*
X-170000Y1422652D01*
X-170000Y1396748D01*
X-168512Y1395260D01*
X-143108Y1395260D01*
X-141620Y1396748D01*
X-141620Y1422652D01*
X-143108Y1424140D01*
X-151238Y1424140D01*
X-151513Y1424191D01*
X-151768Y1424355D01*
X-151940Y1424605D01*
X-152000Y1424902D01*
X-152000Y1442496D01*
X-151944Y1442782D01*
X-151777Y1443035D01*
X-123190Y1471622D01*
X-123190Y1483398D01*
X-123139Y1483673D01*
X-122975Y1483928D01*
X-122725Y1484100D01*
X-122428Y1484160D01*
X-120448Y1484160D01*
X-119619Y1484989D01*
X-119388Y1485147D01*
X-119092Y1485212D01*
X-118794Y1485157D01*
X-118541Y1484989D01*
X-117712Y1484160D01*
X-92308Y1484160D01*
X-90820Y1485648D01*
X-90820Y1494028D01*
X-90769Y1494303D01*
X-90605Y1494558D01*
X-90355Y1494730D01*
X-90058Y1494790D01*
X-78094Y1494790D01*
X-77808Y1494734D01*
X-77555Y1494567D01*
X-69373Y1486385D01*
X-45553Y1486385D01*
X-45278Y1486334D01*
X-45023Y1486170D01*
X-44851Y1485920D01*
X-44791Y1485623D01*
X-44791Y1482987D01*
X-43303Y1481499D01*
X-9652Y1481499D01*
X-9377Y1481448D01*
X-9122Y1481284D01*
X-8950Y1481034D01*
X-8890Y1480737D01*
X-8890Y1451102D01*
X-8941Y1450827D01*
X-9105Y1450572D01*
X-9355Y1450400D01*
X-9652Y1450340D01*
X-38070Y1450340D01*
X-38494Y1450307D01*
X-38877Y1450216D01*
X-39243Y1450066D01*
X-39580Y1449861D01*
X-39882Y1449607D01*
X-40141Y1449309D01*
X-40350Y1448974D01*
X-40505Y1448611D01*
X-40601Y1448231D01*
X-40640Y1447768D01*
X-40640Y1440263D01*
X-40691Y1439988D01*
X-40855Y1439733D01*
X-41105Y1439561D01*
X-41402Y1439501D01*
X-43303Y1439501D01*
X-44791Y1438013D01*
X-44791Y1423597D01*
X-43303Y1422109D01*
X-41402Y1422109D01*
X-41127Y1422058D01*
X-40872Y1421894D01*
X-40700Y1421644D01*
X-40640Y1421347D01*
X-40640Y1398053D01*
X-40691Y1397778D01*
X-40855Y1397523D01*
X-41105Y1397351D01*
X-41402Y1397291D01*
X-43303Y1397291D01*
X-44791Y1395803D01*
X-44791Y1381387D01*
X-43303Y1379899D01*
X-41402Y1379899D01*
X-41127Y1379848D01*
X-40872Y1379684D01*
X-40700Y1379434D01*
X-40640Y1379137D01*
X-40640Y1371630D01*
X-40607Y1371207D01*
X-40516Y1370823D01*
X-40366Y1370457D01*
X-40161Y1370120D01*
X-39907Y1369818D01*
X-39609Y1369559D01*
X-39274Y1369350D01*
X-38911Y1369195D01*
X-38531Y1369099D01*
X-38068Y1369060D01*
X-9652Y1369060D01*
X-9377Y1369009D01*
X-9122Y1368845D01*
X-8950Y1368595D01*
X-8890Y1368298D01*
X-8890Y1338663D01*
X-8941Y1338388D01*
X-9105Y1338133D01*
X-9355Y1337961D01*
X-9652Y1337901D01*
X-43303Y1337901D01*
X-44791Y1336413D01*
X-44791Y1321997D01*
X-43303Y1320509D01*
X-29972Y1320509D01*
X-29697Y1320458D01*
X-29442Y1320294D01*
X-29270Y1320044D01*
X-29210Y1319747D01*
X-29210Y1309994D01*
X-29266Y1309708D01*
X-29433Y1309455D01*
X-45320Y1293568D01*
X-45320Y1285202D01*
X-45371Y1284927D01*
X-45535Y1284672D01*
X-45785Y1284500D01*
X-46082Y1284440D01*
X-54212Y1284440D01*
X-55041Y1283611D01*
X-55272Y1283453D01*
X-55568Y1283388D01*
X-55866Y1283443D01*
X-56119Y1283611D01*
X-56948Y1284440D01*
X-70052Y1284440D01*
X-71540Y1282952D01*
X-71540Y1257048D01*
X-70052Y1255560D01*
X-68072Y1255560D01*
X-67797Y1255509D01*
X-67542Y1255345D01*
X-67370Y1255095D01*
X-67310Y1254798D01*
X-67310Y1230322D01*
X-42133Y1205145D01*
X-41970Y1204903D01*
X-41910Y1204606D01*
X-41910Y1158202D01*
X-41961Y1157927D01*
X-42125Y1157672D01*
X-42375Y1157500D01*
X-42672Y1157440D01*
X-54212Y1157440D01*
X-55700Y1155952D01*
X-55700Y1130048D01*
X-54212Y1128560D01*
X-28808Y1128560D01*
X-27320Y1130048D01*
X-27320Y1155952D01*
X-28808Y1157440D01*
X-33528Y1157440D01*
X-33803Y1157491D01*
X-34058Y1157655D01*
X-34230Y1157905D01*
X-34290Y1158202D01*
X-34290Y1208078D01*
X-59467Y1233255D01*
X-59630Y1233497D01*
X-59690Y1233794D01*
X-59690Y1254798D01*
X-59639Y1255073D01*
X-59475Y1255328D01*
X-59225Y1255500D01*
X-58928Y1255560D01*
X-56948Y1255560D01*
X-56119Y1256389D01*
X-55888Y1256547D01*
X-55592Y1256612D01*
X-55294Y1256557D01*
X-55041Y1256389D01*
X-54212Y1255560D01*
X-28808Y1255560D01*
X-27320Y1257048D01*
X-27320Y1282952D01*
X-28808Y1284440D01*
X-36938Y1284440D01*
X-37213Y1284491D01*
X-37468Y1284655D01*
X-37640Y1284905D01*
X-37700Y1285202D01*
X-37700Y1290096D01*
X-37644Y1290382D01*
X-37477Y1290635D01*
X-21590Y1306522D01*
X-21590Y1319747D01*
X-21539Y1320022D01*
X-21375Y1320277D01*
X-21125Y1320449D01*
X-20828Y1320509D01*
X-9652Y1320509D01*
X-9377Y1320458D01*
X-9122Y1320294D01*
X-8950Y1320044D01*
X-8890Y1319747D01*
X-8890Y1304568D01*
X-8946Y1304282D01*
X-9113Y1304029D01*
X-12920Y1300223D01*
X-15240Y1294621D01*
X-15240Y873269D01*
X-12920Y867667D01*
X-2763Y857511D01*
X-2600Y857269D01*
X-2540Y856972D01*
X-2540Y684807D01*
X-2591Y684532D01*
X-2755Y684277D01*
X-3005Y684105D01*
X-3302Y684045D01*
X-28431Y684045D01*
X-34033Y681725D01*
X-38033Y677724D01*
X-38275Y677561D01*
X-38572Y677501D01*
X-43303Y677501D01*
X-44791Y676013D01*
X-44791Y661597D01*
X-43303Y660109D01*
X-38572Y660109D01*
X-38286Y660053D01*
X-38033Y659886D01*
X-34033Y655885D01*
X-28431Y653565D01*
X-3302Y653565D01*
X-3027Y653514D01*
X-2772Y653350D01*
X-2600Y653100D01*
X-2540Y652803D01*
X-2540Y583207D01*
X-2591Y582932D01*
X-2755Y582677D01*
X-3005Y582505D01*
X-3302Y582445D01*
X-28431Y582445D01*
X-34033Y580125D01*
X-38033Y576124D01*
X-38275Y575961D01*
X-38572Y575901D01*
X-43303Y575901D01*
X-44791Y574413D01*
X-44791Y559997D01*
X-43303Y558509D01*
X-38572Y558509D01*
X-38286Y558453D01*
X-38033Y558286D01*
X-34033Y554285D01*
X-28431Y551965D01*
X-3302Y551965D01*
X-3027Y551914D01*
X-2772Y551750D01*
X-2600Y551500D01*
X-2540Y551203D01*
X-2540Y481607D01*
X-2591Y481332D01*
X-2755Y481077D01*
X-3005Y480905D01*
X-3302Y480845D01*
X-28431Y480845D01*
X-34033Y478525D01*
X-38033Y474524D01*
X-38275Y474361D01*
X-38572Y474301D01*
X-43303Y474301D01*
X-44791Y472813D01*
X-44791Y458397D01*
X-43303Y456909D01*
X-38572Y456909D01*
X-38286Y456853D01*
X-38033Y456686D01*
X-34033Y452685D01*
X-33744Y452566D01*
X-33506Y452409D01*
X-33334Y452159D01*
X-33274Y451862D01*
X-33274Y384319D01*
X-30954Y378717D01*
X-26667Y374430D01*
X-21065Y372110D01*
X-15003Y372110D01*
X-9401Y374430D01*
X-5114Y378717D01*
X-4006Y381393D01*
X-3866Y381613D01*
X-3621Y381793D01*
X-3326Y381863D01*
X-3027Y381812D01*
X-2772Y381648D01*
X-2600Y381398D01*
X-2540Y381101D01*
X-2540Y369062D01*
X-2591Y368787D01*
X-2755Y368532D01*
X-3005Y368360D01*
X-3302Y368300D01*
X-337432Y368300D01*
X-337718Y368356D01*
X-337971Y368523D01*
X-339488Y370040D01*
X-364892Y370040D01*
X-366409Y368523D01*
X-366651Y368360D01*
X-366948Y368300D01*
X-464196Y368300D01*
X-464482Y368356D01*
X-464735Y368523D01*
X-478567Y382355D01*
X-478730Y382597D01*
X-478790Y382894D01*
X-478790Y403898D01*
X-478739Y404173D01*
X-478575Y404428D01*
X-478325Y404600D01*
X-478028Y404660D01*
X-476048Y404660D01*
X-474560Y406148D01*
X-474560Y432052D01*
X-476048Y433540D01*
X-489152Y433540D01*
X-489981Y432711D01*
X-490212Y432553D01*
X-490508Y432488D01*
X-490806Y432543D01*
X-491059Y432711D01*
X-491888Y433540D01*
X-517292Y433540D01*
X-518780Y432052D01*
X-518780Y406148D01*
X-517292Y404660D01*
X-509162Y404660D01*
X-508887Y404609D01*
X-508632Y404445D01*
X-508460Y404195D01*
X-508400Y403898D01*
X-508400Y373604D01*
X-508456Y373318D01*
X-508623Y373065D01*
X-513165Y368523D01*
X-513407Y368360D01*
G37*
%LPC*%
G36*
X20197Y1583099D02*
X56003Y1583099D01*
X57491Y1584587D01*
X57491Y1599003D01*
X56003Y1600491D01*
X42672Y1600491D01*
X42397Y1600542D01*
X42142Y1600706D01*
X41970Y1600956D01*
X41910Y1601253D01*
X41910Y1627178D01*
X623Y1668465D01*
X460Y1668707D01*
X400Y1669004D01*
X400Y1775498D01*
X451Y1775773D01*
X615Y1776028D01*
X865Y1776200D01*
X1162Y1776260D01*
X9292Y1776260D01*
X10780Y1777748D01*
X10780Y1803652D01*
X9292Y1805140D01*
X-16112Y1805140D01*
X-16941Y1804311D01*
X-17172Y1804153D01*
X-17468Y1804088D01*
X-17766Y1804143D01*
X-18019Y1804311D01*
X-18848Y1805140D01*
X-20828Y1805140D01*
X-21103Y1805191D01*
X-21358Y1805355D01*
X-21530Y1805605D01*
X-21590Y1805902D01*
X-21590Y1826906D01*
X-21534Y1827192D01*
X-21367Y1827445D01*
X-8890Y1839922D01*
X-8890Y1865006D01*
X-8834Y1865292D01*
X-8667Y1865545D01*
X7220Y1881432D01*
X7220Y1889798D01*
X7271Y1890073D01*
X7435Y1890328D01*
X7685Y1890500D01*
X7982Y1890560D01*
X16112Y1890560D01*
X17600Y1892048D01*
X17600Y1917952D01*
X16112Y1919440D01*
X-9292Y1919440D01*
X-10780Y1917952D01*
X-10780Y1892048D01*
X-9292Y1890560D01*
X-1162Y1890560D01*
X-887Y1890509D01*
X-632Y1890345D01*
X-460Y1890095D01*
X-400Y1889798D01*
X-400Y1884904D01*
X-456Y1884618D01*
X-623Y1884365D01*
X-16510Y1868478D01*
X-16510Y1843394D01*
X-16566Y1843108D01*
X-16733Y1842855D01*
X-29210Y1830378D01*
X-29210Y1805902D01*
X-29261Y1805627D01*
X-29425Y1805372D01*
X-29675Y1805200D01*
X-29972Y1805140D01*
X-31952Y1805140D01*
X-33440Y1803652D01*
X-33440Y1777748D01*
X-31952Y1776260D01*
X-18848Y1776260D01*
X-18019Y1777089D01*
X-17788Y1777247D01*
X-17492Y1777312D01*
X-17194Y1777257D01*
X-16941Y1777089D01*
X-16112Y1776260D01*
X-7982Y1776260D01*
X-7707Y1776209D01*
X-7452Y1776045D01*
X-7280Y1775795D01*
X-7220Y1775498D01*
X-7220Y1665532D01*
X34067Y1624245D01*
X34230Y1624003D01*
X34290Y1623706D01*
X34290Y1601253D01*
X34239Y1600978D01*
X34075Y1600723D01*
X33825Y1600551D01*
X33528Y1600491D01*
X20197Y1600491D01*
X18709Y1599003D01*
X18709Y1584587D01*
X20197Y1583099D01*
G37*
G36*
X-95452Y1573060D02*
X-82348Y1573060D01*
X-81519Y1573889D01*
X-81288Y1574047D01*
X-80992Y1574112D01*
X-80694Y1574057D01*
X-80441Y1573889D01*
X-79612Y1573060D01*
X-54208Y1573060D01*
X-52720Y1574548D01*
X-52720Y1587223D01*
X-52669Y1587498D01*
X-52505Y1587753D01*
X-52255Y1587925D01*
X-51958Y1587985D01*
X-45553Y1587985D01*
X-45278Y1587934D01*
X-45023Y1587770D01*
X-44851Y1587520D01*
X-44791Y1587223D01*
X-44791Y1584587D01*
X-43303Y1583099D01*
X-7497Y1583099D01*
X-6009Y1584587D01*
X-6009Y1599003D01*
X-7497Y1600491D01*
X-43303Y1600491D01*
X-44791Y1599003D01*
X-44791Y1596367D01*
X-44842Y1596092D01*
X-45006Y1595837D01*
X-45256Y1595665D01*
X-45553Y1595605D01*
X-51958Y1595605D01*
X-52233Y1595656D01*
X-52488Y1595820D01*
X-52660Y1596070D01*
X-52720Y1596367D01*
X-52720Y1600452D01*
X-54208Y1601940D01*
X-79612Y1601940D01*
X-80441Y1601111D01*
X-80672Y1600953D01*
X-80968Y1600888D01*
X-81266Y1600943D01*
X-81519Y1601111D01*
X-82348Y1601940D01*
X-84328Y1601940D01*
X-84603Y1601991D01*
X-84858Y1602155D01*
X-85030Y1602405D01*
X-85090Y1602702D01*
X-85090Y1623706D01*
X-85034Y1623992D01*
X-84867Y1624245D01*
X-37700Y1671412D01*
X-37700Y1673898D01*
X-37649Y1674173D01*
X-37485Y1674428D01*
X-37235Y1674600D01*
X-36938Y1674660D01*
X-28808Y1674660D01*
X-27320Y1676148D01*
X-27320Y1702052D01*
X-28808Y1703540D01*
X-54212Y1703540D01*
X-55700Y1702052D01*
X-55700Y1676148D01*
X-54212Y1674660D01*
X-47068Y1674660D01*
X-46804Y1674613D01*
X-46546Y1674454D01*
X-46371Y1674206D01*
X-46306Y1673910D01*
X-46361Y1673612D01*
X-46529Y1673359D01*
X-92710Y1627178D01*
X-92710Y1602702D01*
X-92761Y1602427D01*
X-92925Y1602172D01*
X-93175Y1602000D01*
X-93472Y1601940D01*
X-95452Y1601940D01*
X-96940Y1600452D01*
X-96940Y1574548D01*
X-95452Y1573060D01*
G37*
G36*
X-614803Y1214799D02*
X-578997Y1214799D01*
X-577509Y1216287D01*
X-577509Y1230703D01*
X-578997Y1232191D01*
X-595738Y1232191D01*
X-596013Y1232242D01*
X-596268Y1232406D01*
X-596440Y1232656D01*
X-596500Y1232953D01*
X-596500Y1369098D01*
X-596449Y1369373D01*
X-596285Y1369628D01*
X-596035Y1369800D01*
X-595738Y1369860D01*
X-587608Y1369860D01*
X-586120Y1371348D01*
X-586120Y1397252D01*
X-587608Y1398740D01*
X-613012Y1398740D01*
X-613841Y1397911D01*
X-614072Y1397753D01*
X-614368Y1397688D01*
X-614666Y1397743D01*
X-614919Y1397911D01*
X-615748Y1398740D01*
X-621138Y1398740D01*
X-621413Y1398791D01*
X-621668Y1398955D01*
X-621840Y1399205D01*
X-621900Y1399502D01*
X-621900Y1419898D01*
X-621849Y1420173D01*
X-621685Y1420428D01*
X-621435Y1420600D01*
X-621138Y1420660D01*
X-613008Y1420660D01*
X-611520Y1422148D01*
X-611520Y1448052D01*
X-613008Y1449540D01*
X-638412Y1449540D01*
X-639900Y1448052D01*
X-639900Y1422148D01*
X-638412Y1420660D01*
X-630282Y1420660D01*
X-630007Y1420609D01*
X-629752Y1420445D01*
X-629580Y1420195D01*
X-629520Y1419898D01*
X-629520Y1398388D01*
X-629576Y1398102D01*
X-629743Y1397849D01*
X-630340Y1397252D01*
X-630340Y1371348D01*
X-628852Y1369860D01*
X-615748Y1369860D01*
X-614919Y1370689D01*
X-614688Y1370847D01*
X-614392Y1370912D01*
X-614094Y1370857D01*
X-613841Y1370689D01*
X-613012Y1369860D01*
X-604882Y1369860D01*
X-604607Y1369809D01*
X-604352Y1369645D01*
X-604180Y1369395D01*
X-604120Y1369098D01*
X-604120Y1232953D01*
X-604171Y1232678D01*
X-604335Y1232423D01*
X-604585Y1232251D01*
X-604882Y1232191D01*
X-614803Y1232191D01*
X-616291Y1230703D01*
X-616291Y1216287D01*
X-614803Y1214799D01*
G37*
G36*
X20197Y1227499D02*
X56003Y1227499D01*
X57491Y1228987D01*
X57491Y1243403D01*
X56003Y1244891D01*
X55372Y1244891D01*
X55097Y1244942D01*
X54842Y1245106D01*
X54670Y1245356D01*
X54610Y1245653D01*
X54610Y1254798D01*
X54661Y1255073D01*
X54825Y1255328D01*
X55075Y1255500D01*
X55372Y1255560D01*
X66912Y1255560D01*
X67741Y1256389D01*
X67972Y1256547D01*
X68268Y1256612D01*
X68566Y1256557D01*
X68819Y1256389D01*
X69648Y1255560D01*
X82752Y1255560D01*
X84240Y1257048D01*
X84240Y1282952D01*
X82752Y1284440D01*
X80772Y1284440D01*
X80497Y1284491D01*
X80242Y1284655D01*
X80070Y1284905D01*
X80010Y1285202D01*
X80010Y1293506D01*
X80066Y1293792D01*
X80233Y1294045D01*
X172320Y1386132D01*
X172320Y1394498D01*
X172371Y1394773D01*
X172535Y1395028D01*
X172785Y1395200D01*
X173082Y1395260D01*
X181212Y1395260D01*
X182700Y1396748D01*
X182700Y1422652D01*
X181212Y1424140D01*
X155808Y1424140D01*
X154320Y1422652D01*
X154320Y1396748D01*
X155808Y1395260D01*
X163938Y1395260D01*
X164213Y1395209D01*
X164468Y1395045D01*
X164640Y1394795D01*
X164700Y1394498D01*
X164700Y1389604D01*
X164644Y1389318D01*
X164477Y1389065D01*
X72390Y1296978D01*
X72390Y1285202D01*
X72339Y1284927D01*
X72175Y1284672D01*
X71925Y1284500D01*
X71628Y1284440D01*
X69648Y1284440D01*
X68819Y1283611D01*
X68588Y1283453D01*
X68292Y1283388D01*
X67994Y1283443D01*
X67741Y1283611D01*
X66912Y1284440D01*
X41508Y1284440D01*
X40020Y1282952D01*
X40020Y1257048D01*
X41508Y1255560D01*
X46228Y1255560D01*
X46503Y1255509D01*
X46758Y1255345D01*
X46930Y1255095D01*
X46990Y1254798D01*
X46990Y1245653D01*
X46939Y1245378D01*
X46775Y1245123D01*
X46525Y1244951D01*
X46228Y1244891D01*
X20197Y1244891D01*
X18709Y1243403D01*
X18709Y1228987D01*
X20197Y1227499D01*
G37*
G36*
X105202Y1348580D02*
X114798Y1348580D01*
X123663Y1352252D01*
X130448Y1359037D01*
X134120Y1367902D01*
X134120Y1377498D01*
X130448Y1386363D01*
X123663Y1393148D01*
X114798Y1396820D01*
X105202Y1396820D01*
X96337Y1393148D01*
X89552Y1386363D01*
X85880Y1377498D01*
X85880Y1367902D01*
X89552Y1359037D01*
X96337Y1352252D01*
X105202Y1348580D01*
G37*
G36*
X20197Y973499D02*
X56003Y973499D01*
X57491Y974987D01*
X57491Y989403D01*
X56003Y990891D01*
X46082Y990891D01*
X45807Y990942D01*
X45552Y991106D01*
X45380Y991356D01*
X45320Y991653D01*
X45320Y1000798D01*
X45371Y1001073D01*
X45535Y1001328D01*
X45785Y1001500D01*
X46082Y1001560D01*
X54212Y1001560D01*
X55041Y1002389D01*
X55272Y1002547D01*
X55568Y1002612D01*
X55866Y1002557D01*
X56119Y1002389D01*
X56948Y1001560D01*
X70052Y1001560D01*
X71540Y1003048D01*
X71540Y1028952D01*
X70052Y1030440D01*
X68072Y1030440D01*
X67797Y1030491D01*
X67542Y1030655D01*
X67370Y1030905D01*
X67310Y1031202D01*
X67310Y1081078D01*
X45543Y1102845D01*
X45380Y1103087D01*
X45320Y1103384D01*
X45320Y1127798D01*
X45371Y1128073D01*
X45535Y1128328D01*
X45785Y1128500D01*
X46082Y1128560D01*
X54212Y1128560D01*
X55700Y1130048D01*
X55700Y1155952D01*
X54212Y1157440D01*
X28808Y1157440D01*
X27320Y1155952D01*
X27320Y1130048D01*
X28808Y1128560D01*
X36938Y1128560D01*
X37213Y1128509D01*
X37468Y1128345D01*
X37640Y1128095D01*
X37700Y1127798D01*
X37700Y1099912D01*
X59467Y1078145D01*
X59630Y1077903D01*
X59690Y1077606D01*
X59690Y1031202D01*
X59639Y1030927D01*
X59475Y1030672D01*
X59225Y1030500D01*
X58928Y1030440D01*
X56948Y1030440D01*
X56119Y1029611D01*
X55888Y1029453D01*
X55592Y1029388D01*
X55294Y1029443D01*
X55041Y1029611D01*
X54212Y1030440D01*
X28808Y1030440D01*
X27320Y1028952D01*
X27320Y1003048D01*
X28808Y1001560D01*
X36938Y1001560D01*
X37213Y1001509D01*
X37468Y1001345D01*
X37640Y1001095D01*
X37700Y1000798D01*
X37700Y991653D01*
X37649Y991378D01*
X37485Y991123D01*
X37235Y990951D01*
X36938Y990891D01*
X20197Y990891D01*
X18709Y989403D01*
X18709Y974987D01*
X20197Y973499D01*
G37*
G36*
X-43303Y719499D02*
X-7497Y719499D01*
X-6009Y720987D01*
X-6009Y735403D01*
X-7497Y736891D01*
X-20828Y736891D01*
X-21103Y736942D01*
X-21358Y737106D01*
X-21530Y737356D01*
X-21590Y737653D01*
X-21590Y788978D01*
X-56057Y823445D01*
X-56220Y823687D01*
X-56280Y823984D01*
X-56280Y873798D01*
X-56229Y874073D01*
X-56065Y874328D01*
X-55815Y874500D01*
X-55518Y874560D01*
X-47388Y874560D01*
X-46559Y875389D01*
X-46328Y875547D01*
X-46032Y875612D01*
X-45734Y875557D01*
X-45481Y875389D01*
X-44652Y874560D01*
X-31548Y874560D01*
X-30060Y876048D01*
X-30060Y901952D01*
X-31548Y903440D01*
X-33528Y903440D01*
X-33803Y903491D01*
X-34058Y903655D01*
X-34230Y903905D01*
X-34290Y904202D01*
X-34290Y1000798D01*
X-34239Y1001073D01*
X-34075Y1001328D01*
X-33825Y1001500D01*
X-33528Y1001560D01*
X-28808Y1001560D01*
X-27320Y1003048D01*
X-27320Y1028952D01*
X-28808Y1030440D01*
X-54212Y1030440D01*
X-55700Y1028952D01*
X-55700Y1003048D01*
X-54212Y1001560D01*
X-42672Y1001560D01*
X-42397Y1001509D01*
X-42142Y1001345D01*
X-41970Y1001095D01*
X-41910Y1000798D01*
X-41910Y904202D01*
X-41961Y903927D01*
X-42125Y903672D01*
X-42375Y903500D01*
X-42672Y903440D01*
X-44652Y903440D01*
X-45481Y902611D01*
X-45712Y902453D01*
X-46008Y902388D01*
X-46306Y902443D01*
X-46559Y902611D01*
X-47388Y903440D01*
X-72792Y903440D01*
X-74280Y901952D01*
X-74280Y876048D01*
X-72792Y874560D01*
X-64662Y874560D01*
X-64387Y874509D01*
X-64132Y874345D01*
X-63960Y874095D01*
X-63900Y873798D01*
X-63900Y820512D01*
X-29433Y786045D01*
X-29270Y785803D01*
X-29210Y785506D01*
X-29210Y737653D01*
X-29261Y737378D01*
X-29425Y737123D01*
X-29675Y736951D01*
X-29972Y736891D01*
X-43303Y736891D01*
X-44791Y735403D01*
X-44791Y720987D01*
X-43303Y719499D01*
G37*
G36*
X32897Y719499D02*
X68703Y719499D01*
X70191Y720987D01*
X70191Y735403D01*
X68703Y736891D01*
X58319Y736891D01*
X58055Y736938D01*
X57797Y737097D01*
X57622Y737345D01*
X57557Y737641D01*
X57612Y737939D01*
X57780Y738192D01*
X70720Y751132D01*
X70720Y759498D01*
X70771Y759773D01*
X70935Y760028D01*
X71185Y760200D01*
X71482Y760260D01*
X79612Y760260D01*
X80441Y761089D01*
X80672Y761247D01*
X80968Y761312D01*
X81266Y761257D01*
X81519Y761089D01*
X82348Y760260D01*
X95452Y760260D01*
X96940Y761748D01*
X96940Y787652D01*
X95452Y789140D01*
X92864Y789140D01*
X92578Y789196D01*
X92325Y789363D01*
X58243Y823445D01*
X58080Y823687D01*
X58020Y823984D01*
X58020Y873798D01*
X58071Y874073D01*
X58235Y874328D01*
X58485Y874500D01*
X58782Y874560D01*
X66912Y874560D01*
X68400Y876048D01*
X68400Y901952D01*
X66912Y903440D01*
X41508Y903440D01*
X40020Y901952D01*
X40020Y876048D01*
X41508Y874560D01*
X49638Y874560D01*
X49913Y874509D01*
X50168Y874345D01*
X50340Y874095D01*
X50400Y873798D01*
X50400Y820512D01*
X81521Y789391D01*
X81679Y789160D01*
X81744Y788864D01*
X81689Y788566D01*
X81521Y788313D01*
X81519Y788311D01*
X81288Y788153D01*
X80992Y788088D01*
X80694Y788143D01*
X80441Y788311D01*
X79612Y789140D01*
X54208Y789140D01*
X52720Y787652D01*
X52720Y761748D01*
X54208Y760260D01*
X62338Y760260D01*
X62613Y760209D01*
X62868Y760045D01*
X63040Y759795D01*
X63100Y759498D01*
X63100Y754604D01*
X63044Y754318D01*
X62877Y754065D01*
X46990Y738178D01*
X46990Y737653D01*
X46939Y737378D01*
X46775Y737123D01*
X46525Y736951D01*
X46228Y736891D01*
X32897Y736891D01*
X31409Y735403D01*
X31409Y720987D01*
X32897Y719499D01*
G37*
G36*
X-43303Y617899D02*
X-7497Y617899D01*
X-6009Y619387D01*
X-6009Y633803D01*
X-7497Y635291D01*
X-43303Y635291D01*
X-44791Y633803D01*
X-44791Y631167D01*
X-44842Y630892D01*
X-45006Y630637D01*
X-45256Y630465D01*
X-45553Y630405D01*
X-64658Y630405D01*
X-64933Y630456D01*
X-65188Y630620D01*
X-65360Y630870D01*
X-65420Y631167D01*
X-65420Y647952D01*
X-66908Y649440D01*
X-92312Y649440D01*
X-93141Y648611D01*
X-93372Y648453D01*
X-93668Y648388D01*
X-93966Y648443D01*
X-94219Y648611D01*
X-94221Y648613D01*
X-94379Y648844D01*
X-94444Y649140D01*
X-94389Y649438D01*
X-94221Y649691D01*
X-59290Y684622D01*
X-59290Y759498D01*
X-59239Y759773D01*
X-59075Y760028D01*
X-58825Y760200D01*
X-58528Y760260D01*
X-50398Y760260D01*
X-48910Y761748D01*
X-48910Y787652D01*
X-50398Y789140D01*
X-75802Y789140D01*
X-77290Y787652D01*
X-77290Y761748D01*
X-75802Y760260D01*
X-67672Y760260D01*
X-67397Y760209D01*
X-67142Y760045D01*
X-66970Y759795D01*
X-66910Y759498D01*
X-66910Y688094D01*
X-66966Y687808D01*
X-67133Y687555D01*
X-105025Y649663D01*
X-105267Y649500D01*
X-105564Y649440D01*
X-108152Y649440D01*
X-109640Y647952D01*
X-109640Y622048D01*
X-108152Y620560D01*
X-95048Y620560D01*
X-94219Y621389D01*
X-93988Y621547D01*
X-93692Y621612D01*
X-93394Y621557D01*
X-93141Y621389D01*
X-92312Y620560D01*
X-66908Y620560D01*
X-65414Y622054D01*
X-65369Y622298D01*
X-65205Y622553D01*
X-64955Y622725D01*
X-64658Y622785D01*
X-45553Y622785D01*
X-45278Y622734D01*
X-45023Y622570D01*
X-44851Y622320D01*
X-44791Y622023D01*
X-44791Y619387D01*
X-43303Y617899D01*
G37*
G36*
X117708Y506260D02*
X143112Y506260D01*
X144600Y507748D01*
X144600Y533652D01*
X143112Y535140D01*
X134982Y535140D01*
X134707Y535191D01*
X134452Y535355D01*
X134280Y535605D01*
X134220Y535902D01*
X134220Y569668D01*
X118333Y585555D01*
X118170Y585797D01*
X118110Y586094D01*
X118110Y619798D01*
X118161Y620073D01*
X118325Y620328D01*
X118575Y620500D01*
X118872Y620560D01*
X120852Y620560D01*
X122340Y622048D01*
X122340Y647952D01*
X120852Y649440D01*
X107748Y649440D01*
X106919Y648611D01*
X106688Y648453D01*
X106392Y648388D01*
X106094Y648443D01*
X105841Y648611D01*
X105012Y649440D01*
X79608Y649440D01*
X78120Y647952D01*
X78120Y631167D01*
X78069Y630892D01*
X77905Y630637D01*
X77655Y630465D01*
X77358Y630405D01*
X70953Y630405D01*
X70678Y630456D01*
X70423Y630620D01*
X70251Y630870D01*
X70191Y631167D01*
X70191Y633803D01*
X68703Y635291D01*
X32897Y635291D01*
X31409Y633803D01*
X31409Y619387D01*
X32897Y617899D01*
X68703Y617899D01*
X70191Y619387D01*
X70191Y622023D01*
X70242Y622298D01*
X70406Y622553D01*
X70656Y622725D01*
X70953Y622785D01*
X77358Y622785D01*
X77633Y622734D01*
X77888Y622570D01*
X78060Y622320D01*
X78114Y622054D01*
X79608Y620560D01*
X105012Y620560D01*
X105841Y621389D01*
X106072Y621547D01*
X106368Y621612D01*
X106666Y621557D01*
X106919Y621389D01*
X107748Y620560D01*
X109728Y620560D01*
X110003Y620509D01*
X110258Y620345D01*
X110430Y620095D01*
X110490Y619798D01*
X110490Y582622D01*
X126377Y566735D01*
X126540Y566493D01*
X126600Y566196D01*
X126600Y535902D01*
X126549Y535627D01*
X126385Y535372D01*
X126135Y535200D01*
X125838Y535140D01*
X117708Y535140D01*
X116220Y533652D01*
X116220Y507748D01*
X117708Y506260D01*
G37*
G36*
X-193912Y404660D02*
X-168508Y404660D01*
X-167020Y406148D01*
X-167020Y414528D01*
X-166969Y414803D01*
X-166805Y415058D01*
X-166555Y415230D01*
X-166258Y415290D01*
X-150822Y415290D01*
X-123190Y442922D01*
X-123190Y505498D01*
X-123139Y505773D01*
X-122975Y506028D01*
X-122725Y506200D01*
X-122428Y506260D01*
X-120448Y506260D01*
X-119619Y507089D01*
X-119388Y507247D01*
X-119092Y507312D01*
X-118794Y507257D01*
X-118541Y507089D01*
X-117712Y506260D01*
X-92308Y506260D01*
X-90820Y507748D01*
X-90820Y516128D01*
X-90769Y516403D01*
X-90605Y516658D01*
X-90355Y516830D01*
X-90058Y516890D01*
X-44210Y516890D01*
X-43924Y516834D01*
X-43671Y516667D01*
X-43303Y516299D01*
X-7497Y516299D01*
X-6009Y517787D01*
X-6009Y532203D01*
X-7497Y533691D01*
X-43303Y533691D01*
X-44791Y532203D01*
X-44791Y525272D01*
X-44842Y524997D01*
X-45006Y524742D01*
X-45256Y524570D01*
X-45553Y524510D01*
X-90058Y524510D01*
X-90333Y524561D01*
X-90588Y524725D01*
X-90760Y524975D01*
X-90820Y525272D01*
X-90820Y533652D01*
X-92308Y535140D01*
X-117712Y535140D01*
X-118541Y534311D01*
X-118772Y534153D01*
X-119068Y534088D01*
X-119366Y534143D01*
X-119619Y534311D01*
X-120448Y535140D01*
X-133552Y535140D01*
X-135040Y533652D01*
X-135040Y507748D01*
X-133552Y506260D01*
X-131572Y506260D01*
X-131297Y506209D01*
X-131042Y506045D01*
X-130870Y505795D01*
X-130810Y505498D01*
X-130810Y446394D01*
X-130866Y446108D01*
X-131033Y445855D01*
X-153755Y423133D01*
X-153997Y422970D01*
X-154294Y422910D01*
X-166258Y422910D01*
X-166533Y422961D01*
X-166788Y423125D01*
X-166960Y423375D01*
X-167020Y423672D01*
X-167020Y432052D01*
X-168508Y433540D01*
X-193912Y433540D01*
X-195400Y432052D01*
X-195400Y406148D01*
X-193912Y404660D01*
G37*
G36*
X-94798Y395880D02*
X-85202Y395880D01*
X-76337Y399552D01*
X-69552Y406337D01*
X-65880Y415202D01*
X-65880Y424798D01*
X-69552Y433663D01*
X-76337Y440448D01*
X-85202Y444120D01*
X-94798Y444120D01*
X-103663Y440448D01*
X-110448Y433663D01*
X-114120Y424798D01*
X-114120Y415202D01*
X-110448Y406337D01*
X-103663Y399552D01*
X-94798Y395880D01*
G37*
%LPD*%
G36*
X786047Y368360D02*
X785750Y368300D01*
X568476Y368300D01*
X568213Y368347D01*
X567955Y368506D01*
X567779Y368754D01*
X567714Y369050D01*
X567770Y369348D01*
X567937Y369601D01*
X568168Y369832D01*
X568410Y369995D01*
X568707Y370055D01*
X663431Y370055D01*
X669033Y372375D01*
X673033Y376376D01*
X673275Y376539D01*
X673572Y376599D01*
X678303Y376599D01*
X679791Y378087D01*
X679791Y392503D01*
X678303Y393991D01*
X676402Y393991D01*
X676127Y394042D01*
X675872Y394206D01*
X675700Y394456D01*
X675640Y394753D01*
X675640Y398803D01*
X675691Y399078D01*
X675855Y399333D01*
X676105Y399505D01*
X676402Y399565D01*
X726931Y399565D01*
X732533Y401885D01*
X736533Y405886D01*
X736775Y406049D01*
X737072Y406109D01*
X741803Y406109D01*
X743291Y407597D01*
X743291Y422013D01*
X741803Y423501D01*
X737072Y423501D01*
X736786Y423557D01*
X736533Y423724D01*
X732533Y427725D01*
X726931Y430045D01*
X708152Y430045D01*
X707877Y430096D01*
X707622Y430260D01*
X707450Y430510D01*
X707390Y430807D01*
X707390Y464737D01*
X707441Y465012D01*
X707605Y465267D01*
X707855Y465439D01*
X708152Y465499D01*
X719328Y465499D01*
X719603Y465448D01*
X719858Y465284D01*
X720030Y465034D01*
X720090Y464737D01*
X720090Y455622D01*
X735022Y440690D01*
X775858Y440690D01*
X776133Y440639D01*
X776388Y440475D01*
X776560Y440225D01*
X776620Y439928D01*
X776620Y431548D01*
X778108Y430060D01*
X803512Y430060D01*
X804341Y430889D01*
X804572Y431047D01*
X804868Y431112D01*
X805166Y431057D01*
X805419Y430889D01*
X806248Y430060D01*
X819352Y430060D01*
X820840Y431548D01*
X820840Y457452D01*
X819352Y458940D01*
X817372Y458940D01*
X817097Y458991D01*
X816842Y459155D01*
X816670Y459405D01*
X816610Y459702D01*
X816610Y496878D01*
X794843Y518645D01*
X794680Y518887D01*
X794620Y519184D01*
X794620Y530898D01*
X794671Y531173D01*
X794835Y531428D01*
X795085Y531600D01*
X795382Y531660D01*
X803512Y531660D01*
X805000Y533148D01*
X805000Y559052D01*
X803512Y560540D01*
X778108Y560540D01*
X776620Y559052D01*
X776620Y533148D01*
X778108Y531660D01*
X786238Y531660D01*
X786513Y531609D01*
X786768Y531445D01*
X786940Y531195D01*
X787000Y530898D01*
X787000Y515712D01*
X808767Y493945D01*
X808930Y493703D01*
X808990Y493406D01*
X808990Y459702D01*
X808939Y459427D01*
X808775Y459172D01*
X808525Y459000D01*
X808228Y458940D01*
X806248Y458940D01*
X805419Y458111D01*
X805188Y457953D01*
X804892Y457888D01*
X804594Y457943D01*
X804341Y458111D01*
X803512Y458940D01*
X778108Y458940D01*
X776620Y457452D01*
X776620Y449072D01*
X776569Y448797D01*
X776405Y448542D01*
X776155Y448370D01*
X775858Y448310D01*
X738494Y448310D01*
X738208Y448366D01*
X737955Y448533D01*
X727933Y458555D01*
X727770Y458797D01*
X727710Y459094D01*
X727710Y464737D01*
X727761Y465012D01*
X727925Y465267D01*
X728175Y465439D01*
X728472Y465499D01*
X741803Y465499D01*
X743291Y466987D01*
X743291Y481403D01*
X741803Y482891D01*
X708152Y482891D01*
X707877Y482942D01*
X707622Y483106D01*
X707450Y483356D01*
X707390Y483653D01*
X707390Y506947D01*
X707441Y507222D01*
X707605Y507477D01*
X707855Y507649D01*
X708152Y507709D01*
X741803Y507709D01*
X743291Y509197D01*
X743291Y523613D01*
X741803Y525101D01*
X728472Y525101D01*
X728197Y525152D01*
X727942Y525316D01*
X727770Y525566D01*
X727710Y525863D01*
X727710Y531506D01*
X727766Y531792D01*
X727933Y532045D01*
X769220Y573332D01*
X769220Y632498D01*
X769271Y632773D01*
X769435Y633028D01*
X769685Y633200D01*
X769982Y633260D01*
X778112Y633260D01*
X778941Y634089D01*
X779172Y634247D01*
X779468Y634312D01*
X779766Y634257D01*
X780019Y634089D01*
X780848Y633260D01*
X793952Y633260D01*
X795440Y634748D01*
X795440Y660652D01*
X793952Y662140D01*
X791972Y662140D01*
X791697Y662191D01*
X791442Y662355D01*
X791270Y662605D01*
X791210Y662902D01*
X791210Y674678D01*
X718643Y747245D01*
X718480Y747487D01*
X718420Y747784D01*
X718420Y759498D01*
X718471Y759773D01*
X718635Y760028D01*
X718885Y760200D01*
X719182Y760260D01*
X727312Y760260D01*
X728800Y761748D01*
X728800Y787652D01*
X727312Y789140D01*
X701908Y789140D01*
X700420Y787652D01*
X700420Y761748D01*
X701908Y760260D01*
X710038Y760260D01*
X710313Y760209D01*
X710568Y760045D01*
X710740Y759795D01*
X710800Y759498D01*
X710800Y744228D01*
X710753Y743964D01*
X710594Y743706D01*
X710346Y743531D01*
X710050Y743466D01*
X709752Y743521D01*
X709499Y743689D01*
X680543Y772645D01*
X680380Y772887D01*
X680320Y773184D01*
X680320Y886498D01*
X680371Y886773D01*
X680535Y887028D01*
X680785Y887200D01*
X681082Y887260D01*
X689212Y887260D01*
X690041Y888089D01*
X690272Y888247D01*
X690568Y888312D01*
X690866Y888257D01*
X691119Y888089D01*
X691948Y887260D01*
X705052Y887260D01*
X706540Y888748D01*
X706540Y914652D01*
X705052Y916140D01*
X703072Y916140D01*
X702797Y916191D01*
X702542Y916355D01*
X702370Y916605D01*
X702310Y916902D01*
X702310Y988706D01*
X702366Y988992D01*
X702533Y989245D01*
X737955Y1024667D01*
X738197Y1024830D01*
X738494Y1024890D01*
X750458Y1024890D01*
X750733Y1024839D01*
X750988Y1024675D01*
X751160Y1024425D01*
X751220Y1024128D01*
X751220Y1015748D01*
X752708Y1014260D01*
X778112Y1014260D01*
X779600Y1015748D01*
X779600Y1041652D01*
X778112Y1043140D01*
X752708Y1043140D01*
X751220Y1041652D01*
X751220Y1033272D01*
X751169Y1032997D01*
X751005Y1032742D01*
X750755Y1032570D01*
X750458Y1032510D01*
X735022Y1032510D01*
X694690Y992178D01*
X694690Y916902D01*
X694639Y916627D01*
X694475Y916372D01*
X694225Y916200D01*
X693928Y916140D01*
X691948Y916140D01*
X691119Y915311D01*
X690888Y915153D01*
X690592Y915088D01*
X690294Y915143D01*
X690041Y915311D01*
X689212Y916140D01*
X663808Y916140D01*
X662320Y914652D01*
X662320Y888748D01*
X663808Y887260D01*
X671938Y887260D01*
X672213Y887209D01*
X672468Y887045D01*
X672640Y886795D01*
X672700Y886498D01*
X672700Y773092D01*
X672653Y772829D01*
X672494Y772571D01*
X672246Y772395D01*
X671950Y772330D01*
X671652Y772386D01*
X671399Y772553D01*
X656813Y787139D01*
X656650Y787381D01*
X656590Y787678D01*
X656590Y1040347D01*
X656641Y1040622D01*
X656805Y1040877D01*
X657055Y1041049D01*
X657352Y1041109D01*
X691003Y1041109D01*
X692491Y1042597D01*
X692491Y1057013D01*
X691003Y1058501D01*
X677672Y1058501D01*
X677397Y1058552D01*
X677142Y1058716D01*
X676970Y1058966D01*
X676910Y1059263D01*
X676910Y1064906D01*
X676966Y1065192D01*
X677133Y1065445D01*
X702310Y1090622D01*
X702310Y1131878D01*
X681529Y1152659D01*
X681376Y1152879D01*
X681306Y1153174D01*
X681357Y1153473D01*
X681520Y1153728D01*
X681771Y1153900D01*
X682068Y1153960D01*
X689212Y1153960D01*
X690041Y1154789D01*
X690272Y1154947D01*
X690568Y1155012D01*
X690866Y1154957D01*
X691119Y1154789D01*
X691948Y1153960D01*
X705052Y1153960D01*
X706540Y1155448D01*
X706540Y1181352D01*
X705052Y1182840D01*
X703072Y1182840D01*
X702797Y1182891D01*
X702542Y1183055D01*
X702370Y1183305D01*
X702310Y1183602D01*
X702310Y1195378D01*
X655143Y1242545D01*
X654980Y1242787D01*
X654920Y1243084D01*
X654920Y1254798D01*
X654971Y1255073D01*
X655135Y1255328D01*
X655385Y1255500D01*
X655682Y1255560D01*
X663812Y1255560D01*
X665300Y1257048D01*
X665300Y1282952D01*
X663812Y1284440D01*
X638408Y1284440D01*
X636920Y1282952D01*
X636920Y1257048D01*
X638408Y1255560D01*
X646538Y1255560D01*
X646813Y1255509D01*
X647068Y1255345D01*
X647240Y1255095D01*
X647300Y1254798D01*
X647300Y1239612D01*
X694467Y1192445D01*
X694630Y1192203D01*
X694690Y1191906D01*
X694690Y1183602D01*
X694639Y1183327D01*
X694475Y1183072D01*
X694225Y1182900D01*
X693928Y1182840D01*
X691948Y1182840D01*
X691119Y1182011D01*
X690888Y1181853D01*
X690592Y1181788D01*
X690294Y1181843D01*
X690041Y1182011D01*
X689212Y1182840D01*
X663808Y1182840D01*
X662320Y1181352D01*
X662320Y1155448D01*
X663808Y1153960D01*
X671938Y1153960D01*
X672213Y1153909D01*
X672468Y1153745D01*
X672640Y1153495D01*
X672700Y1153198D01*
X672700Y1150712D01*
X694467Y1128945D01*
X694630Y1128703D01*
X694690Y1128406D01*
X694690Y1094094D01*
X694634Y1093808D01*
X694467Y1093555D01*
X669290Y1068378D01*
X669290Y1059263D01*
X669239Y1058988D01*
X669075Y1058733D01*
X668825Y1058561D01*
X668528Y1058501D01*
X657352Y1058501D01*
X657077Y1058552D01*
X656822Y1058716D01*
X656650Y1058966D01*
X656590Y1059263D01*
X656590Y1093193D01*
X656641Y1093468D01*
X656805Y1093723D01*
X657055Y1093895D01*
X657352Y1093955D01*
X676131Y1093955D01*
X681733Y1096275D01*
X685733Y1100276D01*
X685975Y1100439D01*
X686272Y1100499D01*
X691003Y1100499D01*
X692491Y1101987D01*
X692491Y1116403D01*
X691003Y1117891D01*
X686272Y1117891D01*
X685986Y1117947D01*
X685733Y1118114D01*
X681733Y1122115D01*
X676131Y1124435D01*
X625602Y1124435D01*
X625327Y1124486D01*
X625072Y1124650D01*
X624900Y1124900D01*
X624840Y1125197D01*
X624840Y1154647D01*
X624891Y1154922D01*
X625055Y1155177D01*
X625305Y1155349D01*
X625602Y1155409D01*
X627503Y1155409D01*
X628991Y1156897D01*
X628991Y1171313D01*
X627503Y1172801D01*
X622772Y1172801D01*
X622486Y1172857D01*
X622233Y1173024D01*
X618233Y1177025D01*
X612631Y1179345D01*
X606569Y1179345D01*
X600967Y1177025D01*
X596967Y1173024D01*
X596725Y1172861D01*
X596428Y1172801D01*
X591697Y1172801D01*
X590209Y1171313D01*
X590209Y1156897D01*
X591697Y1155409D01*
X593598Y1155409D01*
X593873Y1155358D01*
X594128Y1155194D01*
X594300Y1154944D01*
X594360Y1154647D01*
X594360Y1118653D01*
X594309Y1118378D01*
X594145Y1118123D01*
X593895Y1117951D01*
X593598Y1117891D01*
X591697Y1117891D01*
X590209Y1116403D01*
X590209Y1101987D01*
X591697Y1100499D01*
X596428Y1100499D01*
X596714Y1100443D01*
X596967Y1100276D01*
X600967Y1096275D01*
X606569Y1093955D01*
X625348Y1093955D01*
X625623Y1093904D01*
X625878Y1093740D01*
X626050Y1093490D01*
X626110Y1093193D01*
X626110Y1059263D01*
X626059Y1058988D01*
X625895Y1058733D01*
X625645Y1058561D01*
X625348Y1058501D01*
X614172Y1058501D01*
X613897Y1058552D01*
X613642Y1058716D01*
X613470Y1058966D01*
X613410Y1059263D01*
X613410Y1068378D01*
X559423Y1122365D01*
X559260Y1122607D01*
X559200Y1122904D01*
X559200Y1153198D01*
X559251Y1153473D01*
X559415Y1153728D01*
X559665Y1153900D01*
X559962Y1153960D01*
X568092Y1153960D01*
X569580Y1155448D01*
X569580Y1181352D01*
X568092Y1182840D01*
X542688Y1182840D01*
X541859Y1182011D01*
X541628Y1181853D01*
X541332Y1181788D01*
X541034Y1181843D01*
X540781Y1182011D01*
X539952Y1182840D01*
X537972Y1182840D01*
X537697Y1182891D01*
X537442Y1183055D01*
X537270Y1183305D01*
X537210Y1183602D01*
X537210Y1204606D01*
X537266Y1204892D01*
X537433Y1205145D01*
X584600Y1252312D01*
X584600Y1254798D01*
X584651Y1255073D01*
X584815Y1255328D01*
X585065Y1255500D01*
X585362Y1255560D01*
X593492Y1255560D01*
X594980Y1257048D01*
X594980Y1282952D01*
X593492Y1284440D01*
X568088Y1284440D01*
X566600Y1282952D01*
X566600Y1257048D01*
X568088Y1255560D01*
X575232Y1255560D01*
X575496Y1255513D01*
X575754Y1255354D01*
X575929Y1255106D01*
X575994Y1254810D01*
X575939Y1254512D01*
X575771Y1254259D01*
X532489Y1210977D01*
X532185Y1210791D01*
X531884Y1210757D01*
X531593Y1210843D01*
X531359Y1211036D01*
X531218Y1211305D01*
X531194Y1211607D01*
X536515Y1255863D01*
X536549Y1256015D01*
X554782Y1310337D01*
X554782Y1310337D01*
X580123Y1385837D01*
X580159Y1385924D01*
X612741Y1453742D01*
X612790Y1453829D01*
X622821Y1469129D01*
X623139Y1469403D01*
X623434Y1469473D01*
X623733Y1469422D01*
X623988Y1469258D01*
X624160Y1469008D01*
X624220Y1468711D01*
X624220Y1447548D01*
X625708Y1446060D01*
X633838Y1446060D01*
X634113Y1446009D01*
X634368Y1445845D01*
X634540Y1445595D01*
X634600Y1445298D01*
X634600Y1415004D01*
X634544Y1414718D01*
X634377Y1414465D01*
X618490Y1398578D01*
X618490Y1386802D01*
X618439Y1386527D01*
X618275Y1386272D01*
X618025Y1386100D01*
X617728Y1386040D01*
X615748Y1386040D01*
X614919Y1385211D01*
X614688Y1385053D01*
X614392Y1384988D01*
X614094Y1385043D01*
X613841Y1385211D01*
X613012Y1386040D01*
X587608Y1386040D01*
X586120Y1384552D01*
X586120Y1358648D01*
X587608Y1357160D01*
X595738Y1357160D01*
X596013Y1357109D01*
X596268Y1356945D01*
X596440Y1356695D01*
X596500Y1356398D01*
X596500Y1303112D01*
X605567Y1294045D01*
X605730Y1293803D01*
X605790Y1293506D01*
X605790Y1232953D01*
X605739Y1232678D01*
X605575Y1232423D01*
X605325Y1232251D01*
X605028Y1232191D01*
X591697Y1232191D01*
X590209Y1230703D01*
X590209Y1216287D01*
X591697Y1214799D01*
X627503Y1214799D01*
X628991Y1216287D01*
X628991Y1230703D01*
X627503Y1232191D01*
X614172Y1232191D01*
X613897Y1232242D01*
X613642Y1232406D01*
X613470Y1232656D01*
X613410Y1232953D01*
X613410Y1296978D01*
X604343Y1306045D01*
X604180Y1306287D01*
X604120Y1306584D01*
X604120Y1356398D01*
X604171Y1356673D01*
X604335Y1356928D01*
X604585Y1357100D01*
X604882Y1357160D01*
X613012Y1357160D01*
X613841Y1357989D01*
X614072Y1358147D01*
X614368Y1358212D01*
X614666Y1358157D01*
X614919Y1357989D01*
X615748Y1357160D01*
X628852Y1357160D01*
X630340Y1358648D01*
X630340Y1384552D01*
X628852Y1386040D01*
X626872Y1386040D01*
X626597Y1386091D01*
X626342Y1386255D01*
X626170Y1386505D01*
X626110Y1386802D01*
X626110Y1395106D01*
X626166Y1395392D01*
X626333Y1395645D01*
X642220Y1411532D01*
X642220Y1445298D01*
X642271Y1445573D01*
X642435Y1445828D01*
X642685Y1446000D01*
X642982Y1446060D01*
X651112Y1446060D01*
X652600Y1447548D01*
X652600Y1473452D01*
X651112Y1474940D01*
X628041Y1474940D01*
X627644Y1475052D01*
X627422Y1475258D01*
X627298Y1475535D01*
X627292Y1475838D01*
X627404Y1476120D01*
X638147Y1492507D01*
X662744Y1530024D01*
X662821Y1530123D01*
X681300Y1550179D01*
X681547Y1550358D01*
X683587Y1551279D01*
X683844Y1551344D01*
X684145Y1551306D01*
X684407Y1551154D01*
X684589Y1550911D01*
X684662Y1550616D01*
X684614Y1550317D01*
X675640Y1526389D01*
X675588Y1526279D01*
X674974Y1525202D01*
X674874Y1524406D01*
X674831Y1524234D01*
X674549Y1523482D01*
X674591Y1522243D01*
X674586Y1522122D01*
X667123Y1462925D01*
X667071Y1462728D01*
X666841Y1462173D01*
X666841Y1460734D01*
X666835Y1460638D01*
X666655Y1459211D01*
X666814Y1458630D01*
X666841Y1458429D01*
X666841Y1349152D01*
X666828Y1349013D01*
X666628Y1347929D01*
X666824Y1347009D01*
X666841Y1346850D01*
X666841Y1345909D01*
X667263Y1344890D01*
X667304Y1344758D01*
X675341Y1307058D01*
X675341Y1307058D01*
X685847Y1257780D01*
X685861Y1257556D01*
X685824Y1257125D01*
X686310Y1255595D01*
X686328Y1255523D01*
X686663Y1253953D01*
X686909Y1253597D01*
X687007Y1253395D01*
X707976Y1187275D01*
X708009Y1187114D01*
X708092Y1186209D01*
X708620Y1185205D01*
X708672Y1185081D01*
X709015Y1183999D01*
X709600Y1183304D01*
X709691Y1183168D01*
X741416Y1122859D01*
X741416Y1122858D01*
X753117Y1100613D01*
X753179Y1100456D01*
X753403Y1099618D01*
X754119Y1098685D01*
X754189Y1098576D01*
X754736Y1097535D01*
X755403Y1096981D01*
X755520Y1096859D01*
X781403Y1063122D01*
X781522Y1062897D01*
X781581Y1062717D01*
X782783Y1061321D01*
X782810Y1061288D01*
X783932Y1059825D01*
X784096Y1059731D01*
X784293Y1059568D01*
X813329Y1025848D01*
X813329Y1025848D01*
X840500Y994294D01*
X840627Y994088D01*
X840741Y993813D01*
X841969Y992585D01*
X842008Y992543D01*
X843141Y991227D01*
X843407Y991093D01*
X843603Y990951D01*
X852331Y982223D01*
X852484Y982003D01*
X852554Y981708D01*
X852503Y981409D01*
X852340Y981154D01*
X852090Y980982D01*
X851792Y980922D01*
X834374Y980922D01*
X834138Y980960D01*
X833874Y981109D01*
X817489Y995379D01*
X817463Y995412D01*
X815740Y996902D01*
X815738Y996904D01*
X814099Y998331D01*
X812038Y999014D01*
X812036Y999015D01*
X809874Y999741D01*
X809832Y999746D01*
X793840Y1005050D01*
X793789Y1005069D01*
X792173Y1005738D01*
X791887Y1005738D01*
X791647Y1005777D01*
X791376Y1005867D01*
X789632Y1005740D01*
X789577Y1005738D01*
X755376Y1005738D01*
X755253Y1005748D01*
X754048Y1005946D01*
X753248Y1005758D01*
X753074Y1005738D01*
X752253Y1005738D01*
X751124Y1005271D01*
X751006Y1005233D01*
X749817Y1004954D01*
X749150Y1004475D01*
X748997Y1004390D01*
X748238Y1004075D01*
X747375Y1003212D01*
X747280Y1003132D01*
X731648Y991902D01*
X731545Y991840D01*
X730429Y991279D01*
X729910Y990679D01*
X729778Y990558D01*
X729133Y990095D01*
X728475Y989034D01*
X728404Y988937D01*
X727587Y987993D01*
X727337Y987239D01*
X727261Y987077D01*
X726843Y986403D01*
X726641Y985171D01*
X726612Y985054D01*
X716260Y953840D01*
X716241Y953789D01*
X715572Y952173D01*
X715572Y951887D01*
X715533Y951647D01*
X715443Y951376D01*
X715570Y949632D01*
X715572Y949577D01*
X715572Y896776D01*
X715565Y896674D01*
X715379Y895298D01*
X715546Y894667D01*
X715572Y894472D01*
X715572Y893820D01*
X716103Y892537D01*
X716136Y892440D01*
X728110Y847213D01*
X728134Y846981D01*
X728116Y846619D01*
X728681Y845043D01*
X728700Y844981D01*
X729129Y843362D01*
X729348Y843074D01*
X729460Y842869D01*
X749177Y787828D01*
X749219Y787625D01*
X749260Y787059D01*
X749918Y785742D01*
X749954Y785658D01*
X750450Y784271D01*
X750832Y783851D01*
X750949Y783680D01*
X809694Y666190D01*
X809749Y666044D01*
X824156Y611627D01*
X824179Y611483D01*
X829076Y539654D01*
X829078Y539602D01*
X829078Y420967D01*
X829068Y420842D01*
X824990Y396377D01*
X824798Y395986D01*
X824553Y395808D01*
X824257Y395741D01*
X823958Y395794D01*
X823704Y395960D01*
X823535Y396211D01*
X820448Y403663D01*
X813663Y410448D01*
X804798Y414120D01*
X795202Y414120D01*
X786337Y410448D01*
X779552Y403663D01*
X775880Y394798D01*
X775880Y385202D01*
X779552Y376337D01*
X786288Y369601D01*
X786441Y369381D01*
X786511Y369086D01*
X786460Y368787D01*
X786297Y368532D01*
X786047Y368360D01*
G37*
%LPC*%
G36*
X635202Y1305880D02*
X644798Y1305880D01*
X653663Y1309552D01*
X660448Y1316337D01*
X664120Y1325202D01*
X664120Y1334798D01*
X660448Y1343663D01*
X653663Y1350448D01*
X644798Y1354120D01*
X635202Y1354120D01*
X626337Y1350448D01*
X619552Y1343663D01*
X615880Y1334798D01*
X615880Y1325202D01*
X619552Y1316337D01*
X626337Y1309552D01*
X635202Y1305880D01*
G37*
%LPD*%
G36*
X-695155Y461661D02*
X-695452Y461601D01*
X-719328Y461601D01*
X-719603Y461652D01*
X-719858Y461816D01*
X-720030Y462066D01*
X-720090Y462363D01*
X-720090Y471478D01*
X-745267Y496655D01*
X-745430Y496897D01*
X-745490Y497194D01*
X-745490Y522278D01*
X-760422Y537210D01*
X-763158Y537210D01*
X-763433Y537261D01*
X-763688Y537425D01*
X-763860Y537675D01*
X-763920Y537972D01*
X-763920Y546352D01*
X-765408Y547840D01*
X-790812Y547840D01*
X-791641Y547011D01*
X-791872Y546853D01*
X-792168Y546788D01*
X-792466Y546843D01*
X-792719Y547011D01*
X-793548Y547840D01*
X-795528Y547840D01*
X-795803Y547891D01*
X-796058Y548055D01*
X-796230Y548305D01*
X-796290Y548602D01*
X-796290Y582306D01*
X-796234Y582592D01*
X-796067Y582845D01*
X-767480Y611432D01*
X-767480Y645198D01*
X-767429Y645473D01*
X-767265Y645728D01*
X-767015Y645900D01*
X-766718Y645960D01*
X-758588Y645960D01*
X-757100Y647448D01*
X-757100Y673352D01*
X-758588Y674840D01*
X-782933Y674840D01*
X-783194Y674886D01*
X-783453Y675044D01*
X-783629Y675291D01*
X-783695Y675587D01*
X-783641Y675886D01*
X-775391Y696467D01*
X-756426Y743785D01*
X-756411Y743820D01*
X-725707Y810713D01*
X-725588Y810898D01*
X-725279Y811249D01*
X-724774Y812737D01*
X-724745Y812810D01*
X-724090Y814237D01*
X-724072Y814704D01*
X-724032Y814921D01*
X-715874Y838942D01*
X-715776Y839135D01*
X-715488Y839545D01*
X-715154Y841047D01*
X-715132Y841126D01*
X-714638Y842582D01*
X-714670Y843082D01*
X-714654Y843297D01*
X-706233Y881147D01*
X-706169Y881327D01*
X-705853Y881948D01*
X-705749Y883289D01*
X-705733Y883396D01*
X-705441Y884709D01*
X-705562Y885395D01*
X-705571Y885586D01*
X-702303Y927661D01*
X-702294Y927734D01*
X-702015Y929314D01*
X-702109Y929737D01*
X-702125Y929961D01*
X-702091Y930393D01*
X-702588Y931919D01*
X-702608Y931990D01*
X-709106Y961323D01*
X-709124Y961460D01*
X-709164Y962568D01*
X-709553Y963418D01*
X-709604Y963570D01*
X-709806Y964483D01*
X-710442Y965391D01*
X-710511Y965511D01*
X-721413Y989344D01*
X-721414Y989347D01*
X-722311Y991328D01*
X-723900Y992806D01*
X-723902Y992808D01*
X-734472Y1002717D01*
X-734625Y1002917D01*
X-734726Y1003109D01*
X-736124Y1004268D01*
X-736159Y1004299D01*
X-737484Y1005541D01*
X-737686Y1005618D01*
X-737904Y1005744D01*
X-738071Y1005882D01*
X-739806Y1006418D01*
X-739850Y1006433D01*
X-741550Y1007074D01*
X-741766Y1007067D01*
X-742015Y1007100D01*
X-752390Y1010305D01*
X-752457Y1010329D01*
X-753961Y1010952D01*
X-754370Y1010952D01*
X-754595Y1010985D01*
X-754986Y1011106D01*
X-756607Y1010955D01*
X-756678Y1010952D01*
X-772311Y1010952D01*
X-772568Y1010996D01*
X-772702Y1011044D01*
X-774588Y1010952D01*
X-774625Y1010952D01*
X-776513Y1010952D01*
X-776645Y1010897D01*
X-776900Y1010840D01*
X-777042Y1010833D01*
X-778749Y1010027D01*
X-778783Y1010012D01*
X-780528Y1009289D01*
X-780628Y1009188D01*
X-780842Y1009038D01*
X-813990Y993379D01*
X-814315Y993306D01*
X-817308Y993306D01*
X-817543Y993343D01*
X-817807Y993493D01*
X-817992Y993733D01*
X-818069Y994026D01*
X-818025Y994326D01*
X-817868Y994586D01*
X-793283Y1021176D01*
X-793089Y1021328D01*
X-792866Y1021449D01*
X-791748Y1022835D01*
X-791714Y1022873D01*
X-790506Y1024181D01*
X-790418Y1024418D01*
X-790296Y1024633D01*
X-758968Y1063439D01*
X-758817Y1063581D01*
X-758356Y1063909D01*
X-757573Y1065158D01*
X-757520Y1065232D01*
X-756594Y1066379D01*
X-756434Y1066922D01*
X-756349Y1067111D01*
X-731672Y1106492D01*
X-731524Y1106664D01*
X-731213Y1106932D01*
X-730481Y1108385D01*
X-730446Y1108447D01*
X-729582Y1109827D01*
X-729514Y1110231D01*
X-729443Y1110447D01*
X-692803Y1183189D01*
X-692695Y1183349D01*
X-692246Y1183860D01*
X-691807Y1185149D01*
X-691767Y1185246D01*
X-691154Y1186462D01*
X-691104Y1187141D01*
X-691066Y1187330D01*
X-673579Y1238732D01*
X-673463Y1238949D01*
X-673305Y1239156D01*
X-672850Y1240870D01*
X-672835Y1240920D01*
X-672263Y1242599D01*
X-672280Y1242859D01*
X-672256Y1243104D01*
X-659978Y1289318D01*
X-659806Y1289635D01*
X-659561Y1289815D01*
X-659266Y1289884D01*
X-658967Y1289834D01*
X-658712Y1289670D01*
X-658540Y1289420D01*
X-658480Y1289123D01*
X-658480Y1282448D01*
X-656992Y1280960D01*
X-648862Y1280960D01*
X-648587Y1280909D01*
X-648332Y1280745D01*
X-648160Y1280495D01*
X-648100Y1280198D01*
X-648100Y1249904D01*
X-648156Y1249618D01*
X-648323Y1249365D01*
X-664210Y1233478D01*
X-664210Y1209002D01*
X-664261Y1208727D01*
X-664425Y1208472D01*
X-664675Y1208300D01*
X-664972Y1208240D01*
X-666952Y1208240D01*
X-668440Y1206752D01*
X-668440Y1180848D01*
X-666952Y1179360D01*
X-653848Y1179360D01*
X-653019Y1180189D01*
X-652788Y1180347D01*
X-652492Y1180412D01*
X-652194Y1180357D01*
X-651941Y1180189D01*
X-651112Y1179360D01*
X-642982Y1179360D01*
X-642707Y1179309D01*
X-642452Y1179145D01*
X-642280Y1178895D01*
X-642220Y1178598D01*
X-642220Y1118653D01*
X-642271Y1118378D01*
X-642435Y1118123D01*
X-642685Y1117951D01*
X-642982Y1117891D01*
X-665603Y1117891D01*
X-667091Y1116403D01*
X-667091Y1101987D01*
X-665603Y1100499D01*
X-631952Y1100499D01*
X-631677Y1100448D01*
X-631422Y1100284D01*
X-631250Y1100034D01*
X-631190Y1099737D01*
X-631190Y1070102D01*
X-631241Y1069827D01*
X-631405Y1069572D01*
X-631655Y1069400D01*
X-631952Y1069340D01*
X-660370Y1069340D01*
X-660794Y1069307D01*
X-661177Y1069216D01*
X-661543Y1069066D01*
X-661880Y1068861D01*
X-662182Y1068607D01*
X-662441Y1068309D01*
X-662650Y1067974D01*
X-662805Y1067611D01*
X-662901Y1067231D01*
X-662940Y1066768D01*
X-662940Y1059263D01*
X-662991Y1058988D01*
X-663155Y1058733D01*
X-663405Y1058561D01*
X-663702Y1058501D01*
X-665603Y1058501D01*
X-667091Y1057013D01*
X-667091Y1042597D01*
X-665603Y1041109D01*
X-663702Y1041109D01*
X-663427Y1041058D01*
X-663172Y1040894D01*
X-663000Y1040644D01*
X-662940Y1040347D01*
X-662940Y1004353D01*
X-662991Y1004078D01*
X-663155Y1003823D01*
X-663405Y1003651D01*
X-663702Y1003591D01*
X-665603Y1003591D01*
X-667091Y1002103D01*
X-667091Y987687D01*
X-665603Y986199D01*
X-663702Y986199D01*
X-663427Y986148D01*
X-663172Y985984D01*
X-663000Y985734D01*
X-662940Y985437D01*
X-662940Y977930D01*
X-662907Y977507D01*
X-662816Y977123D01*
X-662666Y976757D01*
X-662461Y976420D01*
X-662207Y976118D01*
X-661909Y975859D01*
X-661574Y975650D01*
X-661211Y975495D01*
X-660831Y975399D01*
X-660368Y975360D01*
X-631952Y975360D01*
X-631677Y975309D01*
X-631422Y975145D01*
X-631250Y974895D01*
X-631190Y974598D01*
X-631190Y944963D01*
X-631241Y944688D01*
X-631405Y944433D01*
X-631655Y944261D01*
X-631952Y944201D01*
X-665603Y944201D01*
X-667091Y942713D01*
X-667091Y941019D01*
X-667138Y940755D01*
X-667297Y940497D01*
X-667545Y940322D01*
X-667841Y940257D01*
X-668139Y940312D01*
X-668392Y940480D01*
X-681767Y953855D01*
X-681930Y954097D01*
X-681990Y954394D01*
X-681990Y1030278D01*
X-696922Y1045210D01*
X-699658Y1045210D01*
X-699933Y1045261D01*
X-700188Y1045425D01*
X-700360Y1045675D01*
X-700420Y1045972D01*
X-700420Y1054352D01*
X-701908Y1055840D01*
X-727312Y1055840D01*
X-728141Y1055011D01*
X-728372Y1054853D01*
X-728668Y1054788D01*
X-728966Y1054843D01*
X-729219Y1055011D01*
X-729221Y1055013D01*
X-729379Y1055244D01*
X-729444Y1055540D01*
X-729389Y1055838D01*
X-729221Y1056091D01*
X-685400Y1099912D01*
X-685400Y1102398D01*
X-685349Y1102673D01*
X-685185Y1102928D01*
X-684935Y1103100D01*
X-684638Y1103160D01*
X-676508Y1103160D01*
X-675020Y1104648D01*
X-675020Y1130552D01*
X-676508Y1132040D01*
X-701912Y1132040D01*
X-703400Y1130552D01*
X-703400Y1104648D01*
X-701912Y1103160D01*
X-694768Y1103160D01*
X-694504Y1103113D01*
X-694246Y1102954D01*
X-694071Y1102706D01*
X-694006Y1102410D01*
X-694061Y1102112D01*
X-694229Y1101859D01*
X-740025Y1056063D01*
X-740267Y1055900D01*
X-740564Y1055840D01*
X-743152Y1055840D01*
X-744640Y1054352D01*
X-744640Y1028448D01*
X-743152Y1026960D01*
X-730048Y1026960D01*
X-729219Y1027789D01*
X-728988Y1027947D01*
X-728692Y1028012D01*
X-728394Y1027957D01*
X-728141Y1027789D01*
X-727312Y1026960D01*
X-701908Y1026960D01*
X-700420Y1028448D01*
X-700420Y1036092D01*
X-700373Y1036356D01*
X-700214Y1036614D01*
X-699966Y1036789D01*
X-699670Y1036854D01*
X-699372Y1036799D01*
X-699119Y1036631D01*
X-689833Y1027345D01*
X-689670Y1027103D01*
X-689610Y1026806D01*
X-689610Y950922D01*
X-670383Y931695D01*
X-667853Y931695D01*
X-667578Y931644D01*
X-667323Y931480D01*
X-667151Y931230D01*
X-667091Y930933D01*
X-667091Y928297D01*
X-665603Y926809D01*
X-631952Y926809D01*
X-631677Y926758D01*
X-631422Y926594D01*
X-631250Y926344D01*
X-631190Y926047D01*
X-631190Y825778D01*
X-631246Y825492D01*
X-631413Y825239D01*
X-673320Y783333D01*
X-675640Y777731D01*
X-675640Y692428D01*
X-675696Y692142D01*
X-675863Y691889D01*
X-692370Y675383D01*
X-694690Y669781D01*
X-694690Y623353D01*
X-694741Y623078D01*
X-694905Y622823D01*
X-695155Y622651D01*
X-695452Y622591D01*
X-706628Y622591D01*
X-706903Y622642D01*
X-707158Y622806D01*
X-707330Y623056D01*
X-707390Y623353D01*
X-707390Y671206D01*
X-707334Y671492D01*
X-707167Y671745D01*
X-694690Y684222D01*
X-694690Y746798D01*
X-694639Y747073D01*
X-694475Y747328D01*
X-694225Y747500D01*
X-693928Y747560D01*
X-689208Y747560D01*
X-687720Y749048D01*
X-687720Y774952D01*
X-689208Y776440D01*
X-714612Y776440D01*
X-715441Y775611D01*
X-715672Y775453D01*
X-715968Y775388D01*
X-716266Y775443D01*
X-716519Y775611D01*
X-717348Y776440D01*
X-719328Y776440D01*
X-719603Y776491D01*
X-719858Y776655D01*
X-720030Y776905D01*
X-720090Y777202D01*
X-720090Y798206D01*
X-720034Y798492D01*
X-719867Y798745D01*
X-669290Y849322D01*
X-669290Y861098D01*
X-669239Y861373D01*
X-669075Y861628D01*
X-668825Y861800D01*
X-668528Y861860D01*
X-663808Y861860D01*
X-662320Y863348D01*
X-662320Y889252D01*
X-663808Y890740D01*
X-689212Y890740D01*
X-690700Y889252D01*
X-690700Y863348D01*
X-689212Y861860D01*
X-677672Y861860D01*
X-677397Y861809D01*
X-677142Y861645D01*
X-676970Y861395D01*
X-676910Y861098D01*
X-676910Y852794D01*
X-676966Y852508D01*
X-677133Y852255D01*
X-727710Y801678D01*
X-727710Y777202D01*
X-727761Y776927D01*
X-727925Y776672D01*
X-728175Y776500D01*
X-728472Y776440D01*
X-730452Y776440D01*
X-731940Y774952D01*
X-731940Y749048D01*
X-730452Y747560D01*
X-717348Y747560D01*
X-716519Y748389D01*
X-716288Y748547D01*
X-715992Y748612D01*
X-715694Y748557D01*
X-715441Y748389D01*
X-714612Y747560D01*
X-703072Y747560D01*
X-702797Y747509D01*
X-702542Y747345D01*
X-702370Y747095D01*
X-702310Y746798D01*
X-702310Y687694D01*
X-702366Y687408D01*
X-702533Y687155D01*
X-715010Y674678D01*
X-715010Y623353D01*
X-715061Y623078D01*
X-715225Y622823D01*
X-715475Y622651D01*
X-715772Y622591D01*
X-729103Y622591D01*
X-730591Y621103D01*
X-730591Y606687D01*
X-729103Y605199D01*
X-695452Y605199D01*
X-695177Y605148D01*
X-694922Y604984D01*
X-694750Y604734D01*
X-694690Y604437D01*
X-694690Y574802D01*
X-694741Y574527D01*
X-694905Y574272D01*
X-695155Y574100D01*
X-695452Y574040D01*
X-723870Y574040D01*
X-724294Y574007D01*
X-724677Y573916D01*
X-725043Y573766D01*
X-725380Y573561D01*
X-725682Y573307D01*
X-725941Y573009D01*
X-726150Y572674D01*
X-726305Y572311D01*
X-726401Y571931D01*
X-726440Y571468D01*
X-726440Y563963D01*
X-726491Y563688D01*
X-726655Y563433D01*
X-726905Y563261D01*
X-727202Y563201D01*
X-729103Y563201D01*
X-730591Y561713D01*
X-730591Y547297D01*
X-729103Y545809D01*
X-727202Y545809D01*
X-726927Y545758D01*
X-726672Y545594D01*
X-726500Y545344D01*
X-726440Y545047D01*
X-726440Y521753D01*
X-726491Y521478D01*
X-726655Y521223D01*
X-726905Y521051D01*
X-727202Y520991D01*
X-729103Y520991D01*
X-730591Y519503D01*
X-730591Y505087D01*
X-729103Y503599D01*
X-727202Y503599D01*
X-726927Y503548D01*
X-726672Y503384D01*
X-726500Y503134D01*
X-726440Y502837D01*
X-726440Y495330D01*
X-726407Y494907D01*
X-726316Y494523D01*
X-726166Y494157D01*
X-725961Y493820D01*
X-725707Y493518D01*
X-725409Y493259D01*
X-725074Y493050D01*
X-724711Y492895D01*
X-724331Y492799D01*
X-723868Y492760D01*
X-695452Y492760D01*
X-695177Y492709D01*
X-694922Y492545D01*
X-694750Y492295D01*
X-694690Y491998D01*
X-694690Y462363D01*
X-694741Y462088D01*
X-694905Y461833D01*
X-695155Y461661D01*
G37*
%LPC*%
G36*
X-734798Y685880D02*
X-725202Y685880D01*
X-716337Y689552D01*
X-709552Y696337D01*
X-705880Y705202D01*
X-705880Y714798D01*
X-709552Y723663D01*
X-716337Y730448D01*
X-725202Y734120D01*
X-734798Y734120D01*
X-743663Y730448D01*
X-750448Y723663D01*
X-754120Y714798D01*
X-754120Y705202D01*
X-750448Y696337D01*
X-743663Y689552D01*
X-734798Y685880D01*
G37*
%LPD*%
G36*
X676445Y525161D02*
X676148Y525101D01*
X664972Y525101D01*
X664697Y525152D01*
X664442Y525316D01*
X664270Y525566D01*
X664210Y525863D01*
X664210Y534978D01*
X604343Y594845D01*
X604180Y595087D01*
X604120Y595384D01*
X604120Y632498D01*
X604171Y632773D01*
X604335Y633028D01*
X604585Y633200D01*
X604882Y633260D01*
X613012Y633260D01*
X613841Y634089D01*
X614072Y634247D01*
X614368Y634312D01*
X614666Y634257D01*
X614919Y634089D01*
X615748Y633260D01*
X628852Y633260D01*
X630340Y634748D01*
X630340Y660652D01*
X628852Y662140D01*
X626872Y662140D01*
X626597Y662191D01*
X626342Y662355D01*
X626170Y662605D01*
X626110Y662902D01*
X626110Y674678D01*
X591643Y709145D01*
X591480Y709387D01*
X591420Y709684D01*
X591420Y746798D01*
X591471Y747073D01*
X591635Y747328D01*
X591885Y747500D01*
X592182Y747560D01*
X600312Y747560D01*
X601800Y749048D01*
X601800Y774952D01*
X600312Y776440D01*
X575035Y776440D01*
X574760Y776491D01*
X574505Y776655D01*
X574333Y776905D01*
X574273Y777202D01*
X574273Y785177D01*
X574303Y785389D01*
X574446Y785883D01*
X574278Y787399D01*
X574273Y787483D01*
X574273Y789008D01*
X574077Y789483D01*
X574023Y789690D01*
X570108Y824931D01*
X570114Y825141D01*
X570204Y825678D01*
X569868Y827136D01*
X569854Y827223D01*
X569689Y828709D01*
X569426Y829186D01*
X569351Y829382D01*
X560618Y867297D01*
X550504Y911206D01*
X550485Y911404D01*
X550507Y912043D01*
X550015Y913355D01*
X549986Y913452D01*
X549672Y914817D01*
X549301Y915338D01*
X549208Y915513D01*
X533951Y956263D01*
X518249Y998201D01*
X518220Y998297D01*
X512954Y1021157D01*
X512935Y1021328D01*
X512935Y1059708D01*
X512940Y1059799D01*
X524053Y1152221D01*
X524353Y1154712D01*
X524394Y1154884D01*
X524554Y1155142D01*
X524801Y1155318D01*
X525097Y1155383D01*
X525395Y1155327D01*
X525648Y1155160D01*
X526848Y1153960D01*
X539952Y1153960D01*
X540781Y1154789D01*
X541012Y1154947D01*
X541308Y1155012D01*
X541606Y1154957D01*
X541859Y1154789D01*
X542688Y1153960D01*
X550818Y1153960D01*
X551093Y1153909D01*
X551348Y1153745D01*
X551520Y1153495D01*
X551580Y1153198D01*
X551580Y1119432D01*
X605567Y1065445D01*
X605730Y1065203D01*
X605790Y1064906D01*
X605790Y1059263D01*
X605739Y1058988D01*
X605575Y1058733D01*
X605325Y1058561D01*
X605028Y1058501D01*
X591697Y1058501D01*
X590209Y1057013D01*
X590209Y1042597D01*
X591697Y1041109D01*
X625348Y1041109D01*
X625623Y1041058D01*
X625878Y1040894D01*
X626050Y1040644D01*
X626110Y1040347D01*
X626110Y790818D01*
X626063Y790554D01*
X625904Y790296D01*
X625656Y790121D01*
X625360Y790056D01*
X625062Y790111D01*
X624809Y790279D01*
X597523Y817565D01*
X597360Y817807D01*
X597300Y818104D01*
X597300Y886498D01*
X597351Y886773D01*
X597515Y887028D01*
X597765Y887200D01*
X598062Y887260D01*
X606192Y887260D01*
X607680Y888748D01*
X607680Y914652D01*
X606192Y916140D01*
X580788Y916140D01*
X579959Y915311D01*
X579728Y915153D01*
X579432Y915088D01*
X579134Y915143D01*
X578881Y915311D01*
X578052Y916140D01*
X576072Y916140D01*
X575797Y916191D01*
X575542Y916355D01*
X575370Y916605D01*
X575310Y916902D01*
X575310Y979478D01*
X559423Y995365D01*
X559260Y995607D01*
X559200Y995904D01*
X559200Y1013498D01*
X559251Y1013773D01*
X559415Y1014028D01*
X559665Y1014200D01*
X559962Y1014260D01*
X568092Y1014260D01*
X569580Y1015748D01*
X569580Y1041652D01*
X568092Y1043140D01*
X542688Y1043140D01*
X541200Y1041652D01*
X541200Y1015748D01*
X542688Y1014260D01*
X550818Y1014260D01*
X551093Y1014209D01*
X551348Y1014045D01*
X551520Y1013795D01*
X551580Y1013498D01*
X551580Y992432D01*
X567467Y976545D01*
X567630Y976303D01*
X567690Y976006D01*
X567690Y916902D01*
X567639Y916627D01*
X567475Y916372D01*
X567225Y916200D01*
X566928Y916140D01*
X564948Y916140D01*
X563460Y914652D01*
X563460Y888748D01*
X564948Y887260D01*
X578052Y887260D01*
X578881Y888089D01*
X579112Y888247D01*
X579408Y888312D01*
X579706Y888257D01*
X579959Y888089D01*
X580788Y887260D01*
X588918Y887260D01*
X589193Y887209D01*
X589448Y887045D01*
X589620Y886795D01*
X589680Y886498D01*
X589680Y814632D01*
X618267Y786045D01*
X618430Y785803D01*
X618490Y785506D01*
X618490Y747722D01*
X656367Y709845D01*
X656530Y709603D01*
X656590Y709306D01*
X656590Y686853D01*
X656539Y686578D01*
X656375Y686323D01*
X656125Y686151D01*
X655828Y686091D01*
X642497Y686091D01*
X641009Y684603D01*
X641009Y670187D01*
X642497Y668699D01*
X676148Y668699D01*
X676423Y668648D01*
X676678Y668484D01*
X676850Y668234D01*
X676910Y667937D01*
X676910Y627463D01*
X676859Y627188D01*
X676695Y626933D01*
X676445Y626761D01*
X676148Y626701D01*
X642497Y626701D01*
X641009Y625213D01*
X641009Y610797D01*
X642497Y609309D01*
X644398Y609309D01*
X644673Y609258D01*
X644928Y609094D01*
X645100Y608844D01*
X645160Y608547D01*
X645160Y585253D01*
X645109Y584978D01*
X644945Y584723D01*
X644695Y584551D01*
X644398Y584491D01*
X642497Y584491D01*
X641009Y583003D01*
X641009Y568587D01*
X642497Y567099D01*
X676148Y567099D01*
X676423Y567048D01*
X676678Y566884D01*
X676850Y566634D01*
X676910Y566337D01*
X676910Y525863D01*
X676859Y525588D01*
X676695Y525333D01*
X676445Y525161D01*
G37*
G36*
X331850Y368360D02*
X331552Y368300D01*
X247004Y368300D01*
X246718Y368356D01*
X246465Y368523D01*
X219933Y395055D01*
X219770Y395297D01*
X219710Y395594D01*
X219710Y403898D01*
X219761Y404173D01*
X219925Y404428D01*
X220175Y404600D01*
X220472Y404660D01*
X222452Y404660D01*
X223940Y406148D01*
X223940Y429461D01*
X224061Y429873D01*
X224273Y430090D01*
X224552Y430208D01*
X224856Y430207D01*
X225135Y430088D01*
X261671Y404895D01*
X261722Y404856D01*
X263022Y403788D01*
X263361Y403686D01*
X263572Y403584D01*
X263863Y403383D01*
X265508Y403031D01*
X265570Y403015D01*
X315751Y387779D01*
X315845Y387743D01*
X317123Y387163D01*
X317760Y387142D01*
X317956Y387109D01*
X318566Y386924D01*
X319963Y387061D01*
X320063Y387065D01*
X377862Y385130D01*
X377990Y385115D01*
X379145Y384877D01*
X379993Y385040D01*
X380162Y385053D01*
X381026Y385024D01*
X382130Y385438D01*
X382254Y385473D01*
X400807Y389034D01*
X400972Y389047D01*
X401870Y389022D01*
X402939Y389431D01*
X403068Y389467D01*
X404192Y389683D01*
X404942Y390177D01*
X405089Y390253D01*
X439240Y403305D01*
X439274Y403318D01*
X441071Y403907D01*
X441177Y403998D01*
X441401Y404131D01*
X441532Y404181D01*
X442906Y405481D01*
X442933Y405506D01*
X464357Y423905D01*
X495863Y450962D01*
X495918Y451005D01*
X497250Y451951D01*
X497465Y452293D01*
X497614Y452466D01*
X497920Y452729D01*
X498658Y454186D01*
X498692Y454247D01*
X512972Y476989D01*
X534490Y511256D01*
X534603Y511397D01*
X535163Y511943D01*
X535660Y513101D01*
X535715Y513206D01*
X536385Y514274D01*
X536516Y515045D01*
X536567Y515218D01*
X551656Y550424D01*
X551779Y550622D01*
X552017Y550897D01*
X552542Y552486D01*
X552565Y552547D01*
X553224Y554085D01*
X553229Y554447D01*
X553267Y554677D01*
X569070Y602439D01*
X569133Y602580D01*
X569625Y603437D01*
X569761Y604483D01*
X569793Y604625D01*
X570125Y605627D01*
X570053Y606612D01*
X570057Y606766D01*
X573983Y637059D01*
X574035Y637253D01*
X574273Y637828D01*
X574273Y639246D01*
X574279Y639344D01*
X574462Y640751D01*
X574300Y641351D01*
X574273Y641550D01*
X574273Y746798D01*
X574324Y747073D01*
X574488Y747328D01*
X574738Y747500D01*
X575035Y747560D01*
X583038Y747560D01*
X583313Y747509D01*
X583568Y747345D01*
X583740Y747095D01*
X583800Y746798D01*
X583800Y706212D01*
X618267Y671745D01*
X618430Y671503D01*
X618490Y671206D01*
X618490Y662902D01*
X618439Y662627D01*
X618275Y662372D01*
X618025Y662200D01*
X617728Y662140D01*
X615748Y662140D01*
X614919Y661311D01*
X614688Y661153D01*
X614392Y661088D01*
X614094Y661143D01*
X613841Y661311D01*
X613012Y662140D01*
X587608Y662140D01*
X586120Y660652D01*
X586120Y634748D01*
X587608Y633260D01*
X595738Y633260D01*
X596013Y633209D01*
X596268Y633045D01*
X596440Y632795D01*
X596500Y632498D01*
X596500Y591912D01*
X656367Y532045D01*
X656530Y531803D01*
X656590Y531506D01*
X656590Y525863D01*
X656539Y525588D01*
X656375Y525333D01*
X656125Y525161D01*
X655828Y525101D01*
X642497Y525101D01*
X641009Y523613D01*
X641009Y509197D01*
X642497Y507709D01*
X676148Y507709D01*
X676423Y507658D01*
X676678Y507494D01*
X676850Y507244D01*
X676910Y506947D01*
X676910Y483653D01*
X676859Y483378D01*
X676695Y483123D01*
X676445Y482951D01*
X676148Y482891D01*
X642497Y482891D01*
X641009Y481403D01*
X641009Y478767D01*
X640958Y478492D01*
X640794Y478237D01*
X640544Y478065D01*
X640247Y478005D01*
X619899Y478005D01*
X619613Y478061D01*
X619360Y478228D01*
X598478Y499110D01*
X595742Y499110D01*
X595467Y499161D01*
X595212Y499325D01*
X595040Y499575D01*
X594980Y499872D01*
X594980Y508252D01*
X593492Y509740D01*
X568088Y509740D01*
X567259Y508911D01*
X567028Y508753D01*
X566732Y508688D01*
X566434Y508743D01*
X566181Y508911D01*
X565352Y509740D01*
X552248Y509740D01*
X550760Y508252D01*
X550760Y499872D01*
X550709Y499597D01*
X550545Y499342D01*
X550295Y499170D01*
X549998Y499110D01*
X544522Y499110D01*
X526180Y480768D01*
X526180Y459702D01*
X526129Y459427D01*
X525965Y459172D01*
X525715Y459000D01*
X525418Y458940D01*
X517288Y458940D01*
X515800Y457452D01*
X515800Y431548D01*
X517288Y430060D01*
X542692Y430060D01*
X544180Y431548D01*
X544180Y457452D01*
X542692Y458940D01*
X534562Y458940D01*
X534287Y458991D01*
X534032Y459155D01*
X533860Y459405D01*
X533800Y459702D01*
X533800Y477296D01*
X533856Y477582D01*
X534023Y477835D01*
X547455Y491267D01*
X547697Y491430D01*
X547994Y491490D01*
X549998Y491490D01*
X550273Y491439D01*
X550528Y491275D01*
X550700Y491025D01*
X550760Y490728D01*
X550760Y482348D01*
X552248Y480860D01*
X565352Y480860D01*
X566181Y481689D01*
X566412Y481847D01*
X566708Y481912D01*
X567006Y481857D01*
X567259Y481689D01*
X568088Y480860D01*
X593492Y480860D01*
X594980Y482348D01*
X594980Y489992D01*
X595027Y490256D01*
X595186Y490514D01*
X595434Y490689D01*
X595730Y490754D01*
X596028Y490699D01*
X596281Y490531D01*
X616427Y470385D01*
X640247Y470385D01*
X640522Y470334D01*
X640777Y470170D01*
X640949Y469920D01*
X641009Y469623D01*
X641009Y466987D01*
X642497Y465499D01*
X676148Y465499D01*
X676423Y465448D01*
X676678Y465284D01*
X676850Y465034D01*
X676910Y464737D01*
X676910Y430807D01*
X676859Y430532D01*
X676695Y430277D01*
X676445Y430105D01*
X676148Y430045D01*
X657369Y430045D01*
X651767Y427725D01*
X647767Y423724D01*
X647525Y423561D01*
X647228Y423501D01*
X642497Y423501D01*
X641009Y422013D01*
X641009Y407597D01*
X642497Y406109D01*
X644398Y406109D01*
X644673Y406058D01*
X644928Y405894D01*
X645100Y405644D01*
X645160Y405347D01*
X645160Y401297D01*
X645109Y401022D01*
X644945Y400767D01*
X644695Y400595D01*
X644398Y400535D01*
X559048Y400535D01*
X553446Y398215D01*
X525814Y370583D01*
X525063Y368770D01*
X524907Y368532D01*
X524657Y368360D01*
X524359Y368300D01*
X361068Y368300D01*
X360782Y368356D01*
X360529Y368523D01*
X359012Y370040D01*
X333608Y370040D01*
X332091Y368523D01*
X331850Y368360D01*
G37*
G36*
X-782385Y368360D02*
X-782682Y368300D01*
X-801050Y368300D01*
X-801423Y368397D01*
X-801653Y368596D01*
X-801787Y368867D01*
X-808680Y394971D01*
X-808696Y395046D01*
X-815967Y440803D01*
X-815977Y440923D01*
X-815977Y532199D01*
X-815970Y532302D01*
X-808602Y586277D01*
X-808597Y586308D01*
X-801840Y624108D01*
X-801814Y624213D01*
X-789854Y660379D01*
X-789838Y660424D01*
X-786949Y667631D01*
X-786806Y667860D01*
X-786561Y668039D01*
X-786266Y668109D01*
X-785967Y668058D01*
X-785712Y667894D01*
X-785540Y667644D01*
X-785480Y667347D01*
X-785480Y647448D01*
X-783992Y645960D01*
X-775862Y645960D01*
X-775587Y645909D01*
X-775332Y645745D01*
X-775160Y645495D01*
X-775100Y645198D01*
X-775100Y614904D01*
X-775156Y614618D01*
X-775323Y614365D01*
X-803910Y585778D01*
X-803910Y548602D01*
X-803961Y548327D01*
X-804125Y548072D01*
X-804375Y547900D01*
X-804672Y547840D01*
X-806652Y547840D01*
X-808140Y546352D01*
X-808140Y520448D01*
X-806652Y518960D01*
X-793548Y518960D01*
X-792719Y519789D01*
X-792488Y519947D01*
X-792192Y520012D01*
X-791894Y519957D01*
X-791641Y519789D01*
X-790812Y518960D01*
X-765408Y518960D01*
X-763920Y520448D01*
X-763920Y528092D01*
X-763873Y528356D01*
X-763714Y528614D01*
X-763466Y528789D01*
X-763170Y528854D01*
X-762872Y528799D01*
X-762619Y528631D01*
X-753333Y519345D01*
X-753170Y519103D01*
X-753110Y518806D01*
X-753110Y493722D01*
X-727933Y468545D01*
X-727770Y468303D01*
X-727710Y468006D01*
X-727710Y462363D01*
X-727761Y462088D01*
X-727925Y461833D01*
X-728175Y461661D01*
X-728472Y461601D01*
X-729103Y461601D01*
X-730591Y460113D01*
X-730591Y445697D01*
X-729103Y444209D01*
X-695452Y444209D01*
X-695177Y444158D01*
X-694922Y443994D01*
X-694750Y443744D01*
X-694690Y443447D01*
X-694690Y426697D01*
X-694741Y426422D01*
X-694905Y426167D01*
X-695155Y425995D01*
X-695452Y425935D01*
X-714231Y425935D01*
X-719833Y423615D01*
X-723833Y419614D01*
X-724075Y419451D01*
X-724372Y419391D01*
X-729103Y419391D01*
X-730591Y417903D01*
X-730591Y403487D01*
X-729103Y401999D01*
X-724372Y401999D01*
X-724086Y401943D01*
X-723833Y401776D01*
X-719833Y397775D01*
X-714231Y395455D01*
X-631952Y395455D01*
X-631677Y395404D01*
X-631422Y395240D01*
X-631250Y394990D01*
X-631190Y394693D01*
X-631190Y369062D01*
X-631241Y368787D01*
X-631405Y368532D01*
X-631655Y368360D01*
X-631952Y368300D01*
X-773538Y368300D01*
X-773813Y368351D01*
X-774068Y368515D01*
X-774240Y368765D01*
X-774300Y369062D01*
X-774300Y403898D01*
X-774249Y404173D01*
X-774085Y404428D01*
X-773835Y404600D01*
X-773538Y404660D01*
X-765408Y404660D01*
X-763920Y406148D01*
X-763920Y432052D01*
X-765408Y433540D01*
X-790812Y433540D01*
X-792300Y432052D01*
X-792300Y406148D01*
X-790812Y404660D01*
X-782682Y404660D01*
X-782407Y404609D01*
X-782152Y404445D01*
X-781980Y404195D01*
X-781920Y403898D01*
X-781920Y369062D01*
X-781971Y368787D01*
X-782135Y368532D01*
X-782385Y368360D01*
G37*
%LPC*%
G36*
X-784798Y445880D02*
X-775202Y445880D01*
X-766337Y449552D01*
X-759552Y456337D01*
X-755880Y465202D01*
X-755880Y474798D01*
X-759552Y483663D01*
X-766337Y490448D01*
X-775202Y494120D01*
X-784798Y494120D01*
X-793663Y490448D01*
X-800448Y483663D01*
X-804120Y474798D01*
X-804120Y465202D01*
X-800448Y456337D01*
X-793663Y449552D01*
X-784798Y445880D01*
G37*
%LPD*%
G36*
X429065Y-488977D02*
X428570Y-489078D01*
X-387808Y-489078D01*
X-388266Y-488993D01*
X-388692Y-488720D01*
X-388977Y-488303D01*
X-389078Y-487808D01*
X-389078Y-2211D01*
X-389010Y-1833D01*
X-389077Y164D01*
X-389078Y207D01*
X-389078Y2205D01*
X-389145Y2512D01*
X-389971Y4331D01*
X-389989Y4371D01*
X-390753Y6217D01*
X-390932Y6475D01*
X-392392Y7839D01*
X-392423Y7869D01*
X-393836Y9282D01*
X-394101Y9452D01*
X-395971Y10154D01*
X-396011Y10170D01*
X-397857Y10934D01*
X-398235Y11003D01*
X-413814Y16845D01*
X-414222Y17094D01*
X-414521Y17502D01*
X-414637Y17994D01*
X-414553Y18492D01*
X-414280Y18918D01*
X-413863Y19203D01*
X-413368Y19304D01*
X-203233Y19304D01*
X-202566Y19339D01*
X-201939Y19438D01*
X-201326Y19601D01*
X-200732Y19828D01*
X-200166Y20115D01*
X-199633Y20459D01*
X-199138Y20857D01*
X-198687Y21304D01*
X-198285Y21796D01*
X-197937Y22327D01*
X-197646Y22891D01*
X-197415Y23482D01*
X-197247Y24095D01*
X-197144Y24719D01*
X-197104Y25436D01*
X-197104Y152367D01*
X-197139Y153034D01*
X-197238Y153661D01*
X-197401Y154275D01*
X-197628Y154868D01*
X-197915Y155434D01*
X-198259Y155968D01*
X-198657Y156462D01*
X-199104Y156913D01*
X-199596Y157315D01*
X-200127Y157663D01*
X-200691Y157954D01*
X-201282Y158185D01*
X-201895Y158353D01*
X-202519Y158456D01*
X-203236Y158496D01*
X-457167Y158496D01*
X-457834Y158461D01*
X-458461Y158362D01*
X-459075Y158199D01*
X-459668Y157972D01*
X-460234Y157685D01*
X-460768Y157341D01*
X-461262Y156943D01*
X-461713Y156496D01*
X-462115Y156004D01*
X-462463Y155473D01*
X-462754Y154909D01*
X-462985Y154318D01*
X-463153Y153705D01*
X-463256Y153081D01*
X-463296Y152364D01*
X-463296Y97536D01*
X-463381Y97078D01*
X-463654Y96652D01*
X-464071Y96367D01*
X-464566Y96266D01*
X-507834Y96266D01*
X-508292Y96351D01*
X-508718Y96624D01*
X-509003Y97041D01*
X-509104Y97536D01*
X-509104Y102013D01*
X-510032Y104253D01*
X-511747Y105968D01*
X-513987Y106896D01*
X-527413Y106896D01*
X-528134Y106597D01*
X-528610Y106501D01*
X-529106Y106597D01*
X-529827Y106896D01*
X-555553Y106896D01*
X-557793Y105968D01*
X-559508Y104253D01*
X-560436Y102013D01*
X-560436Y97536D01*
X-560521Y97078D01*
X-560794Y96652D01*
X-561211Y96367D01*
X-561706Y96266D01*
X-567923Y96266D01*
X-568399Y96359D01*
X-568821Y96638D01*
X-639962Y167779D01*
X-640233Y168182D01*
X-640334Y168677D01*
X-640334Y171926D01*
X-640245Y172393D01*
X-639969Y172817D01*
X-639550Y173099D01*
X-638747Y173432D01*
X-637032Y175147D01*
X-636104Y177387D01*
X-636104Y203613D01*
X-637032Y205853D01*
X-638747Y207568D01*
X-640987Y208496D01*
X-654413Y208496D01*
X-655134Y208197D01*
X-655610Y208101D01*
X-656106Y208197D01*
X-656827Y208496D01*
X-661054Y208496D01*
X-661512Y208581D01*
X-661938Y208854D01*
X-662223Y209271D01*
X-662324Y209766D01*
X-662324Y304633D01*
X-662231Y305109D01*
X-661952Y305531D01*
X-641455Y326028D01*
X-640334Y328735D01*
X-640334Y337783D01*
X-640249Y338241D01*
X-639976Y338667D01*
X-639559Y338952D01*
X-639064Y339053D01*
X-636016Y339053D01*
X-635558Y338968D01*
X-635132Y338695D01*
X-634847Y338278D01*
X-634746Y337783D01*
X-634746Y313761D01*
X-633827Y311542D01*
X-633730Y311056D01*
X-633730Y269311D01*
X-630869Y262403D01*
X-625581Y257116D01*
X-618673Y254254D01*
X-611195Y254254D01*
X-604287Y257116D01*
X-599000Y262403D01*
X-596138Y269311D01*
X-596138Y320223D01*
X-597057Y322442D01*
X-597154Y322928D01*
X-597154Y337783D01*
X-597069Y338241D01*
X-596796Y338667D01*
X-596379Y338952D01*
X-595884Y339053D01*
X-566136Y339053D01*
X-563896Y339981D01*
X-562181Y341696D01*
X-561577Y343155D01*
X-561316Y343553D01*
X-560899Y343838D01*
X-560403Y343939D01*
X-523530Y343939D01*
X-520823Y345060D01*
X-506155Y359728D01*
X-505752Y359999D01*
X-505257Y360100D01*
X-472643Y360100D01*
X-472167Y360007D01*
X-471745Y359728D01*
X-461372Y349355D01*
X-458665Y348234D01*
X-371206Y348234D01*
X-370748Y348149D01*
X-370322Y347876D01*
X-370037Y347459D01*
X-369936Y346964D01*
X-369936Y342487D01*
X-369008Y340247D01*
X-367293Y338532D01*
X-365053Y337604D01*
X-339327Y337604D01*
X-338606Y337903D01*
X-338130Y337999D01*
X-337634Y337903D01*
X-336913Y337604D01*
X-323487Y337604D01*
X-321247Y338532D01*
X-319532Y340247D01*
X-318604Y342487D01*
X-318604Y358830D01*
X-318519Y359288D01*
X-318246Y359714D01*
X-317829Y359999D01*
X-317334Y360100D01*
X90871Y360100D01*
X91320Y360018D01*
X91748Y359749D01*
X92037Y359335D01*
X92141Y358840D01*
X92045Y358344D01*
X91722Y357565D01*
X91722Y353635D01*
X93226Y350005D01*
X96005Y347226D01*
X99635Y345722D01*
X103565Y345722D01*
X107195Y347226D01*
X109974Y350005D01*
X111478Y353635D01*
X111478Y357565D01*
X111155Y358344D01*
X111059Y358790D01*
X111144Y359288D01*
X111416Y359714D01*
X111833Y359999D01*
X112329Y360100D01*
X238557Y360100D01*
X239033Y360007D01*
X239455Y359728D01*
X249828Y349355D01*
X252535Y348234D01*
X327294Y348234D01*
X327752Y348149D01*
X328178Y347876D01*
X328463Y347459D01*
X328564Y346964D01*
X328564Y342487D01*
X329492Y340247D01*
X331207Y338532D01*
X333447Y337604D01*
X359173Y337604D01*
X359894Y337903D01*
X360370Y337999D01*
X360866Y337903D01*
X361587Y337604D01*
X375013Y337604D01*
X377253Y338532D01*
X378968Y340247D01*
X379896Y342487D01*
X379896Y358830D01*
X379981Y359288D01*
X380254Y359714D01*
X380671Y359999D01*
X381166Y360100D01*
X395671Y360100D01*
X396120Y360018D01*
X396548Y359749D01*
X396837Y359335D01*
X396941Y358840D01*
X396845Y358344D01*
X396522Y357565D01*
X396522Y353635D01*
X398026Y350005D01*
X400805Y347226D01*
X404435Y345722D01*
X408365Y345722D01*
X410295Y346522D01*
X410751Y346618D01*
X411248Y346529D01*
X411672Y346253D01*
X411955Y345834D01*
X412281Y345046D01*
X413996Y343331D01*
X416236Y342403D01*
X428974Y342403D01*
X431314Y343372D01*
X431790Y343469D01*
X432286Y343372D01*
X434626Y342403D01*
X447364Y342403D01*
X449604Y343331D01*
X451319Y345046D01*
X452315Y347450D01*
X452576Y347848D01*
X452993Y348133D01*
X453488Y348234D01*
X458665Y348234D01*
X461372Y349355D01*
X464357Y352340D01*
X464750Y352607D01*
X465245Y352712D01*
X465741Y352615D01*
X465893Y352552D01*
X488639Y352552D01*
X490879Y353480D01*
X492594Y355195D01*
X493522Y357435D01*
X493522Y358830D01*
X493607Y359288D01*
X493880Y359714D01*
X494297Y359999D01*
X494792Y360100D01*
X518668Y360100D01*
X519126Y360015D01*
X519552Y359742D01*
X519837Y359325D01*
X519938Y358830D01*
X519938Y320111D01*
X522800Y313203D01*
X528087Y307916D01*
X534995Y305054D01*
X542473Y305054D01*
X549381Y307916D01*
X554669Y313203D01*
X557530Y320111D01*
X557530Y353638D01*
X557623Y354115D01*
X557902Y354536D01*
X563094Y359728D01*
X563496Y359999D01*
X563992Y360100D01*
X816234Y360100D01*
X816697Y360013D01*
X817122Y359739D01*
X817406Y359320D01*
X817504Y358825D01*
X817401Y358330D01*
X801433Y321071D01*
X801206Y320717D01*
X800798Y320418D01*
X800306Y320302D01*
X799808Y320387D01*
X799382Y320659D01*
X799097Y321076D01*
X798996Y321571D01*
X798996Y330613D01*
X798068Y332853D01*
X796353Y334568D01*
X794113Y335496D01*
X780687Y335496D01*
X779966Y335197D01*
X779490Y335101D01*
X778994Y335197D01*
X778273Y335496D01*
X752547Y335496D01*
X750307Y334568D01*
X748592Y332853D01*
X747664Y330613D01*
X747664Y326136D01*
X747579Y325678D01*
X747306Y325252D01*
X746889Y324967D01*
X746394Y324866D01*
X727477Y324866D01*
X727001Y324959D01*
X726579Y325238D01*
X715372Y336445D01*
X712665Y337566D01*
X680143Y337566D01*
X679657Y337663D01*
X678464Y338157D01*
X642336Y338157D01*
X640096Y337229D01*
X638381Y335514D01*
X637453Y333274D01*
X637453Y318536D01*
X638381Y316296D01*
X640096Y314581D01*
X642336Y313653D01*
X678464Y313653D01*
X680704Y314581D01*
X682419Y316296D01*
X683347Y318536D01*
X683347Y321564D01*
X683432Y322022D01*
X683705Y322448D01*
X684122Y322733D01*
X684617Y322834D01*
X707623Y322834D01*
X708099Y322741D01*
X708521Y322462D01*
X719728Y311255D01*
X722435Y310134D01*
X746394Y310134D01*
X746852Y310049D01*
X747278Y309776D01*
X747563Y309359D01*
X747664Y308864D01*
X747664Y304387D01*
X748592Y302147D01*
X750307Y300432D01*
X752547Y299504D01*
X768621Y299504D01*
X769060Y299426D01*
X769490Y299160D01*
X769782Y298748D01*
X769891Y298254D01*
X769798Y297757D01*
X769519Y297336D01*
X768455Y296272D01*
X767334Y293565D01*
X767334Y282977D01*
X767241Y282501D01*
X766962Y282079D01*
X733921Y249038D01*
X733518Y248767D01*
X733023Y248666D01*
X697035Y248666D01*
X694328Y247545D01*
X682965Y236182D01*
X681844Y233475D01*
X681844Y222466D01*
X681759Y222008D01*
X681486Y221582D01*
X681069Y221297D01*
X680574Y221196D01*
X676347Y221196D01*
X674107Y220268D01*
X672392Y218553D01*
X671464Y216313D01*
X671464Y190087D01*
X672392Y187847D01*
X674107Y186132D01*
X676405Y185180D01*
X676723Y185122D01*
X677151Y184853D01*
X677440Y184439D01*
X677544Y183944D01*
X677448Y183448D01*
X675922Y179765D01*
X675922Y175835D01*
X677426Y172205D01*
X680205Y169426D01*
X683835Y167922D01*
X687765Y167922D01*
X691395Y169426D01*
X692032Y170062D01*
X692434Y170333D01*
X692930Y170434D01*
X699965Y170434D01*
X702672Y171555D01*
X713580Y182463D01*
X713792Y182634D01*
X714264Y182817D01*
X714769Y182801D01*
X715228Y182590D01*
X715568Y182216D01*
X715736Y181739D01*
X715705Y181235D01*
X715479Y180783D01*
X710535Y174458D01*
X710327Y174249D01*
X651283Y127014D01*
X651283Y127014D01*
X638699Y116946D01*
X638438Y116785D01*
X637946Y116669D01*
X637448Y116754D01*
X637022Y117026D01*
X636737Y117443D01*
X636636Y117938D01*
X636636Y140113D01*
X635708Y142353D01*
X633993Y144068D01*
X631753Y144996D01*
X627526Y144996D01*
X627068Y145081D01*
X626642Y145354D01*
X626357Y145771D01*
X626256Y146266D01*
X626256Y284275D01*
X625135Y286982D01*
X604638Y307479D01*
X604367Y307882D01*
X604266Y308377D01*
X604266Y312383D01*
X604351Y312841D01*
X604624Y313267D01*
X605041Y313552D01*
X605536Y313653D01*
X614964Y313653D01*
X617204Y314581D01*
X618919Y316296D01*
X619847Y318536D01*
X619847Y333274D01*
X618919Y335514D01*
X617204Y337229D01*
X614964Y338157D01*
X578836Y338157D01*
X576596Y337229D01*
X574881Y335514D01*
X573953Y333274D01*
X573953Y318536D01*
X574881Y316296D01*
X576596Y314581D01*
X578836Y313653D01*
X588264Y313653D01*
X588722Y313568D01*
X589148Y313295D01*
X589433Y312878D01*
X589534Y312383D01*
X589534Y303335D01*
X590655Y300628D01*
X611152Y280131D01*
X611423Y279728D01*
X611524Y279233D01*
X611524Y146266D01*
X611439Y145808D01*
X611166Y145382D01*
X610749Y145097D01*
X610254Y144996D01*
X606027Y144996D01*
X605306Y144697D01*
X604830Y144601D01*
X604334Y144697D01*
X603613Y144996D01*
X590187Y144996D01*
X587947Y144068D01*
X586232Y142353D01*
X585304Y140113D01*
X585304Y135636D01*
X585219Y135178D01*
X584946Y134752D01*
X584529Y134467D01*
X584034Y134366D01*
X531935Y134366D01*
X529228Y133245D01*
X472945Y76962D01*
X471824Y74255D01*
X471824Y70066D01*
X471739Y69608D01*
X471466Y69182D01*
X471049Y68897D01*
X470554Y68796D01*
X466327Y68796D01*
X465606Y68497D01*
X465130Y68401D01*
X464634Y68497D01*
X463913Y68796D01*
X450487Y68796D01*
X448247Y67868D01*
X446532Y66153D01*
X445604Y63913D01*
X445604Y59436D01*
X445519Y58978D01*
X445246Y58552D01*
X444829Y58267D01*
X444334Y58166D01*
X412753Y58166D01*
X412314Y58244D01*
X411884Y58510D01*
X411592Y58922D01*
X411483Y59416D01*
X411576Y59913D01*
X411855Y60334D01*
X423387Y71866D01*
X423834Y72362D01*
X424208Y72876D01*
X424526Y73425D01*
X424785Y74005D01*
X424983Y74608D01*
X425116Y75229D01*
X425186Y75876D01*
X425196Y76218D01*
X425196Y139667D01*
X425161Y140334D01*
X425062Y140961D01*
X424899Y141575D01*
X424672Y142168D01*
X424385Y142734D01*
X424041Y143268D01*
X423643Y143762D01*
X423196Y144213D01*
X422704Y144615D01*
X422173Y144963D01*
X421609Y145254D01*
X421018Y145485D01*
X420405Y145653D01*
X419781Y145756D01*
X419064Y145796D01*
X241333Y145796D01*
X240666Y145761D01*
X240039Y145662D01*
X239426Y145499D01*
X238832Y145272D01*
X238266Y144985D01*
X237733Y144641D01*
X237226Y144233D01*
X236977Y143998D01*
X201402Y108423D01*
X201046Y108173D01*
X200555Y108052D01*
X200056Y108133D01*
X199628Y108402D01*
X199339Y108817D01*
X199234Y109311D01*
X199331Y109807D01*
X200378Y112335D01*
X200378Y116265D01*
X198874Y119895D01*
X198238Y120532D01*
X197967Y120934D01*
X197866Y121430D01*
X197866Y145270D01*
X197959Y145747D01*
X198238Y146168D01*
X198874Y146805D01*
X200378Y150435D01*
X200378Y154365D01*
X198874Y157995D01*
X196095Y160774D01*
X192465Y162278D01*
X188535Y162278D01*
X184905Y160774D01*
X182126Y157995D01*
X180622Y154365D01*
X180622Y150435D01*
X182126Y146805D01*
X182762Y146168D01*
X183033Y145766D01*
X183134Y145270D01*
X183134Y121430D01*
X183041Y120953D01*
X182762Y120532D01*
X182126Y119895D01*
X180622Y116265D01*
X180622Y112335D01*
X182126Y108705D01*
X184905Y105926D01*
X188535Y104422D01*
X192465Y104422D01*
X194993Y105469D01*
X195418Y105564D01*
X195917Y105487D01*
X196348Y105222D01*
X196640Y104810D01*
X196748Y104316D01*
X196656Y103819D01*
X196377Y103398D01*
X122713Y29734D01*
X122266Y29238D01*
X121892Y28724D01*
X121574Y28175D01*
X121315Y27595D01*
X121117Y26992D01*
X120984Y26371D01*
X120914Y25724D01*
X120904Y25382D01*
X120904Y-50767D01*
X120939Y-51434D01*
X121038Y-52061D01*
X121201Y-52675D01*
X121428Y-53268D01*
X121715Y-53834D01*
X122059Y-54368D01*
X122457Y-54862D01*
X122904Y-55313D01*
X123396Y-55715D01*
X123927Y-56063D01*
X124491Y-56354D01*
X125082Y-56585D01*
X125695Y-56753D01*
X126319Y-56856D01*
X127036Y-56896D01*
X228567Y-56896D01*
X229234Y-56861D01*
X229861Y-56762D01*
X230475Y-56599D01*
X231068Y-56372D01*
X231634Y-56085D01*
X232168Y-55741D01*
X232674Y-55333D01*
X232923Y-55098D01*
X243453Y-44568D01*
X243856Y-44297D01*
X244351Y-44196D01*
X304767Y-44196D01*
X305434Y-44161D01*
X306061Y-44062D01*
X306675Y-43899D01*
X307268Y-43672D01*
X307834Y-43385D01*
X308368Y-43041D01*
X308874Y-42633D01*
X309123Y-42398D01*
X398254Y46733D01*
X398638Y46996D01*
X399132Y47105D01*
X399629Y47012D01*
X400050Y46733D01*
X402228Y44555D01*
X404935Y43434D01*
X444334Y43434D01*
X444792Y43349D01*
X445218Y43076D01*
X445503Y42659D01*
X445604Y42164D01*
X445604Y37687D01*
X446532Y35447D01*
X448247Y33732D01*
X450487Y32804D01*
X463913Y32804D01*
X464634Y33103D01*
X465110Y33199D01*
X465606Y33103D01*
X466327Y32804D01*
X480932Y32804D01*
X481331Y32740D01*
X481770Y32489D01*
X482076Y32087D01*
X482201Y31597D01*
X482125Y31097D01*
X481860Y30667D01*
X481448Y30373D01*
X433579Y9098D01*
X430586Y5948D01*
X429026Y1893D01*
X429137Y-2451D01*
X429731Y-3786D01*
X429840Y-4302D01*
X429840Y-230266D01*
X429751Y-230733D01*
X429475Y-231157D01*
X429056Y-231440D01*
X426045Y-232687D01*
X423187Y-235545D01*
X421640Y-239279D01*
X421640Y-269224D01*
X421555Y-269681D01*
X421282Y-270107D01*
X420865Y-270393D01*
X420370Y-270494D01*
X403860Y-270494D01*
X403402Y-270408D01*
X402976Y-270136D01*
X402691Y-269719D01*
X402590Y-269224D01*
X402590Y-268489D01*
X401043Y-264755D01*
X398185Y-261897D01*
X394441Y-260346D01*
X365003Y-260346D01*
X361269Y-261892D01*
X358411Y-264751D01*
X356864Y-268485D01*
X356864Y-269224D01*
X356779Y-269681D01*
X356506Y-270107D01*
X356089Y-270393D01*
X355594Y-270494D01*
X345741Y-270494D01*
X345658Y-270510D01*
X344689Y-270510D01*
X340955Y-272057D01*
X338097Y-274915D01*
X336550Y-278649D01*
X336550Y-313171D01*
X338097Y-316905D01*
X340955Y-319763D01*
X344689Y-321310D01*
X345629Y-321310D01*
X345772Y-321339D01*
X408940Y-321339D01*
X409398Y-321424D01*
X409824Y-321696D01*
X410109Y-322113D01*
X410210Y-322609D01*
X410210Y-349504D01*
X410125Y-349962D01*
X409852Y-350388D01*
X409435Y-350673D01*
X408940Y-350774D01*
X340417Y-350774D01*
X338177Y-351702D01*
X336462Y-353417D01*
X335777Y-355070D01*
X335516Y-355468D01*
X335099Y-355753D01*
X334604Y-355854D01*
X315997Y-355854D01*
X315521Y-355761D01*
X315099Y-355482D01*
X302350Y-342733D01*
X302079Y-342330D01*
X301978Y-341835D01*
X301978Y-340935D01*
X301310Y-339322D01*
X301214Y-338876D01*
X301299Y-338378D01*
X301571Y-337952D01*
X301988Y-337667D01*
X302483Y-337566D01*
X310370Y-337566D01*
X310847Y-337659D01*
X311268Y-337938D01*
X311905Y-338574D01*
X315535Y-340078D01*
X319465Y-340078D01*
X323095Y-338574D01*
X325874Y-335795D01*
X327378Y-332165D01*
X327378Y-328235D01*
X325874Y-324605D01*
X323095Y-321826D01*
X319465Y-320322D01*
X315535Y-320322D01*
X311905Y-321826D01*
X311268Y-322462D01*
X310866Y-322733D01*
X310370Y-322834D01*
X299230Y-322834D01*
X298753Y-322741D01*
X298332Y-322462D01*
X297695Y-321826D01*
X294065Y-320322D01*
X290135Y-320322D01*
X286505Y-321826D01*
X283726Y-324605D01*
X282222Y-328235D01*
X282222Y-332165D01*
X283795Y-335962D01*
X283846Y-336036D01*
X283954Y-336530D01*
X283862Y-337027D01*
X283807Y-337109D01*
X282222Y-340935D01*
X282222Y-344865D01*
X283726Y-348495D01*
X286505Y-351274D01*
X290135Y-352778D01*
X291035Y-352778D01*
X291511Y-352871D01*
X291933Y-353150D01*
X308248Y-369465D01*
X310955Y-370586D01*
X334604Y-370586D01*
X335071Y-370675D01*
X335495Y-370951D01*
X335777Y-371370D01*
X336388Y-372845D01*
X336485Y-373331D01*
X336485Y-407206D01*
X338032Y-410941D01*
X340890Y-413799D01*
X344624Y-415345D01*
X355594Y-415345D01*
X356052Y-415431D01*
X356478Y-415703D01*
X356763Y-416120D01*
X356864Y-416615D01*
X356864Y-417426D01*
X358411Y-421160D01*
X361269Y-424019D01*
X365003Y-425565D01*
X394448Y-425565D01*
X398183Y-424019D01*
X401041Y-421160D01*
X402590Y-417420D01*
X402590Y-416615D01*
X402675Y-416158D01*
X402948Y-415732D01*
X403365Y-415446D01*
X403860Y-415345D01*
X420370Y-415345D01*
X420828Y-415431D01*
X421254Y-415703D01*
X421539Y-416120D01*
X421640Y-416615D01*
X421640Y-446559D01*
X423187Y-450293D01*
X426045Y-453151D01*
X429056Y-454398D01*
X429454Y-454659D01*
X429739Y-455076D01*
X429840Y-455572D01*
X429840Y-487808D01*
X429755Y-488266D01*
X429482Y-488692D01*
X429065Y-488977D01*
G37*
%LPC*%
G36*
X-78165Y206022D02*
X-74235Y206022D01*
X-70605Y207526D01*
X-67826Y210305D01*
X-66322Y213935D01*
X-66322Y217865D01*
X-67826Y221495D01*
X-68462Y222132D01*
X-68733Y222534D01*
X-68834Y223030D01*
X-68834Y234170D01*
X-68741Y234647D01*
X-68462Y235068D01*
X-67826Y235705D01*
X-66322Y239335D01*
X-66322Y243265D01*
X-67826Y246895D01*
X-68462Y247532D01*
X-68733Y247934D01*
X-68834Y248430D01*
X-68834Y310370D01*
X-68741Y310847D01*
X-68462Y311268D01*
X-67826Y311905D01*
X-66322Y315535D01*
X-66322Y319465D01*
X-67826Y323095D01*
X-70605Y325874D01*
X-74235Y327378D01*
X-78165Y327378D01*
X-81795Y325874D01*
X-84574Y323095D01*
X-86078Y319465D01*
X-86078Y315535D01*
X-84574Y311905D01*
X-83938Y311268D01*
X-83667Y310866D01*
X-83566Y310370D01*
X-83566Y248430D01*
X-83659Y247953D01*
X-83938Y247532D01*
X-84574Y246895D01*
X-86078Y243265D01*
X-86078Y239335D01*
X-84574Y235705D01*
X-83938Y235068D01*
X-83667Y234666D01*
X-83566Y234170D01*
X-83566Y223030D01*
X-83659Y222553D01*
X-83938Y222132D01*
X-84574Y221495D01*
X-86078Y217865D01*
X-86078Y213935D01*
X-84574Y210305D01*
X-81795Y207526D01*
X-78165Y206022D01*
G37*
G36*
X48835Y193322D02*
X52765Y193322D01*
X56395Y194826D01*
X57032Y195462D01*
X57434Y195733D01*
X57930Y195834D01*
X93200Y195834D01*
X93677Y195741D01*
X94098Y195462D01*
X94735Y194826D01*
X98365Y193322D01*
X102295Y193322D01*
X105925Y194826D01*
X108704Y197605D01*
X110208Y201235D01*
X110208Y202135D01*
X110301Y202611D01*
X110580Y203033D01*
X133337Y225790D01*
X133731Y226058D01*
X134225Y226162D01*
X134721Y226066D01*
X135348Y225806D01*
X141512Y225806D01*
X147207Y228165D01*
X150232Y231190D01*
X150616Y231454D01*
X151110Y231562D01*
X151607Y231469D01*
X152028Y231190D01*
X155053Y228165D01*
X160748Y225806D01*
X166912Y225806D01*
X172607Y228165D01*
X176965Y232523D01*
X179324Y238218D01*
X179324Y244382D01*
X176965Y250077D01*
X175210Y251832D01*
X174947Y252216D01*
X174838Y252710D01*
X174931Y253207D01*
X175210Y253628D01*
X179505Y257923D01*
X181864Y263618D01*
X181864Y269782D01*
X179505Y275477D01*
X175210Y279772D01*
X174947Y280156D01*
X174838Y280650D01*
X174931Y281147D01*
X175210Y281568D01*
X176965Y283323D01*
X179324Y289018D01*
X179324Y295182D01*
X176965Y300877D01*
X172607Y305235D01*
X166912Y307594D01*
X160748Y307594D01*
X155053Y305235D01*
X150695Y300877D01*
X148336Y295182D01*
X148336Y289018D01*
X150695Y283323D01*
X154990Y279028D01*
X155254Y278644D01*
X155362Y278150D01*
X155269Y277653D01*
X154990Y277232D01*
X154568Y276810D01*
X154184Y276547D01*
X153690Y276438D01*
X153193Y276531D01*
X152772Y276810D01*
X149747Y279835D01*
X144052Y282194D01*
X137888Y282194D01*
X132193Y279835D01*
X127835Y275477D01*
X125476Y269782D01*
X125476Y263618D01*
X127835Y257923D01*
X129590Y256168D01*
X129854Y255784D01*
X129962Y255290D01*
X129869Y254793D01*
X129590Y254372D01*
X125295Y250077D01*
X122936Y244382D01*
X122936Y238218D01*
X123196Y237591D01*
X123292Y237126D01*
X123199Y236629D01*
X122920Y236207D01*
X100163Y213450D01*
X99760Y213179D01*
X99265Y213078D01*
X98365Y213078D01*
X94735Y211574D01*
X94098Y210938D01*
X93696Y210667D01*
X93200Y210566D01*
X57930Y210566D01*
X57453Y210659D01*
X57032Y210938D01*
X56395Y211574D01*
X52765Y213078D01*
X48835Y213078D01*
X45205Y211574D01*
X42426Y208795D01*
X40922Y205165D01*
X40922Y201235D01*
X42426Y197605D01*
X45205Y194826D01*
X48835Y193322D01*
G37*
G36*
X61535Y256822D02*
X65465Y256822D01*
X69095Y258326D01*
X71874Y261105D01*
X73378Y264735D01*
X73378Y268665D01*
X71874Y272295D01*
X71238Y272932D01*
X70967Y273334D01*
X70866Y273830D01*
X70866Y275823D01*
X70959Y276299D01*
X71238Y276721D01*
X76367Y281850D01*
X76770Y282121D01*
X77265Y282222D01*
X78165Y282222D01*
X81795Y283726D01*
X84574Y286505D01*
X86078Y290135D01*
X86078Y294065D01*
X84574Y297695D01*
X81795Y300474D01*
X78165Y301978D01*
X74235Y301978D01*
X70605Y300474D01*
X67826Y297695D01*
X66322Y294065D01*
X66322Y293165D01*
X66229Y292689D01*
X65950Y292267D01*
X57255Y283572D01*
X56134Y280865D01*
X56134Y273830D01*
X56041Y273353D01*
X55762Y272932D01*
X55126Y272295D01*
X53622Y268665D01*
X53622Y264735D01*
X55126Y261105D01*
X57905Y258326D01*
X61535Y256822D01*
G37*
G36*
X-523564Y253503D02*
X-510826Y253503D01*
X-508486Y254472D01*
X-508010Y254569D01*
X-507514Y254472D01*
X-505174Y253503D01*
X-492436Y253503D01*
X-490196Y254431D01*
X-488481Y256146D01*
X-487485Y258550D01*
X-487224Y258948D01*
X-486807Y259233D01*
X-486312Y259334D01*
X-481135Y259334D01*
X-478428Y260455D01*
X-469733Y269150D01*
X-469330Y269421D01*
X-468835Y269522D01*
X-467935Y269522D01*
X-464305Y271026D01*
X-461526Y273805D01*
X-460022Y277435D01*
X-460022Y281365D01*
X-461526Y284995D01*
X-464305Y287774D01*
X-467935Y289278D01*
X-471865Y289278D01*
X-475495Y287774D01*
X-478274Y284995D01*
X-479778Y281365D01*
X-479778Y280465D01*
X-479871Y279989D01*
X-480150Y279567D01*
X-485279Y274438D01*
X-485682Y274167D01*
X-486177Y274066D01*
X-486312Y274066D01*
X-486779Y274155D01*
X-487203Y274431D01*
X-487485Y274850D01*
X-488481Y277254D01*
X-490196Y278969D01*
X-492436Y279897D01*
X-505174Y279897D01*
X-507514Y278928D01*
X-507990Y278831D01*
X-508486Y278928D01*
X-510826Y279897D01*
X-520574Y279897D01*
X-521060Y279994D01*
X-522080Y280416D01*
X-538223Y280416D01*
X-538700Y280509D01*
X-539121Y280788D01*
X-539853Y281520D01*
X-542093Y282448D01*
X-564839Y282448D01*
X-567079Y281520D01*
X-568794Y279805D01*
X-569722Y277565D01*
X-569722Y268535D01*
X-568794Y266295D01*
X-567079Y264580D01*
X-564839Y263652D01*
X-542093Y263652D01*
X-539853Y264580D01*
X-539121Y265312D01*
X-538718Y265583D01*
X-538223Y265684D01*
X-529717Y265684D01*
X-529259Y265599D01*
X-528833Y265326D01*
X-528548Y264909D01*
X-528447Y264414D01*
X-528447Y258386D01*
X-527519Y256146D01*
X-525804Y254431D01*
X-523564Y253503D01*
G37*
G36*
X486356Y202324D02*
X493644Y202324D01*
X500683Y204210D01*
X506993Y207854D01*
X512146Y213007D01*
X515790Y219317D01*
X517676Y226356D01*
X517676Y233644D01*
X515790Y240683D01*
X512146Y246993D01*
X506993Y252146D01*
X500683Y255790D01*
X493644Y257676D01*
X486356Y257676D01*
X479317Y255790D01*
X473007Y252146D01*
X467854Y246993D01*
X464210Y240683D01*
X462324Y233644D01*
X462324Y226356D01*
X464210Y219317D01*
X467854Y213007D01*
X473007Y207854D01*
X479317Y204210D01*
X486356Y202324D01*
G37*
G36*
X-453644Y202324D02*
X-446356Y202324D01*
X-439317Y204210D01*
X-433007Y207854D01*
X-427854Y213007D01*
X-424210Y219317D01*
X-422324Y226356D01*
X-422324Y233644D01*
X-424210Y240683D01*
X-427854Y246993D01*
X-433007Y252146D01*
X-439317Y255790D01*
X-446356Y257676D01*
X-453644Y257676D01*
X-460683Y255790D01*
X-466993Y252146D01*
X-472146Y246993D01*
X-475790Y240683D01*
X-477676Y233644D01*
X-477676Y226356D01*
X-475790Y219317D01*
X-472146Y213007D01*
X-466993Y207854D01*
X-460683Y204210D01*
X-453644Y202324D01*
G37*
G36*
X-167065Y66322D02*
X-163135Y66322D01*
X-159338Y67895D01*
X-159264Y67946D01*
X-158770Y68054D01*
X-158273Y67962D01*
X-158191Y67907D01*
X-154365Y66322D01*
X-150435Y66322D01*
X-146805Y67826D01*
X-144026Y70605D01*
X-142522Y74235D01*
X-142522Y78165D01*
X-144026Y81795D01*
X-144662Y82432D01*
X-144933Y82834D01*
X-145034Y83330D01*
X-145034Y221470D01*
X-144941Y221947D01*
X-144662Y222368D01*
X-144026Y223005D01*
X-142522Y226635D01*
X-142522Y230565D01*
X-144026Y234195D01*
X-146805Y236974D01*
X-150435Y238478D01*
X-154365Y238478D01*
X-158162Y236905D01*
X-158236Y236854D01*
X-158730Y236746D01*
X-159227Y236839D01*
X-159309Y236893D01*
X-163135Y238478D01*
X-167065Y238478D01*
X-170695Y236974D01*
X-173474Y234195D01*
X-174978Y230565D01*
X-174978Y226635D01*
X-173474Y223005D01*
X-172838Y222368D01*
X-172567Y221966D01*
X-172466Y221470D01*
X-172466Y83330D01*
X-172559Y82853D01*
X-172838Y82432D01*
X-173474Y81795D01*
X-174978Y78165D01*
X-174978Y74235D01*
X-173474Y70605D01*
X-170695Y67826D01*
X-167065Y66322D01*
G37*
G36*
X-118039Y120904D02*
X-21661Y120904D01*
X-14753Y123766D01*
X28635Y167153D01*
X31496Y174061D01*
X31496Y181539D01*
X28635Y188447D01*
X23347Y193735D01*
X16439Y196596D01*
X8961Y196596D01*
X2053Y193735D01*
X-32814Y158868D01*
X-33216Y158597D01*
X-33712Y158496D01*
X-118039Y158496D01*
X-124947Y155635D01*
X-130235Y150347D01*
X-133096Y143439D01*
X-133096Y135961D01*
X-130235Y129053D01*
X-124947Y123766D01*
X-118039Y120904D01*
G37*
G36*
X52615Y-156096D02*
X67385Y-156096D01*
X81652Y-152273D01*
X94444Y-144888D01*
X104888Y-134444D01*
X112273Y-121652D01*
X116096Y-107385D01*
X116096Y-92615D01*
X112273Y-78348D01*
X104888Y-65556D01*
X94444Y-55112D01*
X81652Y-47727D01*
X67385Y-43904D01*
X52615Y-43904D01*
X38348Y-47727D01*
X25556Y-55112D01*
X15112Y-65556D01*
X7727Y-78348D01*
X3904Y-92615D01*
X3904Y-107385D01*
X7727Y-121652D01*
X15112Y-134444D01*
X25556Y-144888D01*
X38348Y-152273D01*
X52615Y-156096D01*
G37*
G36*
X-359050Y-485646D02*
X-352150Y-485646D01*
X-345774Y-483005D01*
X-340895Y-478126D01*
X-338254Y-471750D01*
X-338254Y-464850D01*
X-340895Y-458474D01*
X-345774Y-453595D01*
X-347450Y-452901D01*
X-347848Y-452640D01*
X-348133Y-452223D01*
X-348234Y-451727D01*
X-348234Y-448077D01*
X-348141Y-447601D01*
X-347862Y-447179D01*
X-336655Y-435972D01*
X-335534Y-433265D01*
X-335534Y-397954D01*
X-335459Y-397525D01*
X-335197Y-397093D01*
X-334787Y-396797D01*
X-334294Y-396685D01*
X-333797Y-396773D01*
X-333373Y-397049D01*
X-333091Y-397468D01*
X-330934Y-402676D01*
X-326476Y-407134D01*
X-320652Y-409546D01*
X-314348Y-409546D01*
X-308524Y-407134D01*
X-304066Y-402676D01*
X-303724Y-401850D01*
X-303463Y-401452D01*
X-303046Y-401167D01*
X-302551Y-401066D01*
X-290635Y-401066D01*
X-287928Y-399945D01*
X-264021Y-376038D01*
X-263618Y-375767D01*
X-263123Y-375666D01*
X-146830Y-375666D01*
X-146353Y-375759D01*
X-145932Y-376038D01*
X-145295Y-376674D01*
X-141665Y-378178D01*
X-137735Y-378178D01*
X-134105Y-376674D01*
X-131326Y-373895D01*
X-129822Y-370265D01*
X-129822Y-366335D01*
X-131395Y-362538D01*
X-131446Y-362464D01*
X-131554Y-361970D01*
X-131462Y-361473D01*
X-131407Y-361391D01*
X-129822Y-357565D01*
X-129822Y-353635D01*
X-131326Y-350005D01*
X-134105Y-347226D01*
X-137735Y-345722D01*
X-141665Y-345722D01*
X-145295Y-347226D01*
X-145932Y-347862D01*
X-146334Y-348133D01*
X-146830Y-348234D01*
X-268165Y-348234D01*
X-270872Y-349355D01*
X-292267Y-370750D01*
X-292670Y-371021D01*
X-293165Y-371122D01*
X-294065Y-371122D01*
X-297695Y-372626D01*
X-300474Y-375405D01*
X-301978Y-379035D01*
X-301978Y-382965D01*
X-301310Y-384578D01*
X-301214Y-385024D01*
X-301299Y-385522D01*
X-301571Y-385948D01*
X-301988Y-386233D01*
X-302483Y-386334D01*
X-302551Y-386334D01*
X-303018Y-386245D01*
X-303442Y-385969D01*
X-303724Y-385550D01*
X-304066Y-384724D01*
X-306892Y-381898D01*
X-307156Y-381514D01*
X-307264Y-381020D01*
X-307171Y-380523D01*
X-306892Y-380102D01*
X-304066Y-377276D01*
X-301654Y-371452D01*
X-301654Y-365148D01*
X-304066Y-359324D01*
X-308524Y-354866D01*
X-314348Y-352454D01*
X-320652Y-352454D01*
X-326476Y-354866D01*
X-330934Y-359324D01*
X-331276Y-360150D01*
X-331537Y-360548D01*
X-331954Y-360833D01*
X-332449Y-360934D01*
X-334264Y-360934D01*
X-334722Y-360849D01*
X-335148Y-360576D01*
X-335433Y-360159D01*
X-335534Y-359664D01*
X-335534Y-296354D01*
X-335459Y-295925D01*
X-335197Y-295493D01*
X-334787Y-295197D01*
X-334294Y-295085D01*
X-333797Y-295173D01*
X-333373Y-295449D01*
X-333091Y-295868D01*
X-330934Y-301076D01*
X-326476Y-305534D01*
X-320652Y-307946D01*
X-314348Y-307946D01*
X-308524Y-305534D01*
X-304066Y-301076D01*
X-301654Y-295252D01*
X-301654Y-288948D01*
X-304066Y-283124D01*
X-306892Y-280298D01*
X-307156Y-279914D01*
X-307264Y-279420D01*
X-307171Y-278923D01*
X-306892Y-278502D01*
X-304066Y-275676D01*
X-301654Y-269852D01*
X-301654Y-263548D01*
X-304066Y-257724D01*
X-308524Y-253266D01*
X-314348Y-250854D01*
X-320652Y-250854D01*
X-326476Y-253266D01*
X-330934Y-257724D01*
X-331276Y-258550D01*
X-331537Y-258948D01*
X-331954Y-259233D01*
X-332449Y-259334D01*
X-334264Y-259334D01*
X-334722Y-259249D01*
X-335148Y-258976D01*
X-335433Y-258559D01*
X-335534Y-258064D01*
X-335534Y-194754D01*
X-335459Y-194325D01*
X-335197Y-193893D01*
X-334787Y-193597D01*
X-334294Y-193485D01*
X-333797Y-193573D01*
X-333373Y-193849D01*
X-333091Y-194268D01*
X-330934Y-199476D01*
X-326476Y-203934D01*
X-320652Y-206346D01*
X-314348Y-206346D01*
X-308524Y-203934D01*
X-304066Y-199476D01*
X-301654Y-193652D01*
X-301654Y-187348D01*
X-304066Y-181524D01*
X-306892Y-178698D01*
X-307156Y-178314D01*
X-307264Y-177820D01*
X-307171Y-177323D01*
X-306892Y-176902D01*
X-304066Y-174076D01*
X-301654Y-168252D01*
X-301654Y-161948D01*
X-304066Y-156124D01*
X-308524Y-151666D01*
X-314348Y-149254D01*
X-320652Y-149254D01*
X-326476Y-151666D01*
X-330934Y-156124D01*
X-331276Y-156950D01*
X-331537Y-157348D01*
X-331954Y-157633D01*
X-332449Y-157734D01*
X-334264Y-157734D01*
X-334722Y-157649D01*
X-335148Y-157376D01*
X-335433Y-156959D01*
X-335534Y-156464D01*
X-335534Y-93154D01*
X-335459Y-92725D01*
X-335197Y-92293D01*
X-334787Y-91997D01*
X-334294Y-91885D01*
X-333797Y-91973D01*
X-333373Y-92249D01*
X-333091Y-92668D01*
X-330934Y-97876D01*
X-326476Y-102334D01*
X-320652Y-104746D01*
X-314348Y-104746D01*
X-308524Y-102334D01*
X-304066Y-97876D01*
X-301654Y-92052D01*
X-301654Y-85748D01*
X-304066Y-79924D01*
X-306892Y-77098D01*
X-307156Y-76714D01*
X-307264Y-76220D01*
X-307171Y-75723D01*
X-306892Y-75302D01*
X-304066Y-72476D01*
X-301654Y-66652D01*
X-301654Y-60348D01*
X-304066Y-54524D01*
X-308524Y-50066D01*
X-314348Y-47654D01*
X-320652Y-47654D01*
X-326476Y-50066D01*
X-330934Y-54524D01*
X-331276Y-55350D01*
X-331537Y-55748D01*
X-331954Y-56033D01*
X-332449Y-56134D01*
X-353351Y-56134D01*
X-353818Y-56045D01*
X-354242Y-55769D01*
X-354524Y-55350D01*
X-354866Y-54524D01*
X-359324Y-50066D01*
X-365148Y-47654D01*
X-371452Y-47654D01*
X-377276Y-50066D01*
X-381734Y-54524D01*
X-384146Y-60348D01*
X-384146Y-66652D01*
X-381734Y-72476D01*
X-378908Y-75302D01*
X-378644Y-75686D01*
X-378536Y-76180D01*
X-378629Y-76677D01*
X-378908Y-77098D01*
X-381734Y-79924D01*
X-384146Y-85748D01*
X-384146Y-92052D01*
X-381734Y-97876D01*
X-377276Y-102334D01*
X-371452Y-104746D01*
X-365148Y-104746D01*
X-359324Y-102334D01*
X-354866Y-97876D01*
X-352709Y-92668D01*
X-352476Y-92300D01*
X-352068Y-92001D01*
X-351576Y-91885D01*
X-351078Y-91970D01*
X-350652Y-92242D01*
X-350367Y-92659D01*
X-350266Y-93154D01*
X-350266Y-156464D01*
X-350351Y-156922D01*
X-350624Y-157348D01*
X-351041Y-157633D01*
X-351536Y-157734D01*
X-353351Y-157734D01*
X-353818Y-157645D01*
X-354242Y-157369D01*
X-354524Y-156950D01*
X-354866Y-156124D01*
X-359324Y-151666D01*
X-365148Y-149254D01*
X-371452Y-149254D01*
X-377276Y-151666D01*
X-381734Y-156124D01*
X-384146Y-161948D01*
X-384146Y-168252D01*
X-381734Y-174076D01*
X-378908Y-176902D01*
X-378644Y-177286D01*
X-378536Y-177780D01*
X-378629Y-178277D01*
X-378908Y-178698D01*
X-381734Y-181524D01*
X-384146Y-187348D01*
X-384146Y-193652D01*
X-381734Y-199476D01*
X-377276Y-203934D01*
X-371452Y-206346D01*
X-365148Y-206346D01*
X-359324Y-203934D01*
X-354866Y-199476D01*
X-352709Y-194268D01*
X-352476Y-193900D01*
X-352068Y-193601D01*
X-351576Y-193485D01*
X-351078Y-193570D01*
X-350652Y-193842D01*
X-350367Y-194259D01*
X-350266Y-194754D01*
X-350266Y-258064D01*
X-350351Y-258522D01*
X-350624Y-258948D01*
X-351041Y-259233D01*
X-351536Y-259334D01*
X-353351Y-259334D01*
X-353818Y-259245D01*
X-354242Y-258969D01*
X-354524Y-258550D01*
X-354866Y-257724D01*
X-359324Y-253266D01*
X-365148Y-250854D01*
X-371452Y-250854D01*
X-377276Y-253266D01*
X-381734Y-257724D01*
X-384146Y-263548D01*
X-384146Y-269852D01*
X-381734Y-275676D01*
X-378908Y-278502D01*
X-378644Y-278886D01*
X-378536Y-279380D01*
X-378629Y-279877D01*
X-378908Y-280298D01*
X-381734Y-283124D01*
X-384146Y-288948D01*
X-384146Y-295252D01*
X-381734Y-301076D01*
X-377276Y-305534D01*
X-371452Y-307946D01*
X-365148Y-307946D01*
X-359324Y-305534D01*
X-354866Y-301076D01*
X-352709Y-295868D01*
X-352476Y-295500D01*
X-352068Y-295201D01*
X-351576Y-295085D01*
X-351078Y-295170D01*
X-350652Y-295442D01*
X-350367Y-295859D01*
X-350266Y-296354D01*
X-350266Y-359664D01*
X-350351Y-360122D01*
X-350624Y-360548D01*
X-351041Y-360833D01*
X-351536Y-360934D01*
X-353351Y-360934D01*
X-353818Y-360845D01*
X-354242Y-360569D01*
X-354524Y-360150D01*
X-354866Y-359324D01*
X-359324Y-354866D01*
X-365148Y-352454D01*
X-371452Y-352454D01*
X-377276Y-354866D01*
X-381734Y-359324D01*
X-384146Y-365148D01*
X-384146Y-371452D01*
X-381734Y-377276D01*
X-378908Y-380102D01*
X-378644Y-380486D01*
X-378536Y-380980D01*
X-378629Y-381477D01*
X-378908Y-381898D01*
X-381734Y-384724D01*
X-384146Y-390548D01*
X-384146Y-396852D01*
X-381734Y-402676D01*
X-377276Y-407134D01*
X-371452Y-409546D01*
X-365148Y-409546D01*
X-359324Y-407134D01*
X-354866Y-402676D01*
X-352709Y-397468D01*
X-352476Y-397100D01*
X-352068Y-396801D01*
X-351576Y-396685D01*
X-351078Y-396770D01*
X-350652Y-397042D01*
X-350367Y-397459D01*
X-350266Y-397954D01*
X-350266Y-428223D01*
X-350359Y-428699D01*
X-350638Y-429121D01*
X-361845Y-440328D01*
X-362966Y-443035D01*
X-362966Y-451727D01*
X-363055Y-452195D01*
X-363331Y-452618D01*
X-363750Y-452901D01*
X-365426Y-453595D01*
X-370305Y-458474D01*
X-372946Y-464850D01*
X-372946Y-471750D01*
X-370305Y-478126D01*
X-365426Y-483005D01*
X-359050Y-485646D01*
G37*
G36*
X-4434Y-213676D02*
X4434Y-213676D01*
X12998Y-211381D01*
X20678Y-206948D01*
X26948Y-200678D01*
X31381Y-192998D01*
X33676Y-184434D01*
X33676Y-175566D01*
X31381Y-167002D01*
X26948Y-159323D01*
X20678Y-153052D01*
X12998Y-148619D01*
X4434Y-146324D01*
X-4434Y-146324D01*
X-12998Y-148619D01*
X-20678Y-153052D01*
X-26948Y-159323D01*
X-31381Y-167002D01*
X-33676Y-175566D01*
X-33676Y-184434D01*
X-31381Y-192998D01*
X-26948Y-200678D01*
X-20678Y-206948D01*
X-12998Y-211381D01*
X-4434Y-213676D01*
G37*
G36*
X-155850Y-282446D02*
X-148950Y-282446D01*
X-142574Y-279805D01*
X-137695Y-274926D01*
X-135054Y-268550D01*
X-135054Y-261650D01*
X-137695Y-255274D01*
X-142574Y-250395D01*
X-148950Y-247754D01*
X-155850Y-247754D01*
X-162226Y-250395D01*
X-167105Y-255274D01*
X-169746Y-261650D01*
X-169746Y-268550D01*
X-167105Y-274926D01*
X-162226Y-279805D01*
X-155850Y-282446D01*
G37*
G36*
X-282850Y-282446D02*
X-275950Y-282446D01*
X-269574Y-279805D01*
X-264695Y-274926D01*
X-262054Y-268550D01*
X-262054Y-261650D01*
X-264695Y-255274D01*
X-269574Y-250395D01*
X-275950Y-247754D01*
X-282850Y-247754D01*
X-289226Y-250395D01*
X-294105Y-255274D01*
X-296746Y-261650D01*
X-296746Y-268550D01*
X-294105Y-274926D01*
X-289226Y-279805D01*
X-282850Y-282446D01*
G37*
G36*
X52615Y-426096D02*
X67385Y-426096D01*
X81652Y-422273D01*
X94444Y-414888D01*
X104888Y-404444D01*
X112273Y-391652D01*
X116096Y-377385D01*
X116096Y-362615D01*
X112273Y-348348D01*
X104888Y-335556D01*
X94444Y-325112D01*
X81652Y-317727D01*
X67385Y-313904D01*
X52615Y-313904D01*
X38348Y-317727D01*
X25556Y-325112D01*
X15112Y-335556D01*
X7727Y-348348D01*
X3904Y-362615D01*
X3904Y-377385D01*
X7727Y-391652D01*
X15112Y-404444D01*
X25556Y-414888D01*
X38348Y-422273D01*
X52615Y-426096D01*
G37*
G36*
X-4434Y-483676D02*
X4434Y-483676D01*
X12998Y-481381D01*
X20678Y-476948D01*
X26948Y-470678D01*
X31381Y-462998D01*
X33676Y-454434D01*
X33676Y-445566D01*
X31381Y-437002D01*
X26948Y-429323D01*
X20678Y-423052D01*
X12998Y-418619D01*
X4434Y-416324D01*
X-4434Y-416324D01*
X-12998Y-418619D01*
X-20678Y-423052D01*
X-26948Y-429323D01*
X-31381Y-437002D01*
X-33676Y-445566D01*
X-33676Y-454434D01*
X-31381Y-462998D01*
X-26948Y-470678D01*
X-20678Y-476948D01*
X-12998Y-481381D01*
X-4434Y-483676D01*
G37*
G36*
X-257450Y-485646D02*
X-250550Y-485646D01*
X-244174Y-483005D01*
X-239295Y-478126D01*
X-236654Y-471750D01*
X-236654Y-464850D01*
X-239295Y-458474D01*
X-244174Y-453595D01*
X-250550Y-450954D01*
X-257450Y-450954D01*
X-263826Y-453595D01*
X-268705Y-458474D01*
X-271346Y-464850D01*
X-271346Y-471750D01*
X-268705Y-478126D01*
X-263826Y-483005D01*
X-257450Y-485646D01*
G37*
G36*
X-219052Y-485746D02*
X-212748Y-485746D01*
X-206924Y-483334D01*
X-202466Y-478876D01*
X-200054Y-473052D01*
X-200054Y-466748D01*
X-202466Y-460924D01*
X-206924Y-456466D01*
X-212748Y-454054D01*
X-219052Y-454054D01*
X-224876Y-456466D01*
X-229334Y-460924D01*
X-231746Y-466748D01*
X-231746Y-473052D01*
X-229334Y-478876D01*
X-224876Y-483334D01*
X-219052Y-485746D01*
G37*
%LPD*%
G36*
X228582Y-50740D02*
X228284Y-50800D01*
X127762Y-50800D01*
X127487Y-50749D01*
X127232Y-50585D01*
X127060Y-50335D01*
X127000Y-50038D01*
X127000Y25084D01*
X127056Y25370D01*
X127223Y25623D01*
X241077Y139477D01*
X241318Y139640D01*
X241616Y139700D01*
X418338Y139700D01*
X418613Y139649D01*
X418868Y139485D01*
X419040Y139235D01*
X419100Y138938D01*
X419100Y76516D01*
X419044Y76230D01*
X418877Y75977D01*
X305023Y-37877D01*
X304782Y-38040D01*
X304484Y-38100D01*
X241388Y-38100D01*
X241283Y-38125D01*
X241256Y-38144D01*
X228823Y-50577D01*
X228582Y-50740D01*
G37*
%LPC*%
G36*
X265442Y82578D02*
X267958Y82578D01*
X270281Y83540D01*
X271607Y84867D01*
X271849Y85030D01*
X272146Y85090D01*
X286654Y85090D01*
X286940Y85034D01*
X287193Y84867D01*
X288519Y83540D01*
X290842Y82578D01*
X293358Y82578D01*
X295681Y83540D01*
X297460Y85319D01*
X298422Y87642D01*
X298422Y90158D01*
X297460Y92481D01*
X295681Y94260D01*
X293358Y95222D01*
X290842Y95222D01*
X288519Y94260D01*
X287193Y92933D01*
X286951Y92770D01*
X286654Y92710D01*
X272146Y92710D01*
X271860Y92766D01*
X271607Y92933D01*
X270281Y94260D01*
X267958Y95222D01*
X265442Y95222D01*
X263119Y94260D01*
X261340Y92481D01*
X260378Y90158D01*
X260378Y87642D01*
X261340Y85319D01*
X263119Y83540D01*
X265442Y82578D01*
G37*
%LPD*%
G36*
X-203665Y25460D02*
X-203962Y25400D01*
X-436489Y25400D01*
X-436757Y25449D01*
X-456706Y32929D01*
X-456968Y33095D01*
X-457140Y33346D01*
X-457200Y33643D01*
X-457200Y151638D01*
X-457149Y151913D01*
X-456985Y152168D01*
X-456735Y152340D01*
X-456438Y152400D01*
X-203962Y152400D01*
X-203687Y152349D01*
X-203432Y152185D01*
X-203260Y151935D01*
X-203200Y151638D01*
X-203200Y26162D01*
X-203251Y25887D01*
X-203415Y25632D01*
X-203665Y25460D01*
G37*
G36*
X-571965Y977960D02*
X-572262Y977900D01*
X-659638Y977900D01*
X-659913Y977951D01*
X-660168Y978115D01*
X-660340Y978365D01*
X-660400Y978662D01*
X-660400Y1066038D01*
X-660349Y1066313D01*
X-660185Y1066568D01*
X-659935Y1066740D01*
X-659638Y1066800D01*
X-572262Y1066800D01*
X-571987Y1066749D01*
X-571732Y1066585D01*
X-571560Y1066335D01*
X-571500Y1066038D01*
X-571500Y978662D01*
X-571551Y978387D01*
X-571715Y978132D01*
X-571965Y977960D01*
G37*
G36*
X-635465Y495360D02*
X-635762Y495300D01*
X-723138Y495300D01*
X-723413Y495351D01*
X-723668Y495515D01*
X-723840Y495765D01*
X-723900Y496062D01*
X-723900Y570738D01*
X-723849Y571013D01*
X-723685Y571268D01*
X-723435Y571440D01*
X-723138Y571500D01*
X-635762Y571500D01*
X-635487Y571449D01*
X-635232Y571285D01*
X-635060Y571035D01*
X-635000Y570738D01*
X-635000Y496062D01*
X-635051Y495787D01*
X-635215Y495532D01*
X-635465Y495360D01*
G37*
G36*
X50335Y1371660D02*
X50038Y1371600D01*
X-37338Y1371600D01*
X-37613Y1371651D01*
X-37868Y1371815D01*
X-38040Y1372065D01*
X-38100Y1372362D01*
X-38100Y1447038D01*
X-38049Y1447313D01*
X-37885Y1447568D01*
X-37635Y1447740D01*
X-37338Y1447800D01*
X50038Y1447800D01*
X50313Y1447749D01*
X50568Y1447585D01*
X50740Y1447335D01*
X50800Y1447038D01*
X50800Y1372362D01*
X50749Y1372087D01*
X50585Y1371832D01*
X50335Y1371660D01*
G37*
G36*
X736135Y571560D02*
X735838Y571500D01*
X648462Y571500D01*
X648187Y571551D01*
X647932Y571715D01*
X647760Y571965D01*
X647700Y572262D01*
X647700Y621538D01*
X647751Y621813D01*
X647915Y622068D01*
X648165Y622240D01*
X648462Y622300D01*
X735838Y622300D01*
X736113Y622249D01*
X736368Y622085D01*
X736540Y621835D01*
X736600Y621538D01*
X736600Y572262D01*
X736549Y571987D01*
X736385Y571732D01*
X736135Y571560D01*
G37*
G36*
X59627Y343403D02*
X57150Y342900D01*
X6350Y342900D01*
X4061Y343327D01*
X1932Y344689D01*
X503Y346773D01*
X0Y349250D01*
X0Y425450D01*
X427Y427739D01*
X1789Y429868D01*
X3873Y431297D01*
X6350Y431800D01*
X57150Y431800D01*
X59439Y431373D01*
X61568Y430011D01*
X62997Y427927D01*
X63500Y425450D01*
X63500Y398802D01*
X63091Y396560D01*
X61746Y394420D01*
X59673Y392974D01*
X57201Y392452D01*
X54720Y392935D01*
X54099Y393192D01*
X32769Y393192D01*
X31835Y392805D01*
X31121Y392091D01*
X30734Y391157D01*
X30734Y383543D01*
X31121Y382609D01*
X31835Y381895D01*
X32769Y381508D01*
X54099Y381508D01*
X54720Y381765D01*
X56948Y382245D01*
X59439Y381822D01*
X61568Y380460D01*
X62997Y378375D01*
X63500Y375898D01*
X63500Y349250D01*
X63073Y346961D01*
X61711Y344832D01*
X59627Y343403D01*
G37*
D10*
X163830Y241300D03*
X138430Y241300D03*
X166370Y266700D03*
X140970Y266700D03*
X163830Y292100D03*
X138430Y292100D03*
D11*
X379730Y-363220D03*
X379730Y-322580D03*
D12*
X-368300Y-165100D03*
X-368300Y-190500D03*
X-368300Y-215900D03*
X-368300Y-368300D03*
X-368300Y-393700D03*
X-368300Y-419100D03*
X-317500Y-165100D03*
X-317500Y-190500D03*
X-317500Y-215900D03*
X-368300Y-266700D03*
X-368300Y-292100D03*
X-368300Y-317500D03*
X-215900Y-469900D03*
X-190500Y-469900D03*
D13*
X-279400Y-265100D03*
X-228600Y-265100D03*
X-152400Y-265100D03*
X-152400Y-468300D03*
X-254000Y-468300D03*
X-355600Y-468300D03*
D12*
X-317500Y-266700D03*
X-317500Y-292100D03*
X-317500Y-317500D03*
X-368300Y-63500D03*
X-368300Y-88900D03*
X-368300Y-114300D03*
X-317500Y-63500D03*
X-317500Y-88900D03*
X-317500Y-114300D03*
X-317500Y-368300D03*
X-317500Y-393700D03*
X-317500Y-419100D03*
D14*
X362500Y-170200D02*
X380500Y-170200D01*
X380500Y-83800D02*
X362500Y-83800D01*
X400500Y-170200D02*
X418500Y-170200D01*
X418500Y-83800D02*
X400500Y-83800D01*
D15*
X660400Y1460500D03*
D16*
X638410Y1460500D03*
D17*
X609600Y1223495D03*
X609600Y1164105D03*
D15*
X622300Y1371600D03*
D16*
X600310Y1371600D03*
D15*
X673100Y1270000D03*
D16*
X651110Y1270000D03*
D17*
X673100Y1049805D03*
X673100Y1109195D03*
D15*
X698500Y1168400D03*
D16*
X676510Y1168400D03*
D15*
X558800Y1270000D03*
D16*
X580790Y1270000D03*
D17*
X609600Y1049805D03*
X609600Y1109195D03*
D15*
X533400Y1168400D03*
D16*
X555390Y1168400D03*
D15*
X787400Y1028700D03*
D16*
X765410Y1028700D03*
D17*
X723900Y677395D03*
X723900Y618005D03*
D15*
X698500Y901700D03*
D16*
X676510Y901700D03*
D15*
X533400Y1028700D03*
D16*
X555390Y1028700D03*
D17*
X660400Y677395D03*
X660400Y618005D03*
D15*
X571500Y901700D03*
D16*
X593490Y901700D03*
D15*
X736600Y774700D03*
D16*
X714610Y774700D03*
D17*
X723900Y516405D03*
X723900Y575795D03*
D15*
X787400Y647700D03*
D16*
X765410Y647700D03*
D15*
X609600Y762000D03*
D16*
X587610Y762000D03*
D17*
X660400Y516405D03*
X660400Y575795D03*
D15*
X622300Y647700D03*
D16*
X600310Y647700D03*
D15*
X812800Y546100D03*
D16*
X790810Y546100D03*
D17*
X723900Y474195D03*
X723900Y414805D03*
D15*
X812800Y444500D03*
D16*
X790810Y444500D03*
D15*
X508000Y444500D03*
D16*
X529990Y444500D03*
D17*
X660400Y474195D03*
X660400Y414805D03*
D15*
X558800Y495300D03*
D16*
X580790Y495300D03*
D15*
X711200Y203200D03*
D16*
X689210Y203200D03*
D17*
X660400Y325905D03*
X660400Y385295D03*
D15*
X787400Y317500D03*
D16*
X765410Y317500D03*
D15*
X-203200Y419100D03*
D16*
X-181210Y419100D03*
D17*
X-25400Y524995D03*
X-25400Y465605D03*
D15*
X-127000Y520700D03*
D16*
X-105010Y520700D03*
D15*
X457200Y50800D03*
D16*
X479190Y50800D03*
D17*
X596900Y325905D03*
X596900Y385295D03*
D15*
X596900Y127000D03*
D16*
X618890Y127000D03*
D15*
X25400Y1905000D03*
D16*
X3410Y1905000D03*
D17*
X38100Y1591795D03*
X38100Y1532405D03*
D15*
X-25400Y1790700D03*
D16*
X-3410Y1790700D03*
D15*
X50800Y1790700D03*
D16*
X28810Y1790700D03*
D17*
X38100Y1490195D03*
X38100Y1430805D03*
D15*
X38100Y1689100D03*
D16*
X60090Y1689100D03*
D15*
X114300Y1587500D03*
D16*
X92310Y1587500D03*
D17*
X38100Y1329205D03*
X38100Y1388595D03*
D15*
X139700Y1498600D03*
D16*
X117710Y1498600D03*
D15*
X-63500Y1689100D03*
D16*
X-41510Y1689100D03*
D17*
X-25400Y1591795D03*
X-25400Y1532405D03*
D15*
X-88900Y1587500D03*
D16*
X-66910Y1587500D03*
D15*
X-177800Y1409700D03*
D16*
X-155810Y1409700D03*
D17*
X-25400Y1490195D03*
X-25400Y1430805D03*
D15*
X-127000Y1498600D03*
D16*
X-105010Y1498600D03*
D15*
X-63500Y1143000D03*
D16*
X-41510Y1143000D03*
D17*
X-25400Y1329205D03*
X-25400Y1388595D03*
D15*
X-63500Y1270000D03*
D16*
X-41510Y1270000D03*
D15*
X190500Y1409700D03*
D16*
X168510Y1409700D03*
D17*
X38100Y1236195D03*
X38100Y1176805D03*
D15*
X76200Y1270000D03*
D16*
X54210Y1270000D03*
D15*
X63500Y1143000D03*
D16*
X41510Y1143000D03*
D17*
X38100Y982195D03*
X38100Y922805D03*
D15*
X63500Y1016000D03*
D16*
X41510Y1016000D03*
D18*
X43434Y425450D03*
X-18034Y425450D03*
X43434Y412750D03*
X43434Y400050D03*
X-18034Y412750D03*
X-18034Y400050D03*
X43434Y387350D03*
X-18034Y387350D03*
D19*
X98095Y381000D03*
X79705Y381000D03*
D15*
X-63500Y1016000D03*
D16*
X-41510Y1016000D03*
D17*
X-25400Y728195D03*
X-25400Y668805D03*
D15*
X-38100Y889000D03*
D16*
X-60090Y889000D03*
D15*
X76200Y889000D03*
D16*
X54210Y889000D03*
D17*
X50800Y728195D03*
X50800Y668805D03*
D15*
X88900Y774700D03*
D16*
X66910Y774700D03*
D15*
X-85090Y774700D03*
D16*
X-63100Y774700D03*
D17*
X-25400Y626595D03*
X-25400Y567205D03*
D15*
X-101600Y635000D03*
D16*
X-79610Y635000D03*
D15*
X152400Y520700D03*
D16*
X130410Y520700D03*
D17*
X50800Y626595D03*
X50800Y567205D03*
D15*
X114300Y635000D03*
D16*
X92310Y635000D03*
D15*
X368300Y355600D03*
D16*
X346310Y355600D03*
D17*
X50800Y524995D03*
X50800Y465605D03*
D15*
X215900Y419100D03*
D16*
X193910Y419100D03*
D15*
X-647700Y1435100D03*
D16*
X-625710Y1435100D03*
D17*
X-596900Y1223495D03*
X-596900Y1164105D03*
D15*
X-622300Y1384300D03*
D16*
X-600310Y1384300D03*
D15*
X-622300Y1295400D03*
D16*
X-644290Y1295400D03*
D17*
X-647700Y1109195D03*
X-647700Y1049805D03*
D15*
X-660400Y1193800D03*
D16*
X-638410Y1193800D03*
D15*
X-546100Y1295400D03*
D16*
X-568090Y1295400D03*
D17*
X-584200Y1109195D03*
X-584200Y1049805D03*
D15*
X-533400Y1193800D03*
D16*
X-555390Y1193800D03*
D15*
X-711200Y1117600D03*
D16*
X-689210Y1117600D03*
D17*
X-647700Y935505D03*
X-647700Y994895D03*
D15*
X-736600Y1041400D03*
D16*
X-714610Y1041400D03*
D15*
X-508000Y1117600D03*
D16*
X-529990Y1117600D03*
D17*
X-584200Y935505D03*
X-584200Y994895D03*
D15*
X-508000Y1028700D03*
D16*
X-529990Y1028700D03*
D15*
X-698500Y876300D03*
D16*
X-676510Y876300D03*
D17*
X-711200Y613895D03*
X-711200Y554505D03*
D15*
X-723900Y762000D03*
D16*
X-701910Y762000D03*
D15*
X-558800Y876300D03*
D16*
X-580790Y876300D03*
D17*
X-647700Y613895D03*
X-647700Y554505D03*
D15*
X-571500Y762000D03*
D16*
X-593490Y762000D03*
D15*
X-749300Y660400D03*
D16*
X-771290Y660400D03*
D17*
X-711200Y452905D03*
X-711200Y512295D03*
D15*
X-800100Y533400D03*
D16*
X-778110Y533400D03*
D15*
X-571500Y660400D03*
D16*
X-593490Y660400D03*
D17*
X-647700Y452905D03*
X-647700Y512295D03*
D15*
X-558800Y533400D03*
D16*
X-580790Y533400D03*
D15*
X-800100Y419100D03*
D16*
X-778110Y419100D03*
D17*
X-711200Y351305D03*
X-711200Y410695D03*
D15*
X-749300Y292100D03*
D16*
X-727310Y292100D03*
D15*
X-520700Y88900D03*
D16*
X-542690Y88900D03*
D17*
X-647700Y351305D03*
X-647700Y410695D03*
D15*
X-647700Y190500D03*
D16*
X-669690Y190500D03*
D18*
X-553466Y311150D03*
X-614934Y311150D03*
X-553466Y298450D03*
X-553466Y285750D03*
X-614934Y298450D03*
X-614934Y285750D03*
X-553466Y273050D03*
X-614934Y273050D03*
D19*
X-498805Y266700D03*
X-517195Y266700D03*
D18*
X477266Y323850D03*
X538734Y323850D03*
X477266Y336550D03*
X477266Y349250D03*
X538734Y336550D03*
X538734Y349250D03*
X477266Y361950D03*
X538734Y361950D03*
D19*
X422605Y355600D03*
X440995Y355600D03*
D15*
X-330200Y355600D03*
D16*
X-352190Y355600D03*
D17*
X-584200Y351305D03*
X-584200Y410695D03*
D15*
X-482600Y419100D03*
D16*
X-504590Y419100D03*
D20*
X-50800Y342900D03*
X101600Y317500D03*
X165100Y101600D03*
X355600Y-25400D03*
X152400Y177800D03*
X101600Y165100D03*
X63500Y88900D03*
X-63500Y63500D03*
X-12700Y101600D03*
X25400Y330200D03*
X-25400Y215900D03*
X25400Y215900D03*
X-127000Y215900D03*
X508000Y304800D03*
X38100Y355600D03*
X-50800Y279400D03*
D21*
X12700Y342900D02*
X25400Y330200D01*
D20*
X469900Y304800D03*
D21*
X477266Y323850D02*
X477266Y349250D01*
D20*
X495300Y304800D03*
X482600Y304800D03*
X-584200Y292100D03*
X-584200Y266700D03*
X-546100Y254000D03*
X-584200Y254000D03*
X-584200Y279400D03*
X-571500Y254000D03*
X-558800Y254000D03*
X25400Y355600D03*
X12700Y355600D03*
X50800Y355600D03*
D21*
X-355600Y-444500D02*
X-355600Y-468300D01*
X-355600Y-444500D02*
X-342900Y-431800D01*
X-342900Y-368300D01*
X-317500Y-368300D01*
X-342900Y-368300D02*
X-368300Y-368300D01*
X-342900Y-368300D02*
X-342900Y-266700D01*
X-317500Y-266700D01*
X-342900Y-266700D02*
X-368300Y-266700D01*
X-342900Y-266700D02*
X-342900Y-165100D01*
X-317500Y-165100D01*
X-342900Y-165100D02*
X-368300Y-165100D01*
X-342900Y-165100D02*
X-342900Y-63500D01*
X-317500Y-63500D01*
X-342900Y-63500D02*
X-368300Y-63500D01*
D20*
X12700Y177800D03*
D22*
X-25400Y139700D01*
D20*
X-114300Y139700D03*
D22*
X-25400Y139700D01*
D21*
X50800Y203200D02*
X100330Y203200D01*
D20*
X50800Y203200D03*
X100330Y203200D03*
D21*
X138430Y241300D01*
D20*
X-76200Y241300D03*
D21*
X-76200Y215900D01*
D20*
X-76200Y215900D03*
X-76200Y317500D03*
D21*
X-76200Y241300D01*
D20*
X-152400Y228600D03*
D21*
X-152400Y76200D01*
D20*
X-152400Y76200D03*
X292100Y-330200D03*
D21*
X317500Y-330200D01*
D20*
X317500Y-330200D03*
X-165100Y228600D03*
D21*
X-165100Y76200D01*
D20*
X-165100Y76200D03*
X292100Y-342900D03*
D21*
X312420Y-363220D01*
X379730Y-363220D01*
D20*
X292100Y88900D03*
D21*
X266700Y88900D01*
D20*
X266700Y88900D03*
X-139700Y-355600D03*
D21*
X-266700Y-355600D01*
X-292100Y-381000D01*
D20*
X-292100Y-381000D03*
X-215900Y114300D03*
X-215900Y88900D03*
X-215900Y63500D03*
X-215900Y38100D03*
X-241300Y38100D03*
X-241300Y63500D03*
X-241300Y88900D03*
X-266700Y88900D03*
X-266700Y63500D03*
X-266700Y38100D03*
X-368300Y38100D03*
X-393700Y38100D03*
X-419100Y38100D03*
X-419100Y63500D03*
X-393700Y63500D03*
X-368300Y63500D03*
X-368300Y88900D03*
X-393700Y88900D03*
X-419100Y88900D03*
X-368300Y114300D03*
X-393700Y114300D03*
X-419100Y114300D03*
X-444500Y114300D03*
X-444500Y88900D03*
X-444500Y63500D03*
X-444500Y38100D03*
X-368300Y139700D03*
X-393700Y139700D03*
X-419100Y139700D03*
X-444500Y139700D03*
X406400Y127000D03*
X406400Y101600D03*
X381000Y127000D03*
X355600Y127000D03*
X330200Y127000D03*
X330200Y101600D03*
X355600Y101600D03*
X381000Y101600D03*
X381000Y76200D03*
X355600Y76200D03*
X330200Y76200D03*
X330200Y50800D03*
X355600Y50800D03*
X330200Y25400D03*
X139700Y-38100D03*
X139700Y-12700D03*
X139700Y12700D03*
X165100Y12700D03*
X165100Y-12700D03*
X165100Y-38100D03*
X190500Y-38100D03*
X190500Y-12700D03*
X190500Y12700D03*
X215900Y-12700D03*
X215900Y-38100D03*
D21*
X-330200Y355600D02*
X-330200Y368300D01*
X-317500Y381000D01*
X-215900Y381000D01*
X-203200Y393700D01*
X-203200Y419100D01*
X-444500Y88900D02*
X-520700Y88900D01*
D20*
X-520700Y482600D03*
X-571500Y622300D03*
X-571500Y723900D03*
X-558800Y838200D03*
X-546100Y927100D03*
X-546100Y1079500D03*
X-520700Y1168400D03*
X-533400Y1257300D03*
X-571500Y1346200D03*
X-596900Y1422400D03*
X-647700Y1384300D03*
X-685800Y1155700D03*
X-774700Y1028700D03*
X-685800Y927100D03*
X-685800Y800100D03*
X-723900Y660400D03*
X-787400Y622300D03*
X-749300Y393700D03*
X-419100Y381000D03*
X-177800Y381000D03*
X-152400Y482600D03*
X-101600Y584200D03*
X-88900Y723900D03*
X-76200Y838200D03*
X-63500Y965200D03*
X-50800Y1092200D03*
X-101600Y1333500D03*
X-139700Y1384300D03*
X-101600Y1549400D03*
X-76200Y1663700D03*
X-38100Y1752600D03*
X12700Y1955800D03*
X63500Y1765300D03*
X88900Y1638300D03*
X152400Y1460500D03*
X101600Y1295400D03*
X38100Y1308100D03*
X76200Y1206500D03*
X76200Y1092200D03*
X76200Y965200D03*
X88900Y825500D03*
X101600Y723900D03*
X127000Y596900D03*
X165100Y495300D03*
X152400Y457200D03*
X292100Y381000D03*
X444500Y393700D03*
X584200Y444500D03*
X571500Y558800D03*
X622300Y711200D03*
X571500Y863600D03*
X533400Y990600D03*
X533400Y1117600D03*
X546100Y1244600D03*
X571500Y1206500D03*
X584200Y1333500D03*
X609600Y1422400D03*
X660400Y1511300D03*
X660400Y1397000D03*
X685800Y1244600D03*
X647700Y1206500D03*
X723900Y1130300D03*
X762000Y1066800D03*
X812800Y1016000D03*
X685800Y1016000D03*
X711200Y863600D03*
X762000Y736600D03*
X800100Y609600D03*
X774700Y495300D03*
X723900Y381000D03*
D21*
X457200Y50800D02*
X406400Y50800D01*
X381000Y76200D01*
X368300Y355600D02*
X368300Y368300D01*
X381000Y381000D01*
X444500Y381000D01*
X508000Y444500D01*
X711200Y203200D02*
X711200Y190500D01*
X698500Y177800D01*
X685800Y177800D01*
D20*
X685800Y177800D03*
X-139700Y-368300D03*
D21*
X-266700Y-368300D01*
X-292100Y-393700D01*
X-317500Y-393700D01*
D23*
X0Y-180000D03*
X0Y-450000D03*
D24*
X60000Y-370000D03*
X60000Y-100000D03*
D25*
X-630000Y1340000D03*
X30000Y1850000D03*
X640000Y1330000D03*
X800000Y390000D03*
X490000Y230000D03*
X-450000Y230000D03*
X-730000Y710000D03*
X-780000Y470000D03*
X110000Y1372700D03*
X-90000Y420000D03*
D21*
X638410Y1413110D02*
X638410Y1460500D01*
X638410Y1413110D02*
X622300Y1397000D01*
X622300Y1371600D01*
X698500Y1193800D02*
X698500Y1168400D01*
X698500Y1193800D02*
X651110Y1241190D01*
X651110Y1270000D01*
X533400Y1206500D02*
X533400Y1168400D01*
X533400Y1206500D02*
X580790Y1253890D01*
X580790Y1270000D01*
X736600Y1028700D02*
X765410Y1028700D01*
X736600Y1028700D02*
X698500Y990600D01*
X698500Y901700D01*
X571500Y901700D02*
X571500Y977900D01*
X555390Y994010D01*
X555390Y1028700D01*
X714610Y774700D02*
X714610Y745890D01*
X787400Y673100D01*
X787400Y647700D01*
X622300Y647700D02*
X622300Y673100D01*
X587610Y707790D01*
X587610Y762000D01*
X812800Y495300D02*
X812800Y444500D01*
X812800Y495300D02*
X790810Y517290D01*
X790810Y546100D01*
X529990Y479190D02*
X529990Y444500D01*
X529990Y479190D02*
X546100Y495300D01*
X558800Y495300D01*
X689210Y232010D02*
X689210Y203200D01*
X689210Y232010D02*
X698500Y241300D01*
X736600Y241300D01*
X774700Y279400D01*
X774700Y292100D01*
X787400Y304800D01*
X787400Y317500D01*
X479190Y72790D02*
X479190Y50800D01*
X479190Y72790D02*
X533400Y127000D01*
X596900Y127000D01*
X-25400Y1790700D02*
X-25400Y1828800D01*
X-12700Y1841500D01*
X-12700Y1866900D01*
X3410Y1883010D01*
X3410Y1905000D01*
X28810Y1790700D02*
X28810Y1749190D01*
X38100Y1739900D01*
X38100Y1689100D01*
X92310Y1574800D02*
X92310Y1571390D01*
X92310Y1574800D02*
X92310Y1587500D01*
X139700Y1511300D02*
X139700Y1498600D01*
X139700Y1511300D02*
X92310Y1558690D01*
X92310Y1571390D01*
X-60090Y1654410D02*
X-63500Y1651000D01*
X-88900Y1625600D01*
X-88900Y1587500D01*
X-60090Y1654410D02*
X-41510Y1672990D01*
X-41510Y1689100D01*
X-155810Y1444390D02*
X-155810Y1409700D01*
X-155810Y1444390D02*
X-127000Y1473200D01*
X-127000Y1498600D01*
X-63500Y1270000D02*
X-63500Y1231900D01*
X-38100Y1206500D01*
X-38100Y1143000D01*
X-41510Y1143000D01*
X76200Y1270000D02*
X76200Y1295400D01*
X168510Y1387710D01*
X168510Y1409700D01*
X63500Y1079500D02*
X63500Y1016000D01*
X63500Y1079500D02*
X41510Y1101490D01*
X41510Y1143000D01*
D22*
X38100Y1532405D02*
X0Y1532405D01*
X-25400Y1532405D01*
X0Y1532405D02*
X6350Y1526055D01*
X6350Y1416050D01*
X12700Y1409700D01*
X6350Y1403350D02*
X0Y1397000D01*
X12700Y668805D02*
X-25400Y668805D01*
X12700Y668805D02*
X12700Y863600D01*
X0Y876300D01*
X0Y927100D01*
X0Y1181100D01*
X0Y1291590D01*
X6350Y1297940D01*
X6350Y1403350D01*
X12700Y1409700D01*
X4295Y922805D02*
X38100Y922805D01*
X4295Y922805D02*
X0Y927100D01*
X12700Y668805D02*
X12700Y567205D01*
X12700Y465605D01*
X12700Y567205D02*
X-25400Y567205D01*
X12700Y465605D02*
X50800Y465605D01*
X12700Y465605D02*
X-12700Y465605D01*
X-25400Y465605D01*
X-18034Y400050D02*
X-18034Y387350D01*
X-18034Y400050D02*
X-18034Y412750D01*
X-18034Y425450D01*
X-18034Y460271D01*
X-12700Y465605D01*
X12700Y668805D02*
X50800Y668805D01*
X50800Y567205D02*
X12700Y567205D01*
X4295Y1176805D02*
X38100Y1176805D01*
X4295Y1176805D02*
X0Y1181100D01*
D21*
X43434Y387350D02*
X73355Y387350D01*
X79705Y381000D01*
X-38100Y889000D02*
X-38100Y1012590D01*
X-41510Y1016000D01*
X54210Y889000D02*
X54210Y822090D01*
X88900Y787400D01*
X88900Y774700D01*
X-63100Y774700D02*
X-63100Y686200D01*
X-101600Y647700D01*
X-101600Y635000D01*
X130410Y568090D02*
X130410Y520700D01*
X130410Y568090D02*
X114300Y584200D01*
X114300Y635000D01*
X254000Y355600D02*
X346310Y355600D01*
X254000Y355600D02*
X215900Y393700D01*
X215900Y419100D01*
X-644290Y1248010D02*
X-644290Y1295400D01*
X-644290Y1248010D02*
X-660400Y1231900D01*
X-660400Y1193800D01*
X-568090Y1253890D02*
X-568090Y1295400D01*
X-568090Y1253890D02*
X-533400Y1219200D01*
X-533400Y1193800D01*
X-736600Y1054100D02*
X-736600Y1041400D01*
X-736600Y1054100D02*
X-689210Y1101490D01*
X-689210Y1117600D01*
X-508000Y1066800D02*
X-508000Y1028700D01*
X-508000Y1066800D02*
X-529990Y1088790D01*
X-529990Y1117600D01*
X-723900Y800100D02*
X-723900Y762000D01*
X-723900Y800100D02*
X-673100Y850900D01*
X-673100Y872890D01*
X-676510Y876300D01*
X-571500Y812800D02*
X-571500Y762000D01*
X-571500Y812800D02*
X-584200Y825500D01*
X-584200Y872890D01*
X-580790Y876300D01*
X-800100Y584200D02*
X-800100Y533400D01*
X-800100Y584200D02*
X-771290Y613010D01*
X-771290Y660400D01*
X-558800Y584200D02*
X-558800Y533400D01*
X-558800Y584200D02*
X-596900Y622300D01*
X-596900Y656990D01*
X-593490Y660400D01*
X-778110Y419100D02*
X-778110Y359010D01*
X-749300Y330200D01*
X-749300Y292100D01*
X-571500Y88900D02*
X-542690Y88900D01*
X-571500Y88900D02*
X-647700Y165100D01*
X-647700Y190500D01*
D22*
X-596900Y1143000D02*
X-596900Y1164105D01*
X-596900Y1143000D02*
X-615950Y1123950D01*
X-615950Y1047750D01*
X-584200Y1049805D02*
X-647700Y1049805D01*
X-647700Y994895D02*
X-613895Y994895D01*
X-609600Y990600D01*
X-615950Y984250D01*
X-615950Y819150D01*
X-660400Y774700D01*
X-660400Y685800D01*
X-679450Y666750D01*
X-609600Y410695D02*
X-584200Y410695D01*
X-609600Y410695D02*
X-647700Y410695D01*
X-685800Y410695D01*
X-711200Y410695D01*
X-679450Y520700D02*
X-679450Y666750D01*
X-679450Y520700D02*
X-679450Y417045D01*
X-685800Y410695D01*
X-614934Y285750D02*
X-614934Y273050D01*
X-614934Y285750D02*
X-614934Y298450D01*
X-614934Y311150D01*
X-614934Y316484D01*
X-615950Y317500D01*
X-615950Y404345D01*
X-609600Y410695D01*
X-584200Y410695D02*
X-647700Y410695D01*
X-711200Y410695D01*
X-711200Y512295D02*
X-687855Y512295D01*
X-679450Y520700D01*
D21*
X-553466Y273050D02*
X-523545Y273050D01*
X-517195Y266700D01*
X600310Y1304690D02*
X600310Y1371600D01*
X600310Y1304690D02*
X609600Y1295400D01*
X609600Y1223495D01*
X673100Y1066800D02*
X673100Y1049805D01*
X673100Y1066800D02*
X698500Y1092200D01*
X698500Y1130300D01*
X676510Y1152290D01*
X676510Y1168400D01*
X609600Y1066800D02*
X609600Y1049805D01*
X609600Y1066800D02*
X555390Y1121010D01*
X555390Y1168400D01*
X676510Y901700D02*
X676510Y771290D01*
X723900Y723900D01*
X723900Y677395D01*
X593490Y816210D02*
X593490Y901700D01*
X593490Y816210D02*
X622300Y787400D01*
X622300Y749300D01*
X656105Y673100D02*
X660400Y673100D01*
X660400Y711200D02*
X622300Y749300D01*
X660400Y711200D02*
X660400Y677395D01*
X660400Y673100D01*
X660400Y677395D02*
X656105Y673100D01*
X765410Y647700D02*
X765410Y574910D01*
X723900Y533400D01*
X723900Y516405D01*
X660400Y516405D02*
X660400Y533400D01*
X600310Y593490D01*
X600310Y647700D01*
X736600Y444500D02*
X790810Y444500D01*
X736600Y444500D02*
X723900Y457200D01*
X723900Y474195D01*
X660400Y474195D02*
X618005Y474195D01*
X596900Y495300D01*
X580790Y495300D01*
X723900Y317500D02*
X765410Y317500D01*
X723900Y317500D02*
X711200Y330200D01*
X664695Y330200D01*
X660400Y325905D01*
X-3410Y1667110D02*
X-3410Y1790700D01*
X-3410Y1667110D02*
X38100Y1625600D01*
X38100Y1591795D01*
X38100Y1490195D02*
X55095Y1490195D01*
X63500Y1498600D01*
X63500Y1685690D01*
X60090Y1689100D01*
X117710Y1498600D02*
X117710Y1451210D01*
X76200Y1409700D01*
X76200Y1346200D01*
X59205Y1329205D01*
X38100Y1329205D01*
X-66910Y1587500D02*
X-62615Y1591795D01*
X-25400Y1591795D01*
X-25400Y1490195D02*
X-67795Y1490195D01*
X-76200Y1498600D01*
X-105010Y1498600D01*
X-41510Y1291990D02*
X-41510Y1270000D01*
X-41510Y1291990D02*
X-25400Y1308100D01*
X-25400Y1329205D01*
X50800Y1266590D02*
X54210Y1270000D01*
X50800Y1266590D02*
X50800Y1231900D01*
X42395Y1231900D01*
X38100Y1236195D01*
X41510Y1016000D02*
X41510Y978785D01*
X38100Y982195D01*
X618890Y282810D02*
X618890Y127000D01*
X618890Y282810D02*
X596900Y304800D01*
X596900Y325905D01*
D22*
X609600Y1109195D02*
X609600Y1164105D01*
X609600Y1109195D02*
X635000Y1109195D01*
X673100Y1109195D01*
X641350Y1102845D02*
X635000Y1109195D01*
X641350Y1102845D02*
X641350Y781050D01*
X692150Y730250D01*
X692150Y603250D01*
X685800Y596900D01*
X685800Y414805D02*
X723900Y414805D01*
X685800Y414805D02*
X660400Y414805D01*
X660400Y385295D01*
X596900Y385295D01*
X685800Y414805D02*
X692150Y421155D01*
X692150Y590550D01*
X693420Y591820D01*
X693420Y601980D01*
X692150Y603250D01*
X538734Y336550D02*
X538734Y323850D01*
X538734Y336550D02*
X538734Y349250D01*
X538734Y361950D01*
X562079Y385295D01*
X596900Y385295D01*
X686585Y591820D02*
X693420Y591820D01*
D21*
X457200Y355600D02*
X440995Y355600D01*
X463550Y361950D02*
X477266Y361950D01*
X463550Y361950D02*
X457200Y355600D01*
X-482600Y381000D02*
X-482600Y419100D01*
X-482600Y381000D02*
X-457200Y355600D01*
X-352190Y355600D01*
X-524995Y351305D02*
X-584200Y351305D01*
X-524995Y351305D02*
X-504590Y371710D01*
X-504590Y419100D01*
X-60090Y822090D02*
X-60090Y889000D01*
X-60090Y822090D02*
X-25400Y787400D01*
X-25400Y728195D01*
X66910Y752710D02*
X66910Y774700D01*
X66910Y752710D02*
X50800Y736600D01*
X50800Y728195D01*
X-77905Y633295D02*
X-79610Y635000D01*
X-71205Y626595D02*
X-25400Y626595D01*
X-71205Y626595D02*
X-77905Y633295D01*
X83905Y626595D02*
X92310Y635000D01*
X83905Y626595D02*
X50800Y626595D01*
X127000Y419100D02*
X193910Y419100D01*
X127000Y419100D02*
X88900Y457200D01*
X88900Y508000D01*
X71905Y524995D01*
X50800Y524995D01*
X-127000Y520700D02*
X-127000Y444500D01*
X-152400Y419100D01*
X-181210Y419100D01*
X-29695Y520700D02*
X-25400Y524995D01*
X-29695Y520700D02*
X-105010Y520700D01*
X-622300Y1384300D02*
X-625710Y1387710D01*
X-625710Y1435100D01*
X-600310Y1384300D02*
X-600310Y1226905D01*
X-596900Y1223495D01*
X-638410Y1193800D02*
X-638410Y1108310D01*
X-635000Y1104900D01*
X-643405Y1104900D01*
X-647700Y1109195D01*
X-555390Y1146410D02*
X-555390Y1193800D01*
X-555390Y1146410D02*
X-584200Y1117600D01*
X-584200Y1109195D01*
X-685800Y952500D02*
X-668805Y935505D01*
X-647700Y935505D01*
X-685800Y952500D02*
X-685800Y1028700D01*
X-698500Y1041400D01*
X-714610Y1041400D01*
X-529990Y1028700D02*
X-529990Y968610D01*
X-563095Y935505D01*
X-584200Y935505D01*
X-701910Y762000D02*
X-698500Y758590D01*
X-698500Y685800D01*
X-711200Y673100D01*
X-711200Y613895D01*
X-593490Y714610D02*
X-593490Y762000D01*
X-593490Y714610D02*
X-647700Y660400D01*
X-647700Y647700D01*
X-647700Y613895D01*
X-762000Y533400D02*
X-778110Y533400D01*
X-762000Y533400D02*
X-749300Y520700D01*
X-749300Y495300D01*
X-723900Y469900D01*
X-723900Y457200D01*
X-719605Y452905D01*
X-711200Y452905D01*
X-647700Y452905D02*
X-601195Y452905D01*
X-580790Y473310D01*
X-580790Y533400D01*
X-723900Y295510D02*
X-727310Y292100D01*
X-723900Y295510D02*
X-723900Y355600D01*
X-719605Y351305D02*
X-711200Y351305D01*
X-719605Y351305D02*
X-723900Y355600D01*
X-669690Y308210D02*
X-669690Y190500D01*
X-669690Y308210D02*
X-647700Y330200D01*
X-647700Y351305D01*
X-498805Y266700D02*
X-482600Y266700D01*
X-469900Y279400D01*
D20*
X-469900Y279400D03*
X190500Y114300D03*
D21*
X190500Y152400D01*
D20*
X190500Y152400D03*
D21*
X406400Y355600D02*
X422605Y355600D01*
D20*
X406400Y355600D03*
X63500Y266700D03*
D21*
X63500Y279400D01*
X76200Y292100D01*
D20*
X76200Y292100D03*
D21*
X101600Y377495D02*
X98095Y381000D01*
X101600Y377495D02*
X101600Y355600D01*
D20*
X101600Y355600D03*
M02*
