G04 EAGLE Gerber RS-274X export*
G75*
%MOMM*%
%FSLAX34Y34*%
%LPD*%
%INSolderpaste Bottom*%
%IPPOS*%
%AMOC8*
5,1,8,0,0,1.08239X$1,22.5*%
G01*
G04 Define Apertures*
%ADD10R,7.620000X1.270000*%
%ADD11R,1.100000X2.380000*%
%ADD12R,2.330000X2.380000*%
%ADD13R,3.370200X1.231200*%
%ADD14R,2.032000X0.660400*%
%ADD15R,1.031200X1.420200*%
D10*
X379730Y-363220D03*
X379730Y-322580D03*
D11*
X660400Y1460500D03*
D12*
X638410Y1460500D03*
D13*
X609600Y1223495D03*
X609600Y1164105D03*
D11*
X622300Y1371600D03*
D12*
X600310Y1371600D03*
D11*
X673100Y1270000D03*
D12*
X651110Y1270000D03*
D13*
X673100Y1049805D03*
X673100Y1109195D03*
D11*
X698500Y1168400D03*
D12*
X676510Y1168400D03*
D11*
X558800Y1270000D03*
D12*
X580790Y1270000D03*
D13*
X609600Y1049805D03*
X609600Y1109195D03*
D11*
X533400Y1168400D03*
D12*
X555390Y1168400D03*
D11*
X787400Y1028700D03*
D12*
X765410Y1028700D03*
D13*
X723900Y677395D03*
X723900Y618005D03*
D11*
X698500Y901700D03*
D12*
X676510Y901700D03*
D11*
X533400Y1028700D03*
D12*
X555390Y1028700D03*
D13*
X660400Y677395D03*
X660400Y618005D03*
D11*
X571500Y901700D03*
D12*
X593490Y901700D03*
D11*
X736600Y774700D03*
D12*
X714610Y774700D03*
D13*
X723900Y516405D03*
X723900Y575795D03*
D11*
X787400Y647700D03*
D12*
X765410Y647700D03*
D11*
X609600Y762000D03*
D12*
X587610Y762000D03*
D13*
X660400Y516405D03*
X660400Y575795D03*
D11*
X622300Y647700D03*
D12*
X600310Y647700D03*
D11*
X812800Y546100D03*
D12*
X790810Y546100D03*
D13*
X723900Y474195D03*
X723900Y414805D03*
D11*
X812800Y444500D03*
D12*
X790810Y444500D03*
D11*
X508000Y444500D03*
D12*
X529990Y444500D03*
D13*
X660400Y474195D03*
X660400Y414805D03*
D11*
X558800Y495300D03*
D12*
X580790Y495300D03*
D11*
X711200Y203200D03*
D12*
X689210Y203200D03*
D13*
X660400Y325905D03*
X660400Y385295D03*
D11*
X787400Y317500D03*
D12*
X765410Y317500D03*
D11*
X-203200Y419100D03*
D12*
X-181210Y419100D03*
D13*
X-25400Y524995D03*
X-25400Y465605D03*
D11*
X-127000Y520700D03*
D12*
X-105010Y520700D03*
D11*
X457200Y50800D03*
D12*
X479190Y50800D03*
D13*
X596900Y325905D03*
X596900Y385295D03*
D11*
X596900Y127000D03*
D12*
X618890Y127000D03*
D11*
X25400Y1905000D03*
D12*
X3410Y1905000D03*
D13*
X38100Y1591795D03*
X38100Y1532405D03*
D11*
X-25400Y1790700D03*
D12*
X-3410Y1790700D03*
D11*
X50800Y1790700D03*
D12*
X28810Y1790700D03*
D13*
X38100Y1490195D03*
X38100Y1430805D03*
D11*
X38100Y1689100D03*
D12*
X60090Y1689100D03*
D11*
X114300Y1587500D03*
D12*
X92310Y1587500D03*
D13*
X38100Y1329205D03*
X38100Y1388595D03*
D11*
X139700Y1498600D03*
D12*
X117710Y1498600D03*
D11*
X-63500Y1689100D03*
D12*
X-41510Y1689100D03*
D13*
X-25400Y1591795D03*
X-25400Y1532405D03*
D11*
X-88900Y1587500D03*
D12*
X-66910Y1587500D03*
D11*
X-177800Y1409700D03*
D12*
X-155810Y1409700D03*
D13*
X-25400Y1490195D03*
X-25400Y1430805D03*
D11*
X-127000Y1498600D03*
D12*
X-105010Y1498600D03*
D11*
X-63500Y1143000D03*
D12*
X-41510Y1143000D03*
D13*
X-25400Y1329205D03*
X-25400Y1388595D03*
D11*
X-63500Y1270000D03*
D12*
X-41510Y1270000D03*
D11*
X190500Y1409700D03*
D12*
X168510Y1409700D03*
D13*
X38100Y1236195D03*
X38100Y1176805D03*
D11*
X76200Y1270000D03*
D12*
X54210Y1270000D03*
D11*
X63500Y1143000D03*
D12*
X41510Y1143000D03*
D13*
X38100Y982195D03*
X38100Y922805D03*
D11*
X63500Y1016000D03*
D12*
X41510Y1016000D03*
D14*
X43434Y425450D03*
X-18034Y425450D03*
X43434Y412750D03*
X43434Y400050D03*
X-18034Y412750D03*
X-18034Y400050D03*
X43434Y387350D03*
X-18034Y387350D03*
D15*
X98095Y381000D03*
X79705Y381000D03*
D11*
X-63500Y1016000D03*
D12*
X-41510Y1016000D03*
D13*
X-25400Y728195D03*
X-25400Y668805D03*
D11*
X-38100Y889000D03*
D12*
X-60090Y889000D03*
D11*
X76200Y889000D03*
D12*
X54210Y889000D03*
D13*
X50800Y728195D03*
X50800Y668805D03*
D11*
X88900Y774700D03*
D12*
X66910Y774700D03*
D11*
X-85090Y774700D03*
D12*
X-63100Y774700D03*
D13*
X-25400Y626595D03*
X-25400Y567205D03*
D11*
X-101600Y635000D03*
D12*
X-79610Y635000D03*
D11*
X152400Y520700D03*
D12*
X130410Y520700D03*
D13*
X50800Y626595D03*
X50800Y567205D03*
D11*
X114300Y635000D03*
D12*
X92310Y635000D03*
D11*
X368300Y355600D03*
D12*
X346310Y355600D03*
D13*
X50800Y524995D03*
X50800Y465605D03*
D11*
X215900Y419100D03*
D12*
X193910Y419100D03*
D11*
X-647700Y1435100D03*
D12*
X-625710Y1435100D03*
D13*
X-596900Y1223495D03*
X-596900Y1164105D03*
D11*
X-622300Y1384300D03*
D12*
X-600310Y1384300D03*
D11*
X-622300Y1295400D03*
D12*
X-644290Y1295400D03*
D13*
X-647700Y1109195D03*
X-647700Y1049805D03*
D11*
X-660400Y1193800D03*
D12*
X-638410Y1193800D03*
D11*
X-546100Y1295400D03*
D12*
X-568090Y1295400D03*
D13*
X-584200Y1109195D03*
X-584200Y1049805D03*
D11*
X-533400Y1193800D03*
D12*
X-555390Y1193800D03*
D11*
X-711200Y1117600D03*
D12*
X-689210Y1117600D03*
D13*
X-647700Y935505D03*
X-647700Y994895D03*
D11*
X-736600Y1041400D03*
D12*
X-714610Y1041400D03*
D11*
X-508000Y1117600D03*
D12*
X-529990Y1117600D03*
D13*
X-584200Y935505D03*
X-584200Y994895D03*
D11*
X-508000Y1028700D03*
D12*
X-529990Y1028700D03*
D11*
X-698500Y876300D03*
D12*
X-676510Y876300D03*
D13*
X-711200Y613895D03*
X-711200Y554505D03*
D11*
X-723900Y762000D03*
D12*
X-701910Y762000D03*
D11*
X-558800Y876300D03*
D12*
X-580790Y876300D03*
D13*
X-647700Y613895D03*
X-647700Y554505D03*
D11*
X-571500Y762000D03*
D12*
X-593490Y762000D03*
D11*
X-749300Y660400D03*
D12*
X-771290Y660400D03*
D13*
X-711200Y452905D03*
X-711200Y512295D03*
D11*
X-800100Y533400D03*
D12*
X-778110Y533400D03*
D11*
X-571500Y660400D03*
D12*
X-593490Y660400D03*
D13*
X-647700Y452905D03*
X-647700Y512295D03*
D11*
X-558800Y533400D03*
D12*
X-580790Y533400D03*
D11*
X-800100Y419100D03*
D12*
X-778110Y419100D03*
D13*
X-711200Y351305D03*
X-711200Y410695D03*
D11*
X-749300Y292100D03*
D12*
X-727310Y292100D03*
D11*
X-520700Y88900D03*
D12*
X-542690Y88900D03*
D13*
X-647700Y351305D03*
X-647700Y410695D03*
D11*
X-647700Y190500D03*
D12*
X-669690Y190500D03*
D14*
X-553466Y311150D03*
X-614934Y311150D03*
X-553466Y298450D03*
X-553466Y285750D03*
X-614934Y298450D03*
X-614934Y285750D03*
X-553466Y273050D03*
X-614934Y273050D03*
D15*
X-498805Y266700D03*
X-517195Y266700D03*
D14*
X477266Y323850D03*
X538734Y323850D03*
X477266Y336550D03*
X477266Y349250D03*
X538734Y336550D03*
X538734Y349250D03*
X477266Y361950D03*
X538734Y361950D03*
D15*
X422605Y355600D03*
X440995Y355600D03*
D11*
X-330200Y355600D03*
D12*
X-352190Y355600D03*
D13*
X-584200Y351305D03*
X-584200Y410695D03*
D11*
X-482600Y419100D03*
D12*
X-504590Y419100D03*
M02*
