G04 EAGLE Gerber RS-274X export*
G75*
%MOMM*%
%FSLAX34Y34*%
%LPD*%
%INSoldermask Bottom*%
%IPPOS*%
%AMOC8*
5,1,8,0,0,1.08239X$1,22.5*%
G01*
G04 Define Apertures*
%ADD10C,2.082800*%
%ADD11R,7.823200X1.473200*%
%ADD12C,2.153200*%
%ADD13C,2.453200*%
%ADD14C,2.003200*%
%ADD15R,1.303200X2.583200*%
%ADD16R,2.533200X2.583200*%
%ADD17R,3.573400X1.434400*%
%ADD18R,2.235200X0.863600*%
%ADD19R,1.234400X1.623400*%
%ADD20C,0.959600*%
%ADD21C,5.719200*%
%ADD22C,10.203200*%
%ADD23C,4.519200*%
D10*
X163830Y241300D03*
X138430Y241300D03*
X166370Y266700D03*
X140970Y266700D03*
X163830Y292100D03*
X138430Y292100D03*
D11*
X379730Y-363220D03*
X379730Y-322580D03*
D12*
X-368300Y-165100D03*
X-368300Y-190500D03*
X-368300Y-215900D03*
X-368300Y-368300D03*
X-368300Y-393700D03*
X-368300Y-419100D03*
X-317500Y-165100D03*
X-317500Y-190500D03*
X-317500Y-215900D03*
X-368300Y-266700D03*
X-368300Y-292100D03*
X-368300Y-317500D03*
X-215900Y-469900D03*
X-190500Y-469900D03*
D13*
X-279400Y-265100D03*
X-228600Y-265100D03*
X-152400Y-265100D03*
X-152400Y-468300D03*
X-254000Y-468300D03*
X-355600Y-468300D03*
D12*
X-317500Y-266700D03*
X-317500Y-292100D03*
X-317500Y-317500D03*
X-368300Y-63500D03*
X-368300Y-88900D03*
X-368300Y-114300D03*
X-317500Y-63500D03*
X-317500Y-88900D03*
X-317500Y-114300D03*
X-317500Y-368300D03*
X-317500Y-393700D03*
X-317500Y-419100D03*
D14*
X362500Y-170200D02*
X380500Y-170200D01*
X380500Y-83800D02*
X362500Y-83800D01*
X400500Y-170200D02*
X418500Y-170200D01*
X418500Y-83800D02*
X400500Y-83800D01*
D15*
X660400Y1460500D03*
D16*
X638410Y1460500D03*
D17*
X609600Y1223495D03*
X609600Y1164105D03*
D15*
X622300Y1371600D03*
D16*
X600310Y1371600D03*
D15*
X673100Y1270000D03*
D16*
X651110Y1270000D03*
D17*
X673100Y1049805D03*
X673100Y1109195D03*
D15*
X698500Y1168400D03*
D16*
X676510Y1168400D03*
D15*
X558800Y1270000D03*
D16*
X580790Y1270000D03*
D17*
X609600Y1049805D03*
X609600Y1109195D03*
D15*
X533400Y1168400D03*
D16*
X555390Y1168400D03*
D15*
X787400Y1028700D03*
D16*
X765410Y1028700D03*
D17*
X723900Y677395D03*
X723900Y618005D03*
D15*
X698500Y901700D03*
D16*
X676510Y901700D03*
D15*
X533400Y1028700D03*
D16*
X555390Y1028700D03*
D17*
X660400Y677395D03*
X660400Y618005D03*
D15*
X571500Y901700D03*
D16*
X593490Y901700D03*
D15*
X736600Y774700D03*
D16*
X714610Y774700D03*
D17*
X723900Y516405D03*
X723900Y575795D03*
D15*
X787400Y647700D03*
D16*
X765410Y647700D03*
D15*
X609600Y762000D03*
D16*
X587610Y762000D03*
D17*
X660400Y516405D03*
X660400Y575795D03*
D15*
X622300Y647700D03*
D16*
X600310Y647700D03*
D15*
X812800Y546100D03*
D16*
X790810Y546100D03*
D17*
X723900Y474195D03*
X723900Y414805D03*
D15*
X812800Y444500D03*
D16*
X790810Y444500D03*
D15*
X508000Y444500D03*
D16*
X529990Y444500D03*
D17*
X660400Y474195D03*
X660400Y414805D03*
D15*
X558800Y495300D03*
D16*
X580790Y495300D03*
D15*
X711200Y203200D03*
D16*
X689210Y203200D03*
D17*
X660400Y325905D03*
X660400Y385295D03*
D15*
X787400Y317500D03*
D16*
X765410Y317500D03*
D15*
X-203200Y419100D03*
D16*
X-181210Y419100D03*
D17*
X-25400Y524995D03*
X-25400Y465605D03*
D15*
X-127000Y520700D03*
D16*
X-105010Y520700D03*
D15*
X457200Y50800D03*
D16*
X479190Y50800D03*
D17*
X596900Y325905D03*
X596900Y385295D03*
D15*
X596900Y127000D03*
D16*
X618890Y127000D03*
D15*
X25400Y1905000D03*
D16*
X3410Y1905000D03*
D17*
X38100Y1591795D03*
X38100Y1532405D03*
D15*
X-25400Y1790700D03*
D16*
X-3410Y1790700D03*
D15*
X50800Y1790700D03*
D16*
X28810Y1790700D03*
D17*
X38100Y1490195D03*
X38100Y1430805D03*
D15*
X38100Y1689100D03*
D16*
X60090Y1689100D03*
D15*
X114300Y1587500D03*
D16*
X92310Y1587500D03*
D17*
X38100Y1329205D03*
X38100Y1388595D03*
D15*
X139700Y1498600D03*
D16*
X117710Y1498600D03*
D15*
X-63500Y1689100D03*
D16*
X-41510Y1689100D03*
D17*
X-25400Y1591795D03*
X-25400Y1532405D03*
D15*
X-88900Y1587500D03*
D16*
X-66910Y1587500D03*
D15*
X-177800Y1409700D03*
D16*
X-155810Y1409700D03*
D17*
X-25400Y1490195D03*
X-25400Y1430805D03*
D15*
X-127000Y1498600D03*
D16*
X-105010Y1498600D03*
D15*
X-63500Y1143000D03*
D16*
X-41510Y1143000D03*
D17*
X-25400Y1329205D03*
X-25400Y1388595D03*
D15*
X-63500Y1270000D03*
D16*
X-41510Y1270000D03*
D15*
X190500Y1409700D03*
D16*
X168510Y1409700D03*
D17*
X38100Y1236195D03*
X38100Y1176805D03*
D15*
X76200Y1270000D03*
D16*
X54210Y1270000D03*
D15*
X63500Y1143000D03*
D16*
X41510Y1143000D03*
D17*
X38100Y982195D03*
X38100Y922805D03*
D15*
X63500Y1016000D03*
D16*
X41510Y1016000D03*
D18*
X43434Y425450D03*
X-18034Y425450D03*
X43434Y412750D03*
X43434Y400050D03*
X-18034Y412750D03*
X-18034Y400050D03*
X43434Y387350D03*
X-18034Y387350D03*
D19*
X98095Y381000D03*
X79705Y381000D03*
D15*
X-63500Y1016000D03*
D16*
X-41510Y1016000D03*
D17*
X-25400Y728195D03*
X-25400Y668805D03*
D15*
X-38100Y889000D03*
D16*
X-60090Y889000D03*
D15*
X76200Y889000D03*
D16*
X54210Y889000D03*
D17*
X50800Y728195D03*
X50800Y668805D03*
D15*
X88900Y774700D03*
D16*
X66910Y774700D03*
D15*
X-85090Y774700D03*
D16*
X-63100Y774700D03*
D17*
X-25400Y626595D03*
X-25400Y567205D03*
D15*
X-101600Y635000D03*
D16*
X-79610Y635000D03*
D15*
X152400Y520700D03*
D16*
X130410Y520700D03*
D17*
X50800Y626595D03*
X50800Y567205D03*
D15*
X114300Y635000D03*
D16*
X92310Y635000D03*
D15*
X368300Y355600D03*
D16*
X346310Y355600D03*
D17*
X50800Y524995D03*
X50800Y465605D03*
D15*
X215900Y419100D03*
D16*
X193910Y419100D03*
D15*
X-647700Y1435100D03*
D16*
X-625710Y1435100D03*
D17*
X-596900Y1223495D03*
X-596900Y1164105D03*
D15*
X-622300Y1384300D03*
D16*
X-600310Y1384300D03*
D15*
X-622300Y1295400D03*
D16*
X-644290Y1295400D03*
D17*
X-647700Y1109195D03*
X-647700Y1049805D03*
D15*
X-660400Y1193800D03*
D16*
X-638410Y1193800D03*
D15*
X-546100Y1295400D03*
D16*
X-568090Y1295400D03*
D17*
X-584200Y1109195D03*
X-584200Y1049805D03*
D15*
X-533400Y1193800D03*
D16*
X-555390Y1193800D03*
D15*
X-711200Y1117600D03*
D16*
X-689210Y1117600D03*
D17*
X-647700Y935505D03*
X-647700Y994895D03*
D15*
X-736600Y1041400D03*
D16*
X-714610Y1041400D03*
D15*
X-508000Y1117600D03*
D16*
X-529990Y1117600D03*
D17*
X-584200Y935505D03*
X-584200Y994895D03*
D15*
X-508000Y1028700D03*
D16*
X-529990Y1028700D03*
D15*
X-698500Y876300D03*
D16*
X-676510Y876300D03*
D17*
X-711200Y613895D03*
X-711200Y554505D03*
D15*
X-723900Y762000D03*
D16*
X-701910Y762000D03*
D15*
X-558800Y876300D03*
D16*
X-580790Y876300D03*
D17*
X-647700Y613895D03*
X-647700Y554505D03*
D15*
X-571500Y762000D03*
D16*
X-593490Y762000D03*
D15*
X-749300Y660400D03*
D16*
X-771290Y660400D03*
D17*
X-711200Y452905D03*
X-711200Y512295D03*
D15*
X-800100Y533400D03*
D16*
X-778110Y533400D03*
D15*
X-571500Y660400D03*
D16*
X-593490Y660400D03*
D17*
X-647700Y452905D03*
X-647700Y512295D03*
D15*
X-558800Y533400D03*
D16*
X-580790Y533400D03*
D15*
X-800100Y419100D03*
D16*
X-778110Y419100D03*
D17*
X-711200Y351305D03*
X-711200Y410695D03*
D15*
X-749300Y292100D03*
D16*
X-727310Y292100D03*
D15*
X-520700Y88900D03*
D16*
X-542690Y88900D03*
D17*
X-647700Y351305D03*
X-647700Y410695D03*
D15*
X-647700Y190500D03*
D16*
X-669690Y190500D03*
D18*
X-553466Y311150D03*
X-614934Y311150D03*
X-553466Y298450D03*
X-553466Y285750D03*
X-614934Y298450D03*
X-614934Y285750D03*
X-553466Y273050D03*
X-614934Y273050D03*
D19*
X-498805Y266700D03*
X-517195Y266700D03*
D18*
X477266Y323850D03*
X538734Y323850D03*
X477266Y336550D03*
X477266Y349250D03*
X538734Y336550D03*
X538734Y349250D03*
X477266Y361950D03*
X538734Y361950D03*
D19*
X422605Y355600D03*
X440995Y355600D03*
D15*
X-330200Y355600D03*
D16*
X-352190Y355600D03*
D17*
X-584200Y351305D03*
X-584200Y410695D03*
D15*
X-482600Y419100D03*
D16*
X-504590Y419100D03*
D20*
X-50800Y342900D03*
X101600Y317500D03*
X165100Y101600D03*
X355600Y-25400D03*
X152400Y177800D03*
X101600Y165100D03*
X63500Y88900D03*
X-63500Y63500D03*
X-12700Y101600D03*
X25400Y330200D03*
X-25400Y215900D03*
X25400Y215900D03*
X-127000Y215900D03*
X508000Y304800D03*
X38100Y355600D03*
X-50800Y279400D03*
X469900Y304800D03*
X495300Y304800D03*
X482600Y304800D03*
X-584200Y292100D03*
X-584200Y266700D03*
X-546100Y254000D03*
X-584200Y254000D03*
X-584200Y279400D03*
X-571500Y254000D03*
X-558800Y254000D03*
X25400Y355600D03*
X12700Y355600D03*
X50800Y355600D03*
X12700Y177800D03*
X-114300Y139700D03*
X50800Y203200D03*
X100330Y203200D03*
X-76200Y241300D03*
X-76200Y215900D03*
X-76200Y317500D03*
X-152400Y228600D03*
X-152400Y76200D03*
X292100Y-330200D03*
X317500Y-330200D03*
X-165100Y228600D03*
X-165100Y76200D03*
X292100Y-342900D03*
X292100Y88900D03*
X266700Y88900D03*
X-139700Y-355600D03*
X-292100Y-381000D03*
X-215900Y114300D03*
X-215900Y88900D03*
X-215900Y63500D03*
X-215900Y38100D03*
X-241300Y38100D03*
X-241300Y63500D03*
X-241300Y88900D03*
X-266700Y88900D03*
X-266700Y63500D03*
X-266700Y38100D03*
X-368300Y38100D03*
X-393700Y38100D03*
X-419100Y38100D03*
X-419100Y63500D03*
X-393700Y63500D03*
X-368300Y63500D03*
X-368300Y88900D03*
X-393700Y88900D03*
X-419100Y88900D03*
X-368300Y114300D03*
X-393700Y114300D03*
X-419100Y114300D03*
X-444500Y114300D03*
X-444500Y88900D03*
X-444500Y63500D03*
X-444500Y38100D03*
X-368300Y139700D03*
X-393700Y139700D03*
X-419100Y139700D03*
X-444500Y139700D03*
X406400Y127000D03*
X406400Y101600D03*
X381000Y127000D03*
X355600Y127000D03*
X330200Y127000D03*
X330200Y101600D03*
X355600Y101600D03*
X381000Y101600D03*
X381000Y76200D03*
X355600Y76200D03*
X330200Y76200D03*
X330200Y50800D03*
X355600Y50800D03*
X330200Y25400D03*
X139700Y-38100D03*
X139700Y-12700D03*
X139700Y12700D03*
X165100Y12700D03*
X165100Y-12700D03*
X165100Y-38100D03*
X190500Y-38100D03*
X190500Y-12700D03*
X190500Y12700D03*
X215900Y-12700D03*
X215900Y-38100D03*
X-520700Y482600D03*
X-571500Y622300D03*
X-571500Y723900D03*
X-558800Y838200D03*
X-546100Y927100D03*
X-546100Y1079500D03*
X-520700Y1168400D03*
X-533400Y1257300D03*
X-571500Y1346200D03*
X-596900Y1422400D03*
X-647700Y1384300D03*
X-685800Y1155700D03*
X-774700Y1028700D03*
X-685800Y927100D03*
X-685800Y800100D03*
X-723900Y660400D03*
X-787400Y622300D03*
X-749300Y393700D03*
X-419100Y381000D03*
X-177800Y381000D03*
X-152400Y482600D03*
X-101600Y584200D03*
X-88900Y723900D03*
X-76200Y838200D03*
X-63500Y965200D03*
X-50800Y1092200D03*
X-101600Y1333500D03*
X-139700Y1384300D03*
X-101600Y1549400D03*
X-76200Y1663700D03*
X-38100Y1752600D03*
X12700Y1955800D03*
X63500Y1765300D03*
X88900Y1638300D03*
X152400Y1460500D03*
X101600Y1295400D03*
X38100Y1308100D03*
X76200Y1206500D03*
X76200Y1092200D03*
X76200Y965200D03*
X88900Y825500D03*
X101600Y723900D03*
X127000Y596900D03*
X165100Y495300D03*
X152400Y457200D03*
X292100Y381000D03*
X444500Y393700D03*
X584200Y444500D03*
X571500Y558800D03*
X622300Y711200D03*
X571500Y863600D03*
X533400Y990600D03*
X533400Y1117600D03*
X546100Y1244600D03*
X571500Y1206500D03*
X584200Y1333500D03*
X609600Y1422400D03*
X660400Y1511300D03*
X660400Y1397000D03*
X685800Y1244600D03*
X647700Y1206500D03*
X723900Y1130300D03*
X762000Y1066800D03*
X812800Y1016000D03*
X685800Y1016000D03*
X711200Y863600D03*
X762000Y736600D03*
X800100Y609600D03*
X774700Y495300D03*
X723900Y381000D03*
X685800Y177800D03*
X-139700Y-368300D03*
D21*
X0Y-180000D03*
X0Y-450000D03*
D22*
X60000Y-370000D03*
X60000Y-100000D03*
D23*
X-630000Y1340000D03*
X30000Y1850000D03*
X640000Y1330000D03*
X800000Y390000D03*
X490000Y230000D03*
X-450000Y230000D03*
X-730000Y710000D03*
X-780000Y470000D03*
X110000Y1372700D03*
X-90000Y420000D03*
D20*
X-469900Y279400D03*
X190500Y114300D03*
X190500Y152400D03*
X406400Y355600D03*
X63500Y266700D03*
X76200Y292100D03*
X101600Y355600D03*
M02*
