M48
;GenerationSoftware,Autodesk,EAGLE,9.7.0*%
;CreationDate,2026-05-17T01:12:20Z*%
FMAT,2
ICI,OFF
METRIC,TZ,000.000
T8C0.350
T7C1.016
T6C1.200
T5C1.300
T4C1.500
T3C3.300
T2C4.500
T1C8.500
%
G90
M71
T1
X6000Y-37000
X6000Y-10000
T2
X0Y-18000
X0Y-45000
T3
X64000Y133000
X-63000Y134000
X3000Y185000
X-9000Y42000
X80000Y39000
X49000Y23000
X-45000Y23000
X-73000Y71000
X-78000Y47000
X11000Y137270
T4
X-27940Y-26510
X-22860Y-26510
X-35560Y-46830
X-25400Y-46830
X-15240Y-46830
X-15240Y-26510
T5
X-31750Y-16510
X-31750Y-41910
X-36830Y-19050
X-36830Y-21590
X-36830Y-36830
X-36830Y-39370
X-36830Y-41910
X-31750Y-19050
X-36830Y-16510
X-36830Y-26670
X-36830Y-29210
X-36830Y-31750
X-21590Y-46990
X-19050Y-46990
X-31750Y-21590
X-31750Y-26670
X-31750Y-29210
X-31750Y-31750
X-36830Y-6350
X-36830Y-8890
X-36830Y-11430
X-31750Y-6350
X-31750Y-8890
X-31750Y-11430
X-31750Y-36830
X-31750Y-39370
T6
X37150Y-17020
X37150Y-8380
X40950Y-17020
X40950Y-8380
T7
X16383Y24130
X14097Y26670
X16637Y26670
X13843Y24130
X13843Y29210
X16383Y29210
T8
X-26670Y3810
X-36830Y3810
X-39370Y3810
X-41910Y3810
X-41910Y6350
X-39370Y6350
X-36830Y6350
X-36830Y8890
X-39370Y8890
X-41910Y8890
X-36830Y11430
X-39370Y11430
X-41910Y11430
X-44450Y11430
X-44450Y8890
X-44450Y6350
X-44450Y3810
X-36830Y13970
X-39370Y13970
X-41910Y13970
X-44450Y13970
X40640Y12700
X40640Y10160
X38100Y12700
X35560Y12700
X33020Y12700
X33020Y10160
X35560Y10160
X38100Y10160
X38100Y7620
X35560Y7620
X33020Y7620
X33020Y5080
X35560Y5080
X33020Y2540
X13970Y-3810
X13970Y-1270
X13970Y1270
X16510Y1270
X16510Y-1270
X16510Y-3810
X19050Y-3810
X19050Y-1270
X19050Y1270
X21590Y-1270
X21590Y-3810
X-52070Y48260
X-57150Y62230
X-57150Y72390
X-55880Y83820
X-54610Y92710
X-54610Y107950
X-52070Y116840
X-53340Y125730
X-57150Y134620
X-59690Y142240
X-64770Y138430
X-68580Y115570
X-77470Y102870
X-68580Y92710
X-68580Y80010
X-72390Y66040
X1270Y17780
X-74930Y39370
X-41910Y38100
X-17780Y38100
X-15240Y48260
X-10160Y58420
X-8890Y72390
X-7620Y83820
X-6350Y96520
X-5080Y109220
X-10160Y133350
X-13970Y138430
X-10160Y154940
X-7620Y166370
X-3810Y175260
X1270Y195580
X6350Y176530
X8890Y163830
X15240Y146050
X10160Y129540
X3810Y130810
X7620Y120650
X7620Y109220
X7620Y96520
X8890Y82550
X10160Y72390
X12700Y59690
X16510Y49530
X15240Y45720
X29210Y38100
X44450Y39370
X58420Y44450
X57150Y55880
X62230Y71120
X57150Y86360
X53340Y99060
X53340Y111760
X54610Y124460
X57150Y120650
X58420Y133350
X60960Y142240
X66040Y151130
X66040Y139700
X68580Y124460
X64770Y120650
X72390Y113030
X76200Y106680
X81280Y101600
X68580Y101600
X71120Y86360
X76200Y73660
X80010Y60960
X77470Y49530
X72390Y38100
X68580Y17780
X-13970Y-36830
X-5080Y34290
X10160Y31750
X16510Y10160
X35560Y-2540
X15240Y17780
X10160Y16510
X6350Y8890
X-6350Y6350
X-1270Y10160
X2540Y33020
X-2540Y21590
X2540Y21590
X-12700Y21590
X50800Y30480
X-46990Y27940
X19050Y11430
X19050Y15240
X40640Y35560
X6350Y26670
X7620Y29210
X10160Y35560
X3810Y35560
X-5080Y27940
X46990Y30480
X49530Y30480
X48260Y30480
X-58420Y29210
X-58420Y26670
X-54610Y25400
X-58420Y25400
X-58420Y27940
X-57150Y25400
X-55880Y25400
X-78740Y62230
X2540Y35560
X1270Y35560
X5080Y35560
X-11430Y13970
X5080Y20320
X10033Y20320
X-7620Y24130
X-7620Y21590
X-7620Y31750
X-15240Y22860
X-15240Y7620
X29210Y-33020
X31750Y-33020
X-16510Y22860
X-16510Y7620
X29210Y-34290
X29210Y8890
X26670Y8890
X-13970Y-35560
X-29210Y-38100
X-21590Y11430
X-21590Y8890
X-21590Y6350
X-21590Y3810
X-24130Y3810
X-24130Y6350
X-24130Y8890
X-26670Y8890
X-26670Y6350
M30